<svg id="Capa_1" enable-background="new 0 0 512 512" height="512" viewBox="0 0 512 512" width="512" xmlns="http://www.w3.org/2000/svg"><g><g><path d="m290.953 287.072c0-80.605-81.176-150.865-124.013-252.209-5.888 0-11.775 3.036-14.904 9.107-53.674 104.17-124.543 164.795-124.543 248.668 0 33.414 11.757 64.078 31.353 88.094 28.218 28.218 63.638 40.353 98.094 40.353 79.416 0 134.013-60 134.013-134.013z" fill="#e6989e"/><path d="m181.844 43.969c-3.128-6.071-9.016-9.107-14.904-9.107 29.268 95.415 109.961 169.094 109.961 247.262 0 71.775-52.946 129.961-129.961 129.961-33.414 0-64.078-11.757-88.094-31.353 25.571 31.338 64.493 51.353 108.094 51.353 77.014 0 139.447-62.432 139.447-139.447 0-83.873-70.869-144.498-124.543-248.669z" fill="#df646e"/><path d="m218.813 378.849c-2.592 0-5.113-1.345-6.502-3.751l-7.674-13.292h-58.074l-7.674 13.292c-2.232 3.864-7.383 4.993-11.058 2.205-3.039-2.306-3.714-6.619-1.807-9.923l4.204-7.282 4.906-13.478-24.599-42.607h-21.032c-4.107 0-7.688-3.164-7.811-7.269-.128-4.247 3.278-7.731 7.497-7.731l10.91-7.686 29.037-50.293-2.303-3.989h-13.485c-4.107 0-7.688-3.164-7.811-7.269-.128-4.247 3.278-7.731 7.497-7.731l9.46-8 19.633 19.489h58.734l33.367 57.793 19.125 7.686h8.346c4.107 0 7.688 3.164 7.811 7.269.128 4.247-3.278 7.731-7.497 7.731h-15.348l-29.037 50.293 7.565 13.102c1.906 3.301 1.208 7.601-1.831 9.9-1.387 1.049-2.981 1.541-4.549 1.541zm-76.687-39.729h58.074l29.037-50.293-17.542-42.607h-65.131l-32.565 56.405z" fill="#df646e"/><path d="m474.69 473.95-138.832-224.483c-5.793 1.188-11.178 4.692-14.548 10.529l-122.124 211.526c-2.424 4.198-3.279 8.695-2.877 12.978l266.516 10c10.547 0 17.138-11.417 11.865-20.55z" fill="#ffe07d"/><path d="m481.515 471.522-122.125-211.525c-5.092-8.82-14.779-12.324-23.532-10.529l116.656 202.055c8.462 14.657-2.116 32.978-19.04 32.978h-237.165c1.001 10.67 9.84 20 21.917 20h244.248c16.925-.001 27.503-18.322 19.041-32.979z" fill="#ffc250"/></g><g><path d="m68.98 176.892c3.482 2.239 8.124 1.232 10.365-2.252 6.356-9.886 13.051-19.865 20.139-30.431 18.878-28.141 40.275-60.036 59.22-96.804 1.627-3.157 4.706-5.042 8.237-5.042 3.53 0 6.609 1.885 8.236 5.042 18.944 36.768 40.341 68.662 59.219 96.802 24.091 35.912 44.897 66.926 56.055 99.649 1.063 3.119 3.977 5.082 7.098 5.082.802 0 1.619-.13 2.421-.403 3.92-1.337 6.015-5.599 4.678-9.519-11.796-34.596-33.113-66.371-57.796-103.165-19.563-29.162-39.792-59.317-58.341-95.315-4.186-8.125-12.452-13.172-21.57-13.172-9.119 0-17.385 5.047-21.571 13.172-18.549 36-38.779 66.155-58.343 95.317-7.13 10.628-13.864 20.667-20.299 30.675-2.241 3.483-1.232 8.124 2.252 10.364z"/><path d="m253.351 289.013c4.142 0 7.5-3.358 7.5-7.5s-3.358-7.5-7.5-7.5h-15.348l-31.202-54.043c-1.34-2.32-3.815-3.75-6.495-3.75h-62.404l-8.905-15.425c-1.34-2.32-3.815-3.75-6.495-3.75h-18.13c-4.142 0-7.5 3.358-7.5 7.5s3.358 7.5 7.5 7.5h13.8l6.74 11.675-29.037 50.293h-15.346c-4.142 0-7.5 3.358-7.5 7.5s3.358 7.5 7.5 7.5h15.348l29.037 50.293-7.674 13.292c-2.071 3.587-.842 8.174 2.745 10.245 1.181.682 2.471 1.006 3.743 1.006 2.592 0 5.113-1.346 6.502-3.751l7.674-13.292h58.074l7.674 13.292c1.389 2.406 3.91 3.751 6.502 3.751 1.272 0 2.562-.324 3.743-1.006 3.587-2.071 4.816-6.658 2.745-10.245l-7.674-13.292 29.037-50.293zm-57.374 42.793h-58.074l-29.037-50.293 29.037-50.293h58.074l29.037 50.293z"/><path d="m488.009 467.772-122.124-211.525c-5.33-9.231-14.876-14.743-25.536-14.743-10.659 0-20.205 5.512-25.534 14.743l-89.277 154.632c-18.281 9.088-37.981 13.707-58.599 13.707-72.756 0-131.947-59.191-131.947-131.947 0-28.879 8.739-57.166 28.337-91.716 2.044-3.603.78-8.18-2.823-10.224-3.602-2.043-8.181-.78-10.224 2.823-20.948 36.932-30.29 67.5-30.29 99.117 0 81.027 65.92 146.947 146.947 146.947 15.761 0 31.466-2.569 46.354-7.498l-20.603 35.685c-5.33 9.231-5.33 20.254 0 29.485s14.876 14.743 25.535 14.743h153.589c4.142 0 7.5-3.358 7.5-7.5s-3.358-7.5-7.5-7.5h-153.588c-5.237 0-9.926-2.708-12.544-7.243-2.619-4.535-2.619-9.95 0-14.485l122.125-211.525c2.618-4.535 7.308-7.243 12.544-7.243s9.926 2.708 12.545 7.243l122.124 211.525c2.618 4.535 2.619 9.95 0 14.485-2.618 4.535-7.308 7.243-12.544 7.243h-60.66c-4.142 0-7.5 3.358-7.5 7.5s3.358 7.5 7.5 7.5h60.66c10.66 0 20.205-5.511 25.535-14.743 5.329-9.232 5.329-20.255-.002-29.486z"/><path d="m296.399 58.952c1.919 0 3.839-.732 5.303-2.197l31.148-31.149v178.077c0 4.142 3.358 7.5 7.5 7.5s7.5-3.358 7.5-7.5v-178.077l31.149 31.149c2.929 2.929 7.678 2.929 10.606 0 2.929-2.929 2.929-7.678 0-10.606l-43.951-43.952c-1.407-1.407-3.314-2.197-5.304-2.197s-3.897.79-5.303 2.197l-43.952 43.952c-2.929 2.929-2.929 7.678 0 10.606 1.465 1.465 3.384 2.197 5.304 2.197z"/><path d="m340.35 418.095c4.142 0 7.5-3.358 7.5-7.5v-79.54c0-4.142-3.358-7.5-7.5-7.5s-7.5 3.358-7.5 7.5v79.54c0 4.142 3.358 7.5 7.5 7.5z"/><path d="m340.35 457.234c4.436 0 8.044-3.608 8.044-8.043 0-4.436-3.608-8.044-8.044-8.044-4.435 0-8.043 3.608-8.043 8.044 0 4.435 3.608 8.043 8.043 8.043z"/></g></g></svg>