<?xml version="1.0" encoding="windows-1252"?>
<!-- Generator: Adobe Illustrator 19.0.0, SVG Export Plug-In . SVG Version: 6.00 Build 0)  -->
<svg xmlns="http://www.w3.org/2000/svg" xmlns:xlink="http://www.w3.org/1999/xlink" version="1.1" id="Layer_1" x="0px" y="0px" viewBox="0 0 512 512" style="enable-background:new 0 0 512 512;" xml:space="preserve" width="512" height="512">
<g>
	<path d="M421,242H301v-70.787l60-60V150h30V60h-90v30h38.787L286,143.787l-60-60l-60,60l-45-45V60H91v212h330V242z M181,171.213   l30-30V242h-30V171.213z M241,141.213l30,30V242h-30V141.213z M121,141.213l30,30V242h-30V141.213z"/>
	<path d="M0,392h181v30h-60v90h270v-90h-60v-30h181V0H0V392z M361,482H151v-30h210V482z M301,422h-90v-30h90V422z M30,362v-30h452   v30H30z M482,30v272H30V30H482z"/>
</g>















</svg>