<svg id="Capa_1" enable-background="new 0 0 512 512" height="512" viewBox="0 0 512 512" width="512" xmlns="http://www.w3.org/2000/svg"><g><g><path d="m443.099 494.5s46.401-65.379 46.401-130.131-45.214-138.76-45.214-138.76-4.608-58.989-38.828-91.651c-28.302-24.055-58.166-37.741-58.166-37.741h-182.584s-46.942 21.512-78.896 58.001c-25.992 29.68-33.098 71.391-33.098 71.391s-45.214 74.008-45.214 138.76 33.076 112.631 33.076 112.631v7.5z" fill="#ffcdbe"/><path d="m459.286 225.609s-7.107-41.711-33.098-71.391c-6.467-7.385-13.548-14.156-20.73-20.26 23.294 34.396 24.348 74.677 24.023 87.508-.07 2.741.599 5.443 1.962 7.823 8.995 15.704 43.057 78.879 43.057 135.081 0 42.174-17.563 80.373-29.811 101.883-6.419 11.274-18.375 18.248-31.349 18.248h-293.039v-210.308c-7.247-7.247-10.422-16.544-10.849-26.425-58.631 93.7-63.067 164.716-42.855 216.11 3.893 9.898-3.268 20.622-13.904 20.622h-12.117v20h79.726l135.698-10 135.699 10h79.726v-27.5s33.076-47.879 33.076-112.631-45.215-138.76-45.215-138.76z" fill="#ebae9d"/><path d="m361.772 271.119c-36.125-6.962-69.431-23.354-105.772-23.354-46.132 0-88.013 26.428-135.699 26.428-51.889 93.451-45.993 163.553-15.671 210.307 0 0 205.213 10 237.069 10 69.608 0 107.194-115.055 20.073-223.381z" fill="#ffcdbe"/><path d="m391.699 274.193c-10.258 0-20.194-1.198-29.927-3.074 65.54 113.117 34.811 213.381-20.073 213.381-31.856 0-179.474 0-237.069 0 4.684 7.222 9.945 13.892 15.672 20h271.397c42.801-45.647 59.905-122.421 0-230.307z" fill="#ebae9d"/><g><path d="m344.423 59.384c0-16.715-9.999-51.884-9.999-51.884h-176.847c.003 38.089 0 30.651 0 51.884 0 22.078 7.27 42.458 19.545 58.877 16.419 12.276 46.799 29.545 68.877 29.545 54.358.001 98.424-34.064 98.424-88.422z" fill="#ffcdbe"/><path d="m354.422 7.5h-19.999c.001 20.014-.001 25.169-.001 41.884 0 54.357-44.065 88.423-98.423 88.423-22.078 0-42.458-7.27-58.877-19.545 17.948 24.006 46.598 39.545 78.877 39.545 54.357 0 98.423-44.065 98.423-98.423.001-21.233.003-13.795 0-51.884z" fill="#ebae9d"/></g><path d="m120.301 274.193c59.421-4.708 88.497-36.428 135.699-36.428 48.403 0 104.8 43.236 126.434 15.306 9.189-11.863 10.971-37.425 3.809-55.234 14.318 20.332 25.568 56.243 5.455 76.356-29.594 29.594-88.497-16.428-135.699-16.428s-106.104 46.021-135.698 16.428z" fill="#ebae9d"/></g><g><path d="m15 364.369c0-61.838 43.674-134.13 44.114-134.851.497-.812.833-1.712.994-2.65.052-.304 5.374-30.646 23.04-56.871 2.314-3.436 1.405-8.097-2.03-10.411-3.436-2.312-8.096-1.404-10.411 2.03-17.392 25.818-23.792 54.527-25.119 61.293-2.718 4.592-12.499 21.605-22.383 44.864-15.398 36.229-23.205 68.729-23.205 96.596 0 59.62 26.663 104.861 33.076 114.879v25.252c0 4.143 3.358 7.5 7.5 7.5s7.5-3.357 7.5-7.5v-27.5c0-1.522-.464-3.01-1.329-4.263-.318-.46-31.747-46.669-31.747-108.368z"/><path d="m98.032 149.074c1.847 0 3.698-.679 5.147-2.047 21.51-20.308 46.276-34.503 57.928-40.618 17.353 34.875 53.367 58.898 94.893 58.898 16.895 0 33.045-3.861 48.003-11.478 3.691-1.88 5.16-6.396 3.28-10.087-1.879-3.69-6.395-5.159-10.087-3.28-12.829 6.532-26.689 9.845-41.196 9.845-50.135 0-90.923-40.788-90.923-90.923v-51.885c0-4.142-3.358-7.499-7.5-7.499s-7.5 3.358-7.5 7.501v51.883c0 11.547 1.864 22.665 5.295 33.078-11.889 6.122-38.7 21.199-62.491 43.66-3.012 2.843-3.148 7.59-.305 10.602 1.477 1.562 3.464 2.35 5.456 2.35z"/><path d="m89.023 403.329c-.005-4.14-3.361-7.491-7.5-7.491-.002 0-.006 0-.009 0-4.142.005-7.496 3.366-7.491 7.509.048 41.111 14.159 77.863 40.807 106.283 1.477 1.575 3.472 2.37 5.473 2.37 1.838 0 3.682-.672 5.128-2.029 3.022-2.833 3.174-7.579.341-10.601-23.998-25.594-36.706-58.804-36.749-96.041z"/><circle cx="158.239" cy="255.181" r="8"/><path d="m500.677 403.617c-4.029-.957-8.071 1.543-9.023 5.574-8.948 37.876-26.231 63.3-26.4 63.546-.865 1.253-1.329 2.739-1.329 4.263v27.5c0 4.143 3.358 7.5 7.5 7.5s7.5-3.357 7.5-7.5v-25.257c4.491-7.037 19.074-31.664 27.328-66.603.952-4.031-1.545-8.071-5.576-9.023z"/><path d="m488.795 267.773c-9.884-23.258-19.663-40.27-22.383-44.862-1.546-7.906-9.951-45.508-34.583-73.636-26.023-29.716-61.052-49.536-75.181-56.808 3.465-10.561 5.274-21.704 5.274-33.084v-51.885c0-4.142-3.358-7.499-7.5-7.499s-7.5 3.358-7.5 7.501v51.883c0 23.337-8.828 45.522-24.857 62.468-2.846 3.01-2.714 7.757.295 10.603 1.45 1.372 3.303 2.052 5.152 2.052 1.99 0 3.975-.787 5.45-2.346 7.318-7.736 13.34-16.412 17.967-25.736 13.852 7.269 46.122 25.906 69.615 52.734 24.226 27.663 31.28 67.319 31.347 67.71.16.938.497 1.838.994 2.65.442.722 44.115 72.925 44.115 134.851 0 4.523-.171 9.137-.509 13.71-.305 4.131 2.796 7.727 6.927 8.032.188.014.375.021.561.021 3.891 0 7.18-3.005 7.472-6.947.365-4.939.55-9.925.55-14.815-.001-27.868-7.808-60.368-23.206-96.597z"/><path d="m238.839 259.305c-.965-4.028-5.019-6.516-9.042-5.544-11.532 2.766-23.206 6.819-34.494 10.74-28.279 9.82-54.989 19.098-69.698 4.388-17.403-17.402-5.381-50.168 6.284-66.733 2.385-3.387 1.573-8.065-1.813-10.45-3.388-2.386-8.065-1.574-10.45 1.813-14.184 20.142-27.113 57.299-8.399 81.662-12.112 22.453-21.332 44.34-27.552 65.414l-14.56-14.56c-2.929-2.928-7.678-2.928-10.606 0-2.929 2.93-2.929 7.678 0 10.607l20.804 20.804c-1.059 4.744-1.978 9.447-2.716 14.096-.65 4.091 2.14 7.934 6.23 8.584.399.063.794.094 1.186.094 3.623 0 6.812-2.632 7.398-6.324 4.394-27.66 14.918-57.348 31.284-88.349 7.122 4.313 15.115 6.037 23.663 6.036 16.686-.001 35.463-6.521 53.868-12.911 10.944-3.801 22.261-7.731 33.071-10.324 4.026-.967 6.508-5.016 5.542-9.043z"/><circle cx="353.761" cy="255.181" r="8"/><path d="m442.886 326.034-14.543 14.543c-6.208-21.043-15.406-42.883-27.561-65.407 18.702-24.363 5.775-61.512-8.408-81.651-2.385-3.387-7.064-4.199-10.45-1.813-3.387 2.385-4.199 7.063-1.813 10.45 7.255 10.302 12.621 23.403 14.353 35.046 1.396 9.379 1.129 22.49-8.069 31.688-14.709 14.71-41.419 5.433-69.698-4.388-11.289-3.921-22.962-7.975-34.494-10.74-4.025-.967-8.076 1.515-9.042 5.544-.966 4.027 1.516 8.076 5.544 9.042 10.811 2.593 22.127 6.523 33.071 10.324 18.407 6.392 37.18 12.911 53.868 12.911 8.547 0 16.541-1.724 23.664-6.037 61.777 116.919 24.909 183.975-3.08 213.825-2.833 3.021-2.681 7.768.341 10.601 1.447 1.357 3.29 2.029 5.128 2.029 2 0 3.996-.796 5.473-2.37 24.452-26.077 38.467-59.455 40.532-96.526.99-17.768-.688-36.36-4.994-55.677l20.785-20.785c2.929-2.93 2.929-7.678 0-10.607s-7.678-2.931-10.607-.002z"/><path d="m280.453 438.846c-6.312 0-9.79-1.55-13.472-3.191-3.085-1.375-6.582-2.934-10.981-2.934s-7.896 1.559-10.981 2.934c-3.682 1.642-7.159 3.191-13.472 3.191-4.142 0-7.5 3.357-7.5 7.5s3.358 7.5 7.5 7.5c9.504 0 15.327-2.596 19.579-4.49 2.342-1.044 3.723-1.635 4.875-1.635s2.533.591 4.875 1.635c4.251 1.895 10.075 4.49 19.579 4.49 4.142 0 7.5-3.357 7.5-7.5s-3.36-7.5-7.502-7.5z"/><path d="m278.695 80.042c-3.114 6.527-12.022 10.746-22.696 10.746s-19.583-4.218-22.698-10.747c-1.783-3.737-6.259-5.324-9.998-3.54-3.739 1.783-5.324 6.26-3.54 9.999 5.675 11.897 19.56 19.288 36.236 19.288 16.675 0 30.56-7.392 36.235-19.289 1.783-3.738.198-8.215-3.541-9.998-3.738-1.784-8.214-.199-9.998 3.541z"/><path d="m221.453 48.664c4.142 0 7.5-3.357 7.5-7.5v-7.73c14.945-5.232 39.148-5.232 54.091 0v7.73c0 4.143 3.358 7.5 7.5 7.5s7.5-3.357 7.5-7.5v-33.664c0-4.143-3.358-7.5-7.5-7.5s-7.5 3.357-7.5 7.5v10.296c-16.275-4.291-37.816-4.291-54.091 0v-10.296c0-4.143-3.358-7.5-7.5-7.5s-7.5 3.357-7.5 7.5v33.664c0 4.143 3.358 7.5 7.5 7.5z"/></g></g></svg>