<svg id="Capa_1" enable-background="new 0 0 512 512" height="512" viewBox="0 0 512 512" width="512" xmlns="http://www.w3.org/2000/svg"><g><g><path d="m350 7.5h-60l30 497h30c8.25 0 15-6.75 15-15v-312.652c0-14.327 5.562-20.136 12.499-24.348 6.936-4.212 16.501-10.021 16.501-24.348z" fill="#e69824"/><path d="m379 7.5h-29v105.652c0 8.25 6.75 15 15 15h29c0-28.654 0-105.652 0-105.652 0-8.25-6.75-15-15-15z" fill="#9cd169"/><path d="m424 382.67h50l-10-334.518h-178.685v90z" fill="#dcf2f6"/><path d="m469 48.152h-5v317.018c0 4.142-3.358 7.5-7.5 7.5h-22.5v-219.518c0-8.284-6.716-15-15-15h-133.685v254.518h183.685c8.284 0 15-6.716 15-15v-314.518c0-8.284-6.716-15-15-15z" fill="#bfe2e6"/><path d="m404 452.67-10-334.518h-109l.297 324.518z" fill="#eef9fa"/><path d="m399 118.152h-5v317.018c0 4.142-3.358 7.5-7.5 7.5h-101.203l.018 20h113.685c8.284 0 15-6.716 15-15v-314.518c0-8.284-6.716-15-15-15z" fill="#dcf2f6"/><path d="m325 487v-315.152c0-14.327-5.563-20.135-12.498-24.348-6.936-4.213-17.502-10.021-17.502-24.348 0-24.522-10-96.766-10-115.652h-242c-8.25 0-15 6.75-15 15v462l289.5 10c4.125 0 7.5-3.375 7.5-7.5z" fill="#ffe07d"/><path d="m322.502 152.5c-6.936-4.213-17.502-10.021-17.502-24.348v-105.652c0-8.25-6.75-15-15-15h-5v110.652c0 14.327 10.566 20.135 17.502 24.348 6.935 4.213 12.498 10.021 12.498 24.348v310.152c0 4.125-3.375 7.5-7.5 7.5h-279.5v5c0 8.25 6.75 15 15 15h277c8.25 0 15-6.75 15-15v-312.652c0-14.327-5.563-20.135-12.498-24.348z" fill="#ffc250"/><path d="m197.5 63.371c0-2.066-.772-5.424-5.174-9.826-1.791-.756-3.76-1.174-5.826-1.174-8.284 0-15 6.716-15 15 0 2.066.418 4.035 1.174 5.826 3.249 3.249 7.76 5.174 9.826 5.174 8.284 0 15-6.715 15-15z" fill="#eef9fa"/><path d="m192.326 53.545c.756 1.791 1.174 3.76 1.174 5.826 0 8.284-6.716 15-15 15-2.066 0-4.035-.418-5.826-1.174 2.274 5.39 7.608 9.174 13.826 9.174 8.284 0 15-6.716 15-15 0-6.218-3.784-11.551-9.174-13.826z" fill="#dcf2f6"/><path d="m156.334 117.516s-17.729-5.107-30.577 7.741c-8.836 8.836-8.799 24.958-5.46 28.296 14.232 0 32.583-14.736 37.036-27.43.017-5.062-.999-8.607-.999-8.607z" fill="#eef9fa"/><path d="m148.593 148.093c7.107-7.107 8.717-15.702 8.739-21.969-6.847 6.846-24.339 19.981-37.036 27.43 3.339 3.338 19.46 3.375 28.297-5.461z" fill="#dcf2f6"/></g><g><path d="m154.859 109.569c-6.855-1.08-22.246-1.773-34.405 10.384-11.004 11.003-12.454 31.909-5.462 38.903l.001.001c2.821 2.82 7.905 4.267 13.691 4.267 8.557 0 18.647-3.164 25.212-9.728 10.909-10.91 11.472-24.425 10.692-32.04 4.771-2.386 13.884-5.874 26.411-5.874 25.664 0 41 15.037 41 29.574 0 19.947-14.756 28.888-38 38.051v-46.186c0-4.143-3.357-7.5-7.5-7.5s-7.5 3.357-7.5 7.5v51.877c-9.145 3.483-17.679 7.07-24.713 11.906-10.807 7.433-16.286 17.002-16.286 28.442 0 22.014 21.726 31.391 41 38.453v43.814c-13.233 5.282-26 12.948-26 29.207 0 19.313 16.32 25.605 28.237 30.2 10.895 4.2 14.763 6.406 14.763 10.42 0 3.063-1.195 4.962-3.865 8.241-1.374-1.563-3.39-2.551-5.635-2.551-4.143 0-7.5 3.357-7.5 7.5v45.543c0 4.143 3.357 7.5 7.5 7.5s7.5-3.357 7.5-7.5v-16.97c0-12.282 4.17-17.302 8.584-22.616 3.945-4.75 8.416-10.133 8.416-19.147 0-11.726-8.233-17.473-17.01-21.421.002-.066.01-.13.01-.196v-37.746c15.73-5.548 35-12.554 35-32.53 0-17.732-17.578-25.801-35-32.256v-57.902c24.455-9.17 53-21.257 53-54.134 0-11.799-5.857-23.31-16.07-31.583-9.667-7.83-22.688-12.37-36.93-12.93v-12.961c8.729-3.096 15-11.433 15-21.21 0-12.406-10.094-22.5-22.5-22.5s-22.5 10.094-22.5 22.5c0 9.777 6.271 18.114 15 21.21v13.8c-11.7 1.774-19.986 5.769-24.141 8.188zm-1.859 119.577c0-11.25 9.598-17.498 26-24.203v46.613c-15.996-6.222-26-12.085-26-22.41zm15 111.474c0-4.397.946-7.851 11-12.73v25.782c-7.569-3.468-11-6.721-11-13.052zm46-51.271c0 5.46-1.454 9.464-20 16.548v-32.727c12.376 4.923 20 9.468 20 16.179zm-70.71-146.56c-5.101 5.102-13.848 5.776-17.385 5.155-.619-3.534.054-12.284 5.155-17.384 6.167-6.166 13.944-6.836 18.745-6.509.325 4.796-.339 12.562-6.515 18.738zm43.21-83.918c4.136 0 7.5 3.364 7.5 7.5s-3.364 7.5-7.5 7.5-7.5-3.364-7.5-7.5 3.364-7.5 7.5-7.5z"/><path d="m469 40.652h-67.5v-18.152c0-12.406-10.094-22.5-22.5-22.5h-44c-4.143 0-7.5 3.357-7.5 7.5s3.357 7.5 7.5 7.5h7.5v25.652h-30v-18.152c0-12.406-10.094-22.5-22.5-22.5h-247c-12.406 0-22.5 10.094-22.5 22.5v53.422c0 4.143 3.357 7.5 7.5 7.5s7.5-3.357 7.5-7.5v-53.422c0-4.136 3.364-7.5 7.5-7.5h247c4.136 0 7.5 3.364 7.5 7.5v105.652c0 18.005 13.209 25.985 20.306 30.272l.803.485c4.864 2.955 8.892 6.345 8.892 17.938v312.653c0 4.136-3.364 7.5-7.5 7.5h-277.001c-4.136 0-7.5-3.364-7.5-7.5v-383.578c0-4.143-3.357-7.5-7.5-7.5s-7.5 3.357-7.5 7.5v383.578c0 12.406 10.094 22.5 22.5 22.5h277 30c12.406 0 22.5-10.094 22.5-22.5v-19.33h26.5c12.406 0 22.5-10.094 22.5-22.5v-87.5h22.5c4.143 0 7.5-3.357 7.5-7.5s-3.357-7.5-7.5-7.5h-22.5v-15h22.5c4.143 0 7.5-3.357 7.5-7.5v-150c0-4.143-3.357-7.5-7.5-7.5h-22.5v-15h22.5c4.143 0 7.5-3.357 7.5-7.5s-3.357-7.5-7.5-7.5h-22.5v-2.018c0-12.406-10.094-22.5-22.5-22.5h-86.5v-15h131.5c4.143 0 7.5-3.357 7.5-7.5s-3.357-7.5-7.5-7.5h-131.5v-25h156.5c4.136 0 7.5 3.364 7.5 7.5v314.518c0 4.136-3.364 7.5-7.5 7.5h-25c-4.143 0-7.5 3.357-7.5 7.5s3.357 7.5 7.5 7.5h25c12.406 0 22.5-10.094 22.5-22.5v-314.518c0-12.406-10.094-22.5-22.5-22.5zm-111.5 448.848c0 4.136-3.364 7.5-7.5 7.5h-8.79c.833-2.347 1.29-4.871 1.29-7.5v-19.33h15zm79-234.33h-15v-15h15zm-15 15h15v15h-15zm15-45h-15v-15h15zm-15 90v-15h15v15zm15-135v15h-15v-15zm-37.5-54.518c4.136 0 7.5 3.364 7.5 7.5v314.518c0 4.136-3.364 7.5-7.5 7.5h-56.5v-25h42.5c4.143 0 7.5-3.357 7.5-7.5s-3.357-7.5-7.5-7.5h-42.5v-30h42.5c4.143 0 7.5-3.357 7.5-7.5s-3.357-7.5-7.5-7.5h-42.5v-15h42.5c4.143 0 7.5-3.357 7.5-7.5s-3.357-7.5-7.5-7.5h-42.5v-30h42.5c4.143 0 7.5-3.357 7.5-7.5s-3.357-7.5-7.5-7.5h-42.5v-15h42.5c4.143 0 7.5-3.357 7.5-7.5s-3.357-7.5-7.5-7.5h-42.5v-15h42.5c4.143 0 7.5-3.357 7.5-7.5s-3.357-7.5-7.5-7.5h-42.5v-25h42.5c4.143 0 7.5-3.357 7.5-7.5s-3.357-7.5-7.5-7.5h-42.5v-18.322c0-4.285-.461-7.98-1.257-11.195h43.757c4.143 0 7.5-3.357 7.5-7.5s-3.357-7.5-7.5-7.5h-52.431c-2.01-1.853-4.132-3.323-6.173-4.562l-.833-.504c-7.648-4.621-13.062-8.576-13.062-17.434v-2.5h86.499zm-41.5-110.652h21.5c4.136 0 7.5 3.364 7.5 7.5v18.152h-29z"/></g></g></svg>