<?xml version="1.0" encoding="windows-1252"?>
<!-- Generator: Adobe Illustrator 19.0.0, SVG Export Plug-In . SVG Version: 6.00 Build 0)  -->
<svg xmlns="http://www.w3.org/2000/svg" xmlns:xlink="http://www.w3.org/1999/xlink" version="1.1" id="Layer_1" x="0px" y="0px" viewBox="0 0 512 512" style="enable-background:new 0 0 512 512;" xml:space="preserve" width="512" height="512">
<g>
	<path d="M469.541,436l-90-45H0v90h379.541L469.541,436z M331,421v30H90v-30H331z M30,421h30v30H30V421z M361,451v-30h11.459l30,15   l-30,15H361z"/>
	<path d="M181,91H31v210h90v73.028L230.542,301H361v-46.972l90,60V241h61V31H181V91z M331,271H221.458L151,317.972V271H61V121h270   V271z M482,61v150h-61v46.972l-60-40V91H211V61H482z"/>
	<rect x="121" y="181" width="30" height="30"/>
	<rect x="181" y="181" width="30" height="30"/>
	<rect x="241" y="181" width="30" height="30"/>
</g>















</svg>