<svg id="Layer_5" enable-background="new 0 0 64 64" height="512" viewBox="0 0 64 64" width="512" xmlns="http://www.w3.org/2000/svg" xmlns:xlink="http://www.w3.org/1999/xlink"><linearGradient id="SVGID_1_" gradientUnits="userSpaceOnUse" x1="32" x2="32" y1="63" y2="1"><stop offset="0" stop-color="#9f2fff"/><stop offset="1" stop-color="#0bb1d3"/></linearGradient><path d="m14 22c4.411 0 8-3.589 8-8s-3.589-8-8-8-8 3.589-8 8 3.589 8 8 8zm0-14c3.309 0 6 2.691 6 6s-2.691 6-6 6-6-2.691-6-6 2.691-6 6-6zm0 10c2.206 0 4-1.794 4-4s-1.794-4-4-4-4 1.794-4 4 1.794 4 4 4zm0-6c1.103 0 2 .897 2 2s-.897 2-2 2-2-.897-2-2 .897-2 2-2zm-10.978 6.823-.836 1.747 5.244 5.244 1.748-.836c.156.069.313.135.471.196l.098.277c-1.439 1.106-2.44 2.754-2.687 4.638-2.31.441-4.06 2.475-4.06 4.911 0 2.757 2.243 5 5 5h3v21c0 1.103.897 2 2 2h2c1.103 0 2-.897 2-2h4v-4h-2v2h-2v-6h2v2h2v-4h-4v-11h3c2.757 0 5-2.243 5-5 0-2.436-1.75-4.47-4.059-4.911-.246-1.885-1.248-3.533-2.687-4.638l.098-.277c.157-.062.314-.127.471-.196l1.748.836 5.244-5.244-.836-1.748c.069-.156.135-.313.196-.471l1.825-.643v-7.415l-1.826-.645c-.062-.157-.127-.314-.196-.471l.836-1.748-5.244-5.243-1.748.836c-.156-.069-.313-.135-.471-.196l-.643-1.826h-7.415l-.645 1.826c-.157.062-.315.127-.471.196l-1.747-.836-5.244 5.244.836 1.748c-.069.155-.134.313-.196.47l-1.826.644v7.415l1.826.645c.062.157.127.315.196.471zm11.978 42.177h-2v-21h2zm5-29c1.654 0 3 1.346 3 3s-1.346 3-3 3h-12c-1.654 0-3-1.346-3-3s1.346-3 3-3h1v-1c0-2.757 2.243-5 5-5s5 2.243 5 5v1zm-17-20.292 1.392-.491.157-.458c.131-.384.291-.769.477-1.147l.213-.435-.638-1.334 3.242-3.242 1.334.638.435-.213c.378-.186.763-.346 1.147-.478l.458-.157.491-1.391h4.585l.491 1.392.458.157c.383.131.769.292 1.147.478l.435.213 1.334-.638 3.242 3.242-.638 1.334.213.435c.186.378.346.764.478 1.147l.157.458 1.39.49v4.585l-1.392.491-.157.458c-.131.383-.292.769-.478 1.147l-.213.435.638 1.334-3.242 3.242-1.334-.638-.435.213c-.378.186-.764.346-1.147.478l-.458.157-.299.849c-.772-.296-1.608-.459-2.483-.459s-1.711.163-2.484.457l-.299-.849-.458-.157c-.383-.131-.769-.292-1.147-.478l-.435-.213-1.334.638-3.242-3.242.638-1.334-.213-.435c-.186-.377-.346-.762-.478-1.146l-.157-.458-1.391-.491zm11 16.292c-1.654 0-3 1.346-3 3s1.346 3 3 3 3-1.346 3-3-1.346-3-3-3zm0 4c-.551 0-1-.449-1-1s.449-1 1-1 1 .449 1 1-.449 1-1 1zm38-13c-2.757 0-5 2.243-5 5 0 1.563.754 3.041 2 3.979v5.021h6v-5.021c1.246-.939 2-2.416 2-3.979 0-2.757-2.243-5-5-5zm1.497 7.581-.497.289v4.13h-2v-4.13l-.497-.289c-.941-.548-1.503-1.513-1.503-2.581 0-1.654 1.346-3 3-3s3 1.346 3 3c0 1.068-.562 2.033-1.503 2.581zm9.503 7.419v-16c0-1.302-.839-2.402-2-2.816v-5.184c0-4.962-4.038-9-9-9s-9 4.038-9 9v5.184c-1.161.414-2 1.514-2 2.816v16c0 1.654 1.346 3 3 3h16c1.654 0 3-1.346 3-3zm-11-31c3.86 0 7 3.14 7 7v5h-2v-5c0-2.757-2.243-5-5-5s-5 2.243-5 5v5h-2v-5c0-3.86 3.14-7 7-7zm3 12h-6v-5c0-1.654 1.346-3 3-3s3 1.346 3 3zm-12 19v-16c0-.551.449-1 1-1h16c.551 0 1 .449 1 1v16c0 .552-.449 1-1 1h-16c-.551 0-1-.448-1-1zm10 15h2.523l-3.08-7.7c-.146-.363-.74-.364-.886.001l-3.08 7.699h2.523v6c0 1.103-.897 2-2 2h-22v-2h22v-4h-3.477l4.177-10.442c.379-.947 1.282-1.558 2.3-1.558s1.921.611 2.3 1.557l4.177 10.443h-3.477v5c0 2.757-2.243 5-5 5h-19v-2h19c1.654 0 3-1.346 3-3zm-26 10h2v2h-2z" fill="url(#SVGID_1_)"/></svg>