<svg id="Capa_1" enable-background="new 0 0 512.965 512.965" height="512" viewBox="0 0 512.965 512.965" width="512" xmlns="http://www.w3.org/2000/svg"><g><g><path d="m502.412 333.789-16.708-19.041-162.942 20.547-40.45 81.711-9.543 43.981c-.013.004-.025.008-.038.012l.14.5c-1.391 12.62-.825 25.376 1.672 37.809.65 3.24 3.461 5.592 6.766 5.595l184.407.124c2.466.002 4.763-1.305 5.979-3.45 22.53-39.745 33.768-83.93 33.768-128.077-.001-13.281-1.021-26.561-3.051-39.711z" fill="#ffe5c2"/><path d="m466.802 237.139c-24.92-40.4-41.65-85.31-49.25-132.16l-13.475-83.092c-1.34-8.265-8.477-14.338-16.85-14.338h-261.49c-8.373 0-15.51 6.073-16.85 14.338l-13.475 83.092c-3.8 23.43-9.88 46.37-18.13 68.5s-18.66 43.46-31.12 63.66c-3.74 6.06-6.94 12.69-9.65 19.77l33.47 52.8 232.05 42.985 170.911-61.35 4.46-35.275c-3.241-6.42-6.781-12.74-10.601-18.93z" fill="#ffe5c2"/><g id="XMLID_184_"><g><path d="m467.622 238.499c-67.773 26.137-138.962 39.392-211.627 39.392-33.766 0-67.217-2.868-100.156-8.561-18.691-3.23-29.381-23.193-21.733-40.55 5.859-13.297 11.077-26.934 15.636-40.85 8.25-25.185 14.33-51.291 18.13-77.956l13.475-94.562c.414-2.903 1.382-5.565 2.766-7.863h-58.375c-8.373 0-15.51 6.073-16.85 14.338l-13.475 83.092c-3.8 23.43-9.88 46.37-18.13 68.5s-18.66 43.46-31.12 63.66c-3.74 6.06-6.94 12.69-9.65 19.77l33.47 52.8 60.142 11.141 171.908 31.844 170.911-61.35 4.46-35.275c-3.006-5.952-6.279-11.814-9.782-17.57z" fill="#fed2a4"/><path d="m502.412 333.789-5.057-5.763-11.651-13.278-162.942 20.547-40.45 81.711-9.543 43.981c-.013.004-.025.008-.038.012l.14.5c-1.391 12.62-.825 25.376 1.672 37.809.65 3.24 3.461 5.592 6.766 5.595l14.285.01c-.962-6.548-.998-17.498-.893-24.715.062-4.216 2.042-8.212 5.455-10.689 3.984-2.892 7.671-6.207 10.988-9.911l54.313-60.602c26.362-29.425 64.137-46.301 103.639-46.301 1.972 0 3.971.042 5.942.127l27.367 1.168 2.296-.325c-.507-6.648-1.27-13.278-2.289-19.876z" fill="#fed2a4"/><g><path d="m240.092 461.499.06-.24-19.217-83.404-155.292-74.991-55.111 31.065c-8.638 56.103 1.196 114.45 29.601 165.62 2.018 3.635 5.87 5.87 10.027 5.87l182.355-.507c2.749-.008 5.14-1.926 5.703-4.617 2.667-12.744 3.302-25.842 1.874-38.796z" fill="#ffe5c2"/><path d="m92.002 499.548c-28.405-51.17-38.239-109.517-29.601-165.62l31.178-17.575-27.936-13.49-55.111 31.065c-8.638 56.103 1.196 114.449 29.601 165.62 2.018 3.635 5.87 5.87 10.027 5.87l50.148-.139c-3.476-.524-6.571-2.605-8.306-5.731z" fill="#fed2a4"/><path d="m502.412 333.789-.99.14-25.53-1.09c-47.57-2.03-93.56 17.35-125.33 52.81l-54.31 60.6c-9.54 10.64-23.16 16.72-37.45 16.72h-5.64c-4.43 0-8.8-.59-13.01-1.71-9.34-2.5-17.86-7.67-24.44-15.01l-54.31-60.6c-31.77-35.46-77.76-54.84-125.33-52.81l-25.53 1.09h-.01c4.1-26.66 12.38-52.82 24.82-77.46 141.9 55.23 299.36 55.23 441.26 0l.79-.4c12.54 24.72 20.88 50.96 25.01 77.72z" fill="#ffbee7"/><g fill="#feaee1"><path d="m299.559 439.408h-5.64c-4.43 0-8.8-.59-13.01-1.71-9.34-2.5-17.86-7.67-24.44-15.01l-54.31-60.6c-31.77-35.46-77.76-54.84-125.33-52.81l-3.723.159c-11.153.476-19.651-9.831-17.098-20.698 1.883-8.014 4.084-16.594 6.118-22.565-8.98-3.02-17.907-6.255-26.774-9.706-12.44 24.64-20.72 50.8-24.82 77.46h.01l25.53-1.09c47.57-2.03 93.56 17.35 125.33 52.81l54.31 60.6c6.58 7.34 15.1 12.51 24.44 15.01 4.21 1.12 8.58 1.71 13.01 1.71h5.64c14.29 0 27.91-6.08 37.45-16.72l6.211-6.93c-.965.057-1.933.09-2.904.09z"/><path d="m410.679 343.816c20.487-8.086 42.671-11.939 65.213-10.977l25.53 1.09.99-.14c-1.252-8.111-2.897-16.173-4.922-24.161-31.748 2.475-61.992 14.413-86.811 34.188z"/></g></g></g></g></g><g><path d="m84.776 151.356c.674.188 1.35.277 2.016.277 3.283 0 6.298-2.173 7.222-5.491 3.689-13.256 6.651-26.703 8.803-39.967l15.799-97.431c.663-4.089-2.114-7.941-6.203-8.604-4.09-.666-7.941 2.114-8.604 6.203l-15.799 97.431c-2.062 12.719-4.904 25.621-8.447 38.346-1.111 3.99 1.223 8.125 5.213 9.236z"/><path d="m512.952 370.835c-.485-48.638-14.236-96.229-39.769-137.63-24.523-39.764-40.749-83.311-48.229-129.43l-15.798-97.432c-.662-4.088-4.513-6.867-8.604-6.203-4.089.663-6.866 4.515-6.203 8.604l15.799 97.431c7.795 48.069 24.708 93.457 50.268 134.903 2.242 3.635 4.386 7.321 6.435 11.053-27.06 10.141-55.037 18.411-83.302 24.553-4.048.88-6.616 4.874-5.736 8.922.763 3.511 3.87 5.909 7.322 5.909.527 0 1.062-.056 1.6-.172 29.523-6.416 58.756-15.065 86.986-25.733 9.114 19.263 15.74 39.583 19.738 60.469l-17.243-.734c-50.019-2.136-97.842 18.024-131.243 55.297l-54.307 60.598c-8.104 9.043-19.718 14.229-31.86 14.229h-5.646c-12.143 0-23.756-5.187-31.86-14.229l-54.307-60.598c-2.5-2.789-5.236-5.627-8.133-8.436-2.974-2.883-7.723-2.811-10.605.163-2.883 2.974-2.81 7.722.164 10.605 2.646 2.566 5.137 5.149 7.404 7.679l54.307 60.598c6.317 7.048 14.216 12.349 22.916 15.583.866 12.184-.19 24.356-3.16 36.25l-.131.525c-1.001 4.019 1.445 8.089 5.465 9.09.608.151 1.218.224 1.818.224 3.363 0 6.422-2.279 7.271-5.689l.13-.521c2.991-11.977 4.26-24.206 3.808-36.472 1.629.139 3.265.229 4.913.229h5.646c1.985 0 3.958-.107 5.915-.309-.461 12.293.808 24.549 3.805 36.548l.131.525c.85 3.411 3.908 5.689 7.271 5.689.6 0 1.21-.073 1.818-.224 4.02-1.001 6.466-5.071 5.465-9.09l-.132-.53c-3-12.017-4.045-24.321-3.129-36.634 8.293-3.263 15.819-8.425 21.886-15.194l54.307-60.598c30.397-33.918 73.934-52.262 119.435-50.322l20.31.865c1.272 9.849 1.966 19.795 2.065 29.788.458 45.908-11.624 91.079-34.938 130.628-2.104 3.568-.916 8.166 2.652 10.27 1.195.705 2.507 1.04 3.802 1.04 2.567 0 5.069-1.32 6.468-3.692 24.699-41.902 37.499-89.758 37.015-138.395z"/><path d="m132.591 351.424c-28.999-18.526-62.489-27.546-96.843-26.079l-16.234.691c3.976-20.755 10.549-40.952 19.578-60.107 69.508 26.156 143.105 39.439 217 39.439 31.821 0 63.707-2.465 95.329-7.426 4.093-.642 6.89-4.479 6.247-8.571-.642-4.091-4.474-6.888-8.571-6.247-101.95 15.993-206.569 5.356-303.153-30.682 2.099-3.838 4.3-7.628 6.604-11.364 12.299-19.944 22.761-41.226 31.095-63.252 1.466-3.874-.486-8.203-4.36-9.668-3.873-1.465-8.203.485-9.669 4.361-7.996 21.135-18.034 41.553-29.833 60.686-25.531 41.401-39.283 88.992-39.768 137.63s12.314 96.494 37.016 138.395c1.398 2.373 3.899 3.692 6.468 3.692 1.295 0 2.606-.335 3.802-1.04 3.568-2.104 4.756-6.702 2.652-10.27-23.314-39.55-35.396-84.72-34.938-130.628.1-10.007.796-19.968 2.071-29.831l19.304-.822c31.26-1.333 61.738 6.875 88.13 23.733 1.25.799 2.648 1.181 4.03 1.181 2.474 0 4.896-1.224 6.327-3.463 2.23-3.491 1.208-8.129-2.284-10.358z"/><path d="m256.482 176.227c4.143 0 7.5-3.358 7.5-7.5v-8.212c0-4.142-3.357-7.5-7.5-7.5s-7.5 3.358-7.5 7.5v8.212c0 4.142 3.357 7.5 7.5 7.5z"/><path d="m461.106 120.45h26.319c4.143 0 7.5-3.358 7.5-7.5s-3.357-7.5-7.5-7.5h-11.654l24.178-24.177c2.929-2.929 2.929-7.678 0-10.606s-7.677-2.93-10.607 0l-24.177 24.176v-11.654c0-4.142-3.357-7.5-7.5-7.5s-7.5 3.358-7.5 7.5v26.319c0 6.034 4.908 10.942 10.941 10.942z"/><path d="m37.193 105.45h-11.654c-4.143 0-7.5 3.358-7.5 7.5s3.357 7.5 7.5 7.5h26.319c6.033 0 10.941-4.909 10.941-10.942v-26.319c0-4.142-3.357-7.5-7.5-7.5s-7.5 3.358-7.5 7.5v11.654l-24.176-24.176c-2.93-2.929-7.678-2.929-10.607 0s-2.929 7.678 0 10.606z"/></g></g></svg>