<svg id="Capa_1" enable-background="new 0 0 512.124 512.124" height="512" viewBox="0 0 512.124 512.124" width="512" xmlns="http://www.w3.org/2000/svg"><g><g><path d="m494.624 267.176-10-214.615h-388.497c-8.284 0-15 6.716-15 15v189.615z" fill="#87a0af"/><path d="m489.624 52.562h-5v197.115c0 4.142-3.358 7.5-7.5 7.5h-395.997v5c0 8.284 6.716 15 15 15h322.497l15 10 15-10.005 41 .005c8.284 0 15-6.716 15-15v-194.615c0-8.284-6.716-15-15-15z" fill="#607882"/><path d="m409.628 94.869c0-21.77-9.784-48.635-29.228-68.079-16.211-12.078-36.31-19.228-58.079-19.228-53.741 0-97.307 43.566-97.307 97.307 0 21.77 7.15 41.868 19.228 58.079 19.666 19.666 46.309 29.228 68.079 29.228 53.741 0 97.307-43.566 97.307-97.307z" fill="#eef9fa"/><path d="m380.4 26.79c12.078 16.211 19.228 36.309 19.228 58.079 0 53.741-43.566 97.307-97.307 97.307-21.77 0-41.868-7.15-58.079-19.228 17.738 23.808 46.107 39.228 78.079 39.228 53.741 0 97.307-43.566 97.307-97.307 0-31.972-15.421-60.341-39.228-78.079z" fill="#dcf2f6"/><path d="m333.321 100.869c0-2.066-.772-5.424-5.174-9.826-1.791-.756-3.76-1.174-5.826-1.174-8.284 0-15 6.716-15 15 0 2.066.418 4.035 1.174 5.826 3.249 3.249 7.76 5.174 9.826 5.174 8.284 0 15-6.716 15-15z" fill="#dcf2f6"/><path d="m328.147 91.043c.756 1.791 1.174 3.76 1.174 5.826 0 8.284-6.716 15-15 15-2.066 0-4.035-.418-5.826-1.174 2.274 5.39 7.608 9.174 13.826 9.174 8.284 0 15-6.716 15-15 0-6.218-3.784-11.552-9.174-13.826z" fill="#bfe2e6"/><path d="m36.736 490.509v-20l-12.99-7.5-10.999 19.051c-3.046 5.276-2.512 11.626.831 16.269 12.002 6.228 20.322-2.908 23.158-7.82z" fill="#dcf2f6"/><path d="m36.736 470.509-10.618 18.391c-2.836 4.912-7.438 8.158-12.54 9.428 1.203 1.671 2.76 3.126 4.659 4.222 7.174 4.142 16.348 1.684 20.49-5.49l10.999-19.051z" fill="#bfe2e6"/><path d="m440.624 429.064v-138.888l-22 7v132.887c0 24.576-19.922 44.498-44.498 44.498-12.388 0-23.59-5.066-31.658-13.236-15.204-10.211-20.84-21.765-20.84-34.262v-108.77c0-30.225-6.676-55.463-34.193-80.996-45.9-32.871-117.329-27.793-151.851 32.001l-6.235 10.799 8.833 15 17.495-14.876c14.835-25.695 35.289-39.263 62.392-39.263 22.653 0 47.164 10.828 59.988 27.635 13.028 12.688 21.571 30.609 21.571 52.7v108.77c0 17.899 6.317 34.319 16.837 47.165 16.011 16.011 36.732 21.956 54.038 21.956 37.07.001 70.121-33.05 70.121-70.12z" fill="#607882"/><g fill="#495959"><path d="m418.624 277.176v20h15v131.887c0 37.07-31.051 64.121-68.121 64.121-17.306 0-35.043-5.897-49.038-15.956 13.662 16.683 34.416 27.333 57.661 27.333 41.144 0 74.498-33.354 74.498-74.498v-152.891z"/><path d="m314.628 420.064c0 18.684 11.52 34.667 27.84 41.262-7.937-8.036-12.84-19.075-12.84-31.262v-108.77c0-37.346-17.366-66.216-42.193-83.996 16.614 18.704 27.193 37.434 27.193 83.996z"/><path d="m218.684 234.567c-29.152 0-54.153 14.595-70.11 42.232l-10.392 18.299h17.148l6.235-10.799c26.804-46.425 84.876-46.497 116.492-15.706-14.369-21.533-35.008-34.026-59.373-34.026z"/></g><path d="m129.349 280.099-21.306 36.903 25.981 15 8.315-44.403z" fill="#dcf2f6"/><path d="m116.876 302.3h42.612v15h-42.612z" fill="#bfe2e6" transform="matrix(.5 -.866 .866 .5 -199.204 274.57)"/><path d="m119.136 419.166c21.157-36.644 33.82-82.027 8.203-105.586-34.224-19.759-69.437 2.277-98.235 52.156-21.237 36.783-27.592 69.003-15.754 91.318 35.381 35.38 77.072 11.847 105.786-37.888z" fill="#87a0af"/><path d="m127.339 313.579c11.658 22.305 5.105 54.508-16.051 91.152-28.714 49.735-63.807 71.783-97.938 52.322 4.215 7.945 10.716 14.646 19.703 19.834 34.224 19.759 69.437-2.277 98.235-52.156s30.275-91.392-3.949-111.152z" fill="#607882"/></g><g><path d="m504.624 121.984c4.142 0 7.5-3.357 7.5-7.5v-46.922c0-12.406-10.093-22.5-22.5-22.5h-81.287c-18.955-27.179-50.441-45-86.017-45s-67.062 17.821-86.017 45h-91.955c-4.142 0-7.5 3.357-7.5 7.5s3.358 7.5 7.5 7.5h83.239c-6.456 13.594-10.075 28.785-10.075 44.808 0 57.791 47.016 104.807 104.807 104.807s104.807-47.016 104.807-104.807c0-16.022-3.619-31.214-10.075-44.808h31.571c4.136 0 7.5 3.364 7.5 7.5v194.614c0 4.136-3.364 7.5-7.5 7.5h-123.526c-3.458-6.776-7.631-13.176-12.516-19.112-14.562-17.699-35.19-30.825-58.085-36.96-22.895-6.133-47.323-5.081-68.783 2.966-23.667 8.875-43.247 25.812-56.623 48.98l-2.382 4.126h-30.58c-4.136 0-7.5-3.364-7.5-7.5v-194.614c0-4.136 3.364-7.5 7.5-7.5h18.222c4.142 0 7.5-3.357 7.5-7.5s-3.358-7.5-7.5-7.5h-18.222c-12.407 0-22.5 10.094-22.5 22.5v194.614c0 12.406 10.093 22.5 22.5 22.5h21.919l-8.482 14.691c-18.046-2.65-36.382 4.05-53.982 19.95-3.074 2.777-3.314 7.52-.537 10.593 2.776 3.074 7.519 3.315 10.593.538 19.642-17.744 39.139-21.233 57.951-10.374 38.803 22.403 17.41 72.838 1.204 100.907-13.092 22.676-37.128 55.582-66.341 55.579-6.948-.001-14.193-1.863-21.649-6.168-38.803-22.402-17.41-72.837-1.204-100.906 3.603-6.241 7.343-12.08 11.115-17.356 2.41-3.369 1.631-8.054-1.738-10.463s-8.054-1.632-10.463 1.738c-4.055 5.67-8.06 11.922-11.904 18.581-26.07 45.155-29.525 82.651-10.725 106.567l-5.633 9.756c-6.203 10.744-2.508 24.532 8.236 30.736 3.534 2.04 7.397 3.01 11.211 3.01 7.782 0 15.361-4.036 19.523-11.246l5.625-9.742c2.509.361 5.023.543 7.538.543 27.668 0 55.499-21.733 79.398-63.129 26.07-45.155 29.524-82.651 10.724-106.567l19.552-33.865c18.829-32.612 52.055-37.068 74.789-30.979 8.316 2.229 17.138 6.391 24.988 12.605h-52.479c-4.142 0-7.5 3.357-7.5 7.5s3.358 7.5 7.5 7.5h66.287c6.366 9.665 10.483 21.807 10.483 36.618v108.77c0 45.214 36.784 81.998 81.998 81.998s81.998-36.784 81.998-81.998v-14.311c0-4.143-3.358-7.5-7.5-7.5s-7.5 3.357-7.5 7.5v14.311c0 36.942-30.055 66.998-66.998 66.998s-66.998-30.056-66.998-66.998v-108.77c0-19.543-6.21-37.42-17.958-51.699-10.645-12.939-25.717-22.532-42.439-27.013s-34.57-3.708-50.26 2.174c-17.314 6.492-31.63 18.87-41.401 35.794l-2.485 4.304-12.99-7.5 2.485-4.304c27.324-47.326 75.543-53.796 108.534-44.957 32.99 8.84 71.515 38.553 71.515 93.201v108.77c0 28.672 23.326 51.998 51.998 51.998s51.998-23.326 51.998-51.998v-145.387h15v101.077c0 4.143 3.358 7.5 7.5 7.5s7.5-3.357 7.5-7.5v-101.077h33.5c12.407 0 22.5-10.094 22.5-22.5v-117.692c0-4.143-3.358-7.5-7.5-7.5s-7.5 3.357-7.5 7.5v117.692c0 4.136-3.364 7.5-7.5 7.5h-19.79c.833-2.347 1.29-4.871 1.29-7.5v-194.614c0-2.629-.458-5.153-1.29-7.5h19.79c4.136 0 7.5 3.364 7.5 7.5v46.922c.001 4.142 3.359 7.5 7.501 7.5zm-182.303 72.692c-49.52 0-89.807-40.287-89.807-89.807 0-49.521 40.287-89.808 89.807-89.808s89.807 40.287 89.807 89.808c0 49.52-40.287 89.807-89.807 89.807zm-290.089 298.633c-2.068 3.583-6.665 4.813-10.245 2.746-3.582-2.068-4.813-6.665-2.746-10.246l3.773-6.535c1.972 1.452 4.064 2.825 6.288 4.109s4.459 2.409 6.702 3.391zm105.145-182.115c-1.972-1.452-4.064-2.825-6.288-4.109-2.223-1.283-4.457-2.411-6.7-3.396l7.705-13.345 12.991 7.5zm273.747 118.87c0 20.4-16.597 36.998-36.998 36.998s-36.998-16.598-36.998-36.998v-108.77c0-12.834-1.974-25.132-5.78-36.618h79.776z"/><path d="m329.821 83.66v-46.098c0-4.143-3.358-7.5-7.5-7.5s-7.5 3.357-7.5 7.5v46.098c-8.729 3.096-15 11.433-15 21.21s6.271 18.114 15 21.21v15.618c0 4.143 3.358 7.5 7.5 7.5s7.5-3.357 7.5-7.5v-15.618c8.729-3.096 15-11.433 15-21.21s-6.271-18.114-15-21.21zm-7.5 28.71c-4.136 0-7.5-3.364-7.5-7.5s3.364-7.5 7.5-7.5 7.5 3.364 7.5 7.5-3.365 7.5-7.5 7.5z"/></g></g></svg>