<?xml version="1.0" encoding="windows-1252"?>
<!-- Generator: Adobe Illustrator 19.0.0, SVG Export Plug-In . SVG Version: 6.00 Build 0)  -->
<svg xmlns="http://www.w3.org/2000/svg" xmlns:xlink="http://www.w3.org/1999/xlink" version="1.1" id="Layer_1" x="0px" y="0px" viewBox="0 0 512.182 512.182" style="enable-background:new 0 0 512.182 512.182;" xml:space="preserve" width="512" height="512">
<g>
	<path d="M355.361,0.091H156.82l-31.916,63.832L0,126.636l63.355,385.455h385.471l63.355-385.455L387.278,63.923L355.361,0.091z    M239.118,210.091h33.946l27.338,193.191l-44.312,62.479l-44.312-62.479L239.118,210.091z M279.878,180.091h-47.574l-15-15   l38.787-38.787l0,0l0,0l38.787,38.787L279.878,180.091z M256.091,83.877l-53.787-53.787h107.574L256.091,83.877z M313.759,141.546   l-36.455-36.456l64.677-64.678l16.8,33.6L313.759,141.546z M170.2,40.413l64.677,64.678l-36.456,36.456L153.4,74.013L170.2,40.413z    M33.182,143.545l97.786-49.098l53.467,80.199l25.756,25.756l-29.787,210.497l50.49,71.191H88.827L33.182,143.545z    M458.036,271.091h-36.945v-30h-30v30h-30v30h92.014l-29.75,181H281.289l50.49-71.191l-29.788-210.496l25.757-25.756l53.466-80.199   L479,143.545L458.036,271.091z"/>
</g>















</svg>