<svg id="Capa_1" enable-background="new 0 0 513.989 513.989" height="512" viewBox="0 0 513.989 513.989" width="512" xmlns="http://www.w3.org/2000/svg"><g><g><path d="m316.901 439.594c0 1.095.776 2.037 1.85 2.248l19.213 3.76c40.663 7.958 77.52 29.226 104.758 60.449h-370.858c27.238-31.224 64.095-52.492 104.758-60.449l19.213-3.76c1.075-.21 1.85-1.152 1.85-2.248v-103.591h118.737z" fill="#ffe5c2"/><g><path d="m316.874 433.715-.112-24.275h-79.02v-56.038h78.761l-.08-17.398h-118.737v103.591c0 1.095-.775 2.037-1.85 2.248l-19.213 3.76c-40.663 7.958-77.521 29.226-104.758 60.449h57.39c24.705-21.744 54.84-36.675 87.424-43.051l.981-.192c7.271-1.423 13.267-5.936 16.758-12.01 1.545-2.688 4.485-4.223 7.564-3.865 5.05.588 10.16.892 15.313.892 20.983-.001 41.294-4.893 59.579-14.111z" fill="#fed2a4"/></g><g id="XMLID_303_"><g><path d="m325.7 52.876c-1.252-25.439-22.272-45.68-48.022-45.68h-40.37c-25.75 0-46.77 20.241-48.022 45.68v81.226h136.414z" fill="#f9f7f8"/><path d="m221.706 62.002v-8.047h103.994v-1.078c-.312-6.344-1.855-12.365-4.393-17.83-20.467-7.336-41.868-11.047-63.813-11.047-6.438 0-12.827.328-19.159.971-4.752.483-7.597-5.139-4.411-8.697 3.167-3.538 6.851-6.604 10.935-9.078h-7.549c-25.75 0-46.77 20.241-48.022 45.68v9.125h32.418z" fill="#efedef"/><path d="m329.254 54.419c79.48 35.82 104.94 136.29 52.11 205.64l-3.76 5.62-19.9 41.82h-170.46l-50.71-43.68-2.91-3.76c-18.87-24.77-27.75-53.51-27.75-81.86 0-51.01 28.77-100.75 79.86-123.78 22.82-10.28 47.29-15.42 71.76-15.42s48.94 5.14 71.76 15.42z" fill="#f9f7f8"/></g></g><g id="XMLID_299_"><g><path d="m329.254 54.42c-22.82-10.28-47.29-15.42-71.76-15.42s-48.94 5.14-71.76 15.42c-51.09 23.03-79.86 72.77-79.86 123.78 0 28.35 8.88 57.09 27.75 81.86l2.91 3.76 21.506 18.525 125.854-140.263c24.189-23.116 42.686-51.968 53.644-83.581-2.694-1.436-5.451-2.805-8.284-4.081z" fill="#efedef"/><path d="m319.234 50.279c-10.01 29.78-27.14 56.47-49.7 77.86l-126.65 141.15-6.35-5.47-2.91-3.76c-18.87-24.77-27.75-53.51-27.75-81.86 0-51.01 28.77-100.75 79.86-123.78 22.82-10.28 47.29-15.42 71.76-15.42 20.92 0 41.85 3.76 61.74 11.28z" fill="#f9f7f8"/><path d="m155.295 178.199c0-51.01 28.77-100.75 79.86-123.78 15.123-6.812 30.972-11.354 47.063-13.651-8.2-1.173-16.463-1.769-24.724-1.769-24.47 0-48.94 5.14-71.76 15.42-51.09 23.03-79.86 72.77-79.86 123.78 0 28.35 8.88 57.09 27.75 81.86l2.91 3.76 5.895 8.201 27.48-32.849c-9.882-19.404-14.614-40.29-14.614-60.972z" fill="#efedef"/></g></g><path d="m363.674 201.549c-28.01-29.7-59.47-54.05-94.14-73.41-7.94 7.54-16.56 14.41-25.78 20.54l-89.95 59.76c-11.23 7.46-17.76 20.23-17.24 33.71l2.99 77.8c1.22 31.55 14.79 59.8 35.95 80.17 21.16 20.36 49.91 32.84 81.49 32.84 63.15 0 115.01-49.91 117.44-113.01l3.14-81.51c.52-13.66-4.52-26.939-13.9-36.89z" fill="#ffe5c2"/><g><path d="m137.438 264.889c2.124-9.673 7.911-18.301 16.366-23.917l89.95-59.76c2.884-1.917 5.709-3.907 8.473-5.967 11.636-8.672 27.463-9.017 39.638-1.121 25.963 16.838 49.938 36.767 71.809 59.958 6.797 7.21 11.301 16.172 13.076 25.757l.824-21.4c.52-13.66-4.52-26.94-13.9-36.89-28.01-29.7-59.47-54.05-94.14-73.41-7.94 7.54-16.56 14.41-25.78 20.54l-89.95 59.76c-11.23 7.46-17.76 20.23-17.24 33.71z" fill="#fed2a4"/></g><g fill="#fee97d"><path d="m140.65 133.83c-11.017-5.581-19.194-13.621-24.666-24.003-1.736-3.295-6.498-3.047-7.836.429-4.121 10.706-12.076 18.678-24.023 23.806-3.509 1.506-3.396 6.495.146 7.924 11.045 4.454 18.824 12.11 23.249 23.051 1.433 3.544 6.335 3.642 7.93.168 5.102-11.108 13.442-18.912 24.902-23.532 3.454-1.392 3.619-6.16.298-7.843z"/><path d="m394.222 346.973c-8.801-4.458-15.333-10.88-19.704-19.174-1.387-2.632-5.191-2.434-6.259.343-3.292 8.552-9.646 14.92-19.19 19.017-2.803 1.203-2.713 5.189.117 6.33 8.823 3.558 15.037 9.674 18.572 18.414 1.145 2.831 5.061 2.909 6.335.134 4.075-8.874 10.738-15.107 19.892-18.798 2.759-1.113 2.891-4.922.237-6.266z"/></g></g><g><path d="m133.689 95.605c3.145 2.696 7.879 2.335 10.576-.809 12.213-14.234 27.202-25.416 44.551-33.235 38.224-17.226 81.368-19.363 120.815-6.419-13.597 35.578-38.248 66.486-70.024 87.597l-5.125 3.405c-3.45 2.293-4.389 6.947-2.097 10.397 1.444 2.174 3.826 3.351 6.254 3.351 1.426 0 2.867-.406 4.144-1.254l5.125-3.405c7.987-5.306 15.557-11.185 22.658-17.565 32.413 18.703 61.885 42.002 87.654 69.333 7.979 8.465 12.302 19.931 11.859 31.457l-2.21 57.435c-.159 4.139 3.066 7.623 7.206 7.782.098.004.195.006.293.006 4.009 0 7.334-3.171 7.489-7.212l1.014-26.36 3.603-5.382c32.708-43.074 38.363-100.122 14.754-148.944-1.804-3.728-6.284-5.29-10.018-3.486-3.729 1.804-5.29 6.288-3.486 10.018 18.611 38.485 16.906 82.674-3.745 119.005l.088-2.284c.597-15.521-5.211-30.947-15.934-42.322-25.798-27.364-55.174-50.833-87.412-69.894 18.148-19.064 32.502-41.667 41.932-66.352.841.362 1.683.718 2.519 1.095 17.869 8.053 33.215 19.658 45.613 34.493 1.483 1.775 3.613 2.69 5.759 2.69 1.696 0 3.402-.572 4.806-1.745 3.179-2.656 3.602-7.386.945-10.564-13.768-16.473-30.774-29.374-50.55-38.358-3.673-27.314-26.997-48.079-55.066-48.079h-40.369c-28.068 0-51.393 20.764-55.066 48.077-19.196 8.721-35.803 21.149-49.364 36.953-2.697 3.143-2.335 7.878.809 10.575zm103.621-80.605h40.369c17.375 0 32.253 10.898 38.015 26.365-37.739-12.721-78.667-12.72-116.407.002 5.763-15.468 20.646-26.367 38.023-26.367z"/><path d="m157.959 214.99 57.193-37.996c3.45-2.292 4.389-6.947 2.097-10.397-2.293-3.45-6.948-4.388-10.397-2.097l-57.192 37.996c-12.439 8.262-20.139 22.26-20.601 37.09-7.357-13.437-12.28-28.083-14.418-43.173-.58-4.101-4.386-6.954-8.479-6.373-4.101.581-6.954 4.377-6.373 8.479 3.396 23.961 13.032 46.919 27.901 66.438l2.347 3.033 2.022 52.55c.547 14.229 3.466 28.109 8.676 41.258 1.167 2.944 3.989 4.739 6.975 4.739.92 0 1.854-.17 2.761-.529 3.852-1.526 5.735-5.885 4.21-9.735-4.583-11.565-7.151-23.781-7.633-36.309l-2.994-77.801c-.415-10.788 4.913-21.2 13.905-27.173z"/><path d="m448.076 501.559c-28.188-32.312-66.888-54.644-108.969-62.879l-15.005-2.937v-14.528c10.116-6.438 19.362-14.357 27.39-23.615 2.714-3.129 2.377-7.866-.753-10.579-3.127-2.715-7.865-2.378-10.579.753-20.935 24.142-51.247 37.988-83.165 37.988-34.646 0-66.572-15.835-87.594-43.443-2.508-3.295-7.214-3.937-10.51-1.424-3.296 2.509-3.934 7.215-1.424 10.51 9.157 12.027 20.142 22.08 32.42 29.914v14.425l-15.004 2.937c-42.082 8.235-80.782 30.566-108.97 62.879-2.724 3.122-2.4 7.859.721 10.582 1.422 1.24 3.179 1.849 4.928 1.849 2.091 0 4.172-.87 5.654-2.569 26.01-29.815 61.719-50.42 100.548-58.02l19.217-3.761c4.581-.898 7.906-4.939 7.906-9.607v-10.54c16.069 7.354 33.751 11.269 52.107 11.269 18.202 0 35.942-3.964 52.107-11.378v10.649c0 4.668 3.325 8.709 7.91 9.608l19.214 3.76c38.829 7.599 74.537 28.204 100.547 58.02 1.482 1.699 3.562 2.569 5.654 2.569 1.749 0 3.506-.608 4.928-1.849 3.122-2.724 3.445-7.461.722-10.583z"/><path d="m181.243 266.968c10.543-10.034 26.937-9.906 37.323.291l1.165 1.144c1.46 1.434 3.357 2.147 5.254 2.147 1.942 0 3.884-.75 5.353-2.246 2.901-2.956 2.857-7.705-.099-10.606l-1.164-1.143c-16.188-15.892-41.74-16.091-58.172-.454-3.001 2.855-3.118 7.604-.264 10.604 2.858 3.002 7.605 3.117 10.604.263z"/><path d="m333.747 266.968c2.999 2.854 7.747 2.736 10.604-.264 2.854-3 2.737-7.748-.264-10.604-16.433-15.637-41.986-15.438-58.171.453l-1.165 1.144c-2.956 2.901-3 7.65-.099 10.606 1.469 1.496 3.41 2.246 5.353 2.246 1.896 0 3.794-.715 5.254-2.147l1.166-1.145c10.385-10.195 26.778-10.322 37.322-.289z"/><path d="m242.441 218.699c-17.929-9.961-38.928-13.492-59.131-9.944-4.079.717-6.806 4.604-6.089 8.685.717 4.079 4.604 6.812 8.685 6.089 16.826-2.953 34.317-.014 49.25 8.282 1.154.642 2.403.945 3.636.945 2.636 0 5.192-1.392 6.562-3.858 2.012-3.622.708-8.187-2.913-10.199z"/><path d="m276.198 232.756c1.232 0 2.482-.304 3.636-.945 14.933-8.295 32.426-11.236 49.25-8.282 4.082.722 7.968-2.01 8.685-6.089.717-4.08-2.01-7.968-6.089-8.685-20.199-3.55-41.201-.017-59.131 9.944-3.621 2.012-4.925 6.577-2.913 10.198 1.369 2.467 3.926 3.859 6.562 3.859z"/><path d="m264.705 310.529-3.723 4.229c-1.142 1.297-2.595 1.45-3.295 1.462-.741-.011-2.148-.226-3.253-1.553l-3.419-4.108c-2.751-3.306-6.321-5.882-10.323-7.45l-5.826-2.283c-3.855-1.51-8.208.391-9.72 4.247-1.511 3.856.391 8.208 4.247 9.72l5.826 2.283c1.653.647 3.129 1.713 4.267 3.079l3.419 4.108c3.613 4.342 8.925 6.877 14.573 6.955.091.002.18.002.271.002 5.549 0 10.818-2.378 14.491-6.55l3.722-4.227c.924-1.05 2.027-1.893 3.28-2.507l6.921-3.395c3.719-1.824 5.255-6.317 3.431-10.036-1.823-3.719-6.316-5.256-10.036-3.431l-6.919 3.394c-3.03 1.485-5.699 3.524-7.934 6.061z"/><path d="m219.73 377.366c12.374 8.525 24.981 12.788 37.734 12.788 12.068 0 24.267-3.819 36.51-11.458 3.515-2.192 4.586-6.819 2.394-10.333-2.192-3.515-6.821-4.587-10.333-2.394-19.92 12.429-38.823 12.114-57.795-.955-3.413-2.352-8.082-1.49-10.431 1.921-2.351 3.412-1.49 8.082 1.921 10.431z"/><path d="m81.466 148.942c9.209 3.713 15.457 9.897 19.102 18.905 1.773 4.389 5.964 7.295 10.674 7.403.092.002.183.003.273.003 4.612 0 8.812-2.693 10.751-6.919 4.279-9.317 11.112-15.763 20.892-19.705 4.35-1.755 7.176-5.747 7.376-10.421.201-4.696-2.287-8.938-6.494-11.069-9.597-4.861-16.604-11.668-21.421-20.809-2.197-4.17-6.489-6.57-11.163-6.314-4.671.274-8.62 3.166-10.307 7.546-3.423 8.893-9.959 15.307-19.983 19.608-4.373 1.878-7.164 6.168-7.111 10.928.053 4.794 2.962 9.05 7.411 10.844zm31.044-30.257c4.965 7.555 11.408 13.826 19.245 18.73-8.464 4.517-15.189 10.855-20.086 18.93-4.364-7.843-10.549-14.003-18.474-18.404 8.515-4.803 14.981-11.25 19.315-19.256z"/><path d="m346.38 360.444c6.957 2.806 11.675 7.474 14.425 14.271 1.644 4.062 5.525 6.753 9.89 6.854.085.002.169.003.254.003 4.271 0 8.161-2.492 9.96-6.406 3.25-7.076 8.444-11.974 15.881-14.972 4.03-1.625 6.649-5.326 6.836-9.658.184-4.284-2.177-8.309-6.013-10.253-.001-.001-.001-.001-.002-.001-7.377-3.737-12.76-8.964-16.458-15.981-2.005-3.803-6.079-6.102-10.344-5.845-4.329.256-7.988 2.935-9.549 6.991-2.58 6.703-7.536 11.551-15.152 14.82-4.055 1.742-6.643 5.72-6.593 10.133.05 4.441 2.745 8.383 6.865 10.044zm25.474-22.756c3.398 4.68 7.534 8.708 12.375 12.055-5.28 3.195-9.661 7.325-13.106 12.353-3.064-4.801-7.029-8.758-11.866-11.845 5.262-3.355 9.472-7.555 12.597-12.563z"/></g></g></svg>