<svg id="Layer_5" enable-background="new 0 0 64 64" height="512" viewBox="0 0 64 64" width="512" xmlns="http://www.w3.org/2000/svg" xmlns:xlink="http://www.w3.org/1999/xlink"><linearGradient id="SVGID_1_" gradientUnits="userSpaceOnUse" x1="32" x2="32" y1="63" y2="1"><stop offset="0" stop-color="#9f2fff"/><stop offset="1" stop-color="#0bb1d3"/></linearGradient><path d="m34 33c0-.552-.448-1-1-1h-2c-1.654 0-3-1.346-3-3s1.346-3 3-3v-2h2v2c1.654 0 3 1.346 3 3h-2c0-.552-.448-1-1-1h-2c-.552 0-1 .448-1 1s.448 1 1 1h2c1.654 0 3 1.346 3 3s-1.346 3-3 3v2h-2v-2c-1.654 0-3-1.346-3-3h2c0 .552.448 1 1 1h2c.552 0 1-.448 1-1zm27 26.586-10.293-10.293-1.414 1.414 10.293 10.293h-2.586v2h6v-6h-2zm0-9.586h-2v1.586l-5.293-5.293-1.414 1.414 8.707 8.707zm-14.707 3.707 5.293 5.293h-2.586v2h7.414l-8.707-8.707zm-43.293-49.293 10.293 10.293 1.414-1.414-10.293-10.293h2.586v-2h-6v6h2zm0 9.586h2v-1.586l5.293 5.293 1.414-1.414-8.707-8.707zm12-11h-7.414l8.707 8.707 1.414-1.414-5.293-5.293h2.586zm16-2h32v32h-19.998l.323 4.524c3.074 1.731 7.675 5.059 7.675 9.476v1h-7.815c-.461.173-1.773.638-3.635 1.079l.592 2.363-.587.391c-.122.082-2.814 1.843-6.555 2.126v9.041h-32v-32h20.141l.128-1.784c.49-6.874 3.444-13.343 8.317-18.216.397-.397.89-.657 1.414-.81zm-3 15h8c-.889-1.273-1.889-2.475-3-3.586-.535-.533-1.465-.533-2 0-1.111 1.111-2.111 2.313-3 3.586zm-4.737 13.358-.932 13.051c1.725.568 5.426 1.591 9.669 1.591s7.944-1.023 9.669-1.591l-.932-13.051c-.288-4.028-1.488-7.905-3.469-11.358h-10.536c-1.981 3.453-3.181 7.33-3.469 11.358zm-3.194 16.642.432-6.045c-2.243 1.413-4.824 3.531-5.389 6.045zm10.931 15v-7.042c-3.74-.283-6.433-2.044-6.555-2.126l-.587-.391.592-2.363c-1.861-.441-3.174-.905-3.635-1.079h-7.815v-1c0-4.417 4.601-7.745 7.675-9.476l.323-4.523h-17.998v28zm6.59-11.515c-1.655.295-3.56.515-5.59.515s-3.935-.22-5.59-.515l-.256 1.025c1.011.53 3.207 1.49 5.846 1.49s4.834-.96 5.847-1.49zm4.358-3.169-.133-1.855c-1.996.619-5.661 1.539-9.815 1.539s-7.819-.92-9.816-1.539l-.132 1.854c1.534.519 5.477 1.685 9.948 1.685 4.483 0 8.418-1.165 9.948-1.684zm1.551-6.361.432 6.045h4.956c-.564-2.514-3.145-4.633-5.388-6.045zm-10.499-36.955v7.19c.524.152 1.017.412 1.414.81 4.873 4.873 7.827 11.342 8.317 18.216l.128 1.784h18.141v-28zm24 6h2v-4h-8v2h6zm0 4h2v-2h-2zm0 8h2v-2h-2zm0-4h2v-2h-2zm-50 38h-2v4h8v-2h-6zm0-4h-2v2h2zm0-4h-2v2h2zm0-4h-2v2h2z" fill="url(#SVGID_1_)"/></svg>