<svg id="Layer_5" enable-background="new 0 0 64 64" height="512" viewBox="0 0 64 64" width="512" xmlns="http://www.w3.org/2000/svg" xmlns:xlink="http://www.w3.org/1999/xlink"><linearGradient id="SVGID_1_" gradientUnits="userSpaceOnUse" x1="32" x2="32" y1="63" y2="1"><stop offset="0" stop-color="#9f2fff"/><stop offset="1" stop-color="#0bb1d3"/></linearGradient><path d="m32 40c4.411 0 8-3.589 8-8s-3.589-8-8-8-8 3.589-8 8 3.589 8 8 8zm0-14c3.309 0 6 2.691 6 6s-2.691 6-6 6-6-2.691-6-6 2.691-6 6-6zm0 10c2.206 0 4-1.794 4-4s-1.794-4-4-4-4 1.794-4 4 1.794 4 4 4zm0-6c1.103 0 2 .897 2 2s-.897 2-2 2-2-.897-2-2 .897-2 2-2zm-6.57 13.814 1.748-.836c.156.069.313.135.471.196l.643 1.826h7.415l.645-1.826c.157-.062.314-.127.471-.196l1.748.836 5.244-5.244-.836-1.748c.069-.156.135-.313.196-.471l1.825-.643v-7.415l-1.826-.645c-.062-.157-.127-.314-.196-.471l.836-1.748-5.244-5.244-1.748.836c-.156-.069-.313-.135-.471-.196l-.643-1.825h-7.415l-.645 1.826c-.157.062-.314.127-.471.196l-1.748-.836-5.244 5.244.836 1.748c-.069.156-.135.313-.196.471l-1.825.643v7.415l1.826.645c.062.157.127.314.196.471l-.836 1.748zm-4.43-9.522v-4.585l1.392-.491.157-.458c.131-.383.292-.769.478-1.147l.213-.435-.638-1.334 3.242-3.242 1.334.638.435-.213c.378-.186.764-.346 1.147-.478l.458-.157.49-1.39h4.585l.491 1.392.458.157c.383.131.769.292 1.147.478l.435.213 1.334-.638 3.242 3.242-.638 1.334.213.435c.186.378.346.764.478 1.147l.157.458 1.39.49v4.585l-1.392.491-.157.458c-.131.383-.292.769-.478 1.147l-.213.435.638 1.334-3.242 3.242-1.334-.638-.435.213c-.378.186-.764.346-1.147.478l-.458.157-.49 1.39h-4.585l-.491-1.392-.458-.157c-.383-.131-.769-.292-1.147-.478l-.435-.213-1.334.638-3.242-3.242.638-1.334-.213-.435c-.186-.378-.346-.764-.478-1.147l-.157-.458zm-17 28.708h10c1.654 0 3-1.346 3-3v-10c0-1.654-1.346-3-3-3h-10c-1.654 0-3 1.346-3 3v10c0 1.654 1.346 3 3 3zm-1-13c0-.551.449-1 1-1h10c.551 0 1 .449 1 1v10c0 .551-.449 1-1 1h-10c-.551 0-1-.449-1-1zm57-26h-10c-1.654 0-3 1.346-3 3v10c0 1.654 1.346 3 3 3h10c1.654 0 3-1.346 3-3v-10c0-1.654-1.346-3-3-3zm1 13c0 .551-.449 1-1 1h-10c-.551 0-1-.449-1-1v-10c0-.551.449-1 1-1h10c.551 0 1 .449 1 1zm-51-20h10c1.654 0 3-1.346 3-3v-10c0-1.654-1.346-3-3-3h-10c-1.654 0-3 1.346-3 3v10c0 1.654 1.346 3 3 3zm-1-13c0-.551.449-1 1-1h10c.551 0 1 .449 1 1v10c0 .551-.449 1-1 1h-10c-.551 0-1-.449-1-1zm-2 55.414-2.707-2.707 1.414-1.414 1.293 1.293 5.293-5.293 1.414 1.414zm6-46-2.707-2.707 1.414-1.414 1.293 1.293 5.293-5.293 1.414 1.414zm45.293 14.879 1.414 1.414-6.707 6.707-2.707-2.707 1.414-1.414 1.293 1.293zm-26.293 30.707c-3.951 0-7.759-.834-11.318-2.48l.839-1.815c3.294 1.523 6.82 2.295 10.479 2.295 8.519 0 16.335-4.339 20.927-11.451l-5.684 1.421-.485-1.94 9.095-2.273 1.14 9.12-1.984.248-.641-5.128c-4.989 7.463-13.309 12.003-22.368 12.003zm-22.225-13.572-8.258-4.552.966-1.752 4.452 2.455c-1.28-3.185-1.935-6.396-1.935-9.579 0-3.984.848-7.822 2.521-11.407l1.813.846c-1.549 3.318-2.334 6.871-2.334 10.561 0 2.938.612 5.913 1.807 8.874l1.22-5.106 1.945.465zm22.67-34.596-7.248-4.832 7.248-4.832 1.109 1.664-3.251 2.168h1.697c10.104 0 19.284 5.57 23.957 14.536l-1.773.925c-4.328-8.303-12.829-13.461-22.184-13.461h-1.697l3.252 2.168z" fill="url(#SVGID_1_)"/></svg>