<svg id="Capa_1" enable-background="new 0 0 511.893 511.893" height="512" viewBox="0 0 511.893 511.893" width="512" xmlns="http://www.w3.org/2000/svg"><g><g><g id="XMLID_262_"><g><path d="m401.256 87.261c49.61 19.34 77.21 72.45 64.53 124.17-.38 1.56-.58 3.16-.58 4.76v50.079c0 12.492-7.408 23.794-18.862 28.778l-66.288 28.843-3.29 44.51-1.29 20.26c-2.2 34.61 4.42 69.21 19.24 100.56l1.043 2.204c2.852 6.025-1.543 12.966-8.208 12.966h-262.209c-6.666 0-11.06-6.942-8.208-12.966l1.043-2.204c14.82-31.35 21.44-65.95 19.24-100.56l-1.29-20.26-11.71-53.51-56.999-20.569c-12.44-4.489-20.731-16.295-20.731-29.521v-48.61c0-1.6-.2-3.2-.58-4.76-12.68-51.72 14.92-104.83 64.53-124.17l82.94-32.34c8.719-3.4 14.46-11.8 14.46-21.159v-19.643c0-3.655 2.963-6.618 6.618-6.618h82.584c3.655 0 6.618 2.963 6.618 6.618v19.642c0 9.359 5.741 17.76 14.461 21.161z" fill="#ffe5c2"/></g></g><path d="m100.557 286.874v-49.233c0-1.621-.2-3.241-.58-4.821-12.68-52.382 14.92-106.172 64.53-125.76l82.94-32.754c8.719-3.443 14.46-11.951 14.46-21.429v-19.895c0-3.702 2.963-6.703 6.618-6.703h35.331v-12.16c0-3.655-2.963-6.618-6.618-6.618h-82.584c-3.655 0-6.618 2.963-6.618 6.618v19.643c0 9.358-5.741 17.759-14.46 21.158l-82.94 32.34c-49.61 19.34-77.21 72.45-64.53 124.17.38 1.56.58 3.16.58 4.76v48.611c0 13.225 8.291 25.031 20.731 29.521l42.772 15.435c-6.015-5.869-9.632-14.056-9.632-22.883z" fill="#fed2a4"/><g><path d="m181.763 334.562v19.13l-3.476-16.087-53.152-19.426 10.991 50.222 1.29 20.26c2.2 34.61-4.42 69.21-19.24 100.56l-1.043 2.204c-2.851 6.025 1.543 12.966 8.209 12.966h50.942c11.814-29.098 16.98-60.577 15.004-92.072l-.799-11.433c-.398-5.693 3.219-10.841 8.666-12.545.031-.01.062-.02.094-.029l32.807-10.302c7.9-2.484 16.107-3.744 24.391-3.744s16.491 1.26 24.398 3.746l32.811 10.304c10.811 3.388 22.005 5.105 33.271 5.105 9.693 0 19.273-1.294 28.503-3.763.019-.332.026-.664.047-.997l1.29-20.26 2.501-33.839z" fill="#fed2a4"/><g id="XMLID_259_"><g><path d="m420.126 227.921c24.21 32.59 23.94 77.27-.66 109.57-17.56 23.05-44.59 35.93-72.54 35.93-9.1 0-18.29-1.37-27.29-4.19l-32.8-10.3c-19.78-6.22-41-6.22-60.78 0l-32.8 10.3c-36.64 11.5-76.56-1.19-99.83-31.74-12.42-16.3-18.64-35.76-18.64-55.23 0-19.1 5.99-38.2 17.98-54.34l44.4-59.79 12.27-101.06c.5-4.08 3.14-7.59 6.93-9.19l6.7-2.82c8.1-3.43 16.88 3.18 15.84 11.92l-12.56 105.36c18.72 17.02 33.79 37.33 44.61 59.69 10.82 22.37 17.39 46.79 19.12 72.03.35 5.11 2.65 9.64 6.14 12.9s8.17 5.24 13.28 5.24h13.9c10.23 0 18.72-7.93 19.42-18.14 3.45-50.48 26.29-97.68 63.73-131.72l-12.56-105.36c-1.04-8.74 7.74-15.35 15.84-11.92l6.7 2.82c3.79 1.6 6.43 5.11 6.93 9.19l12.27 101.06z" fill="#feaee1"/></g></g></g><path d="m438.08 280.284c-3.029 10.95-8.141 21.454-15.334 30.899-17.56 23.05-44.59 35.93-72.54 35.93-9.1 0-18.29-1.37-27.29-4.19l-32.8-10.3c-19.78-6.22-41-6.22-60.78 0l-32.8 10.3c-15.885 4.986-32.382 5.412-47.875 1.814-7.524-1.747-14.264-6.042-18.952-12.18-.024-.031-.048-.063-.072-.094-12.42-16.3-18.64-35.76-18.64-55.23 0-19.1 5.99-38.2 17.98-54.34l37.47-50.458c-.034-.031-.067-.063-.101-.094l12.56-105.36c1.04-8.74-7.74-15.35-15.84-11.92l-6.7 2.82c-3.79 1.6-6.43 5.11-6.93 9.19l-12.27 101.06-44.4 59.79c-11.99 16.14-17.98 35.24-17.98 54.34 0 19.47 6.22 38.93 18.64 55.23 23.27 30.55 63.19 43.24 99.83 31.74l32.8-10.3c19.78-6.22 41-6.22 60.78 0l32.8 10.3c9 2.82 18.19 4.19 27.29 4.19 27.95 0 54.98-12.88 72.54-35.93 12.839-16.858 19.051-37.084 18.614-57.207z" fill="#fe93d3"/></g><g><path d="m64.632 333.78c-1.886-3.688-6.403-5.151-10.091-3.266s-5.151 6.402-3.266 10.092c2.693 5.271 5.735 10.349 9.04 15.092 1.458 2.093 3.79 3.214 6.16 3.214 1.48 0 2.975-.438 4.281-1.348 3.398-2.367 4.234-7.042 1.866-10.44-2.917-4.187-5.606-8.677-7.99-13.344z"/><path d="m215.012 385.979-15.011 4.715c-1.167.366-2.34.703-3.516 1.03-3.99 1.113-6.322 5.25-5.209 9.239.925 3.316 3.938 5.487 7.22 5.487.667 0 1.345-.09 2.019-.277 1.082-.302 2.512-.708 3.98-1.169l15.011-4.715c3.952-1.241 6.149-5.451 4.908-9.402s-5.447-6.152-9.402-4.908z"/><path d="m110.361 397.317c2.716 0 5.338-1.48 6.67-4.061 1.901-3.68.458-8.204-3.222-10.105-6.238-3.222-12.179-7.009-17.658-11.257-3.274-2.538-7.985-1.94-10.522 1.332-2.538 3.274-1.941 7.985 1.332 10.523 6.2 4.806 12.917 9.089 19.966 12.729 1.1.57 2.276.839 3.434.839z"/><path d="m457.352 330.515c-3.688-1.886-8.206-.423-10.091 3.266-2.384 4.667-5.073 9.156-7.99 13.344-2.368 3.398-1.532 8.073 1.866 10.44 1.307.91 2.801 1.348 4.281 1.348 2.37 0 4.702-1.121 6.16-3.214 3.305-4.743 6.347-9.821 9.04-15.092 1.885-3.69.422-8.208-3.266-10.092z"/><path d="m315.407 391.724c-1.176-.327-2.349-.664-3.516-1.03l-15.011-4.714c-3.952-1.243-8.162.957-9.402 4.908-1.241 3.952.957 8.161 4.908 9.402l15.011 4.714c1.468.461 2.898.867 3.98 1.169.674.188 1.352.277 2.019.277 3.282 0 6.295-2.171 7.22-5.487 1.113-3.989-1.219-8.126-5.209-9.239z"/><path d="m415.742 371.895c-5.479 4.248-11.42 8.035-17.658 11.257-3.681 1.901-5.123 6.426-3.222 10.105 1.332 2.58 3.954 4.061 6.67 4.061 1.159 0 2.335-.27 3.435-.838 7.049-3.641 13.766-7.924 19.966-12.729 3.273-2.538 3.87-7.249 1.332-10.523s-7.25-3.871-10.523-1.333z"/><path d="m207.973 225.833c-3.734 1.793-5.308 6.273-3.516 10.007 10.397 21.66 16.5 44.785 18.141 68.734.965 14.087 12.781 25.122 26.901 25.122h13.893c14.12 0 25.937-11.035 26.901-25.122 3.342-48.794 25.113-93.783 61.301-126.682 1.794-1.632 2.689-4.03 2.402-6.438l-4.004-33.573c-.491-4.112-4.222-7.055-8.335-6.559-4.113.49-7.05 4.223-6.559 8.335l3.552 29.779c-34.915 32.957-56.8 76.581-62.386 124.091-8.284-9.634-12.819-21.819-12.819-34.603 0-14.188 5.525-27.527 15.558-37.56l8.356-8.355c2.929-2.929 2.929-7.678 0-10.606-2.929-2.929-7.678-2.93-10.606-.001l-8.356 8.356c-5.086 5.086-9.252 10.842-12.451 17.058-3.199-6.217-7.365-11.973-12.451-17.059l-8.356-8.355c-2.929-2.928-7.678-2.929-10.606.001-2.929 2.929-2.929 7.678 0 10.606l8.356 8.354c10.032 10.033 15.558 23.373 15.558 37.561 0 12.326-4.226 24.089-11.954 33.552-2.698-21.913-8.899-43.103-18.512-63.128-1.793-3.734-6.273-5.307-10.008-3.515zm47.973 64.206c2.937 5.711 6.701 11.031 11.226 15.796l4.87 5.128c-2.19 2.298-5.267 3.734-8.65 3.734h-13.892c-3.642 0-6.93-1.661-9.136-4.274l4.356-4.587c4.526-4.766 8.289-10.086 11.226-15.797z"/><path d="m463.535 133.748c-12.715-24.468-33.866-43.459-59.557-53.477l-32.924-12.838-.154-1.269c-.817-6.732-5.205-12.553-11.454-15.19l-6.698-2.827c-6.297-2.656-13.318-1.792-18.78 2.318-.713.536-1.377 1.115-1.997 1.729l-10.93-4.262c-5.883-2.294-9.684-7.856-9.684-14.171v-26.261c0-4.143-3.358-7.5-7.5-7.5s-7.5 3.357-7.5 7.5v26.261c0 12.542 7.55 23.59 19.235 28.146l10.826 4.221c.017.577.051 1.157.12 1.74l4.763 39.939c.49 4.113 4.229 7.053 8.335 6.56 4.113-.49 7.049-4.223 6.559-8.335l-4.763-39.939c-.244-2.047 1.005-3.228 1.554-3.641.549-.412 2.03-1.286 3.929-.484l6.698 2.826c1.307.552 2.225 1.77 2.395 3.179l12.272 101.057c.157 1.292.648 2.521 1.424 3.567l44.401 59.791c22.083 29.737 21.834 71.086-.606 100.554-21.284 27.951-58.101 39.655-91.618 29.13l-32.794-10.3c-21.354-6.707-43.928-6.707-65.282 0l-32.794 10.3c-33.517 10.526-70.335-1.18-91.619-29.13-22.44-29.468-22.689-70.816-.605-100.554l44.402-59.791c.776-1.046 1.267-2.275 1.424-3.567l12.271-101.06c.171-1.408 1.089-2.626 2.395-3.177l6.699-2.828c1.9-.798 3.38.073 3.929.485.548.413 1.798 1.594 1.554 3.641l-12.565 105.363c-.287 2.407.608 4.806 2.402 6.438 10.206 9.277 19.417 19.718 27.376 31.03 2.383 3.389 7.062 4.203 10.449 1.818 3.388-2.384 4.202-7.062 1.818-10.449-7.843-11.147-16.813-21.512-26.699-30.854l12.113-101.57c.085-.715.122-1.427.129-2.133l9.817-3.829c11.685-4.556 19.235-15.604 19.235-28.146v-26.259c0-4.143-3.358-7.5-7.5-7.5s-7.5 3.357-7.5 7.5v26.261c0 6.314-3.801 11.877-9.685 14.171l-10.221 3.986c-.537-.51-1.102-.998-1.705-1.452-5.462-4.112-12.485-4.978-18.78-2.319l-6.699 2.828c-6.248 2.637-10.636 8.457-11.453 15.188l-.105.861-33.974 13.247c-25.69 10.018-46.841 29.009-59.557 53.477s-16.102 52.691-9.535 79.474c.238.97.359 1.97.359 2.971v70.646c0 4.143 3.358 7.5 7.5 7.5s7.5-3.357 7.5-7.5v-70.646c0-2.204-.266-4.405-.791-6.544-11.74-47.88 14.042-97.492 59.972-115.402l26.473-10.322-9.875 81.326-43.217 58.195c-12.854 17.309-19.579 37.854-19.449 59.412.13 21.56 7.103 42.021 20.165 59.173 10.954 14.386 25.4 25.113 41.486 31.614l.984 15.491c2.112 33.253-4.298 66.753-18.539 96.877l-7.173 15.173c-1.771 3.744-.17 8.215 3.575 9.985 1.036.49 2.126.722 3.201.722 2.81 0 5.505-1.587 6.785-4.297l7.173-15.173c12.326-26.075 19.188-54.5 20.222-83.247 5.735.951 11.538 1.535 17.288 1.693.071.002.141.003.211.003 4.046 0 7.381-3.223 7.493-7.293.115-4.141-3.149-7.59-7.29-7.704-5.685-.157-11.436-.762-17.095-1.796-.203-.037-.404-.059-.606-.079-.069-1.939-.153-3.877-.276-5.815l-.619-9.74c7.13 1.611 14.449 2.445 21.822 2.445 9.815-.001 19.729-1.469 29.403-4.507l32.793-10.3c18.415-5.782 37.88-5.782 56.293 0l32.794 10.3c16.944 5.321 34.6 5.81 51.226 2.052l-.62 9.751c-.122 1.925-.205 3.852-.274 5.779-.529-.018-1.066.016-1.608.115-5.659 1.034-11.41 1.639-17.095 1.796-4.141.114-7.405 3.563-7.29 7.704.112 4.07 3.447 7.293 7.493 7.293.07 0 .141-.001.211-.003 6.08-.167 12.22-.802 18.275-1.854.386 11.057 1.627 22.086 3.733 32.971.693 3.585 3.834 6.076 7.355 6.076.472 0 .952-.045 1.433-.138 4.067-.786 6.726-4.721 5.939-8.788-3.186-16.469-4.263-33.291-3.202-50l.984-15.486c16.087-6.501 30.532-17.235 41.487-31.62 13.062-17.152 20.034-37.613 20.164-59.173.13-21.559-6.596-42.104-19.449-59.412l-43.217-58.195-9.826-80.917 25.423 9.913c45.931 17.91 71.713 67.522 59.972 115.401-.524 2.139-.791 4.341-.791 6.545v70.646c0 4.143 3.358 7.5 7.5 7.5s7.5-3.357 7.5-7.5v-70.646c0-1.001.121-2.001.359-2.972 6.57-26.782 3.184-55.005-9.531-79.473z"/><path d="m401.502 486.013c-2.123-4.492-4.168-9.324-6.079-14.361-1.469-3.872-5.796-5.821-9.673-4.353-3.873 1.47-5.821 5.8-4.353 9.673 2.05 5.404 4.251 10.604 6.543 15.451l7.172 15.173c1.281 2.71 3.975 4.297 6.786 4.297 1.074 0 2.165-.232 3.2-.722 3.745-1.77 5.346-6.24 3.576-9.985z"/></g></g></svg>