<svg id="Layer_1" data-name="Layer 1" xmlns="http://www.w3.org/2000/svg" viewBox="0 0 339.05 45"><defs><style>.cls-1,.cls-2{fill:#3e265c;}.cls-1{fill-rule:evenodd;}</style></defs><path class="cls-1" d="M184.42,7H122.88a7,7,0,0,0-7,7.05V37.54a7,7,0,0,0,7,7h29.15L165.38,52l-3-7.42h22.07a7,7,0,0,0,7.05-7V14.05A7,7,0,0,0,184.42,7Zm-62.83,5.44a2.47,2.47,0,0,0-2,1,2.77,2.77,0,0,0-.5,2.07q2.74,17.38,5.1,23.46c.62,1.48,1.33,2.19,2.17,2.13,1.3-.09,2.84-1.89,4.66-5.38q1.44-3,4.45-8.9Q138,35.54,142.36,40a3.11,3.11,0,0,0,2.44,1.14A2,2,0,0,0,146.43,40a3.69,3.69,0,0,0,.38-2,57.4,57.4,0,0,1,.86-11.78c.8-5.19,1.79-8.93,3-11.16a2.64,2.64,0,0,0,.31-1.48,2.4,2.4,0,0,0-1-1.76,2.72,2.72,0,0,0-2-.62,2.4,2.4,0,0,0-2,1.36q-2.86,5.24-4.08,17A58,58,0,0,1,139,18.93c-.34-1.82-1.18-2.69-2.54-2.6a2.94,2.94,0,0,0-2.31,1.86L127.4,31.08q-1.68-6.73-3.13-16.42A2.25,2.25,0,0,0,121.59,12.44Zm59.55,2.22a7.13,7.13,0,0,1,5,3.59,11.69,11.69,0,0,1,1.48,6.09,16.56,16.56,0,0,1-2.41,8.75c-1.85,3.09-4.26,4.63-7.26,4.63a8.34,8.34,0,0,1-1.67-.18A7.15,7.15,0,0,1,171.28,34a12,12,0,0,1-1.48-6.12,16.32,16.32,0,0,1,2.41-8.71c1.89-3.1,4.3-4.64,7.26-4.64A8.27,8.27,0,0,1,181.14,14.66Zm-1.29,16.73a8.19,8.19,0,0,0,2.34-4.58,12.71,12.71,0,0,0,.22-2.29,7.89,7.89,0,0,0-.56-2.81c-.46-1.2-1.08-1.85-1.82-2-1.11-.21-2.19.4-3.21,1.92a9.9,9.9,0,0,0-1.64,3.68,10.35,10.35,0,0,0-.22,2.25,7.9,7.9,0,0,0,.56,2.82c.46,1.2,1.08,1.85,1.82,2A3,3,0,0,0,179.85,31.39ZM166.71,18.25a7.19,7.19,0,0,0-5-3.59,8.25,8.25,0,0,0-1.66-.18c-3,0-5.38,1.54-7.27,4.64a16.41,16.41,0,0,0-2.41,8.71A12,12,0,0,0,151.91,34a7.13,7.13,0,0,0,4.94,3.59,8.34,8.34,0,0,0,1.67.18c3,0,5.41-1.54,7.26-4.63a16.56,16.56,0,0,0,2.41-8.75A11.69,11.69,0,0,0,166.71,18.25Zm-3.89,8.56a8.26,8.26,0,0,1-2.35,4.58,3,3,0,0,1-2.51,1c-.74-.15-1.36-.8-1.82-2a7.9,7.9,0,0,1-.56-2.82,11,11,0,0,1,.22-2.25,9.9,9.9,0,0,1,1.64-3.68c1-1.52,2.1-2.13,3.21-1.92.74.16,1.36.81,1.83,2a7.87,7.87,0,0,1,.55,2.81A11.14,11.14,0,0,1,162.82,26.81Z" transform="translate(0 -7)"/><path class="cls-2" d="M199.29,18a10.43,10.43,0,0,0-3.1,7.79A11.19,11.19,0,0,0,199.25,34a10.74,10.74,0,0,0,8,3.12,11.56,11.56,0,0,0,3.21-.49v-5a10.34,10.34,0,0,1-2.81.46,5,5,0,0,1-3.92-1.63,6.51,6.51,0,0,1-1.49-4.49,6.44,6.44,0,0,1,1.45-4.32,4.62,4.62,0,0,1,3.68-1.7,11.46,11.46,0,0,1,3.09.46v-5a13.25,13.25,0,0,0-3.37-.4A10.51,10.51,0,0,0,199.29,18Zm21.44-3.06a8.3,8.3,0,0,0-6.67,2.85c-1.61,1.88-2.38,4.54-2.38,7.94,0,3.68.8,6.49,2.38,8.44A8.41,8.41,0,0,0,221,37.07a8.24,8.24,0,0,0,6.77-2.93c1.58-2,2.38-4.7,2.38-8.23s-.8-6.24-2.41-8.15A8.75,8.75,0,0,0,220.73,14.91ZM223.18,31a2.74,2.74,0,0,1-2.45,1.3,2.47,2.47,0,0,1-2.25-1.3c-.53-.86-.77-2.59-.77-5.22,0-4.05,1-6.06,3.09-6.06s3.27,2,3.27,6.15C224,28.39,223.73,30.12,223.18,31ZM245.4,15.5l-1.11,4.73c-.28,1.2-.56,2.44-.81,3.71l-.62,3.27q-.87-4.91-2.41-11.71h-7.17l-2.69,21H236l1.45-14.5,3.68,14.5h3.83l3.53-14.47L250,36.55h5.63l-2.85-21Zm25.74,0L270,20.23c-.28,1.2-.56,2.44-.8,3.71l-.62,3.27q-.89-4.91-2.41-11.71H259l-2.69,21h5.38l1.45-14.5,3.68,14.5h3.83l3.49-14.47,1.52,14.47h5.62l-2.84-21Zm17.5,12.73h5V23.87h-5V20h5.81V15.53H283v21h11.53V32.1h-5.84Zm21.85-3.34a5.64,5.64,0,0,0,.89-3,5.54,5.54,0,0,0-2.31-4.7,10.53,10.53,0,0,0-6.34-1.73h-6.61v21h5.68V27h.1l4.6,9.58h6L308,27.06A5.69,5.69,0,0,0,310.49,24.89Zm-8.72-.34v-5a5.24,5.24,0,0,1,2.91.68,2.41,2.41,0,0,1,.86,2.1C305.54,23.78,304.28,24.52,301.77,24.55Zm13-6.58a10.46,10.46,0,0,0-3.09,7.79A11.19,11.19,0,0,0,314.69,34a10.74,10.74,0,0,0,8,3.12,11.62,11.62,0,0,0,3.21-.49v-5a10.34,10.34,0,0,1-2.81.46,5.07,5.07,0,0,1-3.93-1.63,6.5,6.5,0,0,1-1.48-4.49,6.39,6.39,0,0,1,1.45-4.32,4.62,4.62,0,0,1,3.68-1.7,11.46,11.46,0,0,1,3.09.46v-5a13.25,13.25,0,0,0-3.37-.4A10.58,10.58,0,0,0,314.72,18ZM333.17,32V28.2h5V23.84h-5V20H339V15.5H327.52v21h11.53V32.07h-5.88Z" transform="translate(0 -7)"/><path class="cls-2" d="M0,44.57V7H13.81a26.74,26.74,0,0,1,6.63.71A11.9,11.9,0,0,1,24.9,9.76,8,8,0,0,1,27.42,13a10.87,10.87,0,0,1,.79,4.22,8.44,8.44,0,0,1-.35,2.45,7.3,7.3,0,0,1-1.15,2.21,8.76,8.76,0,0,1-2,1.85,13.24,13.24,0,0,1-2.92,1.46,10.28,10.28,0,0,1,5.49,2.92,7.6,7.6,0,0,1,1.77,5.21,10.42,10.42,0,0,1-3.67,8A13,13,0,0,1,21,43.74a18.68,18.68,0,0,1-6,.87H0ZM8.72,22.78h4.54a17.24,17.24,0,0,0,2.6-.19,5.78,5.78,0,0,0,2-.71,3.36,3.36,0,0,0,1.22-1.42,5.38,5.38,0,0,0,.43-2.29,6.25,6.25,0,0,0-.35-2.25,3.12,3.12,0,0,0-1-1.42,4.51,4.51,0,0,0-1.77-.79,11.81,11.81,0,0,0-2.53-.24H8.72Zm0,5.84V38h6.16a8.18,8.18,0,0,0,2.84-.44,4.07,4.07,0,0,0,1.69-1.14,4.17,4.17,0,0,0,.87-1.58A6.75,6.75,0,0,0,20.52,33a5.44,5.44,0,0,0-.28-1.85,2.77,2.77,0,0,0-.94-1.38,5.16,5.16,0,0,0-1.74-.87,10.18,10.18,0,0,0-2.72-.32Z" transform="translate(0 -7)"/><path class="cls-2" d="M43.21,17.42a13.46,13.46,0,0,1,4.85.83,10.52,10.52,0,0,1,3.79,2.4,11,11,0,0,1,2.49,3.87,14.26,14.26,0,0,1,.9,5.17c0,.59,0,1.1-.07,1.46a2.51,2.51,0,0,1-.28.91,1,1,0,0,1-.55.47,2.82,2.82,0,0,1-.91.12H38a7.53,7.53,0,0,0,2,4.85A6,6,0,0,0,44.31,39a8.77,8.77,0,0,0,2.41-.31,14.46,14.46,0,0,0,1.78-.75c.51-.28,1-.52,1.46-.75a2.81,2.81,0,0,1,1.38-.36,1.73,1.73,0,0,1,1.46.71l2.33,2.88a11.07,11.07,0,0,1-2.69,2.29,12.71,12.71,0,0,1-2.92,1.38,16.12,16.12,0,0,1-3,.71,24.2,24.2,0,0,1-2.88.2,15.66,15.66,0,0,1-5.28-.91,11.5,11.5,0,0,1-4.31-2.72,12.49,12.49,0,0,1-2.92-4.5,16.76,16.76,0,0,1-1.06-6.23A14.48,14.48,0,0,1,31,25.55a12.44,12.44,0,0,1,2.64-4.23,13.08,13.08,0,0,1,4.14-2.88A14,14,0,0,1,43.21,17.42Zm.16,5.52a4.85,4.85,0,0,0-3.59,1.3A6.79,6.79,0,0,0,38.08,28h10a7.56,7.56,0,0,0-.23-1.85A4.89,4.89,0,0,0,47,24.52a3.88,3.88,0,0,0-1.46-1.14A4.69,4.69,0,0,0,43.37,22.94Z" transform="translate(0 -7)"/><path class="cls-2" d="M92,29.09H83.19V38H80.45V29.09H71.68V26.54h8.77V17.66h2.74v8.88H92Z" transform="translate(0 -7)"/></svg>