<?xml version="1.0" encoding="utf-8"?>
<!-- Generator: Adobe Illustrator 25.0.1, SVG Export Plug-In . SVG Version: 6.00 Build 0)  -->
<svg version="1.1" id="Layer_1" xmlns="http://www.w3.org/2000/svg" xmlns:xlink="http://www.w3.org/1999/xlink" x="0px" y="0px"
	 viewBox="0 0 100 75" style="enable-background:new 0 0 100 75;" xml:space="preserve">
<style type="text/css">
	.st0{fill:#0089F7;}
</style>
<g>
	<path class="st0" d="M40.6,1.6H2.9C1.3,1.6,0,2.9,0,4.6v37.7c0,1.6,1.3,2.9,2.9,2.9h15.9v25.3c0,1.6,1.3,2.9,2.9,2.9h9.4
		c1.3,0,2.4-0.8,2.8-2l9.4-28.2c0.1-0.3,0.2-0.6,0.2-0.9V4.6C43.5,2.9,42.2,1.6,40.6,1.6z"/>
	<path class="st0" d="M97.1,1.6H59.4c-1.6,0-2.9,1.3-2.9,2.9v37.7c0,1.6,1.3,2.9,2.9,2.9h15.9v25.3c0,1.6,1.3,2.9,2.9,2.9h9.4
		c1.3,0,2.4-0.8,2.8-2l9.4-28.2c0.1-0.3,0.2-0.6,0.2-0.9V4.6C100,2.9,98.7,1.6,97.1,1.6z"/>
</g>
</svg>
