<?xml version="1.0" encoding="utf-8"?>
<!-- Generator: Adobe Illustrator 25.0.1, SVG Export Plug-In . SVG Version: 6.00 Build 0)  -->
<svg version="1.1" id="Layer_1" xmlns="http://www.w3.org/2000/svg" xmlns:xlink="http://www.w3.org/1999/xlink" x="0px" y="0px"
	 viewBox="0 0 40 9" style="enable-background:new 0 0 40 9;" xml:space="preserve">
<style type="text/css">
	.st0{fill-rule:evenodd;clip-rule:evenodd;fill:#38373A;}
	.st1{fill-rule:evenodd;clip-rule:evenodd;fill:#38373A;}
	.st2{fill-rule:evenodd;clip-rule:evenodd;fill:#38373A;}
</style>
<path class="st0" d="M4.5,0C2.1-0.1,0.1,1.9,0,4.3c0,0.1,0,0.1,0,0.2C-0.1,6.9,1.9,8.9,4.3,9c0.1,0,0.1,0,0.2,0
	C6.9,9.1,8.9,7.1,9,4.7c0-0.1,0-0.1,0-0.2C8.9,2,7,0.1,4.5,0z"/>
<path class="st1" d="M20,0c-2.4-0.1-4.4,1.9-4.5,4.3c0,0.1,0,0.1,0,0.2c-0.1,2.4,1.9,4.4,4.3,4.5c0.1,0,0.1,0,0.2,0
	c2.4,0.1,4.4-1.9,4.5-4.3c0-0.1,0-0.1,0-0.2c0.1-2.4-1.9-4.4-4.3-4.5C20.1,0,20.1,0,20,0z"/>
<path class="st2" d="M35.6,0c-2.4-0.1-4.3,1.8-4.4,4.2c0,0.1,0,0.1,0,0.2C31.1,6.8,33,8.9,35.4,9c2.4,0.1,4.5-1.8,4.6-4.2
	c0-0.1,0-0.3,0-0.4C40.1,2,38.2,0.1,35.8,0C35.7,0,35.7,0,35.6,0z"/>
</svg>
