<svg id="Layer_1" enable-background="new 0 0 468 468" height="512" viewBox="0 0 468 468" width="512" xmlns="http://www.w3.org/2000/svg" style=""><g><g fill="#fff"/><g id="XMLID_4188_" style=""><g fill="#304050"><path d="m219 121.016h30v40.005h-30z"/><path d="m89 251.033h41v30.004h-41z"/><path d="m219 370.049h30v41.005h-30z"/><path d="m338 251.033h41v30.004h-41z"/></g></g><path d="m249 247.331v-55.306h-30v55.306c-11.824 5.618-20 17.668-20 31.631 0 19.333 15.67 35.005 35 35.005s35-15.672 35-35.005c0-13.962-8.176-26.012-20-31.631z" fill="#1999ff"/><path d="m401.628 153.279 29.506-29.51c5.858-5.859 5.858-15.357 0-21.216l-39.218-39.223c-5.781-5.783-15.432-5.783-21.213 0l-30.664 30.668c-26.838-16.627-57.832-27.149-91.039-29.599v-34.395h43v-30.004h-116v30.004h43v34.395c-33.207 2.45-64.201 12.972-91.039 29.599l-30.664-30.668c-5.782-5.782-15.431-5.783-21.213 0l-39.218 39.223c-5.858 5.859-5.858 15.357 0 21.216l29.506 29.51c-21.695 32.205-34.372 70.97-34.372 112.642 0 111.427 90.617 202.079 202 202.079s202-90.652 202-202.079c0-41.672-12.677-80.437-34.372-112.642zm-20.318-58.125 18.005 18.007-16.385 16.386c-5.738-6.266-11.868-12.164-18.344-17.667zm-294.62 0 16.724 16.726c-6.476 5.503-12.606 11.401-18.344 17.667l-16.384-16.386zm147.31 342.842c-94.841 0-172-77.192-172-172.075s77.159-172.075 172-172.075 172 77.193 172 172.075-77.159 172.075-172 172.075z" fill="#304050"/></g><style xmlns="http://www.w3.org/1999/xhtml" type="text/css"></style></svg>