<svg id="Layer_1" enable-background="new 0 0 468 468" height="512" viewBox="0 0 468 468" width="512" xmlns="http://www.w3.org/2000/svg" style=""><g id="XMLID_361_"><g id="XMLID_360_"><g id="XMLID_351_"/><g id="XMLID_356_"><g id="XMLID_363_"><path id="XMLID_1070_" d="m343.55 341.555h63.785v32h-63.785z" fill="#1999ff"/></g><path id="XMLID_932_" d="m433 230.261h-61.364v-174.261c0-30.879-25.122-56-56-56h-199.648c-30.878 0-56 25.121-56 56v60h279.648v114.261h-100.357c-16.542 0-30 13.458-30 30v101.739h-117.291v-62h-32v112c0 30.879 25.122 56 56 56h199.648c28.072 0 51.38-20.764 55.386-47.739h61.978c16.542 0 30-13.458 30-30v-130c0-16.542-13.458-30-30-30zm-341.012-174.261c0-13.233 10.766-24 24-24h199.648c13.233 0 24 10.767 24 24v28h-247.648zm339.012 206.261v26.832h-189.721v-26.832zm-315.012 173.739c-13.234 0-24-10.767-24-24v-18h117.532c1.847 14.783 14.484 26.261 29.759 26.261h98.891c-3.374 9.176-12.202 15.739-22.534 15.739zm125.291-47.739v-67.168h189.721v67.168z" fill="#304050"/></g></g><g id="XMLID_355_"><g id="XMLID_353_"><ellipse cx="74.989" cy="208" fill="#1999ff" rx="69.989" ry="70"/></g><g id="XMLID_367_"><path id="XMLID_214_" d="m80.131 197.545c-7.903-3.276-7.903-4.475-7.903-5.534 0-1.71 1.62-2.691 4.444-2.691 5.244 0 9.304 2.715 13.662 5.207l5.703-15.08c-4.029-2.365-7.924-4.558-12.61-5.378v-9.053h-15.272v10.01c-8.257 2.822-13.314 9.604-13.314 18.044 0 11.448 9.423 16.616 17.608 19.828 6.904 2.807 6.904 4.862 6.904 5.965 0 2.769-3.012 3.751-5.591 3.751-6.015 0-10.459-3.295-15.197-6.459l-5.479 15.324c4.403 3.271 8.965 5.598 14.452 6.51v9.368h15.359v-10.285c8.52-2.937 13.932-10.167 13.932-18.827 0-12.434-9.528-17.769-16.698-20.7-7.903-3.276 7.17 2.931 0 0z" fill="#fff"/></g></g></g></svg>