<svg id="Layer_1" enable-background="new 0 0 468 468" height="512" viewBox="0 0 468 468" width="512" xmlns="http://www.w3.org/2000/svg"><g><g><path d="m439.997 200.405c0-6.355-4.158-12.132-10.086-14.313l-119.284-43.222-10.417 28.784 80.559 29.19-145.44 55.415-147.818-56.011 79.328-28.486-10.333-28.814-118.376 42.508c-5.999 2.137-10.13 8.042-10.13 14.407v170.819c0 6.132 3.656 11.671 9.292 14.078l192.046 82.023c3.821 1.643 8.268 1.615 12.082-.031l189.36-82.023c5.597-2.425 9.22-7.944 9.22-14.047v-170.198c0-.027-.002-.053-.003-.079zm-381.403 21.622 161.452 61.177v146.323l-161.452-68.955zm192.047 207.372v-146.216l158.765-60.492v137.937z" fill="#304050"/></g><g><path d="m312.525 100.136-78.525-100.136-78.525 100.136h41.66v118.24h73.73v-118.24z" fill="#1999ff"/></g></g></svg>