<?xml version="1.0" encoding="utf-8"?>
<!-- Generator: Adobe Illustrator 25.0.1, SVG Export Plug-In . SVG Version: 6.00 Build 0)  -->
<svg version="1.1" id="Capa_1" xmlns="http://www.w3.org/2000/svg" xmlns:xlink="http://www.w3.org/1999/xlink" x="0px" y="0px"
	 viewBox="0 0 50 50" style="enable-background:new 0 0 50 50;" xml:space="preserve">
<style type="text/css">
	.st0{fill:#00032A;}
</style>
<g>
	<path class="st0" d="M2.9,25C2.9,12.8,12.8,2.9,25,2.9c4.6,0,8.9,1.4,12.6,4h-2.8c-0.8,0-1.5,0.7-1.5,1.5s0.7,1.5,1.5,1.5h6.9
		c0.8,0,1.5-0.7,1.5-1.5V1.5c0-0.8-0.7-1.5-1.5-1.5s-1.5,0.7-1.5,1.5v3.6C35.8,1.8,30.6,0,25,0C18.3,0,12,2.6,7.3,7.3
		C2.6,12,0,18.3,0,25c0,4.4,1.2,8.7,3.4,12.5c0.3,0.5,0.8,0.7,1.3,0.7c0.2,0,0.5-0.1,0.7-0.2c0.7-0.4,0.9-1.3,0.5-2
		C4,32.7,2.9,28.9,2.9,25L2.9,25z"/>
	<path class="st0" d="M46.6,12.5c-0.4-0.7-1.3-0.9-2-0.5c-0.7,0.4-0.9,1.3-0.5,2c1.9,3.3,3,7.2,3,11c0,12.2-9.9,22.1-22.1,22.1
		c-4.6,0-8.9-1.4-12.6-4h2.8c0.8,0,1.5-0.7,1.5-1.5c0-0.8-0.7-1.5-1.5-1.5H8.4c-0.8,0-1.5,0.7-1.5,1.5v6.9c0,0.8,0.7,1.5,1.5,1.5
		s1.5-0.7,1.5-1.5v-3.6C14.2,48.2,19.4,50,25,50c6.7,0,13-2.6,17.7-7.3C47.4,38,50,31.7,50,25C50,20.6,48.8,16.3,46.6,12.5
		L46.6,12.5z"/>
	<path class="st0" d="M38,22.1c0.1-0.4,0-0.8-0.1-1.1L35,15.9c-0.2-0.3-0.5-0.6-0.9-0.7c-0.4-0.1-0.8,0-1.1,0.1l-1.7,1
		c-0.6-0.4-1.2-0.8-1.9-1.1v-1.9c0-0.8-0.7-1.5-1.5-1.5h-5.9c-0.8,0-1.5,0.7-1.5,1.5v1.9c-0.7,0.3-1.3,0.7-1.9,1.1l-1.7-1
		c-0.3-0.2-0.7-0.2-1.1-0.1c-0.4,0.1-0.7,0.3-0.9,0.7l-2.9,5.1c-0.2,0.3-0.2,0.7-0.1,1.1c0.1,0.4,0.3,0.7,0.7,0.9l1.7,1
		c0,0.4-0.1,0.7-0.1,1.1s0,0.7,0.1,1.1l-1.7,1c-0.3,0.2-0.6,0.5-0.7,0.9c-0.1,0.4,0,0.8,0.1,1.1l2.9,5.1c0.2,0.3,0.5,0.6,0.9,0.7
		c0.4,0.1,0.8,0,1.1-0.1l1.7-1c0.6,0.4,1.2,0.8,1.9,1.1v1.9c0,0.8,0.7,1.5,1.5,1.5h5.9c0.8,0,1.5-0.7,1.5-1.5v-1.9
		c0.7-0.3,1.3-0.7,1.9-1.1l1.7,1c0.3,0.2,0.7,0.2,1.1,0.1c0.4-0.1,0.7-0.3,0.9-0.7l2.9-5.1c0.2-0.3,0.2-0.7,0.1-1.1
		c-0.1-0.4-0.3-0.7-0.7-0.9l-1.7-1c0-0.4,0.1-0.7,0.1-1.1s0-0.7-0.1-1.1l1.7-1C37.7,22.8,37.9,22.4,38,22.1L38,22.1z M32.7,23.4
		c0.1,0.5,0.2,1,0.2,1.6s-0.1,1.1-0.2,1.6c-0.1,0.6,0.2,1.2,0.7,1.6l1.3,0.7l-1.5,2.5l-1.3-0.7c-0.5-0.3-1.2-0.2-1.7,0.2
		c-0.8,0.7-1.7,1.2-2.7,1.6c-0.6,0.2-1,0.8-1,1.4v1.5h-2.9v-1.5c0-0.6-0.4-1.2-1-1.4c-1-0.3-1.9-0.9-2.7-1.6
		c-0.5-0.4-1.2-0.5-1.7-0.2l-1.3,0.7l-1.5-2.5l1.3-0.7c0.5-0.3,0.8-0.9,0.7-1.6c-0.1-0.5-0.2-1-0.2-1.6c0-0.5,0.1-1.1,0.2-1.6
		c0.1-0.6-0.2-1.2-0.7-1.6l-1.3-0.7l1.5-2.5l1.3,0.7c0.5,0.3,1.2,0.2,1.7-0.2c0.8-0.7,1.7-1.2,2.7-1.6c0.6-0.2,1-0.8,1-1.4v-1.5h2.9
		v1.5c0,0.6,0.4,1.2,1,1.4c1,0.3,1.9,0.9,2.7,1.6c0.5,0.4,1.2,0.5,1.7,0.2l1.3-0.7l1.5,2.5l-1.3,0.7C32.8,22.2,32.5,22.8,32.7,23.4
		L32.7,23.4z"/>
	<path class="st0" d="M25,19.6c-3,0-5.4,2.4-5.4,5.4s2.4,5.4,5.4,5.4s5.4-2.4,5.4-5.4S28,19.6,25,19.6z M25,27.4
		c-1.3,0-2.4-1.1-2.4-2.4c0-1.3,1.1-2.4,2.4-2.4s2.4,1.1,2.4,2.4C27.4,26.3,26.3,27.4,25,27.4z"/>
</g>
</svg>
