<svg id="Capa_1" data-name="Capa 1" xmlns="http://www.w3.org/2000/svg" viewBox="0 0 50 50"><defs><style>.cls-1{fill:#00032a;}</style></defs><path class="cls-1" d="M.94,36.17a6.43,6.43,0,0,0,2.47,5.41,6.76,6.76,0,0,0,.73,4c1.13,2,3.4,3.41,6.69,4a25.25,25.25,0,0,0,5.06.4c1.13,0,2.37-.1,3.6-.1a103.9,103.9,0,0,0,14.33-.8l2.58-.3a4.57,4.57,0,0,0,2.57.8h6.6A4.34,4.34,0,0,0,50,45.29v-17A4.34,4.34,0,0,0,45.57,24H39a4.91,4.91,0,0,0-2.16.5,11,11,0,0,0-2.06-3.11c-.11-.1-.11-.1-.21-.1-3.4-2.5-7.42-11.62-8.76-15.33.1-1.2.31-3.61-.93-5A2.61,2.61,0,0,0,22.79,0a6.88,6.88,0,0,0-5.46,2.61c-1.75,2.3-1.75,5.71-.31,10.12a19.71,19.71,0,0,1,1.34,6.11c-.62-.1-1.14-.2-1.65-.3h0a51.29,51.29,0,0,0-5.26-.7c-4-.2-6.9.5-8.65,2a5.34,5.34,0,0,0-1.34,6.41A6.61,6.61,0,0,0,0,29.86a6,6,0,0,0,1.55,4.21A5.08,5.08,0,0,0,.94,36.17ZM45.57,46.89H39a1.56,1.56,0,0,1-1.54-1.5v-17A1.57,1.57,0,0,1,39,26.85h6.6a1.57,1.57,0,0,1,1.54,1.51v17a1.56,1.56,0,0,1-1.54,1.5ZM2.8,30A4,4,0,0,1,4,27.56a1.5,1.5,0,0,0,.31-1.81c-.1-.2-1.34-2.3.41-3.81,2.07-1.8,7.94-1.4,11.34-.7h.1a12.36,12.36,0,0,1,1.86.4,2.59,2.59,0,0,0,2.37-.4c1.44-1.2,1.24-4-.52-9.42-1.23-3.5-1.23-6.11-.1-7.61a4,4,0,0,1,3-1.4,5.48,5.48,0,0,1,.1,3,1.56,1.56,0,0,0,.11.7c.2.5,4.94,13.13,9.79,16.84a7.87,7.87,0,0,1,2,3.6,4.73,4.73,0,0,0-.21,1.31v17a2.77,2.77,0,0,0,.1.9l-1.13.1h0a105.88,105.88,0,0,1-14,.7h-.1a27.54,27.54,0,0,1-7.83-.2c-2.48-.5-4-1.4-4.74-2.7a2.93,2.93,0,0,1-.42-2.61,1.4,1.4,0,0,0-.51-1.6,4.2,4.2,0,0,1-2.06-3.61,4.58,4.58,0,0,1,.51-1.7,1.35,1.35,0,0,0-.2-1.7A4.2,4.2,0,0,1,2.8,30Z" transform="translate(0)"/></svg>