<svg id="Capa_1" data-name="Capa 1" xmlns="http://www.w3.org/2000/svg" viewBox="0 0 503.81 131.25"><defs><style>.cls-1{fill:#e33a2c;}.cls-2{fill:#675e5c;}</style></defs><title>logo_smashing</title><path class="cls-1" d="M160.4,52.85a9.26,9.26,0,0,0,.89,4.24,8,8,0,0,0,2.38,2.8,10,10,0,0,0,3.44,1.6,16,16,0,0,0,4.16.52,21.78,21.78,0,0,0,3.1-.24,10.52,10.52,0,0,0,3.1-.94,6.72,6.72,0,0,0,2.4-1.91,4.82,4.82,0,0,0,1-3.09,4.36,4.36,0,0,0-1.28-3.26,10.54,10.54,0,0,0-3.33-2.12A27.78,27.78,0,0,0,171.55,49c-1.75-.4-3.5-.88-5.3-1.36a54.06,54.06,0,0,1-5.37-1.7,18.62,18.62,0,0,1-4.68-2.6,12.3,12.3,0,0,1-3.33-4,12.11,12.11,0,0,1-1.28-5.83,13.05,13.05,0,0,1,1.62-6.63,14.7,14.7,0,0,1,4.23-4.68,18.33,18.33,0,0,1,5.92-2.78,25,25,0,0,1,6.6-.9,30.92,30.92,0,0,1,7.4.86,18.2,18.2,0,0,1,6.29,2.82,14.23,14.23,0,0,1,4.38,5,15.4,15.4,0,0,1,1.61,7.32H179.19a9,9,0,0,0-.94-3.68,6.11,6.11,0,0,0-2.1-2.29,8.91,8.91,0,0,0-3-1.18,18.62,18.62,0,0,0-3.65-.34,13,13,0,0,0-2.62.27,7,7,0,0,0-2.36,1A5.94,5.94,0,0,0,162.74,30a4.75,4.75,0,0,0-.69,2.61A4.46,4.46,0,0,0,162.6,35a4.78,4.78,0,0,0,2.17,1.63,35.11,35.11,0,0,0,4.47,1.53c1.9.53,8.84,2.31,9.8,2.56a25.89,25.89,0,0,1,3.07,1,19.41,19.41,0,0,1,3.23,1.71,14.25,14.25,0,0,1,3,2.56,12.53,12.53,0,0,1,2.17,3.65,13.4,13.4,0,0,1,.82,4.89A15.27,15.27,0,0,1,190,60.9a13.73,13.73,0,0,1-3.89,5,19,19,0,0,1-6.4,3.33,29.19,29.19,0,0,1-8.84,1.22,30,30,0,0,1-7.88-1,20,20,0,0,1-6.71-3.19,15.71,15.71,0,0,1-6.33-13.4Z"/><path class="cls-1" d="M194.25,19.74h15.21L221,53.82h.13L232,19.74h15.2V69.3H237.05V34.18h-.14l-12,35.12h-8.33l-12-34.78h-.13V69.3H194.25Z"/><path class="cls-1" d="M266.63,19.74h11.08L296.08,69.3H284.86l-3.71-11H262.78l-3.86,11H248Zm-1,30.4h12.73L272.14,32H272Z"/><path class="cls-1" d="M304.27,52.85a9.26,9.26,0,0,0,.89,4.24,7.84,7.84,0,0,0,2.38,2.8,10.1,10.1,0,0,0,3.44,1.6,15.94,15.94,0,0,0,4.15.52,21.56,21.56,0,0,0,3.1-.24,10.43,10.43,0,0,0,3.1-.94,6.67,6.67,0,0,0,2.41-1.91,4.76,4.76,0,0,0,1-3.09,4.35,4.35,0,0,0-1.27-3.26,10.76,10.76,0,0,0-3.35-2.12A28.13,28.13,0,0,0,315.41,49c-1.75-.4-3.49-.87-5.3-1.36a53.88,53.88,0,0,1-5.36-1.7,18.62,18.62,0,0,1-4.68-2.6,12.43,12.43,0,0,1-3.34-4,12.11,12.11,0,0,1-1.27-5.83,13.05,13.05,0,0,1,1.62-6.63,14.67,14.67,0,0,1,4.22-4.68,18.18,18.18,0,0,1,5.93-2.78,24.88,24.88,0,0,1,6.6-.9,31,31,0,0,1,7.4.86,18.42,18.42,0,0,1,6.3,2.82,14.19,14.19,0,0,1,4.36,5,15.28,15.28,0,0,1,1.62,7.32H323.05a8.8,8.8,0,0,0-.93-3.68,6.2,6.2,0,0,0-2.1-2.29,9,9,0,0,0-3-1.18,18.54,18.54,0,0,0-3.65-.34,12.75,12.75,0,0,0-2.6.27,7,7,0,0,0-2.38,1A5.79,5.79,0,0,0,306.61,30a4.75,4.75,0,0,0-.69,2.61,4.58,4.58,0,0,0,.55,2.36,4.74,4.74,0,0,0,2.16,1.63,34.56,34.56,0,0,0,4.47,1.53c1.91.53,8.86,2.3,9.82,2.56a24.09,24.09,0,0,1,3.06,1,20.61,20.61,0,0,1,3.23,1.71,14.25,14.25,0,0,1,3,2.56,12.1,12.1,0,0,1,2.17,3.65,13.4,13.4,0,0,1,.83,4.89,15.16,15.16,0,0,1-1.32,6.32,13.76,13.76,0,0,1-3.87,5,19.1,19.1,0,0,1-6.42,3.33,29.1,29.1,0,0,1-8.84,1.22,29.93,29.93,0,0,1-7.87-1,20.09,20.09,0,0,1-6.72-3.19,15.67,15.67,0,0,1-6.32-13.4Z"/><path class="cls-1" d="M338.12,19.74h10.8v19h19.89v-19h10.8V69.3h-10.8V47.92H348.92V69.3h-10.8Z"/><path class="cls-1" d="M385.67,19.74h10.8V69.3h-10.8Z"/><path class="cls-1" d="M402.51,19.74h10.74L433.76,53h.13V19.74H444V69.3H433.2L412.77,36.12h-.14V69.3H402.51Z"/><path class="cls-1" d="M485,58.56a12.83,12.83,0,0,0,1-1.65l-2.79.58c-2.66-1.58-8.24-5.15-8.24-5.15l-1.31-.79s20.19-3.56,30.19-5.3c-1.56,9.88-3,19-4.71,29.77-2.36-3-6.19-7.8-6.19-7.8l.2-3.13-1.6,1.37c-8,5.87-17.66,8.22-28.09,3.9a25.05,25.05,0,0,1-14-14.36,26.34,26.34,0,0,1,14.78-34.42c12.36-5,27.36.49,32.06,11.74a91.48,91.48,0,0,1-8.39,3.93,41.44,41.44,0,0,0-4.32-4.79c-7.24-6-17.57-4.14-23.32,3.24a17.4,17.4,0,0,0,2.36,23.66C468.1,64,479,66.23,485,58.56Z"/><path class="cls-2" d="M156,81.69h4.25l10.5,26.61,10.45-26.61h4.25V112h-2.89V85.82h-.08L172.09,112h-2.72L159,85.82h-.08V112H156Z"/><path class="cls-2" d="M218.16,81.69h3.23L233.29,112h-3.11l-3.69-9.44H212.67L209,112h-3.1Zm-4.59,18.45h11.94l-5.86-15.56Z"/><path class="cls-2" d="M279.79,112H277.7l-.38-5.52h-.08a10.22,10.22,0,0,1-4.38,4.69,11.37,11.37,0,0,1-2.91,1.11,14.23,14.23,0,0,1-3.21.36,14.39,14.39,0,0,1-6.27-1.3A13,13,0,0,1,256,107.9a14.87,14.87,0,0,1-2.67-5.06,20.28,20.28,0,0,1,0-12A14.87,14.87,0,0,1,256,85.83a12.93,12.93,0,0,1,4.49-3.48,14.25,14.25,0,0,1,6.27-1.3,15.46,15.46,0,0,1,4.51.64,11.82,11.82,0,0,1,3.8,1.91,10.87,10.87,0,0,1,2.81,3.17,12.56,12.56,0,0,1,1.55,4.35h-2.89a6.94,6.94,0,0,0-.87-2.65,9.21,9.21,0,0,0-2-2.45,10.45,10.45,0,0,0-3-1.8,10.32,10.32,0,0,0-3.91-.7,10.86,10.86,0,0,0-5.18,1.14,10.29,10.29,0,0,0-3.55,3A12.89,12.89,0,0,0,256,92a18.37,18.37,0,0,0,0,9.76,13.08,13.08,0,0,0,2,4.27,10.29,10.29,0,0,0,3.55,3,10.86,10.86,0,0,0,5.18,1.14,11.41,11.41,0,0,0,4.49-.83,9.31,9.31,0,0,0,3.33-2.31,9.64,9.64,0,0,0,2-3.52,13.14,13.14,0,0,0,.64-4.47H266.91V96.61h12.88Z"/><path class="cls-2" d="M312,81.69h3.23L327.18,112h-3.11l-3.69-9.44H306.57L302.92,112h-3.11Zm-4.59,18.45H319.4l-5.86-15.56Z"/><path class="cls-2" d="M346.26,81.69h21.85v2.55l-20,25.34h20.4V112H344.9v-2.55l20-25.33H346.26Z"/><path class="cls-2" d="M390.17,81.69h2.89V112h-2.89Z"/><path class="cls-2" d="M417.15,81.69h3.23l17.68,25.68h.08V81.69H441V112h-3.23L420.12,86.37H420V112h-2.89Z"/><path class="cls-2" d="M464.92,81.69h21v2.47H467.81v11h16.92v2.46H467.81v12h18.28V112H464.92Z"/><path class="cls-1" d="M77.38,84.7a34.47,34.47,0,0,0-8.2-5.24C62.19,76.14,55,73.25,48,70,28.55,60.84,16.11,40.11,30.26,15.39L9.54,20.12A12.25,12.25,0,0,0,.31,34.8l19.8,86.91a12.28,12.28,0,0,0,14.69,9.23l8.63-2a.75.75,0,0,0,0-.15l-16.81-7.47,10-23.75c2.15,1.29,3.67,2.25,5.24,3.13,9.16,5.13,18.87,7.51,29.38,5.75,4.87-.81,9.07-2.59,10.45-8S81.42,88.33,77.38,84.7Z"/><path class="cls-1" d="M96.45.31,84.08,3.13a0,0,0,0,1,0,0c6,1.95,11.23,3.49,16.23,5.49l4.41,1.76S98.59,26.32,96,33.88c-9.82-7.85-19.11-10-29.83-8.4-4.6.68-9.08,3.82-10.43,8.6-1.41,5,.34,8.93,4.52,11.63A67.76,67.76,0,0,0,70,50.84C76.51,53.68,83.28,56,89.76,59c15.94,7.36,24.16,19.72,22.73,37.54-.41,5.16-1.92,11.27-3.28,17.29l.09.11,12.4-2.83a12.26,12.26,0,0,0,9.24-14.68L111.13,9.54A12.26,12.26,0,0,0,96.45.31Z"/></svg>