<svg id="Capa_1" data-name="Capa 1" xmlns="http://www.w3.org/2000/svg" viewBox="0 0 284.02 38.28"><defs><style>.cls-1{fill:#26519e;}</style></defs><title>logo_hongkiat</title><path class="cls-1" d="M63.77.55A17.66,17.66,0,0,0,58.57,0a29.75,29.75,0,0,0-3.26.08C48.08,1,42.75,4.83,40.19,11a22.76,22.76,0,0,0-1.45,5.52c-.05.47-.09,1.52-.09,2.75a18,18,0,0,0,.17,3A18.55,18.55,0,0,0,44,33a18.52,18.52,0,0,0,11,5.17,36.9,36.9,0,0,0,6.48,0c5.41-.73,9.66-3.06,12.57-6.92a19,19,0,0,0,3.61-8.94,16.94,16.94,0,0,0,.17-3A19.58,19.58,0,0,0,77,13,17.48,17.48,0,0,0,63.77.55Zm-.12,22.72a5.41,5.41,0,0,1-3.8,4.05,10.06,10.06,0,0,1-3.24,0,4.76,4.76,0,0,1-2.75-1.84c-.94-1.33-1.34-2.76-1.49-5.26a12.85,12.85,0,0,1,1.22-7,5.43,5.43,0,0,1,1.88-1.78,6.31,6.31,0,0,1,4.3-.43c2.25.51,3.61,2.24,4.16,5.27a13.42,13.42,0,0,1,.16,2.88,12.88,12.88,0,0,1-.44,4.16Zm89.62-5.8s0,19.47,0,19.5A66.66,66.66,0,0,1,145.53,38a80.75,80.75,0,0,1-9.34.14c-6.55-.48-11.74-3.06-14.82-7.37-2.81-3.94-3.93-9.54-3.09-15.39a16.43,16.43,0,0,1,6.09-11A23.09,23.09,0,0,1,136.32.26l1.12-.1c.14,0,1.47,0,3,0A47.78,47.78,0,0,1,150.7,1c1.56.33,1.58.33,1.54.56s-.91,5.84-1.36,8.8c-.1.62-.18,1.14-.2,1.15a6.46,6.46,0,0,1-1-.11,43.93,43.93,0,0,0-7.7-.55c-3.33.08-5.32.53-7.22,1.67a8.64,8.64,0,0,0-2.21,2.09,9.31,9.31,0,0,0-1.32,5.82,8.07,8.07,0,0,0,1.37,4.26,6.23,6.23,0,0,0,4,2.58,11.92,11.92,0,0,0,2.2.13h1.6v-10h12.8ZM284,.83V11.66H272.9V37.45H259.65V11.66H249V.83h35ZM23.29.9H36.48V37.52H23.3V24.7H13.18V37.53H0V.9H13.18V13.37H23.3V.9Zm81.17,0H116V37.52H99.67L91.52,17.25V37.52H79.87V.9H96.5L104.43,22l0-21.08ZM182.1,17.55l13,20H178.59L172,26l-2.69,3.5v8.07H155.62V.9h13.6l0,12.4L178.55.9h16.37L182.1,17.55ZM196.87.9h13.61V37.52H196.87V.9Zm29.4,0L212.45,37.52h14.66l1.5-6h11.71l1.44,6h14.35L243,.9H226.27ZM231,22.09l3.5-13.72,3.41,13.72Z"/></svg>