<?xml version="1.0" encoding="utf-8"?>
<!-- Generator: Adobe Illustrator 25.0.1, SVG Export Plug-In . SVG Version: 6.00 Build 0)  -->
<svg version="1.1"
	 id="Layer_1" xmlns:cc="http://creativecommons.org/ns#" xmlns:dc="http://purl.org/dc/elements/1.1/" xmlns:rdf="http://www.w3.org/1999/02/22-rdf-syntax-ns#"
	 xmlns="http://www.w3.org/2000/svg" xmlns:xlink="http://www.w3.org/1999/xlink" x="0px" y="0px" viewBox="0 0 256 153"
	 style="enable-background:new 0 0 256 153;" xml:space="preserve">
<style type="text/css">
	.st0{fill-rule:evenodd;clip-rule:evenodd;fill:#FFFFFF;}
</style>
<path class="st0" d="M23.8,0.3h208.4C245.3,0.3,256,11,256,24.2v79.5c0,13.2-10.7,23.9-23.9,23.9h-74.7l10.3,25.1l-45.1-25.1H23.9
	C10.7,127.6,0,116.9,0,103.7V24.2C-0.1,11.1,10.6,0.3,23.8,0.3z M14.6,22.1c1.5-2,3.6-3,6.6-3.2c5.3-0.4,8.3,2.1,9.1,7.5
	c3.2,21.7,6.8,40.2,10.5,55.3l22.8-43.4c2.1-4,4.7-6,7.8-6.2c4.6-0.3,7.4,2.6,8.5,8.7c2.6,13.8,5.9,25.6,9.9,35.6
	C92.4,49.8,97,30.8,103.4,19c1.6-2.9,3.9-4.4,6.9-4.6c2.4-0.2,4.6,0.5,6.6,2.1c2,1.6,3,3.5,3.2,5.9c0.1,1.9-0.2,3.4-1,5
	C115,35,111.7,47.6,109,65c-2.6,17-3.5,30.2-2.9,39.6c0.2,2.6-0.2,4.9-1.2,6.9c-1.2,2.3-3.1,3.5-5.5,3.7c-2.7,0.2-5.5-1-8.2-3.9
	c-9.7-9.9-17.4-24.7-23-44.3c-6.8,13.3-11.8,23.3-15,30c-6.1,11.8-11.3,17.8-15.7,18.1c-2.8,0.2-5.2-2.2-7.3-7.2
	c-5.3-13.6-11-40-17.2-79C12.5,26.3,13.1,23.9,14.6,22.1z M238.2,38.4c-3.7-6.6-9.3-10.5-16.7-12.1c-2-0.4-3.9-0.6-5.6-0.6
	c-10,0-18.1,5.2-24.5,15.6c-5.4,8.8-8.1,18.6-8.1,29.3c0,8,1.7,14.9,5,20.6c3.7,6.6,9.3,10.5,16.7,12.1c2,0.4,3.9,0.6,5.6,0.6
	c10.1,0,18.2-5.2,24.5-15.6c5.4-8.9,8.1-18.7,8.1-29.5C243.3,50.8,241.5,44,238.2,38.4z M225.1,67.2c-1.5,6.9-4.1,12-7.9,15.4
	c-3,2.7-5.8,3.9-8.4,3.3c-2.5-0.5-4.6-2.7-6.1-6.8c-1.2-3.2-1.9-6.5-1.9-9.5c0-2.6,0.2-5.2,0.7-7.6c0.9-4.3,2.7-8.4,5.5-12.4
	c3.4-5.1,7.1-7.2,10.8-6.5c2.5,0.5,4.6,2.7,6.1,6.8c1.2,3.2,1.9,6.5,1.9,9.5C225.8,62.2,225.6,64.8,225.1,67.2z M173.1,38.4
	c-3.7-6.6-9.4-10.5-16.7-12.1c-2-0.4-3.9-0.6-5.6-0.6c-10,0-18.1,5.2-24.5,15.6c-5.4,8.8-8.1,18.6-8.1,29.3c0,8,1.7,14.9,5,20.6
	c3.7,6.6,9.3,10.5,16.7,12.1c2,0.4,3.9,0.6,5.6,0.6c10.1,0,18.2-5.2,24.5-15.6c5.4-8.9,8.1-18.7,8.1-29.5
	C178.1,50.8,176.4,44,173.1,38.4z M159.9,67.2c-1.5,6.9-4.1,12-7.9,15.4c-3,2.7-5.8,3.9-8.4,3.3c-2.5-0.5-4.6-2.7-6.1-6.8
	c-1.2-3.2-1.9-6.5-1.9-9.5c0-2.6,0.2-5.2,0.7-7.6c0.9-4.3,2.7-8.4,5.5-12.4c3.4-5.1,7.1-7.2,10.8-6.5c2.5,0.5,4.6,2.7,6.1,6.8
	c1.2,3.2,1.9,6.5,1.9,9.5C160.7,62.2,160.4,64.8,159.9,67.2z"/>
</svg>
