<svg id="Layer_1" enable-background="new 0 0 468 468" height="512" viewBox="0 0 468 468" width="512" xmlns="http://www.w3.org/2000/svg" style=""><g><g><g><path d="m205.667 69h26.655v30h-26.655z" fill="#304050"/></g><g><path d="m130.333 127h-30v-43c0-8.284 6.716-15 15-15h64.616v30h-49.616z" fill="#304050"/></g></g><g><g><path d="m209.667 370h26.045v30h-26.045z" fill="#304050"/></g><g><path d="m184.018 400h-68.685c-8.284 0-15-6.716-15-15v-43h30v28h53.685z" fill="#304050"/></g><g fill="#304050"><path d="m453 182h-110c-8.284 0-15 6.716-15 15v22h-106v30h106v22c0 8.284 6.716 15 15 15h110c8.284 0 15-6.716 15-15v-74c0-8.284-6.716-15-15-15zm-15 74h-80v-44h80z"/><path d="m296 121c0 8.284 6.716 15 15 15h110c8.284 0 15-6.716 15-15v-74c0-8.284-6.716-15-15-15h-110c-8.284 0-15 6.716-15 15v22h-36.56v30h36.56zm30-59h80v44h-80z"/><path d="m421 332h-110c-8.284 0-15 6.716-15 15v23h-36.56v30h36.56v21c0 8.284 6.716 15 15 15h110c8.284 0 15-6.716 15-15v-74c0-8.284-6.716-15-15-15zm-15 74h-80v-44h80z"/></g></g><g><g><circle cx="115" cy="234" r="115" fill="#fff"/></g><g id="XMLID_49_"><path d="m84.671 283.13-32.873-29.688 20.646-22.86 21.824 19.708 62.538-64.696 22.148 21.408-72.886 75.401c-3.389 3.963-12.63 8.07-21.397.727z" fill="#1999ff"/></g></g></g></svg>