<svg id="Layer_1" enable-background="new 0 0 468 468" height="512" viewBox="0 0 468 468" width="512" xmlns="http://www.w3.org/2000/svg" style=""><g><g><g><path d="m391.379 212.128h-30.603v-181.513h-258.599v-30.615h273.901c8.451 0 15.302 6.854 15.302 15.308v196.82z" fill="#304050"/></g><g><path d="m360.776 237.641h30.603v26.76h-30.603z" fill="#304050"/></g><g><g><g><path d="m160.102 261.659h108.337v30.615h-108.337z" fill="#304050"/></g><g><path d="m102.065 261.659h30.518v30.615h-30.518z" fill="#ffffff"/></g><g><path d="m160.102 332.939h77.734v30.615h-77.734z" fill="#304050"/></g><g><path d="m102.065 332.939h30.518v30.615h-30.518z" fill="#ffffff"/></g><g><path d="m160.102 190.379h108.337v30.615h-108.337z" fill="#304050"/></g><g><path d="m102.065 190.379h30.518v30.615h-30.518z" fill="#ffffff"/></g><g><path d="m160.102 119.099h108.337v30.615h-108.337z" fill="#304050"/></g><g><path d="m102.065 119.099h30.518v30.615h-30.518z" fill="#ffffff"/></g></g><g><g><path d="m234.117 430.148h-185.815c-8.451 0-15.302-6.854-15.302-15.308v-347.026c0-8.454 6.851-15.308 15.302-15.308h273.901c8.451 0 15.302 6.854 15.302 15.308v192.505h-30.603v-177.198h-243.299v316.411h170.514z" fill="#304050"/></g></g></g></g><g id="XMLID_6266_"><g id="XMLID_6270_"><ellipse cx="343.191" cy="376.154" rx="91.809" ry="91.846" fill="#ffffff"/></g><path d="m369.251 376.932-10.771 10.083v-67.2h-30.603v67.805l-10.324-9.421-20.625 22.619 35.938 32.796c5.823 5.312 15.014 5.255 20.768-.133l36.527-34.195z" fill="#1999ff"/></g></g></svg>