<svg id="Layer_1" enable-background="new 0 0 468 468" height="512" viewBox="0 0 468 468" width="512" xmlns="http://www.w3.org/2000/svg"><g><g fill="#304050"><path d="m150.448 452.639c11.236 4.297 22.903 7.744 34.677 10.247l5.821-27.388c-10.355-2.201-20.616-5.233-30.498-9.012z"/><path d="m87.93 416.821c9.396 7.516 19.442 14.355 29.862 20.327l13.924-24.292c-9.173-5.258-18.02-11.281-26.294-17.9z"/><path d="m35.906 290.727-26.922 7.694c3.303 11.556 7.542 22.95 12.6 33.864l25.404-11.773c-4.448-9.6-8.177-19.621-11.082-29.785z"/><path d="m39.253 363.771c6.666 9.985 14.167 19.539 22.295 28.397l20.63-18.931c-7.16-7.803-13.767-16.219-19.638-25.012z"/><path d="m467.395 217.039-27.929 2.003c.355 4.949.535 9.981.534 14.958 0 5.619-.229 11.295-.68 16.869l27.909 2.259c.512-6.322.771-12.758.771-19.125.001-5.642-.203-11.349-.605-16.964z"/><path d="m462.042 181.313c-2.698-11.72-6.338-23.322-10.821-34.483l-25.982 10.437c3.942 9.815 7.145 20.019 9.517 30.327z"/><path d="m391.566 366.706 21.406 18.049c7.754-9.196 14.85-19.062 21.091-29.323l-23.923-14.55c-5.495 9.035-11.744 17.723-18.574 25.824z"/><path d="m424.514 312.513 25.884 10.679c4.59-11.125 8.34-22.697 11.148-34.396l-27.227-6.534c-2.469 10.289-5.768 20.467-9.805 30.251z"/><path d="m222.464 439.683-1.542 27.958c4.328.238 8.728.359 13.078.359 7.671 0 15.409-.376 22.998-1.117l-2.72-27.867c-10.482 1.023-21.268 1.249-31.814.667z"/><path d="m343.747 408.366 14.938 23.682c10.153-6.404 19.897-13.657 28.963-21.555l-18.394-21.111c-7.984 6.956-16.566 13.344-25.507 18.984z"/><path d="m285.582 433.493 6.989 27.113c11.642-3.001 23.143-6.942 34.182-11.713l-11.107-25.702c-9.711 4.196-19.826 7.662-30.064 10.302z"/><path d="m336.95 98.168h58.123c8.041.178 14.901-7.395 13.932-15.379l-5.799-58.598-27.864 2.758 2.2 22.225c-14.885-11.587-31.103-21.324-48.518-29.071-29.985-13.34-61.955-20.103-95.024-20.103-62.503 0-121.266 24.34-165.463 68.537s-68.537 102.96-68.537 165.463c0 9.695.6 19.458 1.783 29.02l27.788-3.438c-1.042-8.426-1.571-17.033-1.571-25.582 0-113.589 92.411-206 206-206 45.227 0 89.17 15.087 124.806 42.168h-21.856z"/></g><g><circle cx="234" cy="234" r="135" fill="#ffffff"/></g><g><g><path d="m184.119 221.672c0-11.922-7.732-23.951-25.006-23.951-8.139 0-15.949 2.807-21.992 7.905l-2.336 1.97 6.397 14.16 4.084-3.402c2.178-1.814 6.626-4.857 11.951-4.857 4.097 0 9.544.968 9.544 9.297-.086 8.567-7.215 16.723-24.266 32.955l-8.496 8.25v11.44h51.805v-15.776h-24.774c13.207-12.837 23.089-24.008 23.089-37.991z" fill="#1999ff"/></g><g><path d="m249.363 198.879h-16.156l-32.488 46.489v11.423h31.813v18.647h16.831v-18.647h9.585v-15.351h-9.585zm-27.486 42.561 10.655-14.812v14.812z" fill="#1999ff"/></g><g><path d="m312.155 215.21c-4.133 0-8.74 1.443-12.284 3.633v-26.282h-17.358v82.876h17.358v-34.801c0-12.323 16.771-12.642 16.771 1.475v33.326h17.358v-34.381c0-19.077-11.768-25.846-21.845-25.846z" fill="#1999ff"/></g></g></g></svg>