<svg id="Layer_1" enable-background="new 0 0 468 468" height="512" viewBox="0 0 468 468" width="512" xmlns="http://www.w3.org/2000/svg" style=""><g><g><path id="XMLID_697_" d="m234 468c-127.538 0-234-106.463-234-234 0-127.538 106.463-234 234-234 127.538 0 234 106.463 234 234 0 127.538-106.463 234-234 234zm0-436c-111.383 0-202 90.617-202 202s90.617 202 202 202 202-90.617 202-202-90.617-202-202-202z" fill="#304050"/></g><g><path d="m198.271 184.373s.001 99.84.001 99.84h71.304c.004 0 .006-99.84.006-99.84h43.765l-76.98-104.373c-.003-.005-81.714 104.373-81.714 104.373z" fill="#ffffff"/><g fill="#304050"><path d="m185.743 320.106h96.515v32h-96.515z"/><path d="m198.345 372h71.311v32h-71.311z"/></g></g></g></svg>