<svg id="Layer_1" enable-background="new 0 0 512 512" height="512" viewBox="0 0 512 512" width="512" xmlns="http://www.w3.org/2000/svg" style=""><g><g><g><path d="m339.021 511.481c-69.343-20.673-96.909-78.17-106.698-107.569h-194.233c-20.891 0-37.898-17.005-37.913-37.908l-.17-242.159c-.437-20.393 17.517-38.382 37.913-37.961h225.549v30.632h-225.549c-5.03.748-6.539 2.268-7.281 7.308l.17 242.159c.002 4.024 3.269 7.297 7.281 7.297h205.681c7.015 0 13.132 4.765 14.85 11.566 3.957 15.672 19.587 63.472 66.697 88.181-1.622-23.982-1.297-60.011 10.514-90.038 2.304-5.857 7.958-9.709 14.253-9.709h53.793c4.015 0 7.281-3.275 7.281-7.302v-117.148h30.632v117.148c0 20.917-17.007 37.934-37.913 37.934h-42.8c-11.284 39.745-2.703 89.675-2.6 90.215 4.017 21.238-18.021 17.783-19.457 17.354z" fill="#304050"/></g></g><g><g><path d="m83.113 158.025h185.267v30.632h-185.267z" fill="#304050"/></g><g><path d="m83.113 229.274h275.572v30.632h-275.572z" fill="#304050"/></g><g><path d="m83.113 300.522h275.572v30.632h-275.572z" fill="#304050"/></g></g><g><g><ellipse cx="404.667" cy="107.494" fill="#1999ff" rx="107.334" ry="107.439"/></g><g><g><path d="m403.931 38.525c-9.356 0-19.402 2.907-25.593 7.403l-5.71 4.144 10.281 27.007 9.791-7.453c1.876-1.427 5.568-2.503 8.541-2.504 4.342.07 4.342 1.275 4.342 2.94 0 3.15-2.092 6.789-7.731 13.447-8.24 9.879-11.992 20.684-10.86 31.157l.945 12.074h29.108l-.548-13.433c-.289-4.918 1.363-8.922 5.896-14.287 7.83-9.301 14.312-18.017 14.312-30.518 0-14.922-10.134-29.977-32.774-29.977z" fill="#fff"/></g><g><path d="m401.806 140.378c-10.076 0-17.674 7.786-17.674 18.111 0 10.248 7.54 17.973 17.536 17.973 10.076 0 17.676-7.727 17.676-17.973-.001-10.325-7.54-18.111-17.538-18.111z" fill="#fff"/></g></g></g></g></svg>