<svg id="Capa_1" data-name="Capa 1" xmlns="http://www.w3.org/2000/svg" viewBox="0 0 124.43 128"><defs><style>.cls-1{fill:#1185ed;}</style></defs><path class="cls-1" d="M122.69,87a15.87,15.87,0,0,0,3.72-10.63,16.27,16.27,0,0,0-3.48-9.2c1.74-4.34,2.41-11.17-3.4-16.47-4.25-3.88-11.48-5.62-21.49-5.14a85.47,85.47,0,0,0-13.17,1.69h0c-1.33.24-2.75.54-4.2.86-.11-1.72.19-6,3.35-15.55,3.74-11.41,3.53-20.13-.7-26C78.85.48,71.75,0,69.67,0A6.71,6.71,0,0,0,64.5,2.36c-3,3.45-2.62,9.82-2.25,12.76C58.72,24.6,48.82,47.83,40.44,54.28a2.6,2.6,0,0,0-.43.38,28.91,28.91,0,0,0-5.25,7.87,11,11,0,0,0-5.3-1.34H13.14A11.14,11.14,0,0,0,2,72.32v43.5A11.15,11.15,0,0,0,13.14,127H29.46a11.08,11.08,0,0,0,6.43-2l6.29.75a269.19,269.19,0,0,0,35.68,2c3.18.24,6.18.37,9,.37a60,60,0,0,0,12.45-1.12c8.19-1.74,13.79-5.22,16.62-10.34a16.35,16.35,0,0,0,1.82-10.25c5.33-4.82,6.27-10.14,6.08-13.89A18.07,18.07,0,0,0,122.69,87ZM13.14,119.73a3.92,3.92,0,0,1-3.91-3.91V72.3a3.91,3.91,0,0,1,3.91-3.91H29.46a3.92,3.92,0,0,1,3.91,3.91v43.49a3.92,3.92,0,0,1-3.91,3.91l-16.32,0Zm102.7-35.84a3.59,3.59,0,0,0-.48,4.36,11.1,11.1,0,0,1,1.23,4.47c.19,3.51-1.5,6.61-5,9.26a3.64,3.64,0,0,0-1.23,4.12,9.45,9.45,0,0,1-.73,6.91c-1.79,3.21-5.78,5.51-11.83,6.8-4.84,1-11.43,1.23-19.51.59h-.38a266.29,266.29,0,0,1-34.79-1.9h0l-2.7-.32a11.45,11.45,0,0,0,.24-2.36V72.3A11.35,11.35,0,0,0,40.09,69a22.36,22.36,0,0,1,5-9.18c12-9.53,23.77-41.68,24.28-43.07a3.5,3.5,0,0,0,.16-1.79c-.46-3-.3-6.67.34-7.77,1.42,0,5.25.43,7.55,3.62,2.73,3.77,2.63,10.52-.32,19.46-4.5,13.62-4.87,20.79-1.31,24a5.86,5.86,0,0,0,5.84,1c1.63-.38,3.18-.7,4.65-.94l.35-.08c8.22-1.79,22.94-2.89,28.05,1.77,4.34,4,1.26,9.2.91,9.77a3.58,3.58,0,0,0,.64,4.65,10.17,10.17,0,0,1,3,6.24C119.29,79,118.17,81.48,115.84,83.89Z" transform="translate(-2)"/></svg>