<svg id="Layer_1" data-name="Layer 1" xmlns="http://www.w3.org/2000/svg" viewBox="0 0 499.01 200"><defs><style>.cls-1{fill:#fff;}.cls-2{fill:#0089f7;}</style></defs><path class="cls-1" d="M55.34,111.31a20.35,20.35,0,0,0-40.7,0,20.47,20.47,0,0,0,1.63,8h0l.09.24a5.79,5.79,0,0,1,.29.68,6.38,6.38,0,0,1,.38.67,6,6,0,0,1,.51.89,2.39,2.39,0,0,1,.13.21h0a18.86,18.86,0,0,0,1.07,1.57,47.44,47.44,0,0,1,6,13.81l.27,1.18H45l.27-1.18a47.74,47.74,0,0,1,6-13.81,15.67,15.67,0,0,0,.92-1.33c.11-.18.22-.37.34-.54a6.61,6.61,0,0,1,.36-.7c.22-.38.43-.75.63-1.12a5.89,5.89,0,0,1,.24-.58h0A20.48,20.48,0,0,0,55.34,111.31Zm-5,7.88a5.07,5.07,0,0,1-.46.82l-.05.11a17.83,17.83,0,0,1-1.12,1.66l-.08.11a51.38,51.38,0,0,0-6.09,13.63H27.39a51.38,51.38,0,0,0-6.09-13.63l-.08-.11a16.06,16.06,0,0,1-1.12-1.66l-.2-.42-.06,0a17.28,17.28,0,0,1-2.15-8.36,17,17,0,0,1,1-5.73,17.29,17.29,0,1,1,31.71,13.61Z" transform="translate(-0.49)"/><rect class="cls-1" x="24.4" y="141.41" width="20.29" height="3.86"/><path class="cls-1" d="M35,159.44A10.1,10.1,0,0,1,25,149.35v-1.52H45.13v1.52A10.09,10.09,0,0,1,35,159.44Zm-6.87-8.56a7,7,0,0,0,13.74,0Z" transform="translate(-0.49)"/><path class="cls-1" d="M35,84.13h0A1.18,1.18,0,0,1,33.78,83V77.64A1.18,1.18,0,0,1,35,76.46h0a1.18,1.18,0,0,1,1.19,1.18V83A1.18,1.18,0,0,1,35,84.13Z" transform="translate(-0.49)"/><path class="cls-1" d="M48.59,87.84h0a1.19,1.19,0,0,1-.41-1.62l2.75-4.55a1.18,1.18,0,0,1,1.62-.4h0A1.2,1.2,0,0,1,53,82.9l-2.75,4.54A1.18,1.18,0,0,1,48.59,87.84Z" transform="translate(-0.49)"/><path class="cls-1" d="M58.33,98.06h0a1.19,1.19,0,0,1,.49-1.6L63.52,94a1.19,1.19,0,0,1,1.6.5h0a1.19,1.19,0,0,1-.5,1.6l-4.69,2.47A1.19,1.19,0,0,1,58.33,98.06Z" transform="translate(-0.49)"/><path class="cls-1" d="M61.38,111.84h0a1.18,1.18,0,0,1,1.25-1.11l5.3.32A1.18,1.18,0,0,1,69,112.3h0a1.18,1.18,0,0,1-1.25,1.11l-5.3-.31A1.19,1.19,0,0,1,61.38,111.84Z" transform="translate(-0.49)"/><path class="cls-1" d="M56.87,125.22h0a1.17,1.17,0,0,1,1.64-.3l4.37,3a1.18,1.18,0,0,1,.31,1.64h0a1.19,1.19,0,0,1-1.65.31l-4.37-3A1.19,1.19,0,0,1,56.87,125.22Z" transform="translate(-0.49)"/><path class="cls-1" d="M21,87h0a1.18,1.18,0,0,0,.4-1.62l-2.74-4.55a1.21,1.21,0,0,0-1.63-.4h0a1.19,1.19,0,0,0-.4,1.63l2.75,4.54A1.17,1.17,0,0,0,21,87Z" transform="translate(-0.49)"/><path class="cls-1" d="M11.21,97.25h0a1.19,1.19,0,0,0-.5-1.6L6,93.18a1.18,1.18,0,0,0-1.59.5h0a1.18,1.18,0,0,0,.49,1.6l4.7,2.47A1.19,1.19,0,0,0,11.21,97.25Z" transform="translate(-0.49)"/><path class="cls-1" d="M8.16,111h0a1.18,1.18,0,0,0-1.26-1.11l-5.29.31A1.18,1.18,0,0,0,.5,111.49h0a1.17,1.17,0,0,0,1.25,1.11l5.3-.31A1.18,1.18,0,0,0,8.16,111Z" transform="translate(-0.49)"/><path class="cls-1" d="M12.67,124.41h0a1.2,1.2,0,0,0-1.65-.3l-4.37,3a1.2,1.2,0,0,0-.3,1.65h0a1.2,1.2,0,0,0,1.65.3l4.37-3A1.19,1.19,0,0,0,12.67,124.41Z" transform="translate(-0.49)"/><path class="cls-1" d="M29.16,97.63a1.16,1.16,0,0,0-1.47-.31l-.16.09a15.21,15.21,0,0,0-6,6.14,1.16,1.16,0,0,0,1,1.71,1.17,1.17,0,0,0,1-.62,12.94,12.94,0,0,1,5.11-5.19l.14-.08a1.16,1.16,0,0,0,.36-1.74Z" transform="translate(-0.49)"/><path class="cls-1" d="M22.39,107a1.28,1.28,0,1,1-1.28-1.28A1.28,1.28,0,0,1,22.39,107Z" transform="translate(-0.49)"/><rect class="cls-1" x="32.24" y="165.13" width="4.07" height="34.87"/><path class="cls-1" d="M163,111.31a20.35,20.35,0,1,0-39.06,8h0a2.34,2.34,0,0,1,.09.24,5.85,5.85,0,0,1,.3.68,6.29,6.29,0,0,1,.37.67,6.09,6.09,0,0,1,.52.89,2.39,2.39,0,0,0,.13.21h0c.34.54.7,1.07,1.08,1.57a47.47,47.47,0,0,1,6,13.81l.28,1.18h20l.28-1.18a47.47,47.47,0,0,1,6-13.81c.32-.42.63-.87.92-1.33a4.42,4.42,0,0,1,.34-.54,6.53,6.53,0,0,1,.35-.7c.22-.38.43-.75.63-1.12a6,6,0,0,1,.25-.58h0A20.3,20.3,0,0,0,163,111.31ZM158,119.19a5.07,5.07,0,0,1-.46.82l-.06.11a16.06,16.06,0,0,1-1.12,1.66l-.08.11a51.71,51.71,0,0,0-6.09,13.63H135a51.71,51.71,0,0,0-6.09-13.63l-.08-.11a16.06,16.06,0,0,1-1.12-1.66l-.2-.42-.06,0a17.3,17.3,0,1,1,30.54-.48Z" transform="translate(-0.49)"/><rect class="cls-1" x="132.02" y="141.41" width="20.29" height="3.86"/><path class="cls-1" d="M142.66,159.44a10.09,10.09,0,0,1-10.09-10.09v-1.52h20.18v1.52A10.1,10.1,0,0,1,142.66,159.44Zm-6.87-8.56a7,7,0,0,0,13.74,0Z" transform="translate(-0.49)"/><path class="cls-1" d="M142.58,84.13h0A1.18,1.18,0,0,1,141.4,83V77.64a1.18,1.18,0,0,1,1.18-1.18h0a1.18,1.18,0,0,1,1.18,1.18V83A1.18,1.18,0,0,1,142.58,84.13Z" transform="translate(-0.49)"/><path class="cls-1" d="M156.2,87.84h0a1.18,1.18,0,0,1-.4-1.62l2.74-4.55a1.19,1.19,0,0,1,1.63-.4h0a1.19,1.19,0,0,1,.4,1.63l-2.74,4.54A1.19,1.19,0,0,1,156.2,87.84Z" transform="translate(-0.49)"/><path class="cls-1" d="M165.94,98.06h0a1.19,1.19,0,0,1,.5-1.6l4.7-2.47a1.19,1.19,0,0,1,1.6.5h0a1.19,1.19,0,0,1-.5,1.6l-4.7,2.47A1.19,1.19,0,0,1,165.94,98.06Z" transform="translate(-0.49)"/><path class="cls-1" d="M169,111.84h0a1.18,1.18,0,0,1,1.25-1.11l5.3.32a1.18,1.18,0,0,1,1.11,1.25h0a1.19,1.19,0,0,1-1.26,1.11l-5.29-.31A1.18,1.18,0,0,1,169,111.84Z" transform="translate(-0.49)"/><path class="cls-1" d="M164.48,125.22h0a1.19,1.19,0,0,1,1.65-.3l4.37,3a1.18,1.18,0,0,1,.3,1.64h0a1.18,1.18,0,0,1-1.64.31l-4.37-3A1.19,1.19,0,0,1,164.48,125.22Z" transform="translate(-0.49)"/><path class="cls-1" d="M128.57,87h0a1.18,1.18,0,0,0,.4-1.62l-2.75-4.55a1.19,1.19,0,0,0-1.62-.4h0a1.19,1.19,0,0,0-.4,1.63l2.74,4.54A1.19,1.19,0,0,0,128.57,87Z" transform="translate(-0.49)"/><path class="cls-1" d="M118.83,97.25h0a1.19,1.19,0,0,0-.5-1.6l-4.7-2.47a1.19,1.19,0,0,0-1.6.5h0a1.19,1.19,0,0,0,.5,1.6l4.7,2.47A1.19,1.19,0,0,0,118.83,97.25Z" transform="translate(-0.49)"/><path class="cls-1" d="M115.77,111h0a1.18,1.18,0,0,0-1.25-1.11l-5.3.31a1.18,1.18,0,0,0-1.11,1.25h0a1.18,1.18,0,0,0,1.25,1.11l5.3-.31A1.18,1.18,0,0,0,115.77,111Z" transform="translate(-0.49)"/><path class="cls-1" d="M120.29,124.41h0a1.2,1.2,0,0,0-1.65-.3l-4.37,3a1.19,1.19,0,0,0-.3,1.65h0a1.18,1.18,0,0,0,1.64.3l4.37-3A1.19,1.19,0,0,0,120.29,124.41Z" transform="translate(-0.49)"/><path class="cls-1" d="M136.78,97.63a1.16,1.16,0,0,0-1.47-.31l-.17.09a15.27,15.27,0,0,0-6,6.14,1.2,1.2,0,0,0,0,1.12,1.16,1.16,0,0,0,1,.59,1.17,1.17,0,0,0,1-.62,12.88,12.88,0,0,1,5.11-5.19l.14-.08a1.17,1.17,0,0,0,.36-1.74Z" transform="translate(-0.49)"/><path class="cls-1" d="M130,107a1.28,1.28,0,1,1-1.28-1.28A1.28,1.28,0,0,1,130,107Z" transform="translate(-0.49)"/><rect class="cls-1" x="139.86" y="165.13" width="4.07" height="34.87"/><path class="cls-1" d="M270.57,34.85a20.35,20.35,0,1,0-39.07,8h0l.09.24a5.79,5.79,0,0,1,.29.68,5.63,5.63,0,0,1,.38.68,5.51,5.51,0,0,1,.52.88l.12.21,0,0c.34.54.7,1.06,1.08,1.57a47.26,47.26,0,0,1,6,13.8l.27,1.19h20l.28-1.19a47,47,0,0,1,6-13.8c.32-.43.62-.88.92-1.33a4.53,4.53,0,0,1,.34-.55,5.71,5.71,0,0,1,.35-.7c.22-.37.43-.75.63-1.12a4.23,4.23,0,0,1,.25-.58h0A20.27,20.27,0,0,0,270.57,34.85Zm-5,7.89a5.43,5.43,0,0,1-.46.81l0,.12A19.27,19.27,0,0,1,264,45.33l-.08.11a51.29,51.29,0,0,0-6.09,13.62H242.63a51.57,51.57,0,0,0-6.1-13.62l-.07-.11a18.65,18.65,0,0,1-1.13-1.66l-.2-.43,0,0a17.25,17.25,0,0,1-2.16-8.37,17.07,17.07,0,0,1,1-5.73,17.29,17.29,0,1,1,31.71,13.62Z" transform="translate(-0.49)"/><rect class="cls-1" x="239.64" y="64.96" width="20.29" height="3.86"/><path class="cls-1" d="M250.27,83A10.11,10.11,0,0,1,240.18,72.9V71.37h20.19V72.9A10.11,10.11,0,0,1,250.27,83Zm-6.87-8.57a7,7,0,0,0,13.75,0Z" transform="translate(-0.49)"/><path class="cls-2" d="M250.2,7.67h0A1.18,1.18,0,0,1,249,6.49V1.18A1.18,1.18,0,0,1,250.2,0h0a1.18,1.18,0,0,1,1.18,1.18V6.49A1.18,1.18,0,0,1,250.2,7.67Z" transform="translate(-0.49)"/><path class="cls-2" d="M263.82,11.38h0a1.17,1.17,0,0,1-.4-1.62l2.74-4.54a1.19,1.19,0,0,1,1.63-.4h0a1.18,1.18,0,0,1,.4,1.62L265.44,11A1.18,1.18,0,0,1,263.82,11.38Z" transform="translate(-0.49)"/><path class="cls-2" d="M273.56,21.6h0a1.17,1.17,0,0,1,.5-1.59l4.69-2.47a1.18,1.18,0,0,1,1.6.49h0a1.18,1.18,0,0,1-.5,1.6l-4.69,2.47A1.19,1.19,0,0,1,273.56,21.6Z" transform="translate(-0.49)"/><path class="cls-2" d="M276.61,35.39h0a1.18,1.18,0,0,1,1.25-1.11l5.3.31a1.18,1.18,0,0,1,1.11,1.25h0A1.19,1.19,0,0,1,283,37l-5.3-.32A1.18,1.18,0,0,1,276.61,35.39Z" transform="translate(-0.49)"/><path class="cls-2" d="M272.1,48.77h0a1.18,1.18,0,0,1,1.64-.31l4.37,3a1.19,1.19,0,0,1,.31,1.65h0a1.19,1.19,0,0,1-1.65.3l-4.37-3A1.18,1.18,0,0,1,272.1,48.77Z" transform="translate(-0.49)"/><path class="cls-2" d="M236.18,10.58h0a1.19,1.19,0,0,0,.4-1.63l-2.74-4.54a1.19,1.19,0,0,0-1.63-.4h0a1.18,1.18,0,0,0-.4,1.62l2.75,4.55A1.19,1.19,0,0,0,236.18,10.58Z" transform="translate(-0.49)"/><path class="cls-2" d="M226.44,20.8h0a1.18,1.18,0,0,0-.5-1.6l-4.69-2.47a1.18,1.18,0,0,0-1.6.5h0a1.17,1.17,0,0,0,.5,1.59l4.69,2.47A1.18,1.18,0,0,0,226.44,20.8Z" transform="translate(-0.49)"/><path class="cls-2" d="M223.39,34.58h0a1.18,1.18,0,0,0-1.25-1.11l-5.3.31A1.19,1.19,0,0,0,215.73,35h0A1.18,1.18,0,0,0,217,36.15l5.3-.32A1.18,1.18,0,0,0,223.39,34.58Z" transform="translate(-0.49)"/><path class="cls-2" d="M227.9,48h0a1.18,1.18,0,0,0-1.64-.31l-4.37,3a1.19,1.19,0,0,0-.31,1.65h0a1.19,1.19,0,0,0,1.65.3l4.37-3A1.17,1.17,0,0,0,227.9,48Z" transform="translate(-0.49)"/><path class="cls-2" d="M244.39,21.17a1.17,1.17,0,0,0-1.47-.3l-.16.09a15.25,15.25,0,0,0-6,6.13,1.15,1.15,0,0,0,0,1.12,1.13,1.13,0,0,0,1,.59,1.17,1.17,0,0,0,1-.62A13,13,0,0,1,243.9,23l.13-.08a1.15,1.15,0,0,0,.36-1.74Z" transform="translate(-0.49)"/><path class="cls-2" d="M237.62,30.57a1.28,1.28,0,1,1-1.28-1.28A1.28,1.28,0,0,1,237.62,30.57Z" transform="translate(-0.49)"/><rect class="cls-1" x="247.47" y="88.68" width="4.07" height="111.32"/><path class="cls-1" d="M378.18,111.31a20.35,20.35,0,1,0-39.06,8h0l.09.24c.11.22.2.45.29.68a6.29,6.29,0,0,1,.37.67,6.09,6.09,0,0,1,.52.89l.13.21h0a18.86,18.86,0,0,0,1.07,1.57,47.71,47.71,0,0,1,6,13.81l.27,1.18h20l.28-1.18a47.74,47.74,0,0,1,6-13.81,15.67,15.67,0,0,0,.92-1.33,6.1,6.1,0,0,1,.34-.54c.11-.24.22-.47.35-.7l.64-1.12a5.89,5.89,0,0,1,.24-.58h0A20.3,20.3,0,0,0,378.18,111.31Zm-4.95,7.88a5.07,5.07,0,0,1-.46.82l-.06.11a16.06,16.06,0,0,1-1.12,1.66l-.08.11a52,52,0,0,0-6.09,13.63H350.24a51.38,51.38,0,0,0-6.09-13.63l-.08-.11a16.06,16.06,0,0,1-1.12-1.66l-.2-.42-.06,0a17.3,17.3,0,1,1,30.54-.48Z" transform="translate(-0.49)"/><rect class="cls-1" x="347.25" y="141.41" width="20.29" height="3.86"/><path class="cls-1" d="M357.89,159.44a10.1,10.1,0,0,1-10.09-10.09v-1.52H368v1.52A10.09,10.09,0,0,1,357.89,159.44ZM351,150.88a7,7,0,0,0,13.74,0Z" transform="translate(-0.49)"/><path class="cls-1" d="M357.81,84.13h0A1.18,1.18,0,0,1,356.63,83V77.64a1.18,1.18,0,0,1,1.18-1.18h0A1.18,1.18,0,0,1,359,77.64V83A1.18,1.18,0,0,1,357.81,84.13Z" transform="translate(-0.49)"/><path class="cls-1" d="M371.43,87.84h0a1.18,1.18,0,0,1-.4-1.62l2.75-4.55a1.17,1.17,0,0,1,1.62-.4h0a1.19,1.19,0,0,1,.4,1.63l-2.74,4.54A1.19,1.19,0,0,1,371.43,87.84Z" transform="translate(-0.49)"/><path class="cls-1" d="M381.17,98.06h0a1.19,1.19,0,0,1,.5-1.6l4.7-2.47a1.19,1.19,0,0,1,1.6.5h0a1.19,1.19,0,0,1-.5,1.6l-4.7,2.47A1.19,1.19,0,0,1,381.17,98.06Z" transform="translate(-0.49)"/><path class="cls-1" d="M384.23,111.84h0a1.18,1.18,0,0,1,1.25-1.11l5.3.32a1.18,1.18,0,0,1,1.11,1.25h0a1.18,1.18,0,0,1-1.25,1.11l-5.3-.31A1.19,1.19,0,0,1,384.23,111.84Z" transform="translate(-0.49)"/><path class="cls-1" d="M379.71,125.22h0a1.19,1.19,0,0,1,1.65-.3l4.37,3a1.18,1.18,0,0,1,.3,1.64h0a1.18,1.18,0,0,1-1.64.31l-4.37-3A1.19,1.19,0,0,1,379.71,125.22Z" transform="translate(-0.49)"/><path class="cls-1" d="M343.8,87h0a1.18,1.18,0,0,0,.4-1.62l-2.74-4.55a1.21,1.21,0,0,0-1.63-.4h0a1.19,1.19,0,0,0-.4,1.63l2.74,4.54A1.19,1.19,0,0,0,343.8,87Z" transform="translate(-0.49)"/><path class="cls-1" d="M334.06,97.25h0a1.19,1.19,0,0,0-.5-1.6l-4.7-2.47a1.19,1.19,0,0,0-1.6.5h0a1.19,1.19,0,0,0,.5,1.6l4.7,2.47A1.19,1.19,0,0,0,334.06,97.25Z" transform="translate(-0.49)"/><path class="cls-1" d="M331,111h0a1.18,1.18,0,0,0-1.25-1.11l-5.3.31a1.18,1.18,0,0,0-1.11,1.25h0a1.18,1.18,0,0,0,1.26,1.11l5.29-.31A1.18,1.18,0,0,0,331,111Z" transform="translate(-0.49)"/><path class="cls-1" d="M335.52,124.41h0a1.2,1.2,0,0,0-1.65-.3l-4.37,3a1.19,1.19,0,0,0-.3,1.65h0a1.18,1.18,0,0,0,1.64.3l4.37-3A1.19,1.19,0,0,0,335.52,124.41Z" transform="translate(-0.49)"/><path class="cls-1" d="M352,97.63a1.16,1.16,0,0,0-1.47-.31l-.16.09a15.24,15.24,0,0,0-6,6.14,1.2,1.2,0,0,0,0,1.12,1.17,1.17,0,0,0,2,0,12.88,12.88,0,0,1,5.11-5.19l.14-.08a1.16,1.16,0,0,0,.36-1.74Z" transform="translate(-0.49)"/><path class="cls-1" d="M345.24,107a1.29,1.29,0,1,1-1.28-1.28A1.28,1.28,0,0,1,345.24,107Z" transform="translate(-0.49)"/><rect class="cls-1" x="355.09" y="165.13" width="4.07" height="34.87"/><path class="cls-1" d="M485.8,111.31a20.35,20.35,0,1,0-39.06,8h0l.09.24a5.85,5.85,0,0,1,.3.68c.13.22.26.44.37.67a6.09,6.09,0,0,1,.52.89l.12.21h0c.34.54.7,1.07,1.08,1.57a47.47,47.47,0,0,1,6,13.81l.28,1.18h20l.28-1.18a47.47,47.47,0,0,1,6-13.81c.32-.42.63-.87.92-1.33a4.42,4.42,0,0,1,.34-.54,6.53,6.53,0,0,1,.35-.7c.22-.38.43-.75.63-1.12a4.23,4.23,0,0,1,.25-.58h0A20.3,20.3,0,0,0,485.8,111.31Zm-5,7.88a5,5,0,0,1-.45.82l-.06.11a16.06,16.06,0,0,1-1.12,1.66l-.08.11A51.71,51.71,0,0,0,473,135.52H457.86a52,52,0,0,0-6.09-13.63l-.08-.11a16.06,16.06,0,0,1-1.12-1.66l-.21-.42-.05,0a17.29,17.29,0,1,1,30.53-.48Z" transform="translate(-0.49)"/><rect class="cls-1" x="454.87" y="141.41" width="20.29" height="3.86"/><path class="cls-1" d="M465.51,159.44a10.09,10.09,0,0,1-10.09-10.09v-1.52H475.6v1.52A10.1,10.1,0,0,1,465.51,159.44Zm-6.87-8.56a7,7,0,0,0,13.74,0Z" transform="translate(-0.49)"/><path class="cls-1" d="M465.43,84.13h0A1.18,1.18,0,0,1,464.24,83V77.64a1.18,1.18,0,0,1,1.19-1.18h0a1.18,1.18,0,0,1,1.18,1.18V83A1.18,1.18,0,0,1,465.43,84.13Z" transform="translate(-0.49)"/><path class="cls-1" d="M479.05,87.84h0a1.18,1.18,0,0,1-.4-1.62l2.74-4.55a1.19,1.19,0,0,1,1.63-.4h0a1.19,1.19,0,0,1,.4,1.63l-2.75,4.54A1.17,1.17,0,0,1,479.05,87.84Z" transform="translate(-0.49)"/><path class="cls-1" d="M488.79,98.06h0a1.19,1.19,0,0,1,.5-1.6L494,94a1.18,1.18,0,0,1,1.59.5h0a1.18,1.18,0,0,1-.49,1.6l-4.7,2.47A1.19,1.19,0,0,1,488.79,98.06Z" transform="translate(-0.49)"/><path class="cls-1" d="M491.84,111.84h0a1.19,1.19,0,0,1,1.26-1.11l5.29.32a1.18,1.18,0,0,1,1.11,1.25h0a1.18,1.18,0,0,1-1.25,1.11L493,113.1A1.2,1.2,0,0,1,491.84,111.84Z" transform="translate(-0.49)"/><path class="cls-1" d="M487.33,125.22h0a1.19,1.19,0,0,1,1.65-.3l4.37,3a1.18,1.18,0,0,1,.3,1.64h0a1.19,1.19,0,0,1-1.65.31l-4.37-3A1.19,1.19,0,0,1,487.33,125.22Z" transform="translate(-0.49)"/><path class="cls-1" d="M451.41,87h0a1.19,1.19,0,0,0,.41-1.62l-2.75-4.55a1.19,1.19,0,0,0-1.62-.4h0a1.19,1.19,0,0,0-.4,1.63l2.74,4.54A1.18,1.18,0,0,0,451.41,87Z" transform="translate(-0.49)"/><path class="cls-1" d="M441.67,97.25h0a1.19,1.19,0,0,0-.49-1.6l-4.7-2.47a1.19,1.19,0,0,0-1.6.5h0a1.19,1.19,0,0,0,.5,1.6l4.69,2.47A1.19,1.19,0,0,0,441.67,97.25Z" transform="translate(-0.49)"/><path class="cls-1" d="M438.62,111h0a1.18,1.18,0,0,0-1.25-1.11l-5.3.31a1.18,1.18,0,0,0-1.11,1.25h0a1.18,1.18,0,0,0,1.25,1.11l5.3-.31A1.18,1.18,0,0,0,438.62,111Z" transform="translate(-0.49)"/><path class="cls-1" d="M443.13,124.41h0a1.18,1.18,0,0,0-1.64-.3l-4.37,3a1.19,1.19,0,0,0-.31,1.65h0a1.2,1.2,0,0,0,1.65.3l4.37-3A1.19,1.19,0,0,0,443.13,124.41Z" transform="translate(-0.49)"/><path class="cls-1" d="M459.63,97.63a1.17,1.17,0,0,0-1.48-.31l-.16.09a15.27,15.27,0,0,0-6,6.14,1.17,1.17,0,0,0,0,1.12,1.15,1.15,0,0,0,1,.59,1.17,1.17,0,0,0,1-.62,12.82,12.82,0,0,1,5.11-5.19l.13-.08a1.16,1.16,0,0,0,.37-1.74Z" transform="translate(-0.49)"/><path class="cls-1" d="M452.85,107a1.28,1.28,0,1,1-1.28-1.28A1.28,1.28,0,0,1,452.85,107Z" transform="translate(-0.49)"/><rect class="cls-1" x="462.7" y="165.13" width="4.07" height="34.87"/></svg>