<svg id="Layer_1" data-name="Layer 1" xmlns="http://www.w3.org/2000/svg" viewBox="0 0 320 30"><defs><style>.cls-1{fill:none;stroke:#304050;stroke-linecap:round;stroke-linejoin:round;stroke-width:2.5px;}</style></defs><line class="cls-1" x1="23" y1="23.57" x2="23" y2="3.57"/><polyline class="cls-1" points="14.67 5.24 14.67 3.57 31.33 3.57 31.33 5.24"/><line class="cls-1" x1="19.67" y1="23.57" x2="26.33" y2="23.57"/><line class="cls-1" x1="75.54" y1="23.57" x2="75.54" y2="3.57"/><polyline class="cls-1" points="79.83 12.14 81.26 13.57 79.83 15"/><polyline class="cls-1" points="71.26 12.14 69.83 13.57 71.26 15"/><path class="cls-1" d="M86,22.14H65.13a1.09,1.09,0,0,1-1-1.13V6.13a1.09,1.09,0,0,1,1-1.13H86a1.09,1.09,0,0,1,1,1.13V21A1.09,1.09,0,0,1,86,22.14Z"/><path class="cls-1" d="M125.84,11.26h-7.1a1,1,0,0,1-1.06-.93h0V4.51a1,1,0,0,1,1-.94h7.11a1,1,0,0,1,1.06.94h0v5.82a1,1,0,0,1-1.05.93Z"/><path class="cls-1" d="M125.84,23.57h-7.1a1,1,0,0,1-1.06-.94h0V16.82a1,1,0,0,1,1-.94h7.11a1,1,0,0,1,1.06.93h0v5.81a1,1,0,0,1-1.05.94Z"/><line class="cls-1" x1="131.52" y1="5.11" x2="140.75" y2="5.11"/><line class="cls-1" x1="131.52" y1="9.73" x2="143.82" y2="9.73"/><line class="cls-1" x1="131.52" y1="17.42" x2="137.67" y2="17.42"/><line class="cls-1" x1="131.52" y1="22.03" x2="140.75" y2="22.03"/><polygon id="icon" class="cls-1" points="185.78 3.57 186.95 6.96 190.53 7.03 187.69 9.19 188.72 12.63 185.78 10.58 182.83 12.63 183.86 9.19 181.02 7.03 184.6 6.96 185.78 3.57"/><line class="cls-1" x1="175.07" y1="18.13" x2="196.85" y2="18.13"/><line class="cls-1" x1="178.47" y1="23.57" x2="183.92" y2="23.57"/><line class="cls-1" x1="188" y1="23.57" x2="193.45" y2="23.57"/><path class="cls-1" d="M244.74,7.86A2.14,2.14,0,1,0,246.88,10,2.14,2.14,0,0,0,244.74,7.86Z"/><polyline class="cls-1" points="251.17 19 247.35 15.46 243.98 18.59 237.04 12.14 231.17 17.6"/><rect class="cls-1" x="231.17" y="3.57" width="20" height="20" rx="1.14"/><polygon class="cls-1" points="306.38 23.57 286.38 23.57 288.04 10.24 304.71 10.24 306.38 23.57"/><path class="cls-1" d="M291.38,10.24V8.57a5,5,0,1,1,10,0v1.67"/></svg>