<svg id="Layer_1" data-name="Layer 1" xmlns="http://www.w3.org/2000/svg" viewBox="0 0 320 30"><defs><style>.cls-1,.cls-2{fill:none;stroke:#304050;stroke-linecap:round;stroke-linejoin:round;}.cls-1{stroke-width:2.5px;}.cls-2{stroke-width:1.5px;}</style></defs><polyline class="cls-1" points="14.43 24 23 4 31.57 24"/><line class="cls-1" x1="17.49" y1="16.86" x2="28.51" y2="16.86"/><path class="cls-1" d="M70.3,24H60.49A1.4,1.4,0,0,1,59,22.67V5.33A1.4,1.4,0,0,1,60.49,4H70.3a1.4,1.4,0,0,1,1.46,1.33V22.67A1.4,1.4,0,0,1,70.3,24Z"/><line class="cls-1" x1="77.21" y1="6.73" x2="84.48" y2="6.73"/><line class="cls-1" x1="77.21" y1="12.18" x2="91.75" y2="12.18"/><polyline class="cls-1" points="77.21 19.45 79.03 21.27 77.21 23.09"/><circle class="cls-1" cx="185.04" cy="14" r="10"/><line class="cls-1" x1="185.04" y1="14" x2="185.04" y2="7.33"/><line class="cls-1" x1="185.04" y1="14" x2="189.04" y2="16.67"/><path class="cls-1" d="M298.25,8.29a2.14,2.14,0,1,0,2.14,2.14A2.14,2.14,0,0,0,298.25,8.29Z"/><polyline class="cls-1" points="304.68 19.43 300.86 15.89 297.49 19.01 290.55 12.57 284.68 18.03"/><rect class="cls-1" x="284.68" y="4" width="20" height="20" rx="1.14"/><path class="cls-1" d="M247.36,11.5c0,4.14-7.5,12.5-7.5,12.5s-7.5-8.36-7.5-12.5a7.5,7.5,0,0,1,15,0Z"/><polygon id="icon" class="cls-2" points="239.69 6.89 240.77 10 244.06 10.06 241.44 12.05 242.4 15.2 239.69 13.32 236.98 15.2 237.93 12.05 235.32 10.06 238.61 10 239.69 6.89"/><path class="cls-1" d="M118.78,4.39l-2.41,3.18a.42.42,0,0,1-.6.12.34.34,0,0,1-.12-.12l-1-1.35"/><path class="cls-1" d="M118.78,4.39l-2.41,3.18a.42.42,0,0,1-.6.12.34.34,0,0,1-.12-.12l-1-1.35"/><line class="cls-1" x1="125.02" y1="6.47" x2="139.57" y2="6.47"/><path class="cls-1" d="M118.78,12.7l-2.41,3.18a.44.44,0,0,1-.6.13.49.49,0,0,1-.12-.13l-1-1.35"/><path class="cls-1" d="M118.78,12.7l-2.41,3.18a.44.44,0,0,1-.6.13.49.49,0,0,1-.12-.13l-1-1.35"/><line class="cls-1" x1="125.02" y1="14.78" x2="145.8" y2="14.78"/><path class="cls-1" d="M118.78,21l-2.41,3.18a.43.43,0,0,1-.6.12.34.34,0,0,1-.12-.12l-1-1.35"/><path class="cls-1" d="M118.78,21l-2.41,3.18a.43.43,0,0,1-.6.12.34.34,0,0,1-.12-.12l-1-1.35"/><line class="cls-1" x1="125.02" y1="23.1" x2="135.41" y2="23.1"/></svg>