<svg id="Layer_1" data-name="Layer 1" xmlns="http://www.w3.org/2000/svg" viewBox="0 0 320 30"><defs><style>.cls-1,.cls-2{fill:none;stroke:#304050;stroke-width:2.5px;}.cls-1{stroke-linecap:round;stroke-linejoin:round;}.cls-2{stroke-miterlimit:10;}.cls-3{fill:#304050;fill-rule:evenodd;}</style></defs><path class="cls-1" d="M24.83,5.47H31.9c.53,0,.67.14.67.54v7.2a.49.49,0,0,1-.54.53H25c-.54.13-.67,0-.67-.27V6A.49.49,0,0,1,24.83,5.47Z"/><path class="cls-1" d="M13.1,17.21h7.07c.53,0,.66.13.66.53v7.07c0,.53-.13.66-.53.66H13.1a.48.48,0,0,1-.53-.53v-7.2A.48.48,0,0,1,13.1,17.21Z"/><path class="cls-1" d="M13.1,5.47h7.2a.49.49,0,0,1,.53.54v7.2a.49.49,0,0,1-.53.53H13.1a.48.48,0,0,1-.53-.53V6C12.57,5.61,12.7,5.47,13.1,5.47Z"/><path class="cls-1" d="M24.57,17.21h7.06c.54,0,.67.13.67.53v7.07c0,.53-.13.66-.53.66h-7.2a.49.49,0,0,1-.54-.53v-7.2C24.17,17.47,24.3,17.21,24.57,17.21Z"/><line class="cls-1" x1="67" y1="9.97" x2="73.11" y2="9.97"/><line class="cls-1" x1="67" y1="14.85" x2="73.11" y2="14.85"/><line class="cls-1" x1="67" y1="19.74" x2="85.32" y2="19.74"/><line class="cls-1" x1="67" y1="24.62" x2="85.32" y2="24.62"/><polygon class="cls-1" points="86.05 10.21 81.05 15.34 76.77 15.59 77.02 11.31 82.14 6.3 86.05 10.21"/><path class="cls-1" d="M82.15,6.3,83,5.45a2.73,2.73,0,0,1,3.91,0h0a2.73,2.73,0,0,1,0,3.91l-.86.85"/><path class="cls-1" d="M121.7,17.21h7.07c.53,0,.66.13.66.53v7.07c0,.53-.13.66-.53.66h-7.2a.48.48,0,0,1-.53-.53v-7.2A.48.48,0,0,1,121.7,17.21Z"/><path class="cls-1" d="M121.7,5.47h7.2a.49.49,0,0,1,.53.54v7.2a.49.49,0,0,1-.53.53h-7.2a.48.48,0,0,1-.53-.53V6C121.17,5.61,121.3,5.47,121.7,5.47Z"/><line class="cls-1" x1="134.23" y1="7.47" x2="142.23" y2="7.47"/><line class="cls-1" x1="134.23" y1="11.47" x2="139.57" y2="11.47"/><line class="cls-1" x1="134.23" y1="19.21" x2="142.23" y2="19.21"/><line class="cls-1" x1="134.23" y1="23.21" x2="139.57" y2="23.21"/><path class="cls-2" d="M179.5,22.64V7.89a2.63,2.63,0,0,1,2.55-2.7,2.72,2.72,0,0,1,1.42.37l12.59,7.37a2.61,2.61,0,0,1,0,4.53l-12.59,7.37a2.64,2.64,0,0,1-4-2.19Z"/><rect class="cls-2" x="242.56" y="5.46" width="10" height="10"/><rect class="cls-2" x="232.56" y="5.46" width="10" height="20"/><rect class="cls-2" x="242.56" y="15.46" width="10" height="10"/><rect class="cls-2" x="288.29" y="5.87" width="20.8" height="12.32"/><path class="cls-3" d="M300.49,24.09a1.79,1.79,0,1,0-1.8,1.78h0A1.79,1.79,0,0,0,300.49,24.09Z"/><path class="cls-3" d="M294.23,24.09a1.79,1.79,0,1,0-1.8,1.78h0A1.79,1.79,0,0,0,294.23,24.09Z"/><path class="cls-3" d="M306.73,24.09a1.8,1.8,0,1,0-1.81,1.78h0A1.79,1.79,0,0,0,306.73,24.09Z"/></svg>