<svg id="Layer_1" data-name="Layer 1" xmlns="http://www.w3.org/2000/svg" viewBox="0 0 320 30"><defs><style>.cls-1{fill:none;stroke-linecap:round;stroke-linejoin:round;stroke-width:2.5px;}.cls-1,.cls-2{stroke:#304050;}.cls-2{fill:#304050;stroke-miterlimit:10;fill-rule:evenodd;}</style></defs><polygon class="cls-1" points="23 5 26.25 11.59 33.52 12.63 28.26 17.77 29.5 25 23 21.59 16.5 25 17.74 17.77 12.48 12.63 19.75 11.59 23 5"/><line class="cls-1" x1="87.46" y1="11.58" x2="67.46" y2="11.58"/><rect class="cls-1" x="67.46" y="5" width="20" height="20" rx="1.58"/><line class="cls-1" x1="142.79" y1="15" x2="122.02" y2="15"/><line class="cls-1" x1="122.02" y1="8" x2="142.79" y2="8"/><line class="cls-1" x1="142.79" y1="22" x2="122.02" y2="22"/><line class="cls-1" x1="197.35" y1="15" x2="187.35" y2="15"/><rect class="cls-1" x="177.35" y="5" width="20" height="20" rx="1.56"/><line class="cls-1" x1="187.35" y1="25" x2="187.35" y2="5"/><rect class="cls-1" x="243.87" y="10.29" width="8.34" height="14.71" rx="1.49"/><line class="cls-1" x1="240.84" y1="10.29" x2="232.36" y2="10.29"/><path class="cls-1" d="M240.88,18.68h-7a1.5,1.5,0,0,1-1.5-1.5V6.49A1.5,1.5,0,0,1,233.86,5h12.78a1.49,1.49,0,0,1,1.49,1.49V7.3"/><path class="cls-2" d="M249.54,21.08a1.5,1.5,0,1,0-1.5,1.5A1.5,1.5,0,0,0,249.54,21.08Z"/><circle class="cls-1" cx="294.81" cy="12.59" r="7.59"/><line class="cls-1" x1="307.23" y1="25" x2="300.19" y2="17.96"/></svg>