<svg id="Layer_1" data-name="Layer 1" xmlns="http://www.w3.org/2000/svg" viewBox="0 0 57 26"><defs><style>.cls-1{fill:#861940;}.cls-1,.cls-3{fill-rule:evenodd;}.cls-2{fill:#fff;}.cls-3{fill:#0089f7;}</style></defs><path class="cls-1" d="M31,13A13,13,0,1,0,44,0,13,13,0,0,0,31,13Z"/><rect class="cls-2" x="39" y="8" width="2" height="10"/><rect class="cls-2" x="43" y="8" width="6" height="2"/><rect class="cls-2" x="43" y="12" width="6" height="2"/><rect class="cls-2" x="43" y="16" width="6" height="2"/><path class="cls-3" d="M0,13A13,13,0,1,0,13,0,13,13,0,0,0,0,13Z"/><path class="cls-2" d="M5.63,18v-10H9.32a7.49,7.49,0,0,1,1.77.19,3.37,3.37,0,0,1,1.19.55,2.12,2.12,0,0,1,.67.85,2.9,2.9,0,0,1,.21,1.12,2,2,0,0,1-.1.65,1.74,1.74,0,0,1-.3.59,2.31,2.31,0,0,1-.53.5,3.55,3.55,0,0,1-.78.39,2.79,2.79,0,0,1,1.47.78,2.05,2.05,0,0,1,.47,1.39,2.82,2.82,0,0,1-.25,1.19,2.67,2.67,0,0,1-.72,1,3.6,3.6,0,0,1-1.18.64A5.26,5.26,0,0,1,9.63,18ZM8,12.15H9.17a3.62,3.62,0,0,0,.69-.06,1.39,1.39,0,0,0,.53-.19.94.94,0,0,0,.33-.38,1.5,1.5,0,0,0,.11-.6,1.72,1.72,0,0,0-.09-.6.88.88,0,0,0-.27-.38A1.27,1.27,0,0,0,10,9.73a3.37,3.37,0,0,0-.68-.06H8Zm0,1.56V16.2H9.59a2.31,2.31,0,0,0,.76-.11,1.16,1.16,0,0,0,.45-.31,1,1,0,0,0,.23-.42,1.84,1.84,0,0,0,.06-.47,1.59,1.59,0,0,0-.07-.5.84.84,0,0,0-.25-.37,1.1,1.1,0,0,0-.46-.23,2.54,2.54,0,0,0-.73-.08Z"/><path class="cls-2" d="M17.16,10.71a3.81,3.81,0,0,1,1.3.22,2.86,2.86,0,0,1,1,.64,2.94,2.94,0,0,1,.66,1A3.77,3.77,0,0,1,20.37,14a3.84,3.84,0,0,1,0,.39.52.52,0,0,1-.08.24.29.29,0,0,1-.14.13.83.83,0,0,1-.24,0H15.77a2,2,0,0,0,.55,1.3,1.59,1.59,0,0,0,1.13.4,2,2,0,0,0,.64-.09,2.66,2.66,0,0,0,.48-.2L19,16a.77.77,0,0,1,.36-.09.47.47,0,0,1,.39.19l.62.76a3.13,3.13,0,0,1-.71.62,3.76,3.76,0,0,1-.79.37A4.64,4.64,0,0,1,18,18a7.09,7.09,0,0,1-.77.05,3.88,3.88,0,0,1-1.41-.25,3.2,3.2,0,0,1-1.15-.72,3.49,3.49,0,0,1-.77-1.2,4.47,4.47,0,0,1-.29-1.66,3.85,3.85,0,0,1,.24-1.36A3.4,3.4,0,0,1,15.69,11,3.85,3.85,0,0,1,17.16,10.71Zm0,1.47a1.29,1.29,0,0,0-.95.35,1.87,1.87,0,0,0-.46,1h2.67a1.61,1.61,0,0,0-.07-.49,1.08,1.08,0,0,0-.21-.43,1.1,1.1,0,0,0-.39-.31A1.32,1.32,0,0,0,17.2,12.18Z"/></svg>