<svg id="Layer_1" data-name="Layer 1" xmlns="http://www.w3.org/2000/svg" viewBox="0 0 57 26"><defs><style>.cls-1{fill:#7c42b2;}.cls-1,.cls-3{fill-rule:evenodd;}.cls-2{fill:#fff;}.cls-3{fill:#0089f7;}</style></defs><path class="cls-1" d="M31,13A13,13,0,1,0,44,0,13,13,0,0,0,31,13Z"/><path class="cls-2" d="M42.63,15.91a.91.91,0,0,1-.1.56.56.56,0,0,1-.44.3.82.82,0,0,1-.67-.31,8.25,8.25,0,0,1-1.85-3.58c-.55,1.08-1,1.88-1.21,2.42-.5.95-.92,1.44-1.27,1.46s-.42-.17-.59-.58a36.54,36.54,0,0,1-1.38-6.37.66.66,0,0,1,.13-.56A.64.64,0,0,1,35.78,9a.59.59,0,0,1,.73.6c.26,1.76.55,3.24.85,4.46l1.84-3.5a.82.82,0,0,1,.63-.51c.37,0,.59.21.69.71a15.85,15.85,0,0,0,.79,2.87A13,13,0,0,1,42.42,9,.67.67,0,0,1,43,8.63a.78.78,0,0,1,.53.17.68.68,0,0,1,.17.88,10.34,10.34,0,0,0-.81,3A15.89,15.89,0,0,0,42.63,15.91Z"/><path class="cls-2" d="M53.31,10.61a2,2,0,0,0-1.35-1,2.3,2.3,0,0,0-.45,0,2.26,2.26,0,0,0-2,1.26,4.4,4.4,0,0,0-.66,2.37,3.42,3.42,0,0,0,.4,1.66,1.93,1.93,0,0,0,1.35,1,1.7,1.7,0,0,0,.45,0,2.27,2.27,0,0,0,2-1.26,4.52,4.52,0,0,0,.66-2.32A3.12,3.12,0,0,0,53.31,10.61Zm-1.07,2.32a2.19,2.19,0,0,1-.64,1.24.82.82,0,0,1-.68.27c-.2,0-.37-.22-.49-.54a2,2,0,0,1-.16-.77,3.15,3.15,0,0,1,.06-.61,2.66,2.66,0,0,1,.45-1c.27-.41.57-.58.87-.52s.35.18.5.54a2.07,2.07,0,0,1,.15.77A3.18,3.18,0,0,1,52.24,12.93Z"/><path class="cls-2" d="M48.05,10.61a2,2,0,0,0-1.34-1,2.4,2.4,0,0,0-.46,0,2.27,2.27,0,0,0-2,1.26,4.4,4.4,0,0,0-.66,2.37A3.32,3.32,0,0,0,44,14.85a1.91,1.91,0,0,0,1.34,1,1.69,1.69,0,0,0,.45,0,2.27,2.27,0,0,0,2-1.26,4.52,4.52,0,0,0,.66-2.32A3.21,3.21,0,0,0,48.05,10.61Zm-1,2.28a2.19,2.19,0,0,1-.66,1.24.82.82,0,0,1-.68.27c-.21,0-.37-.22-.5-.54a2.07,2.07,0,0,1-.15-.77,3.15,3.15,0,0,1,.06-.61,2.81,2.81,0,0,1,.44-1,1,1,0,0,1,.88-.52c.2,0,.37.22.49.54a2,2,0,0,1,.18.77A2.14,2.14,0,0,1,47,12.89Z"/><path class="cls-3" d="M0,13A13,13,0,1,0,13,0,13,13,0,0,0,0,13Z"/><path class="cls-2" d="M5.63,18v-10H9.32a7.49,7.49,0,0,1,1.77.19,3.37,3.37,0,0,1,1.19.55,2.12,2.12,0,0,1,.67.85,2.9,2.9,0,0,1,.21,1.12,2,2,0,0,1-.1.65,1.74,1.74,0,0,1-.3.59,2.31,2.31,0,0,1-.53.5,3.55,3.55,0,0,1-.78.39,2.79,2.79,0,0,1,1.47.78,2.05,2.05,0,0,1,.47,1.39,2.82,2.82,0,0,1-.25,1.19,2.67,2.67,0,0,1-.72,1,3.6,3.6,0,0,1-1.18.64A5.26,5.26,0,0,1,9.63,18ZM8,12.15H9.17a3.62,3.62,0,0,0,.69-.06,1.39,1.39,0,0,0,.53-.19.94.94,0,0,0,.33-.38,1.5,1.5,0,0,0,.11-.6,1.72,1.72,0,0,0-.09-.6.88.88,0,0,0-.27-.38A1.27,1.27,0,0,0,10,9.73a3.37,3.37,0,0,0-.68-.06H8Zm0,1.56V16.2H9.59a2.31,2.31,0,0,0,.76-.11,1.16,1.16,0,0,0,.45-.31,1,1,0,0,0,.23-.42,1.84,1.84,0,0,0,.06-.47,1.59,1.59,0,0,0-.07-.5.84.84,0,0,0-.25-.37,1.1,1.1,0,0,0-.46-.23,2.54,2.54,0,0,0-.73-.08Z"/><path class="cls-2" d="M17.16,10.71a3.81,3.81,0,0,1,1.3.22,2.86,2.86,0,0,1,1,.64,2.94,2.94,0,0,1,.66,1A3.77,3.77,0,0,1,20.37,14a3.84,3.84,0,0,1,0,.39.52.52,0,0,1-.08.24.29.29,0,0,1-.14.13.83.83,0,0,1-.24,0H15.77a2,2,0,0,0,.55,1.3,1.59,1.59,0,0,0,1.13.4,2,2,0,0,0,.64-.09,2.66,2.66,0,0,0,.48-.2L19,16a.77.77,0,0,1,.36-.09.47.47,0,0,1,.39.19l.62.76a3.13,3.13,0,0,1-.71.62,3.76,3.76,0,0,1-.79.37A4.64,4.64,0,0,1,18,18a7.09,7.09,0,0,1-.77.05,3.88,3.88,0,0,1-1.41-.25,3.2,3.2,0,0,1-1.15-.72,3.49,3.49,0,0,1-.77-1.2,4.47,4.47,0,0,1-.29-1.66,3.85,3.85,0,0,1,.24-1.36A3.4,3.4,0,0,1,15.69,11,3.85,3.85,0,0,1,17.16,10.71Zm0,1.47a1.29,1.29,0,0,0-.95.35,1.87,1.87,0,0,0-.46,1h2.67a1.61,1.61,0,0,0-.07-.49,1.08,1.08,0,0,0-.21-.43,1.1,1.1,0,0,0-.39-.31A1.32,1.32,0,0,0,17.2,12.18Z"/></svg>