<svg id="Layer_1" data-name="Layer 1" xmlns="http://www.w3.org/2000/svg" viewBox="0 0 206.13 57.18"><defs><style>.cls-1{fill:#363538;}.cls-2{fill:none;stroke:#d2d2db;stroke-linecap:round;stroke-linejoin:round;stroke-width:3px;}.cls-3{opacity:0.2;}</style></defs><rect class="cls-1" width="63.77" height="57.18" rx="11.28"/><rect class="cls-1" x="71.18" width="63.77" height="57.18" rx="11.28"/><rect class="cls-1" x="142.36" width="63.77" height="57.18" rx="11.28"/><rect class="cls-2" x="169" y="15.1" width="16.37" height="16.37" rx="3.38"/><path class="cls-2" d="M178,34.17V35.9a3,3,0,0,1-2.95,2.94H164.57a3,3,0,0,1-2.94-2.94V25.42a3,3,0,0,1,2.94-3h1.74"/><path class="cls-2" d="M39.84,25.62v9.94a3.39,3.39,0,0,1-3.38,3.37H24.51a3.38,3.38,0,0,1-3.37-3.37v-12a3.39,3.39,0,0,1,3.37-3.38h7.6"/><line class="cls-2" x1="35.17" y1="22.57" x2="42.18" y2="15.55"/><polyline class="cls-2" points="42.18 21.96 42.18 15.55 35.78 15.55"/><path class="cls-2" d="M94.14,26.7v8.76a3.39,3.39,0,0,0,3.38,3.38h12a3.39,3.39,0,0,0,3.37-3.38V23.51a3.38,3.38,0,0,0-3.37-3.37H103"/><line class="cls-2" x1="91.8" y1="15.46" x2="98.81" y2="22.47"/><polyline class="cls-2" points="98.81 16.07 98.81 22.48 92.41 22.48"/></svg>