<svg id="Layer_1" data-name="Layer 1" xmlns="http://www.w3.org/2000/svg" viewBox="0 0 68.42 104.15"><defs><style>.cls-1,.cls-4,.cls-8{fill:#fff;}.cls-1,.cls-2,.cls-3{stroke:#08080e;}.cls-1,.cls-2,.cls-3,.cls-5,.cls-6,.cls-7,.cls-8{stroke-linecap:round;stroke-linejoin:round;}.cls-1,.cls-2,.cls-5,.cls-6,.cls-7,.cls-8{stroke-width:3px;}.cls-2,.cls-3,.cls-5,.cls-6,.cls-7{fill:none;}.cls-3{stroke-width:2px;}.cls-5,.cls-6,.cls-7,.cls-8{stroke:#0089f7;}.cls-6{stroke-dasharray:0 5.03;}.cls-7{stroke-dasharray:0 4.46;}.cls-9{opacity:0.2;}</style></defs><path class="cls-1" d="M1.5,91.92V12.23A10.48,10.48,0,0,1,11.72,1.5h45A10.48,10.48,0,0,1,66.92,12.23V91.92A10.48,10.48,0,0,1,56.7,102.65h-45A10.48,10.48,0,0,1,1.5,91.92Z"/><line class="cls-2" x1="24.87" y1="7.92" x2="36.84" y2="7.92"/><circle class="cls-3" cx="42.55" cy="7.92" r="1"/><rect class="cls-4" x="9.05" y="44.92" width="50.32" height="17.86"/><line class="cls-5" x1="59.37" y1="62.78" x2="59.37" y2="62.78"/><line class="cls-6" x1="54.34" y1="62.78" x2="11.56" y2="62.78"/><line class="cls-5" x1="9.05" y1="62.78" x2="9.05" y2="62.78"/><line class="cls-7" x1="9.05" y1="58.31" x2="9.05" y2="47.15"/><line class="cls-5" x1="9.05" y1="44.92" x2="9.05" y2="44.92"/><line class="cls-6" x1="14.08" y1="44.92" x2="56.85" y2="44.92"/><line class="cls-5" x1="59.37" y1="44.92" x2="59.37" y2="44.92"/><line class="cls-7" x1="59.37" y1="49.39" x2="59.37" y2="60.55"/><rect class="cls-8" x="9.05" y="17.97" width="50.32" height="17.86"/><line class="cls-8" x1="9.05" y1="72.87" x2="49.4" y2="72.87"/><line class="cls-8" x1="9.05" y1="78.87" x2="59.37" y2="78.87"/><line class="cls-8" x1="9.05" y1="84.87" x2="56.07" y2="84.87"/><line class="cls-8" x1="9.05" y1="90.87" x2="31.07" y2="90.87"/></svg>