<svg id="Layer_1" data-name="Layer 1" xmlns="http://www.w3.org/2000/svg" viewBox="0 0 144.97 95.9"><defs><style>.cls-1{fill:none;stroke:#08080e;stroke-linecap:round;stroke-linejoin:round;stroke-width:3px;}.cls-2{fill:#0089f7;}.cls-3{opacity:0.2;}</style></defs><line class="cls-1" x1="24.02" y1="94.4" x2="96.32" y2="94.4"/><path class="cls-1" d="M71.18,71.18v11.7c0,3.66,1.93,7.17,5.38,9.76l2.36,1.76"/><path class="cls-1" d="M32.47,94.4l2.35-1.76c3.45-2.59,5.39-6.1,5.39-9.76V71.18"/><path class="cls-2" d="M37.38,44.18l-3.62-6.4H32.21v6.4H28.92V27.76h6.16a7.19,7.19,0,0,1,3.25.68,4.68,4.68,0,0,1,2,1.81A5,5,0,0,1,41,32.8a4.94,4.94,0,0,1-.94,2.93,4.88,4.88,0,0,1-2.8,1.8l3.92,6.65Zm-5.17-8.87H35a2.75,2.75,0,0,0,2-.64,2.4,2.4,0,0,0,.66-1.8A2.28,2.28,0,0,0,37,31.12a2.79,2.79,0,0,0-2-.63H32.21Z"/><path class="cls-2" d="M65.94,27.76,61.35,44.18H57.47L54.39,32.49,51.17,44.18l-3.86,0L42.89,27.76h3.52l2.9,12.75,3.34-12.75h3.67l3.15,12.68,2.91-12.68Z"/><path class="cls-2" d="M78.37,28.78a7.2,7.2,0,0,1,3,2.88A8.59,8.59,0,0,1,82.47,36a8.48,8.48,0,0,1-1.07,4.31,7.28,7.28,0,0,1-3,2.86,9.88,9.88,0,0,1-4.56,1H68.08V27.76h5.73A9.76,9.76,0,0,1,78.37,28.78ZM77.7,40a5.36,5.36,0,0,0,1.41-4,5.49,5.49,0,0,0-1.41-4,5.34,5.34,0,0,0-4-1.45H71.37V41.38H73.7A5.44,5.44,0,0,0,77.7,40Z"/><path class="cls-1" d="M109.89,29.16V10.87a9.4,9.4,0,0,0-9.37-9.37H10.87A9.39,9.39,0,0,0,1.5,10.87V61.81a9.4,9.4,0,0,0,9.37,9.37H90.15"/><path class="cls-1" d="M129.63,54.4V36.08c0-3.82-2.76-6.92-6.17-6.92H96.32c-3.41,0-6.17,3.1-6.17,6.92v51.4c0,3.82,2.76,6.92,6.17,6.92h27.14a5,5,0,0,0,.78-.06"/><path class="cls-1" d="M140,54.4H124.64c-1.93,0-3.49,2.11-3.49,4.72V89.67c0,2.42,1.36,4.4,3.09,4.67a2.57,2.57,0,0,0,.4,0H140c1.92,0,3.49-2.11,3.49-4.72V59.12C143.47,56.51,141.9,54.4,140,54.4Z"/></svg>