<?xml version="1.0" encoding="utf-8"?>
<!-- Generator: Adobe Illustrator 25.0.1, SVG Export Plug-In . SVG Version: 6.00 Build 0)  -->
<svg version="1.1" id="Layer_1" xmlns="http://www.w3.org/2000/svg" xmlns:xlink="http://www.w3.org/1999/xlink" x="0px" y="0px"
	 viewBox="0 0 22 22" style="enable-background:new 0 0 22 22;" xml:space="preserve">
<style type="text/css">
	.st0{fill:none;stroke:#0089F7;stroke-width:1.5;stroke-linecap:round;stroke-linejoin:round;}
</style>
<path class="st0" d="M12.8,12.5h4.4c0.2,0,0.3,0.1,0.3,0.3v4.4c0,0.2-0.1,0.3-0.3,0.3h-4.4c-0.2,0.1-0.3,0-0.3-0.2v-4.4
	C12.5,12.6,12.6,12.5,12.8,12.5z"/>
<path class="st0" d="M12.8,4.5h4.3c0.3,0,0.4,0.1,0.4,0.3v4.4c0,0.2-0.1,0.3-0.3,0.3h-4.3c-0.3,0.1-0.4,0-0.4-0.2V4.8
	C12.5,4.6,12.6,4.5,12.8,4.5z"/>
<path class="st0" d="M4.8,12.5h4.3c0.3,0,0.4,0.1,0.4,0.3v4.3c0,0.3-0.1,0.4-0.3,0.4H4.8c-0.2,0-0.3-0.1-0.3-0.3v-4.4
	C4.5,12.6,4.6,12.5,4.8,12.5z"/>
<path class="st0" d="M4.8,4.5h4.4c0.2,0,0.3,0.1,0.3,0.3v4.4c0,0.2-0.1,0.3-0.3,0.3H4.8c-0.2,0-0.3-0.1-0.3-0.3V4.8
	C4.5,4.6,4.6,4.5,4.8,4.5z"/>
</svg>
