<svg id="Layer_1" data-name="Layer 1" xmlns="http://www.w3.org/2000/svg" viewBox="0 0 500 30"><defs><style>.cls-1{fill:none;stroke:#fff;stroke-linecap:round;stroke-linejoin:round;stroke-width:2.5px;}</style></defs><line class="cls-1" x1="28.33" y1="23.57" x2="28.33" y2="3.57"/><polyline class="cls-1" points="20 5.24 20 3.57 36.67 3.57 36.67 5.24"/><line class="cls-1" x1="25" y1="23.57" x2="31.67" y2="23.57"/><line class="cls-1" x1="83.54" y1="23.57" x2="83.54" y2="3.57"/><polyline class="cls-1" points="87.83 12.14 89.26 13.57 87.83 15"/><polyline class="cls-1" points="79.26 12.14 77.83 13.57 79.26 15"/><path class="cls-1" d="M94,22.14H73.13a1.09,1.09,0,0,1-1-1.13V6.13a1.09,1.09,0,0,1,1-1.13H94a1.09,1.09,0,0,1,1,1.13V21A1.09,1.09,0,0,1,94,22.14Z"/><path class="cls-1" d="M133.84,11.26h-7.1a1,1,0,0,1-1.06-.93h0V4.51a1,1,0,0,1,1-.94h7.11a1,1,0,0,1,1.06.94h0v5.82a1,1,0,0,1-1.05.93Z"/><path class="cls-1" d="M133.84,23.57h-7.1a1,1,0,0,1-1.06-.94h0V16.82a1,1,0,0,1,1-.94h7.11a1,1,0,0,1,1.06.93h0v5.81a1,1,0,0,1-1.05.94Z"/><line class="cls-1" x1="139.52" y1="5.11" x2="148.75" y2="5.11"/><line class="cls-1" x1="139.52" y1="9.73" x2="151.82" y2="9.73"/><line class="cls-1" x1="139.52" y1="17.42" x2="145.67" y2="17.42"/><line class="cls-1" x1="139.52" y1="22.03" x2="148.75" y2="22.03"/><polygon id="icon" class="cls-1" points="193.78 3.57 194.95 6.96 198.53 7.03 195.69 9.19 196.72 12.63 193.78 10.58 190.83 12.63 191.86 9.19 189.02 7.03 192.6 6.96 193.78 3.57"/><line class="cls-1" x1="183.07" y1="18.13" x2="204.85" y2="18.13"/><line class="cls-1" x1="186.47" y1="23.57" x2="191.92" y2="23.57"/><line class="cls-1" x1="196" y1="23.57" x2="201.45" y2="23.57"/><path class="cls-1" d="M252.74,7.86A2.14,2.14,0,1,0,254.88,10,2.14,2.14,0,0,0,252.74,7.86Z"/><polyline class="cls-1" points="259.17 19 255.35 15.46 251.98 18.59 245.04 12.14 239.17 17.6"/><rect class="cls-1" x="239.17" y="3.57" width="20" height="20" rx="1.14"/><polygon class="cls-1" points="314.38 23.57 294.38 23.57 296.04 10.24 312.71 10.24 314.38 23.57"/><path class="cls-1" d="M299.38,10.24V8.57a5,5,0,1,1,10,0v1.67"/><rect class="cls-1" x="349.58" y="3.57" width="20" height="20" rx="1"/><line class="cls-1" x1="354.58" y1="17.32" x2="364.58" y2="17.32"/><path class="cls-1" d="M359.58,8.57a2.5,2.5,0,1,0,2.5,2.5A2.5,2.5,0,0,0,359.58,8.57Z"/><circle class="cls-1" cx="470" cy="13.57" r="10"/><circle class="cls-1" cx="470" cy="12.24" r="4"/><path class="cls-1" d="M477.12,20.6a8,8,0,0,0-14.24,0"/><line class="cls-1" x1="402.48" y1="18.96" x2="427.1" y2="18.96"/><line class="cls-1" x1="407.1" y1="23.57" x2="422.48" y2="23.57"/><path class="cls-1" d="M414.79,3.57a4.62,4.62,0,1,0,4.62,4.62A4.61,4.61,0,0,0,414.79,3.57Z"/></svg>