<?xml version="1.0" encoding="utf-8"?>
<!-- Generator: Adobe Illustrator 25.0.1, SVG Export Plug-In . SVG Version: 6.00 Build 0)  -->
<svg version="1.1" id="Layer_1" xmlns="http://www.w3.org/2000/svg" xmlns:xlink="http://www.w3.org/1999/xlink" x="0px" y="0px"
	 viewBox="0 0 500 30" style="enable-background:new 0 0 500 30;" xml:space="preserve">
<style type="text/css">
	.st0{fill:none;stroke:#FFFFFF;stroke-width:2.5;stroke-linecap:round;stroke-linejoin:round;}
	.st1{fill:#FFFFFF;stroke:#FFFFFF;stroke-miterlimit:10;}
	.st2{fill:#FFFFFF;stroke:#FFFFFF;stroke-width:0.5;stroke-miterlimit:10;}
	.st3{fill:none;stroke:#FFFFFF;stroke-width:2.5;stroke-miterlimit:10;}
	.st4{fill-rule:evenodd;clip-rule:evenodd;fill:#FFFFFF;stroke:#FFFFFF;stroke-miterlimit:10;}
</style>
<g>
	<line class="st0" x1="28.3" y1="13.7" x2="28.3" y2="4.1"/>
	<polyline class="st0" points="24.2,5.1 24.2,4.1 32.4,4.1 32.4,5.1 	"/>
	<line class="st0" x1="26.7" y1="13.7" x2="30" y2="13.7"/>
	<line class="st0" x1="17.4" y1="18.7" x2="39.2" y2="18.7"/>
	<line class="st0" x1="22.9" y1="24.1" x2="33.8" y2="24.1"/>
</g>
<polygon class="st0" points="83.5,4.1 85.8,8.7 90.8,9.4 87.2,13 88,18 83.5,15.6 79,18 79.9,13 76.2,9.4 81.3,8.7 "/>
<circle class="st1" cx="76.2" cy="22.9" r="1.2"/>
<circle class="st1" cx="79.9" cy="22.9" r="1.2"/>
<circle class="st1" cx="83.5" cy="22.9" r="1.2"/>
<circle class="st1" cx="87.2" cy="22.9" r="1.2"/>
<circle class="st1" cx="90.8" cy="22.9" r="1.2"/>
<circle class="st0" cx="138.7" cy="14.1" r="10"/>
<path class="st2" d="M141.6,17.4c-0.2,0.4-0.6,0.7-1,1c-0.5,0.3-1,0.4-1.5,0.5V20h-0.9v-1.1c-0.7,0-1.5-0.3-2-0.8
	c-0.5-0.4-0.8-1.1-0.8-1.7h1.6c0,0.7,0.5,1.2,1.2,1.3v-3c-0.5-0.1-1-0.3-1.5-0.5c-0.4-0.2-0.7-0.4-1-0.7c-0.3-0.4-0.4-0.9-0.4-1.4
	c0-0.7,0.3-1.4,0.8-1.8c0.6-0.5,1.3-0.8,2-0.8V8.3h0.9v1.1c0.7,0,1.4,0.3,1.9,0.7c0.5,0.5,0.8,1.1,0.8,1.8h-1.6
	c0-0.3-0.1-0.5-0.3-0.7c-0.2-0.2-0.5-0.4-0.7-0.4v2.9c0.5,0.1,1,0.3,1.4,0.4c0.4,0.2,0.7,0.4,1,0.7c0.3,0.4,0.4,0.9,0.4,1.4
	C141.9,16.6,141.8,17,141.6,17.4z M137.3,12.9c0.3,0.2,0.6,0.4,0.9,0.5v-2.7c-0.3,0-0.7,0.2-0.9,0.4c-0.2,0.3-0.4,0.6-0.3,0.9
	C137,12.3,137.1,12.6,137.3,12.9z M140.1,17.1c0.2-0.3,0.3-0.6,0.3-0.9c0-0.3-0.1-0.6-0.3-0.8c-0.3-0.2-0.6-0.4-0.9-0.5v2.7
	C139.5,17.6,139.8,17.4,140.1,17.1z"/>
<path class="st0" d="M193.9,9.1c-1.4,0-2.5,1.1-2.5,2.5s1.1,2.5,2.5,2.5s2.5-1.1,2.5-2.5S195.3,9.1,193.9,9.1z"/>
<circle class="st1" cx="190.1" cy="22.9" r="1.2"/>
<circle class="st1" cx="193.9" cy="22.9" r="1.2"/>
<circle class="st1" cx="197.6" cy="22.9" r="1.2"/>
<rect x="182.6" y="4.1" class="st0" width="22.5" height="15"/>
<g>
	<line class="st0" x1="249.1" y1="14.8" x2="249.1" y2="19.4"/>
	<line class="st0" x1="246.7" y1="17.1" x2="251.4" y2="17.1"/>
	<polygon class="st0" points="258.5,24.1 239.7,24.1 241.2,10 256.9,10 	"/>
	<path class="st0" d="M244.4,10V8.6c0.1-2.5,2.2-4.5,4.7-4.4c2.5-0.1,4.6,1.9,4.7,4.4V10"/>
</g>
<path class="st0" d="M317.1,12.7c0-4.7-5.7-8.6-12.9-8.6s-12.9,3.8-12.9,8.6s5.7,8.6,12.9,8.6c0.7,0,1.4,0,2.2-0.1l3.5,3l0.8-4
	C314.5,18.6,317.1,15.9,317.1,12.7z"/>
<path class="st1" d="M308.5,11.6c-0.6,0-1.1,0.5-1.1,1.1c0,0.6,0.5,1.1,1.1,1.1c0.6,0,1.1-0.5,1.1-1.1
	C309.6,12.1,309.1,11.7,308.5,11.6C308.5,11.6,308.5,11.6,308.5,11.6z"/>
<path class="st1" d="M304.2,11.6c-0.6,0-1.1,0.5-1.1,1.1c0,0.6,0.5,1.1,1.1,1.1c0.6,0,1.1-0.5,1.1-1.1
	C305.3,12.1,304.8,11.7,304.2,11.6C304.2,11.6,304.2,11.6,304.2,11.6z"/>
<path class="st1" d="M300,11.6c-0.6,0-1.1,0.5-1.1,1.1s0.5,1.1,1.1,1.1c0.6,0,1.1-0.5,1.1-1.1C301,12.1,300.6,11.7,300,11.6
	C300,11.6,300,11.6,300,11.6z"/>
<g>
	<path class="st3" d="M369.4,6.6v17.5h-20V5.6c0-0.8,0.6-1.4,1.4-1.4h8.4c0.8,0,1.5,0.6,1.5,1.4v1.1H369.4z"/>
	<line class="st0" x1="359.4" y1="19.1" x2="359.4" y2="11.6"/>
	<polyline class="st0" points="355.7,12.3 355.7,11.6 363.2,11.6 363.2,12.3 	"/>
	<line class="st0" x1="357.9" y1="19.1" x2="360.9" y2="19.1"/>
</g>
<g>
	<path class="st3" d="M479.8,6.6v17.5h-20V5.6c0-0.8,0.6-1.4,1.5-1.4h8.3c0.8,0,1.5,0.6,1.5,1.4v1.1H479.8z"/>
	<line class="st0" x1="464.8" y1="11.6" x2="472.3" y2="11.6"/>
	<line class="st0" x1="464.8" y1="19.1" x2="469.8" y2="19.1"/>
	<line class="st0" x1="464.8" y1="15.4" x2="474.8" y2="15.4"/>
</g>
<path class="st4" d="M415.9,10.3c0-0.7-0.6-1.2-1.2-1.2s-1.2,0.6-1.2,1.2c0,0.7,0.6,1.2,1.2,1.2l0,0C415.3,11.6,415.8,11,415.9,10.3
	z"/>
<line class="st0" x1="414.6" y1="13.9" x2="414.6" y2="18.9"/>
<circle class="st0" cx="414.6" cy="14.1" r="10"/>
</svg>
