<svg id="Layer_1" data-name="Layer 1" xmlns="http://www.w3.org/2000/svg" viewBox="0 0 500 30"><defs><style>.cls-1{fill:none;stroke-linecap:round;stroke-linejoin:round;stroke-width:2.5px;}.cls-1,.cls-2{stroke:#fff;}.cls-2{fill:#fff;stroke-miterlimit:10;fill-rule:evenodd;}</style></defs><polygon class="cls-1" points="30.52 5 33.77 11.59 41.04 12.63 35.78 17.77 37.02 25 30.52 21.59 24.02 25 25.26 17.77 20 12.63 27.27 11.59 30.52 5"/><line class="cls-1" x1="95.46" y1="11.58" x2="75.46" y2="11.58"/><rect class="cls-1" x="75.46" y="5" width="20" height="20" rx="1.58"/><line class="cls-1" x1="150.79" y1="15" x2="130.02" y2="15"/><line class="cls-1" x1="130.02" y1="8" x2="150.79" y2="8"/><line class="cls-1" x1="150.79" y1="22" x2="130.02" y2="22"/><line class="cls-1" x1="205.35" y1="15" x2="195.35" y2="15"/><rect class="cls-1" x="185.35" y="5" width="20" height="20" rx="1.56"/><line class="cls-1" x1="195.35" y1="25" x2="195.35" y2="5"/><rect class="cls-1" x="251.87" y="10.29" width="8.34" height="14.71" rx="1.49"/><line class="cls-1" x1="248.84" y1="10.29" x2="240.36" y2="10.29"/><path class="cls-1" d="M248.88,18.68h-7a1.5,1.5,0,0,1-1.5-1.5V6.49A1.5,1.5,0,0,1,241.86,5h12.78a1.49,1.49,0,0,1,1.49,1.49V7.3"/><path class="cls-2" d="M257.54,21.08a1.5,1.5,0,1,0-1.5,1.5A1.5,1.5,0,0,0,257.54,21.08Z"/><circle class="cls-1" cx="302.81" cy="12.59" r="7.59"/><line class="cls-1" x1="315.23" y1="25" x2="308.19" y2="17.96"/><line class="cls-1" x1="360.18" y1="25" x2="360.18" y2="18.61"/><path class="cls-1" d="M362.16,18.61h-4A4.58,4.58,0,0,1,353.6,14V11.18A1.15,1.15,0,0,1,354.75,10h10.84a1.15,1.15,0,0,1,1.15,1.14V14A4.58,4.58,0,0,1,362.16,18.61Z"/><line class="cls-1" x1="362.69" y1="5" x2="362.69" y2="10.04"/><line class="cls-1" x1="357.66" y1="5" x2="357.66" y2="10.04"/><path class="cls-1" d="M407.68,7.73c3.35-3.65,9.8-3.5,13.63-.37,5,4.09,4.26,12.34.8,15.68-1.28,1.23-3.65,2.48-5.41,1.74s-1.11-2.81-2.92-4.6c-2.5-2.39-5.43-.66-7.3-2.58S405.09,10.65,407.68,7.73Z"/><path class="cls-2" d="M411.85,12.9a1.46,1.46,0,1,0-1.46,1.46A1.46,1.46,0,0,0,411.85,12.9Z"/><path class="cls-2" d="M415.62,10a1.46,1.46,0,1,0-1.46,1.46A1.46,1.46,0,0,0,415.62,10Z"/><path class="cls-2" d="M420.26,11.44a1.46,1.46,0,1,0-1.46,1.46A1.46,1.46,0,0,0,420.26,11.44Z"/><polyline class="cls-1" points="460.05 25 470 5 479.95 25"/><line class="cls-1" x1="463.67" y1="17.72" x2="476.33" y2="17.72"/></svg>