<svg id="Layer_1" data-name="Layer 1" xmlns="http://www.w3.org/2000/svg" viewBox="0 0 26 26"><defs><style>.cls-1{fill:none;stroke:#304050;stroke-linecap:round;stroke-linejoin:round;stroke-width:1.5px;}.cls-2{fill:#7355a3;}.cls-3{opacity:0.2;}</style></defs><polyline class="cls-1" points="20.4 9.76 20.4 7.8 4 7.8 4 21 17.68 21"/><polyline class="cls-1" points="4 7.8 4 5 20.4 5 20.4 7.8"/><g id="woo_mono" data-name="woo mono"><path class="cls-2" d="M20.11,20.08l-.4-1.71h2.74A1.35,1.35,0,0,0,23.8,17V12.55a1.35,1.35,0,0,0-1.35-1.34H10.74A1.33,1.33,0,0,0,9.4,12.55V17a1.34,1.34,0,0,0,1.34,1.35h6.55s1.82,1.56,2.29,2S20.2,20.45,20.11,20.08Zm-4.75-3a.67.67,0,0,1-.07.38.39.39,0,0,1-.31.22.59.59,0,0,1-.46-.22A5.82,5.82,0,0,1,13.23,15l-.84,1.68c-.35.66-.64,1-.89,1s-.29-.12-.41-.4a25,25,0,0,1-1-4.45.48.48,0,0,1,.09-.39.46.46,0,0,1,.37-.18.43.43,0,0,1,.51.42c.18,1.23.38,2.26.59,3.11L13,13.34a.55.55,0,0,1,.44-.35c.26,0,.41.14.48.49a11.37,11.37,0,0,0,.55,2,9,9,0,0,1,.78-3.22A.44.44,0,0,1,15.6,12a.46.46,0,0,1,.37.11.49.49,0,0,1,.12.62,7.32,7.32,0,0,0-.56,2.11A10.39,10.39,0,0,0,15.36,17.08Zm3.6-.92a1.59,1.59,0,0,1-1.38.88,1.15,1.15,0,0,1-.31,0,1.35,1.35,0,0,1-.94-.68,2.2,2.2,0,0,1-.28-1.15,3.1,3.1,0,0,1,.45-1.65,1.58,1.58,0,0,1,1.38-.88l.32,0a1.35,1.35,0,0,1,.93.68,2.2,2.2,0,0,1,.28,1.15A3.16,3.16,0,0,1,19,16.16Zm3.66,0a1.58,1.58,0,0,1-1.38.88,1.2,1.2,0,0,1-.31,0,1.35,1.35,0,0,1-.94-.68,2.3,2.3,0,0,1-.28-1.15,3,3,0,0,1,.46-1.65,1.56,1.56,0,0,1,1.37-.88l.32,0a1.39,1.39,0,0,1,.94.68,2.3,2.3,0,0,1,.28,1.15A3.16,3.16,0,0,1,22.62,16.16Z"/><path class="cls-2" d="M21.65,13.63c-.21-.05-.42.07-.61.36a1.82,1.82,0,0,0-.31.7,1.93,1.93,0,0,0,0,.42,1.55,1.55,0,0,0,.1.54c.09.22.21.35.35.38a.59.59,0,0,0,.47-.19,1.51,1.51,0,0,0,.45-.87,2,2,0,0,0,0-.43A1.48,1.48,0,0,0,22,14C21.91,13.78,21.79,13.65,21.65,13.63Z"/><path class="cls-2" d="M18.32,14c-.08-.23-.2-.35-.34-.38s-.42.07-.61.36a1.82,1.82,0,0,0-.31.7,1.93,1.93,0,0,0,0,.42,1.37,1.37,0,0,0,.11.54c.08.22.2.35.34.38a.59.59,0,0,0,.47-.19,1.85,1.85,0,0,0,.49-1.3A1.48,1.48,0,0,0,18.32,14Z"/></g><line class="cls-1" x1="4" y1="14.4" x2="7.72" y2="14.4"/></svg>