<svg id="Layer_1" data-name="Layer 1" xmlns="http://www.w3.org/2000/svg" viewBox="0 0 26 26"><defs><style>.cls-1{fill:none;stroke:#304050;stroke-linecap:round;stroke-linejoin:round;stroke-width:1.5px;}.cls-2{fill:#304050;}.cls-3{opacity:0.2;}</style></defs><polyline class="cls-1" points="12.2 7.8 12.2 14.4 14.8 14.4"/><line class="cls-1" x1="12.2" y1="14.4" x2="12.2" y2="21"/><polyline class="cls-1" points="20.4 9.6 20.4 7.8 4 7.8 4 21 17.4 21"/><polyline class="cls-1" points="24.1 17.1 24.1 12 16.8 12 16.8 18 18.3 18"/><polyline class="cls-1" points="4 7.8 4 5 20.4 5 20.4 7.8"/><path class="cls-2" d="M24.5,19.8l-3.9-3.9a.27.27,0,0,0-.4.2v5.3a.22.22,0,0,0,.2.2c.1,0,.1,0,.1-.1l1.1-.9.9,2a.1.1,0,0,0,.1.1h.2l.9-.4c.1,0,.1-.1.1-.2l-.8-2h1.4a.22.22,0,0,0,.2-.2A.1.1,0,0,1,24.5,19.8Z"/></svg>