<svg id="Layer_1" enable-background="new 0 0 468 468" height="512" viewBox="0 0 468 468" width="512" xmlns="http://www.w3.org/2000/svg"><g><g><g fill="#304050"><path d="m133.169 250.615c-.115 8.859-5.261 16.106-11.494 16.187s-11.194-7.035-11.079-15.893 5.261-16.106 11.494-16.187 11.194 7.034 11.079 15.893z"/><path d="m387.121 196.62-23.265 21.972c17.34 18.361 26.506 40.152 26.506 63.017 0 33.189-19.29 63.842-52.924 84.099-4.192 2.525-6.998 6.829-7.617 11.684l-6.703 52.608h-16.31l-5.73-26.156c-1.848-8.437-10.056-13.879-18.55-12.307-40.427 7.506-85.392 7.372-125.823-.016-8.466-1.52-16.611 3.926-18.451 12.325l-5.73 26.154h-16.022l-6.954-64.906c-.444-4.147-2.49-7.956-5.702-10.617-12.477-10.336-22.031-22.28-28.397-35.501-1.434-2.978-3.754-5.439-6.644-7.044l-36.805-20.456v-19.536l38.549-20.514c4.397-2.34 7.454-6.594 8.269-11.508 2.635-15.898 11.256-30.527 23.795-40.625 4.382-3.657 6.484-9.373 5.516-14.998-3.445-20.014 4.243-32.558 10.968-39.403l32.59 29.156 21.336-23.849-42.35-37.888c-4.93-4.411-12.065-5.333-17.954-2.321-14.736 7.537-39.934 31.498-37.229 70.631-12.936 12.596-22.138 28.554-26.569 46.064l-40.437 21.52c-5.221 2.778-8.484 8.21-8.484 14.124v38.559c0 5.81 3.149 11.163 8.228 13.985l40.756 22.651c7.303 13.698 17.169 26.188 29.418 37.245l7.813 72.935c.871 8.13 7.732 14.295 15.909 14.295h43.274c7.517 0 14.021-5.233 15.629-12.576l5.271-24.06c31.876 3.949 74.36 3.913 106.726-.043l5.28 24.103c1.609 7.343 8.112 12.576 15.629 12.576h43.274c8.055 0 14.854-5.987 15.872-13.978l7.536-59.139c31.199-20.897 55.104-53.1 60.554-90.802 3.904.837 7.108 2.325 9.418 4.426 3.591 3.267 5.412 8.344 5.412 15.089v41.129h32v-41.129c0-15.906-5.49-29.309-15.877-38.759-6.031-5.488-15.864-11.49-30.842-13.127-3.435-25.238-15.065-48.871-34.159-69.089z"/></g></g><g><ellipse cx="284" cy="105.226" rx="99" ry="99.226" fill="#1999ff"/><path d="m291.967 92.008c-12.836-5.304-13.829-7.584-13.829-10.226 0-1.687.833-5.611 8.542-5.611 7.053 0 15.841 3.984 22.039 8.089l8.622-22.743c-6.155-3.944-13.637-7.331-20.632-8.415v-14.79h-22.989v16.229c-13.657 4.332-22.073 15.318-22.073 28.993 0 18.113 14.4 26.199 28.466 31.712 11.238 4.549 12.179 8.032 12.179 10.94 0 4.472-4.096 7.362-10.435 7.362-8.265 0-17.877-4.798-24.605-10.047l-8.295 23.107c6.86 5.354 14.803 8.886 23.739 10.205v15.325h23.132v-16.682c14.084-4.513 23.098-16.255 23.098-30.293.001-19.651-14.406-28.041-26.959-33.155z" fill="#fff"/></g></g></svg>