<svg id="Layer_1" enable-background="new 0 0 468 468" height="512" viewBox="0 0 468 468" width="512" xmlns="http://www.w3.org/2000/svg">
    <g>
        <g>
            <path d="m85.616 292.527h-70.616c-8.284 0-15-6.728-15-15.028v-31.553c0-28.588 10.841-55.722 30.525-76.404l21.712 20.741c-14.34 15.066-22.237 34.835-22.237 55.663v16.525h55.616z" fill="#304050" />
            <path
                d="m110.527 183.28c-41.355 0-75-33.708-75-75.139s33.645-75.139 75-75.139 75 33.708 75 75.139-33.645 75.139-75 75.139zm0-120.223c-24.813 0-45 20.225-45 45.084s20.187 45.084 45 45.084 45-20.225 45-45.084-20.187-45.084-45-45.084z"
                fill="#304050"
            />
        </g>
        <g>
            <path d="m453 291.526h-70.616v-30.056h55.616v-16.525c0-20.401-7.617-39.87-21.448-54.822l22.004-20.43c18.987 20.526 29.444 47.251 29.444 75.252v31.553c0 8.3-6.716 15.028-15 15.028z" fill="#304050" />
            <path
                d="m357.473 182.279c-41.355 0-75-33.708-75-75.139s33.645-75.14 75-75.14 75 33.708 75 75.139-33.645 75.14-75 75.14zm0-120.223c-24.813 0-45 20.225-45 45.084s20.187 45.084 45 45.084 45-20.225 45-45.084-20.187-45.084-45-45.084z"
                fill="#304050"
            />
        </g>
        <g>
            <path d="m219 259.229h30v94.968h-30z" fill="#304050" />
            <path
                d="m374.384 436h-280.768c-8.284 0-15-6.728-15-15.028v-46.369c0-46.345 20.402-89.956 55.975-119.65l19.204 23.091c-28.712 23.967-45.179 59.162-45.179 96.56v31.341h250.768v-31.341c0-36.991-16.172-71.937-44.37-95.879l19.396-22.929c34.937 29.663 54.974 72.967 54.974 118.808v46.369c0 8.299-6.716 15.027-15 15.027z"
                fill="#304050"
            />
            <ellipse cx="234" cy="172.089" rx="95" ry="95.177" fill="#1999ff" />
        </g>
    </g>
</svg>
