<svg id="Layer_1" enable-background="new 0 0 468 468" height="512" viewBox="0 0 468 468" width="512" xmlns="http://www.w3.org/2000/svg">
    <g>
        <g>
            <g>
                <g><circle cx="234" cy="273.862" r="32" fill="#1999ff" /></g>
                <g>
                    <path
                        d="m258.574 389.808h-49.148c-7.697 0-14.145-5.826-14.923-13.483l-2.174-21.403c-3.262-1.614-6.423-3.416-9.474-5.401l-20.192 8.968c-6.975 3.099-15.164.465-19.026-6.118l-24.574-41.887c-3.941-6.72-2.084-15.338 4.275-19.836l17.802-12.595c-.198-3.456-.198-6.923 0-10.38l-17.802-12.593c-6.36-4.499-8.217-13.117-4.275-19.836l24.574-41.888c3.862-6.585 12.051-9.219 19.026-6.119l20.192 8.968c3.049-1.984 6.211-3.787 9.474-5.401l2.174-21.403c.778-7.657 7.226-13.483 14.923-13.483h49.148c7.697 0 14.145 5.826 14.923 13.483l2.174 21.403c3.262 1.614 6.424 3.417 9.474 5.401l20.192-8.968c6.973-3.095 15.164-.465 19.026 6.119l24.574 41.888c3.942 6.719 2.084 15.337-4.275 19.836l-17.802 12.593c.198 3.456.198 6.923 0 10.38l17.802 12.595c6.359 4.498 8.216 13.116 4.275 19.836l-24.574 41.887c-3.863 6.582-12.052 9.216-19.026 6.118l-20.192-8.968c-3.05 1.985-6.211 3.787-9.473 5.401l-2.175 21.403c-.778 7.656-7.226 13.483-14.923 13.483zm-35.595-30h22.042l1.692-16.655c.578-5.682 4.331-10.542 9.682-12.538 6.365-2.373 12.271-5.733 17.555-9.986 4.378-3.524 10.358-4.304 15.494-2.024l15.824 7.027 10.824-18.449-13.754-9.73c-4.686-3.314-7.069-9.013-6.139-14.677 1.077-6.553 1.077-13.273 0-19.826-.93-5.663 1.453-11.361 6.139-14.677l13.753-9.729-10.824-18.449-15.824 7.028c-5.135 2.279-11.116 1.499-15.495-2.025-5.283-4.253-11.189-7.613-17.554-9.986-5.352-1.995-9.105-6.856-9.683-12.538l-1.692-16.655h-22.042l-1.692 16.655c-.578 5.682-4.331 10.543-9.683 12.538-6.365 2.373-12.271 5.733-17.554 9.986-4.378 3.524-10.36 4.305-15.495 2.025l-15.824-7.028-10.824 18.449 13.753 9.729c4.686 3.315 7.069 9.014 6.139 14.677-1.077 6.553-1.077 13.273 0 19.826.93 5.664-1.453 11.362-6.139 14.677l-13.754 9.73 10.824 18.449 15.824-7.027c5.138-2.279 11.116-1.5 15.494 2.024 5.284 4.253 11.19 7.613 17.555 9.986 5.352 1.995 9.105 6.856 9.683 12.538z"
                        fill="#304050"
                    />
                </g>
            </g>
        </g>
        <g>
            <g><path d="m44.68 293.809c-.451-5.357-.68-10.812-.68-16.21 0-66.239 35.47-129.078 92.198-163.27l15.486 25.693c-48.643 29.321-77.684 80.75-77.684 137.577 0 4.563.193 9.169.574 13.692z" fill="#304050" /></g>
            <g><path d="m234 468c-25.617 0-50.477-5.025-73.888-14.938l11.696-27.625c19.691 8.335 40.615 12.563 62.192 12.563 21.602 0 42.55-4.237 62.263-12.595l11.71 27.621c-23.437 9.936-48.326 14.974-73.973 14.974z" fill="#304050" /></g>
            <g><path d="m423.321 293.805-29.895-2.516c.381-4.524.574-9.131.574-13.69 0-56.828-29.042-108.259-77.688-137.578l15.486-25.693c56.731 34.189 92.202 97.03 92.202 163.271 0 5.395-.229 10.847-.679 16.206z" fill="#304050" /></g>
            <g>
                <path
                    d="m55 467.767c-30.327 0-55-24.663-55-54.979s24.673-54.979 55-54.979 55 24.663 55 54.979-24.673 54.979-55 54.979zm0-79.957c-13.785 0-25 11.205-25 24.979s11.215 24.979 25 24.979 25-11.205 25-24.979-11.215-24.979-25-24.979z"
                    fill="#304050"
                />
            </g>
            <g>
                <path
                    d="m234 109.957c-30.327 0-55-24.663-55-54.979s24.673-54.978 55-54.978 55 24.663 55 54.979-24.673 54.978-55 54.978zm0-79.957c-13.785 0-25 11.205-25 24.979s11.215 24.979 25 24.979 25-11.205 25-24.979-11.215-24.979-25-24.979z"
                    fill="#304050"
                />
            </g>
            <g>
                <path
                    d="m413 467.767c-30.327 0-55-24.663-55-54.979s24.673-54.979 55-54.979 55 24.663 55 54.979-24.673 54.979-55 54.979zm0-79.957c-13.785 0-25 11.205-25 24.979s11.215 24.979 25 24.979 25-11.205 25-24.979-11.215-24.979-25-24.979z"
                    fill="#304050"
                />
            </g>
        </g>
    </g>
</svg>
