

<svg id="Layer_1" enable-background="new 0 0 468 468" height="512" viewBox="0 0 468 468" width="512" xmlns="http://www.w3.org/2000/svg">
   <g>
      <g>
         <g>
            <path d="m436 467.584h-404c-17.645 0-32-14.355-32-32v-60.313c0-6.627 5.373-12 12-12h150.868c4.896 0 9.302 2.975 11.131 7.518l9.128 22.665h101.531l9.128-22.665c1.829-4.543 6.234-7.518 11.131-7.518h151.083c6.627 0 12 5.373 12 12v60.313c0 17.645-14.355 32-32 32zm-412-80.313v48.313c0 4.411 3.589 8 8 8h404c4.411 0 8-3.589 8-8v-48.313h-130.979l-9.128 22.665c-1.829 4.542-6.234 7.518-11.131 7.518h-117.739c-4.896 0-9.302-2.976-11.131-7.518l-9.128-22.665z" fill="#304050"/>
         </g>
      </g>
      <g>
         <g>
            <path d="m174.969 69.462h-61.045v-57.046z" fill="#1999ff"/>
         </g>
         <g fill="#304050">
            <path d="m87.959 115.222h-28.741c-6.627 0-12-5.373-12-12s5.373-12 12-12h28.741c6.627 0 12 5.373 12 12s-5.373 12-12 12z"/>
            <path d="m128.186 168.479h-68.968c-6.627 0-12-5.373-12-12s5.373-12 12-12h68.968c6.627 0 12 5.373 12 12s-5.373 12-12 12z"/>
         </g>
      </g>
      <g>
         <g>
            <path d="m454.969 69.462h-61.045v-57.046z" fill="#1999ff"/>
            <path d="m454.969 88.505c-6.627 0-12 5.373-12 12v90.019c0 4.411-3.589 8-8 8h-122.535c-4.411 0-8-3.589-8-8v-158.108c0-4.411 3.589-8 8-8h48.36c6.627 0 12-5.373 12-12s-5.373-12-12-12h-48.36c-17.645 0-32 14.355-32 32v102.486h-93.465v-34.397c0-6.627-5.373-12-12-12s-12 5.373-12 12v90.019c0 4.411-3.589 8-8 8h-122.535c-4.411 0-8-3.589-8-8v-158.108c0-4.411 3.589-8 8-8h48.36c6.627 0 12-5.373 12-12s-5.373-12-12-12h-48.36c-17.645 0-32 14.355-32 32v158.107c0 17.518 14.152 31.787 31.623 31.99v106.872c0 6.627 5.373 12 12 12s12-5.373 12-12v-106.862h98.912c17.645 0 32-14.355 32-32v-31.621h93.465v31.621c0 17.645 14.355 32 32 32h99.51v106.862c0 6.627 5.373 12 12 12s12-5.373 12-12v-106.886c17.194-.518 31.025-14.658 31.025-31.975v-90.019c0-6.627-5.373-12-12-12z" fill="#304050"/>
         </g>
         <g fill="#304050">
            <path d="m367.959 115.222h-28.741c-6.627 0-12-5.373-12-12s5.373-12 12-12h28.741c6.627 0 12 5.373 12 12s-5.373 12-12 12z"/>
            <path d="m408.186 168.479h-68.968c-6.627 0-12-5.373-12-12s5.373-12 12-12h68.968c6.627 0 12 5.373 12 12s-5.373 12-12 12z"/>
         </g>
      </g>
      <g fill="#304050">
         <path d="m298.664 248.857-30.086-26.551c-4.97-4.384-12.553-3.912-16.938 1.058s-3.911 12.553 1.058 16.938l6.292 5.553h-71.713c-6.627 0-12 5.373-12 12s5.373 12 12 12h71.339l-4.865 4.227c-5.003 4.347-5.535 11.926-1.188 16.929 4.361 5.019 11.947 5.521 16.929 1.188l29.103-25.285c5.424-4.5 5.46-13.516.069-18.057z"/>
         <path d="m280.724 317.854h-71.714l6.292-5.553c4.969-4.385 5.442-11.968 1.058-16.938-4.385-4.969-11.967-5.443-16.938-1.058l-30.086 26.551c-5.391 4.541-5.355 13.557.07 18.056l29.103 25.285c4.981 4.333 12.568 3.83 16.929-1.188 4.347-5.003 3.814-12.582-1.188-16.929l-4.865-4.227h71.339c6.627 0 12-5.373 12-12s-5.373-11.999-12-11.999z"/>
      </g>
   </g>
</svg>

