

<svg id="Layer_1" enable-background="new 0 0 468 468" height="512" viewBox="0 0 468 468" width="512" xmlns="http://www.w3.org/2000/svg" style="">
   <g>
      <g>
         <g/>
         <g fill="#304050">
            <path d="m456 0h-444c-6.627 0-12 5.371-12 11.997v417.676c0 6.626 5.373 11.997 12 11.997h217.4c6.627 0 12-5.371 12-11.997s-5.373-11.997-12-11.997h-205.4v-311.692h420v311.692h-37.903c-6.627 0-12 5.371-12 11.997s5.373 11.997 12 11.997h49.903c6.627 0 12-5.371 12-11.997v-417.676c0-6.626-5.373-11.997-12-11.997zm-432 81.991v-57.998h420v57.998z"/>
            <g>
               <path d="m315.159 65.516h-181.746c-6.627 0-12-5.371-12-11.997s5.373-11.997 12-11.997h181.747c6.627 0 12 5.371 12 11.997s-5.374 11.997-12.001 11.997z"/>
               <g>
                  <ellipse cx="404.097" cy="53.519" rx="12" ry="11.997"/>
                  <ellipse cx="364.097" cy="53.519" rx="12" ry="11.997"/>
               </g>
            </g>
         </g>
      </g>
      <g>
         <g>
            <g/>
            <g fill="#1999ff">
               <path d="m240.935 264.731c-.002 0-.005 0-.007 0l-74.292-.044c-6.627-.004-11.997-5.378-11.993-12.004.004-6.623 5.376-11.989 12-11.989h.007l74.291.044c6.628.004 11.997 5.378 11.993 12.004-.003 6.623-5.375 11.989-11.999 11.989z"/>
               <path d="m240.964 313.71c-.002 0-.005 0-.007 0l-74.292-.043c-6.627-.004-11.997-5.378-11.993-12.003.004-6.623 5.376-11.99 12-11.99h.007l74.292.043c6.628.004 11.997 5.378 11.993 12.003-.004 6.624-5.376 11.99-12 11.99z"/>
            </g>
            <path d="m386.964 130.486h-305.927c-6.627 0-12 5.371-12 11.997v74.909c0 6.626 5.373 11.997 12 11.997h24.837c-7.085 14.444-11.07 30.671-11.07 47.813 0 60.086 48.897 108.969 109 108.969 22.261 0 42.982-6.712 60.254-18.21l6.939 8.261-12.432 10.443c-5.069 4.258-5.73 11.817-1.478 16.89l42.022 50.127c13.565 16.855 40.335 19.237 56.671 4.962 16.978-14.263 19.2-39.692 4.955-56.689l-42.022-50.129c-4.047-5.026-12.057-5.723-16.917-1.479l-12.426 10.438-6.91-8.226c18.783-19.586 30.343-46.148 30.343-75.36 0-17.142-3.985-33.369-11.07-47.813h85.23c6.627 0 12-5.371 12-11.997v-74.909c.001-6.623-5.372-11.994-11.999-11.994zm-78.928 245.96 34.304 40.921c5.758 6.869 4.86 17.146-1.999 22.909-6.561 5.749-17.372 4.798-22.836-2.003l-34.325-40.946zm-104.232-14.492c-46.745 0-84.776-38.02-84.776-84.752s38.031-84.751 84.776-84.751 84.775 38.019 84.775 84.751-38.03 84.752-84.775 84.752zm102.905-156.558h-20.991c-19.992-22.766-49.301-37.163-81.914-37.163s-61.922 14.397-81.914 37.163h-28.853v-50.916h213.672zm68.255 0h-44.255v-50.916h44.255z" fill="#304050"/>
         </g>
      </g>
   </g>
</svg>

