

<svg id="Layer_1" enable-background="new 0 0 468.343 468.343" height="512" viewBox="0 0 468.343 468.343" width="512" xmlns="http://www.w3.org/2000/svg" style="">
   <g>
      <g>
         <g fill="#304050">
            <path d="m456.171 0h-444c-6.627 0-12 5.372-12 12v407.46c0 6.627 5.373 12 12 12h128.506c6.627 0 12-5.373 12-12s-5.373-12-12-12h-116.506v-301.516h420v301.516h-117.365c-6.627 0-12 5.373-12 12s5.373 12 12 12h129.366c6.627 0 12-5.373 12-12v-407.46c-.001-6.628-5.373-12-12.001-12zm-432 81.944v-57.944h420v57.944z"/>
            <g>
               <path d="m315.33 65.499h-181.746c-6.627 0-12-5.373-12-12s5.373-12 12-12h181.746c6.627 0 12 5.373 12 12s-5.373 12-12 12z"/>
               <g>
                  <ellipse cx="404.268" cy="53.499" rx="12" ry="11.99"/>
                  <ellipse cx="364.268" cy="53.499" rx="12" ry="11.99"/>
               </g>
            </g>
         </g>
      </g>
      <g>
         <g>
            <path d="m264.291 466.389-30.407-17.577-29.747 17.527c-7.612 4.808-18.372-1.341-18.092-10.339v-125.282c0-6.627 5.373-12 12-12h72.252c6.627 0 12 5.373 12 12v125.282c.136 6.455-3.046 16.64-18.006 10.389zm-24.459-41.861 18.465 10.674v-92.484h-48.252v92.283l17.689-10.423c4.717-3.538 9.277-2.338 12.098-.05z" fill="#304050"/>
         </g>
         <g>
            <circle id="XMLID_2498_" cx="234.171" cy="314.087" r="70" fill="#1999ff"/>
            <path d="m233.171 282-15.919 8.535 3.556 14.038 8.408-4.546v45.973h15.552v-64z" fill="#fff"/>
         </g>
      </g>
      <g>
         <g>
            <path d="m118.349 333.819-21.393-11.361-21.393 11.361c-8.379 4.807-19.386-3.142-17.459-12.607l4.113-24.222-17.401-17.132c-7.066-6.518-2.873-19.336 6.676-20.423l23.95-3.515 10.732-21.964c3.968-8.84 17.597-8.838 21.563 0l10.732 21.964 23.95 3.515c9.551 1.087 13.741 13.906 6.676 20.423l-17.401 17.132 4.112 24.222c1.397 7.089-6.255 17.973-17.457 12.607zm-15.764-35.545 5.479 2.91-1.077-6.344c-.656-3.866.617-7.808 3.412-10.559l4.674-4.602-6.348-.932c-3.918-.575-7.3-3.047-9.039-6.604l-2.729-5.585-2.729 5.585c-1.739 3.557-5.121 6.029-9.039 6.604l-6.348.932 4.674 4.602c2.794 2.751 4.068 6.693 3.412 10.559l-1.077 6.344 5.479-2.91c5.627-2.647 9.496-.935 11.256 0z" fill="#304050"/>
         </g>
         <g>
            <path d="m255.564 228.824-21.393-11.361-21.393 11.361c-8.379 4.807-19.386-3.142-17.459-12.607l4.113-24.222-17.401-17.132c-7.066-6.518-2.873-19.336 6.676-20.423l23.95-3.515 10.732-21.964c3.968-8.84 17.597-8.838 21.563 0l10.732 21.964 23.95 3.515c9.551 1.087 13.741 13.906 6.676 20.423l-17.401 17.132 4.112 24.222c1.397 7.089-6.255 17.973-17.457 12.607zm-15.764-35.546 5.479 2.91-1.077-6.344c-.656-3.866.617-7.808 3.412-10.559l4.674-4.602-6.348-.932c-3.918-.575-7.3-3.047-9.039-6.604l-2.729-5.585-2.729 5.585c-1.739 3.557-5.121 6.029-9.039 6.604l-6.348.932 4.674 4.602c2.794 2.751 4.068 6.693 3.412 10.559l-1.077 6.344 5.479-2.91c5.627-2.647 9.496-.934 11.256 0z" fill="#304050"/>
         </g>
         <g>
            <path d="m392.564 333.819-21.393-11.361-21.393 11.361c-8.379 4.807-19.386-3.142-17.459-12.607l4.113-24.222-17.401-17.132c-7.066-6.518-2.873-19.336 6.676-20.423l23.95-3.515 10.732-21.964c3.968-8.84 17.597-8.838 21.563 0l10.732 21.964 23.95 3.515c9.551 1.087 13.741 13.906 6.676 20.423l-17.401 17.132 4.112 24.222c1.397 7.089-6.255 17.973-17.457 12.607zm-15.764-35.545 5.479 2.91-1.077-6.344c-.656-3.866.617-7.808 3.412-10.559l4.674-4.602-6.348-.932c-3.918-.575-7.3-3.047-9.039-6.604l-2.729-5.585-2.729 5.585c-1.739 3.557-5.121 6.029-9.039 6.604l-6.348.932 4.674 4.602c2.794 2.751 4.068 6.693 3.412 10.559l-1.077 6.344 5.479-2.91c5.627-2.647 9.496-.935 11.256 0z" fill="#304050"/>
         </g>
      </g>
   </g>
</svg>

