<?xml version="1.0" encoding="utf-8"?>
<!-- Generator: Adobe Illustrator 25.0.1, SVG Export Plug-In . SVG Version: 6.00 Build 0)  -->
<svg version="1.1" id="Layer_1" xmlns="http://www.w3.org/2000/svg" xmlns:xlink="http://www.w3.org/1999/xlink" x="0px" y="0px"
	 viewBox="0 0 512 512" style="enable-background:new 0 0 512 512;" xml:space="preserve">
<style type="text/css">
	.st0{fill:#304050;}
	.st1{fill:#0795FE;}
	.st2{fill:#FFFFFF;}
</style>
<g>
	<g>
		<path class="st0" d="M254,454.3H60c-19,0-34.4-15.5-34.4-34.5V85.9C25.6,66.8,41,51.3,60,51.3h27.6v29.6H60c-2.7,0-4.9,2.3-4.9,5
			v333.9c0,2.8,2.2,4.9,4.9,4.9h194V454.3z"/>
		<path class="st0" d="M359.4,229.1h-29.5V85.9c0-2.8-1.9-5-4.6-5h-29.9V51.3h29.9c19,0,34.1,15.6,34.1,34.7V229.1z"/>
		<path class="st1" d="M252.1,99.7H133.9c-10.9,0-19.7-8.8-19.7-19.7V52.2c0-10.9,8.8-19.7,19.7-19.7h118.2
			c10.9,0,19.7,8.8,19.7,19.7V80C271.8,90.9,262.9,99.7,252.1,99.7z"/>
		<g>
			<path class="st0" d="M200.9,176.7h106.3v29.6H200.9V176.7z"/>
			<g>
				<path class="st1" d="M160.5,236H91.6c-5.4,0-9.8-4.4-9.8-9.8v-69.2c0-5.4,4.4-9.8,9.8-9.8h68.9c5.4,0,9.8,4.4,9.8,9.8v69.2
					C170.3,231.6,165.9,236,160.5,236L160.5,236z"/>
				<ellipse class="st2" cx="126.2" cy="191.3" rx="10.8" ry="10.9"/>
			</g>
		</g>
		<g>
			<path class="st0" d="M200.9,324.9h37.4v29.6h-37.4V324.9z"/>
			<g>
				<g>
					<path class="st0" d="M175.3,374.3c0,8.2-6.6,14.8-14.8,14.8H91.6c-8.2,0-14.8-6.6-14.8-14.8v-69.2c0-8.2,6.6-14.8,14.8-14.8
						h68.9c8.2,0,14.8,6.6,14.8,14.8V374.3z M106.3,359.5h39.4V320h-39.4V359.5z"/>
				</g>
			</g>
		</g>
	</g>
	<g>
		<path class="st0" d="M373.3,251.9c-62.3,0-113.1,51-113.1,113.8S311,479.5,373.3,479.5s113.1-51,113.1-113.8
			S435.7,251.9,373.3,251.9L373.3,251.9z M388.9,448.4v-41.5h-29.5v41.7c-34.5-6-62-32.8-68.2-67.4h40.7v-29.6h-40.7
			c6.1-34.6,33.8-62.7,68.3-68.7v42.1h29.5V283c33.5,6.4,60.6,34,66.7,68.6h-40.1v29.6h40C449.3,415.8,422.4,442.1,388.9,448.4z"/>
		<ellipse class="st1" cx="373.3" cy="365.7" rx="13.8" ry="13.8"/>
	</g>
</g>
</svg>
