<?xml version="1.0" encoding="utf-8"?>
<!-- Generator: Adobe Illustrator 25.0.1, SVG Export Plug-In . SVG Version: 6.00 Build 0)  -->
<svg version="1.1" id="Layer_1" xmlns="http://www.w3.org/2000/svg" xmlns:xlink="http://www.w3.org/1999/xlink" x="0px" y="0px"
	 viewBox="0 0 512 512" style="enable-background:new 0 0 512 512;" xml:space="preserve">
<style type="text/css">
	.st0{fill:#1999FF;}
	.st1{fill:#304050;}
</style>
<g id="XMLID_1086_">
	<g id="XMLID_69_">
		<g id="XMLID_71_">
			<g id="XMLID_108_">
				<g id="XMLID_109_">
					<path class="st0" d="M310,119.7c-16.5-28.2-51.5-40.8-82.7-28.4c-34.5,13.8-51.4,53-37.7,87.7c11.6,29.4,41.5,46,71.3,42
						C251,180.2,271.2,137.4,310,119.7z"/>
				</g>
			</g>
			<g id="XMLID_111_">
				<g id="XMLID_123_">
					<path class="st0" d="M109.2,281.5c-16,28.5-9.5,65.2,16.9,86.1c29.1,23.1,71.4,18.2,94.4-11.1c19.5-24.8,18.9-59.1,0.6-83
						C190.8,302.5,143.8,306.3,109.2,281.5z"/>
				</g>
			</g>
			<g id="XMLID_140_">
				<g id="XMLID_142_">
					<path class="st0" d="M349,375.3c32.6-0.3,61-24.4,65.8-57.8c5.4-36.9-20-71.2-56.8-76.6c-31.1-4.6-60.4,13.1-71.9,41
						C326.3,293.7,353.1,332.7,349,375.3L349,375.3z"/>
				</g>
			</g>
			<g id="XMLID_317_">
				<path id="XMLID_781_" class="st1" d="M256.1,319.9c-34.7,0-63-28.3-63-63s28.3-63,63-63s63,28.3,63,63S290.9,319.9,256.1,319.9z
					 M256.1,225.4c-17.4,0-31.5,14.1-31.5,31.5s14.1,31.5,31.5,31.5c17.4,0,31.5-14.1,31.5-31.5S273.5,225.4,256.1,225.4z"/>
			</g>
		</g>
	</g>
	<g id="XMLID_642_">
		<path id="XMLID_778_" class="st1" d="M256,486.4C130.4,486.4,25.6,385.9,25.6,256C25.6,127.8,130.4,25.6,256,25.6
			S486.4,124.5,486.4,256C486.4,386.8,381.6,486.4,256,486.4z M256,57.1C146.3,57.1,57.1,146.3,57.1,256S146.3,454.9,256,454.9
			S454.9,365.7,454.9,256S365.7,57.1,256,57.1z"/>
	</g>
</g>
</svg>
