<?xml version="1.0" encoding="utf-8"?>
<!-- Generator: Adobe Illustrator 25.0.1, SVG Export Plug-In . SVG Version: 6.00 Build 0)  -->
<svg version="1.1" id="Layer_1" xmlns="http://www.w3.org/2000/svg" xmlns:xlink="http://www.w3.org/1999/xlink" x="0px" y="0px"
	 viewBox="0 0 512 512" style="enable-background:new 0 0 512 512;" xml:space="preserve">
<style type="text/css">
	.st0{fill:#1999FF;}
	.st1{fill:#FFFFFF;}
	.st2{fill:#304050;}
</style>
<g id="XMLID_39_">
	<g id="XMLID_641_">
	</g>
	<g id="XMLID_274_">
		<g id="XMLID_522_">
			<path class="st0" d="M115,196c-22.6,0-37.2,20.8-37.2,53c0.4,38.6,18.7,52.3,35.7,52.3c11.2,0,37.2-5.2,37.2-53.6
				C150.7,215.3,137.4,196,115,196z M114.3,217.3c11.2,0,12.4,21.7,12.4,31c0,7.5-0.9,31.8-12.5,31.8c-7.4,0-12.4-12.5-12.4-31
				C101.8,227.1,108.1,217.3,114.3,217.3L114.3,217.3z"/>
		</g>
		<g id="XMLID_525_">
			<path class="st0" d="M196.6,196c-20.6,0-36.7,16.7-36.7,38.1c0,19.5,13.7,33.6,32.5,33.6c3.7,0,7.2-0.5,10.4-1.5
				c-7.9,12.2-21.9,14.4-35.3,12.6v22.2c17.1,1,34.7-1.7,47.4-14.2c7.9-7.7,17.3-22,17.3-46.7C232.3,213.3,218.3,196,196.6,196z
				 M195.7,217.1c8.4,0,11.4,8.6,12.2,15.6c1,8.5-3.4,13.8-12.6,13.8c-8.4,0-11.4-6.9-11.4-13.3
				C183.8,223.7,188.7,217.1,195.7,217.1z"/>
		</g>
		<g id="XMLID_526_">
			<path class="st0" d="M257.2,223c-8.1,0-14.2,6.3-14.2,14.7c0,8.3,6.1,14.5,14.1,14.5c8.2,0,14.2-6.1,14.2-14.5l0-0.2
				C271,229.1,265.1,223,257.2,223L257.2,223z"/>
		</g>
		<g id="XMLID_527_">
			<path class="st0" d="M257.2,272.1c-8.1,0-14.2,6.3-14.2,14.7c0,8.3,6.1,14.5,14.1,14.5c8.2,0,14.2-6.1,14.2-14.5l0-0.2
				C271,278.3,265.1,272.1,257.2,272.1L257.2,272.1z"/>
		</g>
		<g id="XMLID_530_">
			<path class="st0" d="M317,196c-22.6,0-37.2,20.8-37.2,53c0.4,38.6,18.7,52.3,35.7,52.3c11.2,0,37.2-5.2,37.2-53.6
				C352.7,215.3,339.4,196,317,196L317,196z M316.3,217.3c11.2,0,12.4,21.7,12.4,31c0,7.5-0.9,31.8-12.5,31.8
				c-7.4,0-12.4-12.5-12.4-31C303.8,227.1,310.1,217.3,316.3,217.3L316.3,217.3z"/>
		</g>
		<g id="XMLID_533_">
			<path class="st0" d="M398.5,196c-22.6,0-37.2,20.8-37.2,53c0.4,38.6,18.7,52.3,35.7,52.3c11.2,0,37.2-5.2,37.2-53.6
				C434.2,215.3,420.9,196,398.5,196z M397.8,217.3c11.2,0,12.4,21.7,12.4,31c0,7.5-0.9,31.8-12.5,31.8c-7.4,0-12.4-12.5-12.4-31
				C385.3,230.1,390.3,217.3,397.8,217.3L397.8,217.3z"/>
		</g>
	</g>
	<path id="XMLID_954_" class="st1" d="M331.5,71.8h-151l-39.4,62.9h229.7L331.5,71.8z"/>
	<path id="XMLID_929_" class="st2" d="M456.9,118.9h-77.3l-34.8-55.5c-2.9-4.6-7.9-7.4-13.4-7.4h-151c-5.4,0-10.5,2.8-13.4,7.4
		l-34.8,55.5H55.1c-16.3,0-29.5,13.3-29.5,29.5v200.5c0,16.3,13.3,29.5,29.5,29.5h67v43.8h-42v31.5h115.5v-31.5h-42v-43.8h204.8
		v43.8h-42v31.5h115.5v-31.5h-42v-43.8h67c16.3,0,29.5-13.3,29.5-29.5V148.4C486.4,132.2,473.1,118.9,456.9,118.9z M189.2,87.5
		h133.5l19.7,31.4H169.6L189.2,87.5z M454.9,346.9H57.1V150.4h397.8V346.9z"/>
</g>
</svg>
