<?xml version="1.0" encoding="utf-8"?>
<!-- Generator: Adobe Illustrator 25.0.1, SVG Export Plug-In . SVG Version: 6.00 Build 0)  -->
<svg version="1.1" id="Layer_1" xmlns="http://www.w3.org/2000/svg" xmlns:xlink="http://www.w3.org/1999/xlink" x="0px" y="0px"
	 viewBox="0 0 512 512" style="enable-background:new 0 0 512 512;" xml:space="preserve">
<style type="text/css">
	.st0{fill:#304050;}
	.st1{fill:#0795FE;}
</style>
<g>
	<g>
		<g>
			<path class="st0" d="M377.1,339.7H134.9c-8.2,0-14.8-6.6-14.8-14.8v-92.6c0-8.2,6.6-14.8,14.8-14.8h242.2
				c8.2,0,14.8,6.6,14.8,14.8v92.6C391.9,333.1,385.3,339.7,377.1,339.7z M149.7,310.2h212.7v-63H149.7V310.2z"/>
		</g>
		<g>
			<path class="st1" d="M221.5,263.9h29.5v29.5h-29.5V263.9z"/>
			<path class="st1" d="M172.3,263.9h29.5v29.5h-29.5V263.9z"/>
		</g>
	</g>
	<g>
		<g>
			<path class="st0" d="M377.1,486.4H134.9c-8.2,0-14.8-6.6-14.8-14.8v-92.6c0-8.2,6.6-14.8,14.8-14.8h242.2
				c8.2,0,14.8,6.6,14.8,14.8v92.6C391.9,479.8,385.3,486.4,377.1,486.4z M149.7,456.9h212.7v-63H149.7V456.9z"/>
		</g>
		<g>
			<path class="st1" d="M221.5,410.6h29.5v29.5h-29.5V410.6z"/>
			<path class="st1" d="M172.3,410.6h29.5v29.5h-29.5V410.6z"/>
		</g>
	</g>
	<path class="st0" d="M83.1,266.9c-16.7-16-26-37.7-26-60.9c0-30.4,16.3-58.1,42.3-73.1c2.7-41.2,37.1-74,79.1-74
		c17,0,33.4,5.5,46.8,15.3c17.3-29.9,49.8-48.8,84.3-48.8c55.7,0,101.1,48.8,97.1,104.3c29.1,13.9,48.2,43.8,48.2,76.1
		c0,21.9-8.4,42.7-23.6,58.4L410.1,244c9.9-10.2,15.3-23.7,15.3-38c0-24.3-15.7-45.4-39.1-52.5c-7.3-2.2-11.7-9.6-10.2-17.1
		c8.5-41.4-24.2-81.3-66.4-81.3c-30,0-56.8,20.1-65.1,48.9c-3.3,11.5-18.9,14.3-26.1,4.7c-9.5-12.8-24.1-20.2-40-20.2
		c-28.2,0-51.3,24.5-49.6,52.6c0.4,6.2-3.2,12-8.9,14.5c-20.3,8.7-33.4,28.5-33.4,50.4c0,15.1,6,29.1,16.9,39.5L83.1,266.9z"/>
</g>
</svg>
