<?xml version="1.0" encoding="utf-8"?>
<!-- Generator: Adobe Illustrator 25.0.1, SVG Export Plug-In . SVG Version: 6.00 Build 0)  -->
<svg version="1.1" id="Layer_1" xmlns="http://www.w3.org/2000/svg" xmlns:xlink="http://www.w3.org/1999/xlink" x="0px" y="0px"
	 viewBox="0 0 512 512" style="enable-background:new 0 0 512 512;" xml:space="preserve">
<style type="text/css">
	.st0{fill:#1999FF;}
	.st1{fill:#304050;}
</style>
<g id="XMLID_120_">
	<g id="XMLID_803_">
		<path class="st0" d="M229.4,388H58.2c0-30,24.3-54.4,54.4-54.4H175C205,333.6,229.4,357.9,229.4,388z"/>
	</g>
	<g id="XMLID_93_">
		<path id="XMLID_1001_" class="st1" d="M455.9,141.8h-21.1V98.5c0-16.3-13.3-29.5-29.5-29.5h-24.6V25.6h-31.5v43.3H103.5
			c-16.3,0-29.5,13.3-29.5,29.5v98.5c0,19.5,15.9,35.4,35.4,35.4h5.6v55.1h31.5v-55.1c23.3,0,38.4-16.4,38.3-39.4h103l-50.2,179.2
			H41.4c-8.7,0-15.8,7.1-15.8,15.8v68.9c0,16.3,13.3,29.5,29.5,29.5h350.1c16.3,0,29.5-13.3,29.5-29.5V298.3h22.1
			c16.3,0,29.5-13.3,29.5-29.5v-97.5C486.4,154.8,473,141.8,455.9,141.8L455.9,141.8z M403.3,454.9H57.1v-51.2h192.4
			c7.1,0,13.3-4.7,15.2-11.5l59.1-210.7c2.8-9.9-4.9-20-15.2-20H168.9c-8.6,0-15.8,7.3-15.8,15.9l0.2,19.5c0,2.2-1.8,4-3.9,4h-40
			c-2.2,0-3.9-1.8-3.9-3.9v-96.5h297.9L403.3,454.9z M454.9,266.8h-20.1v-93.5h20.1V266.8z"/>
	</g>
	<g id="XMLID_121_">
		<circle class="st0" cx="338.3" cy="373.9" r="28.6"/>
	</g>
</g>
</svg>
