<?xml version="1.0" encoding="utf-8"?>
<!-- Generator: Adobe Illustrator 25.0.1, SVG Export Plug-In . SVG Version: 6.00 Build 0)  -->
<svg version="1.1" id="Layer_1" xmlns="http://www.w3.org/2000/svg" xmlns:xlink="http://www.w3.org/1999/xlink" x="0px" y="0px"
	 viewBox="0 0 512 512" style="enable-background:new 0 0 512 512;" xml:space="preserve">
<style type="text/css">
	.st0{fill:#304050;}
	.st1{fill:#0795FE;}
</style>
<g>
	<g>
		<path class="st0" d="M410.6,25.6H40.4c-8.2,0-14.8,6.6-14.8,14.8V383c0,8.2,6.6,14.8,14.8,14.8h92.6v-29.5H55.1V134.9h355.4
			c8.2,0,14.8-6.6,14.8-14.8V40.4C425.4,32.2,418.7,25.6,410.6,25.6z M395.8,105.4H55.1V55.1h340.7V105.4z"/>
		<g>
			<ellipse class="st1" cx="101.7" cy="80.7" rx="11.8" ry="11.8"/>
			<ellipse class="st1" cx="151" cy="80.7" rx="11.8" ry="11.8"/>
			<ellipse class="st1" cx="200.3" cy="80.7" rx="11.8" ry="11.8"/>
		</g>
	</g>
	<g>
		<g>
			<ellipse class="st1" cx="392.2" cy="225.7" rx="19.7" ry="19.7"/>
		</g>
	</g>
	<path class="st0" d="M471.6,259.9h-16.8c5.9-12.8,8.8-23.4,8.8-32c0-39.2-32-71-71.4-71s-71.4,31.9-71.4,71c0,8.6,2.9,19.2,8.8,32
		H182.2c-8.2,0-14.8,6.6-14.8,14.8v196.9c0,8.2,6.6,14.8,14.8,14.8h289.5c8.2,0,14.8-6.6,14.8-14.8V274.7
		C486.4,266.6,479.8,259.9,471.6,259.9z M392.2,186.4c23.1,0,41.8,18.6,41.8,41.5c0,14.9-21.8,49.9-41.8,77.1
		c-20.1-27.1-41.8-62.2-41.8-77.1C350.4,205,369.1,186.4,392.2,186.4L392.2,186.4z M196.9,289.5H237L209.9,342l-12.9-14.6
		L196.9,289.5z M196.9,456.9v-84.8l75.3,84.8H196.9z M456.9,456.9H311.6l-18-20.3L403,390.3l53.9,45.9L456.9,456.9z M456.9,397.4
		l-23.4-19.9l23.4-9.9V397.4z M456.9,335.5l-184.1,77.6l-41.9-47.4l39.4-76.3h75.6c1.8,2.9,3.7,5.8,5.7,8.8
		c14.4,21.8,28.4,39.5,29.1,40.1c9.2,8.7,18.5,4.7,23,0c0.6-0.7,14.8-18.3,29.1-40.1c2-3,3.9-6,5.7-8.8h18.3L456.9,335.5z"/>
</g>
</svg>
