<?xml version="1.0" encoding="utf-8"?>
<!-- Generator: Adobe Illustrator 25.0.1, SVG Export Plug-In . SVG Version: 6.00 Build 0)  -->
<svg version="1.1" id="Layer_1" xmlns="http://www.w3.org/2000/svg" xmlns:xlink="http://www.w3.org/1999/xlink" x="0px" y="0px"
	 viewBox="0 0 512 512" style="enable-background:new 0 0 512 512;" xml:space="preserve">
<style type="text/css">
	.st0{fill:#0795FE;}
	.st1{fill:#304050;}
</style>
<g>
	<g>
		<path class="st0" d="M241.2,130h29.5v49.2h-29.5V130z"/>
	</g>
	<g>
		<g>
			<path class="st1" d="M370.2,486.4H141.8c-4.4,0-8.6-2-11.4-5.4c-2.8-3.4-3.9-7.9-3.1-12.2l39.4-199c1.4-6.9,7.4-11.8,14.5-11.8
				h149.7c7.1,0,13.1,4.9,14.5,11.8l39.4,199c0.9,4.3-0.3,8.8-3.1,12.2C378.8,484.4,374.6,486.4,370.2,486.4z M159.8,456.9h192.5
				l-33.5-169.4H193.3L159.8,456.9z"/>
		</g>
		<g>
			<path class="st0" d="M212.7,323h86.6v29.5h-86.6V323z"/>
			<path class="st0" d="M194,391.9H318v29.5H194V391.9z"/>
		</g>
	</g>
	<g>
		<path class="st1" d="M309.7,110.7c3.9-7.8,6-16.7,6-26c0-32.6-26.6-59.1-59.2-59.1s-59.2,26.5-59.2,59.1c0,9.5,2.3,18.4,6.2,26.4
			c-22.5,16.5-37.1,43-37.1,73v29.1c0,13.7,11.1,25,24.8,25h130.6c14.2,0,25.7-11.7,25.7-25.9v-28
			C347.6,154.1,332.6,127.2,309.7,110.7z M256.5,55.1c16.4,0,29.7,13.3,29.7,29.6s-13.3,29.6-29.7,29.6s-29.7-13.3-29.7-29.6
			S240.1,55.1,256.5,55.1z M318,208.7H195.9v-24.6c0-21.1,10.8-39.7,27.1-50.6c9.5,6.5,21.1,10.4,33.5,10.4
			c12.6,0,24.2-3.9,33.8-10.7C307,144.2,318,163,318,184.4V208.7z"/>
		<path class="st1" d="M55.1,216.6H25.6v110.2c0,8.2,6.6,14.9,14.8,14.9h32.5v56.1h29.5v-56.1h37.4v-29.5H55.1V216.6z"/>
		<path class="st1" d="M456.9,216.6v95.5h-84.7v29.5h36.4v56.1h29.5v-56.1h33.5c8.2,0,14.8-6.7,14.8-14.9V216.6L456.9,216.6z"/>
	</g>
</g>
</svg>
