<?xml version="1.0" encoding="utf-8"?>
<!-- Generator: Adobe Illustrator 25.0.1, SVG Export Plug-In . SVG Version: 6.00 Build 0)  -->
<svg version="1.1" id="Layer_1" xmlns="http://www.w3.org/2000/svg" xmlns:xlink="http://www.w3.org/1999/xlink" x="0px" y="0px"
	 viewBox="0 0 512 512" style="enable-background:new 0 0 512 512;" xml:space="preserve">
<style type="text/css">
	.st0{fill:#304050;}
	.st1{fill:#1999FF;}
</style>
<g id="XMLID_214_">
	<g id="XMLID_210_">
		<g id="XMLID_205_">
			<g id="XMLID_204_">
				<path id="XMLID_794_" class="st0" d="M273.6,356.1h-24.7c-26.1,0-47.3-21.2-47.3-47.3v-0.1c0-26.1,21.2-47.3,47.3-47.3h24.7
					c26.1,0,47.3,21.2,47.3,47.3v0.1C320.9,334.9,299.7,356.1,273.6,356.1L273.6,356.1z M248.9,293c-8.7,0-15.8,7.1-15.8,15.8v0.1
					c0,8.7,7.1,15.8,15.8,15.8h24.7c8.7,0,15.8-7.1,15.8-15.8v-0.1c0-8.7-7.1-15.8-15.8-15.8H248.9z"/>
			</g>
			<g id="XMLID_203_">
				<path id="XMLID_249_" class="st1" d="M255.6,373.9H150.8c-17.3-35-21.2-75.2-10.8-112.9l0-0.2h126.4l0,0.2
					C276.8,298.7,273,338.9,255.6,373.9z"/>
			</g>
		</g>
		<g id="XMLID_208_">
			<g id="XMLID_209_">
				<path id="XMLID_792_" class="st0" d="M188.9,181.1h31.5v54h-31.5L188.9,181.1z"/>
			</g>
			<g id="XMLID_207_">
				<path id="XMLID_213_" class="st1" d="M224.9,186.5h-39.8c-21.8,0-39.4-17.6-39.4-39.4v-17.5h118.5v17.5
					C264.3,168.9,246.6,186.5,224.9,186.5z"/>
			</g>
		</g>
	</g>
	<path id="XMLID_1080_" class="st0" d="M456.9,204.8l-79.5-34.3c-2.8-1.2-5.6-2.1-8.4-2.8v-22.2c8.5-0.2,15.4-7.2,15.4-15.7V55.1
		c0-16.3-13.3-29.5-29.5-29.5H55.1c-16.3,0-29.5,13.3-29.5,29.5v74.7c0,8.6,6.9,15.5,15.4,15.7v219.8c-8.5,0.2-15.4,7.2-15.4,15.7
		v75.7c0,16.3,13.3,29.5,29.5,29.5h299.7c16.3,0,29.5-13.3,29.5-29.5v-75.7c0-8.6-6.9-15.5-15.4-15.7v-92.2l49.3,21.3
		c24.7,10.7,54.1-1.3,64.4-26.1C492.9,243.9,481.3,215.4,456.9,204.8L456.9,204.8z M72.5,365.3V145.6h213.4v44.8
		c0,6.4,3.9,12.2,9.9,14.6l13.8,5.5c-1.9,20.1,8.9,40.2,27.9,49v105.7H72.5z M337.5,171.1c-5.7,2.6-10.7,6.3-14.9,10.7l-5.2-2.1
		v-34.2h20.1L337.5,171.1L337.5,171.1z M352.9,57.1v56.8H57.1V57.1L352.9,57.1z M352.9,454.9H57.1v-58h295.8L352.9,454.9
		L352.9,454.9z M453.6,256.3c-3.6,8.7-14.1,13.1-22.8,9.3l-79.5-34.3c-8.6-3.7-12.7-13.8-9.1-22.5c3.6-8.8,14.1-13,22.8-9.3
		l79.5,34.3C453.1,237.5,457.2,247.6,453.6,256.3C451.8,260.6,457.2,247.6,453.6,256.3L453.6,256.3z"/>
</g>
</svg>
