<?xml version="1.0" encoding="utf-8"?>
<!-- Generator: Adobe Illustrator 25.0.1, SVG Export Plug-In . SVG Version: 6.00 Build 0)  -->
<svg version="1.1" id="Layer_1" xmlns="http://www.w3.org/2000/svg" xmlns:xlink="http://www.w3.org/1999/xlink" x="0px" y="0px"
	 viewBox="0 0 512 512" style="enable-background:new 0 0 512 512;" xml:space="preserve">
<style type="text/css">
	.st0{fill:#0795FE;}
	.st1{fill:#304050;}
</style>
<g>
	<g>
		<g>
			<g>
				<path class="st0" d="M140.8,216.6h-36.5l-63.9,85.8V322H131c5.4,0,9.8-4.4,9.8-9.8V216.6z"/>
			</g>
			<path class="st0" d="M471.6,301.3H361l6.2-6.3l-21-20.8l-31.4,31.7c-5.7,5.7-5.7,14.9-0.1,20.7l30.8,31.7l21.2-20.6l-6.7-6.9
				h111.6V301.3z"/>
		</g>
	</g>
	<g>
		<g>
			<path class="st1" d="M332.8,248c-61.4,0-111.3-49.9-111.3-111.2c0-61.3,49.9-111.2,111.3-111.2S444,75.5,444,136.8
				C444,198.1,394.1,248,332.8,248z M332.8,55.1c-45.1,0-81.7,36.6-81.7,81.6c0,45,36.7,81.7,81.7,81.7c45.1,0,81.7-36.6,81.7-81.7
				C414.5,91.8,377.8,55.1,332.8,55.1z"/>
		</g>
	</g>
	<path class="st1" d="M456.9,166.4v252.1h-25c-6.2-23.1-27.3-40.1-52.3-40.1c-25,0-46.2,17.1-52.3,40.1H206.8V166.4h-29.5v35.4h-73
		c-4.7,0-9.1,2.2-11.8,5.9l-63.9,85.8c-1.9,2.5-2.9,5.6-2.9,8.8v130.8c0,8.2,6.6,14.8,14.8,14.8h23.8c6.7,22.2,27.4,38.4,51.8,38.4
		s45.1-16.2,51.8-38.4h159.9c6.7,22.2,27.4,38.4,51.8,38.4c24.4,0,45.1-16.2,51.8-38.4h40.2c8.2,0,14.8-6.6,14.8-14.8V166.4H456.9z
		 M63.7,418.5h-8.6V307.3l56.6-76h65.5v187.1h-8.9c-6.2-23.1-27.3-40.1-52.3-40.1S69.9,395.4,63.7,418.5z M116,456.9
		c-13.6,0-24.6-11-24.6-24.5s11-24.5,24.6-24.5s24.6,11,24.6,24.5C140.7,445.9,129.6,456.9,116,456.9z M379.6,456.9
		c-13.6,0-24.6-11-24.6-24.5s11-24.5,24.6-24.5c13.6,0,24.6,11,24.6,24.5C404.2,445.9,393.2,456.9,379.6,456.9z"/>
	<path class="st0" d="M310.1,170.9l-32.7-33.2l21.1-20.7l22.1,22.5l42-43l21.1,20.6l-52.5,53.8C328.4,173.7,319,179.7,310.1,170.9z"
		/>
</g>
</svg>
