<?xml version="1.0" encoding="utf-8"?>
<!-- Generator: Adobe Illustrator 25.0.1, SVG Export Plug-In . SVG Version: 6.00 Build 0)  -->
<svg version="1.1" id="Layer_1" xmlns="http://www.w3.org/2000/svg" xmlns:xlink="http://www.w3.org/1999/xlink" x="0px" y="0px"
	 viewBox="0 0 512 512" style="enable-background:new 0 0 512 512;" xml:space="preserve">
<style type="text/css">
	.st0{fill:#1999FF;}
	.st1{fill:#304050;}
</style>
<g id="XMLID_176_">
	<g id="XMLID_406_">
		<ellipse id="XMLID_6_" class="st0" cx="243.3" cy="259.7" rx="42.1" ry="88.7"/>
	</g>
	<path id="XMLID_593_" class="st1" d="M471.6,225.2c0-82-40.7-146.2-92.6-146.2c-13.5,0-26.3,4.4-37.8,12.3
		c-27.5-42.6-61.5-65.6-98-65.6c-37.8,0-73.1,24.8-101,70.4H55.9c-12.3,0-19.8,14.2-12.9,24.3l57,83.8
		c-14,59.3-17.7,121.2-13.3,181.8c-8.6-0.1-15.8,7-15.8,15.6v59.8c0,7.9,5.9,14.5,13.7,15.5c52.6,6.4,105.6,9.6,158.7,9.6
		s106-3.2,158.7-9.6c7.8-1,13.7-7.6,13.7-15.5v-59.8c0-8.6-7.2-15.7-15.8-15.6c0.5-6.1,0.8-12.3,1.1-18.5
		C441.9,352.3,471.6,295.2,471.6,225.2L471.6,225.2z M379.1,110.1c20,0,34.2,19.2,41,30.6c13.1,22.3,20.4,52.3,20.4,84.5
		s-7.2,62.1-20.4,84.5c-3.8,6.5-10.1,15.5-18.5,22.1c-0.8-72.4-12.6-147.7-44.8-213.1C363,113.7,370.5,110.1,379.1,110.1z
		 M156.5,135.2c1.3-2.7,2.7-5.4,4-8H326c1.4,2.6,2.7,5.3,4,8c26,54.2,40.3,126.6,40.3,203.9c0,17.1-0.7,34.2-2.1,50.9
		c-83,10.7-166.9,10.7-249.8,0c-1.4-16.7-2.1-33.8-2.1-50.9C116.2,261.8,130.5,189.4,156.5,135.2z M243.3,56.8
		c21.8,0,43.8,13.9,63.2,39.2H180.1C199.5,70.7,221.5,56.8,243.3,56.8L243.3,56.8z M85.4,127.1h40.4c-5.4,11.9-10.3,24.5-14.7,37.7
		L85.4,127.1z M384.4,447.4c-93.7,10.4-188.6,10.4-282.3,0v-28c94,13.2,188.3,13.1,282.3,0V447.4z"/>
</g>
</svg>
