<?xml version="1.0" encoding="utf-8"?>
<!-- Generator: Adobe Illustrator 25.0.1, SVG Export Plug-In . SVG Version: 6.00 Build 0)  -->
<svg version="1.1" id="Layer_1" xmlns="http://www.w3.org/2000/svg" xmlns:xlink="http://www.w3.org/1999/xlink" x="0px" y="0px"
	 viewBox="0 0 512 512" style="enable-background:new 0 0 512 512;" xml:space="preserve">
<style type="text/css">
	.st0{fill:#FFFFFF;}
	.st1{fill:#1999FF;}
	.st2{fill:#304050;}
</style>
<g id="XMLID_499_">
	<g id="XMLID_239_">
		<g id="XMLID_231_">
			<ellipse id="XMLID_719_" class="st0" cx="315.1" cy="275.9" rx="68.9" ry="69"/>
			<path id="XMLID_715_" class="st1" d="M256,206.9c38.1,0,68.9,30.9,68.9,69s-30.9,69-68.9,69s-68.9-30.9-68.9-69
				S217.9,206.9,256,206.9"/>
			<g id="XMLID_227_">
				<ellipse id="XMLID_711_" class="st0" cx="196.9" cy="275.9" rx="68.9" ry="69"/>
				<path id="XMLID_722_" class="st2" d="M315.1,191.1c-10.4,0-20.3,1.9-29.5,5.3c-18.9-7.1-40.2-7.1-59.1,0
					c-9.2-3.4-19.2-5.3-29.5-5.3c-46.7,0-84.7,38-84.7,84.7s38,84.7,84.7,84.7c10.4,0,20.3-1.9,29.6-5.3c18.9,7.1,40.2,7.1,59.1,0
					c9.2,3.4,19.1,5.3,29.5,5.3c46.7,0,84.7-38,84.7-84.7S361.8,191.1,315.1,191.1L315.1,191.1z M263.1,223.1
					c26,3.5,46,25.8,46,52.7s-20.1,49.2-46,52.7c11.5-14.5,18.5-32.8,18.5-52.7S274.7,237.6,263.1,223.1z M143.8,275.9
					c0-29.3,23.9-53.2,53.2-53.2s53.2,23.9,53.2,53.2s-23.9,53.2-53.2,53.2S143.8,305.2,143.8,275.9z M322.2,328.6
					c11.5-14.5,18.5-32.8,18.5-52.7s-6.9-38.2-18.5-52.7c26,3.5,46,25.8,46,52.7S348.2,325.1,322.2,328.6z"/>
			</g>
		</g>
		<g id="XMLID_237_">
			<g id="XMLID_235_">
				<ellipse class="st1" cx="120.4" cy="87.4" rx="15.8" ry="15.8"/>
			</g>
			<g id="XMLID_236_">
				<ellipse class="st1" cx="179.5" cy="87.4" rx="15.8" ry="15.8"/>
			</g>
			<g id="XMLID_238_">
				<path id="XMLID_701_" class="st1" d="M246.2,71.6H403v31.5H246.2L246.2,71.6z"/>
			</g>
		</g>
		<path id="XMLID_713_" class="st2" d="M454.9,55.1c0-16.3-13.3-29.5-29.5-29.5H86.6c-16.3,0-29.5,13.3-29.5,29.5V400
			c0,16.3,13.3,29.5,29.5,29.5h1.3v41.1c0,8.7,7.1,15.8,15.8,15.8H172c8.7,0,15.8-7.1,15.8-15.8v-41.1h136.5v41.1
			c0,8.7,7.1,15.8,15.8,15.8h68.3c8.7,0,15.8-7.1,15.8-15.8v-41.1h1.3c16.3,0,29.5-13.3,29.5-29.5V55.1z M88.6,57.1h334.8v57.8H88.6
			V57.1z M423.4,398.1H88.6V146.7h334.8V398.1z M156.2,454.9h-36.8v-25.3h36.8L156.2,454.9L156.2,454.9z M392.6,454.9h-36.8v-25.3
			h36.8V454.9z"/>
	</g>
</g>
</svg>
