<?xml version="1.0" encoding="utf-8"?>
<!-- Generator: Adobe Illustrator 25.0.1, SVG Export Plug-In . SVG Version: 6.00 Build 0)  -->
<svg version="1.1" id="Layer_1" xmlns="http://www.w3.org/2000/svg" xmlns:xlink="http://www.w3.org/1999/xlink" x="0px" y="0px"
	 viewBox="0 0 512 512" style="enable-background:new 0 0 512 512;" xml:space="preserve">
<style type="text/css">
	.st0{fill:#1999FF;}
	.st1{fill:#304050;}
	.st2{fill:#FFFFFF;}
</style>
<g>
	<g id="XMLID_262_">
		<path id="XMLID_104_" class="st0" d="M157.6,433.1H27.6l43.4-65.2h86.7V433.1z"/>
	</g>
	<g id="XMLID_268_">
		<g id="XMLID_267_">
			<path id="XMLID_919_" class="st1" d="M331.3,277h32v31.5h-32V277z"/>
		</g>
		<g id="XMLID_266_">
			<path id="XMLID_918_" class="st1" d="M391.4,277h32v31.5h-32V277z"/>
		</g>
	</g>
	<path id="XMLID_863_" class="st1" d="M429.3,205.8h-31.4c-27,0-53.2,5-77.6,14.6v-80.1c0-63.2-51.5-114.7-114.9-114.7
		S90.5,77,90.5,140.3v209H122v-209c0-45.9,37.4-83.2,83.4-83.2c46,0,83.4,37.3,83.4,83.2v95.6c-63.6,38.2-103.3,108.2-103.3,182.3
		c0,9.6,4.8,18.9,15.8,18.9h65.5v-31.5h-49.3c6.5-93.9,84.9-168.3,180.5-168.3h31.4c13,0,23.6,10.6,23.6,23.6v121
		c0,10.8-7.3,20.2-17.7,22.9l7.8,30.5c24.4-6.2,41.5-28.2,41.5-53.4V261C484.4,230.6,459.7,205.8,429.3,205.8L429.3,205.8z"/>
	<g id="XMLID_260_">
		<ellipse id="XMLID_101_" class="st0" cx="351.5" cy="421.4" rx="65" ry="65"/>
	</g>
	<g id="XMLID_265_">
		<ellipse id="XMLID_100_" class="st2" cx="351.5" cy="421.4" rx="20" ry="20"/>
	</g>
</g>
</svg>
