<?xml version="1.0" encoding="utf-8"?>
<!-- Generator: Adobe Illustrator 25.0.1, SVG Export Plug-In . SVG Version: 6.00 Build 0)  -->
<svg version="1.1" id="Layer_1" xmlns="http://www.w3.org/2000/svg" xmlns:xlink="http://www.w3.org/1999/xlink" x="0px" y="0px"
	 viewBox="0 0 512 512" style="enable-background:new 0 0 512 512;" xml:space="preserve">
<style type="text/css">
	.st0{fill:#304050;}
	.st1{fill:#0795FE;}
	.st2{fill:#FFFFFF;}
</style>
<g>
	<g>
		<path class="st0" d="M471.6,25.6H40.4c-8.2,0-14.8,6.6-14.8,14.8V386c0,8.2,6.6,14.8,14.8,14.8h158.4l-37.8,63.3
			c-5.8,9.6,1.5,22.3,12.7,22.3h164.8c11.1,0,18.4-12.7,12.7-22.3l-37.8-63.3h158.4c8.2,0,14.8-6.6,14.8-14.8V40.4
			C486.4,32.2,479.8,25.6,471.6,25.6z M456.9,55.1v250.1H55.1V55.1H456.9z M199.6,456.9l33.5-56.1h45.7l33.5,56.1H199.6z
			 M55.1,371.2v-36.4h401.7v36.4H55.1z"/>
		<ellipse class="st1" cx="256" cy="353.3" rx="11.8" ry="11.8"/>
	</g>
	<g>
		<g>
			<path class="st0" d="M108.3,239.3h29.5v47.3h-29.5V239.3z"/>
			<path class="st1" d="M196.9,199.9h29.5v86.6h-29.5V199.9z"/>
			<path class="st0" d="M285.5,219.6h29.5v67h-29.5V219.6z"/>
			<path class="st1" d="M374.2,170.3h29.5v116.2h-29.5V170.3z"/>
		</g>
		<g>
			<g>
				<circle class="st2" cx="123.1" cy="177.6" r="22.6"/>
			</g>
			<g>
				<circle class="st2" cx="211.7" cy="108.7" r="22.6"/>
			</g>
			<g>
				<circle class="st2" cx="300.3" cy="167.8" r="22.6"/>
			</g>
			<g>
				<circle class="st2" cx="388.9" cy="108.7" r="22.6"/>
			</g>
		</g>
	</g>
	<path class="st0" d="M388.9,71.3c-20.6,0-37.4,16.8-37.4,37.4c0,2.3,0.2,4.6,0.6,6.8l-31.5,21c-12.2-8-28.4-8-40.6-0.1l-31.5-21.2
		c0.4-2.1,0.6-4.3,0.6-6.5c0-20.6-16.8-37.4-37.4-37.4s-37.4,16.8-37.4,37.4c0,3.4,0.5,6.6,1.3,9.7L141.2,145
		c-5.4-3-11.6-4.7-18.2-4.7c-20.6,0-37.4,16.8-37.4,37.4s16.8,37.4,37.4,37.4s37.4-16.8,37.4-37.4c0-3.2-0.4-6.3-1.2-9.3l34.6-26.7
		c12,6.5,27,5.8,38.4-1.7l31.3,21c-0.4,2.2-0.6,4.5-0.6,6.9c0,20.6,16.8,37.4,37.4,37.4c20.6,0,37.4-16.8,37.4-37.4
		c0-2.3-0.2-4.6-0.6-6.8l31.5-21c5.9,3.8,12.9,6.1,20.4,6.1c20.6,0,37.4-16.8,37.4-37.4S409.5,71.3,388.9,71.3L388.9,71.3z
		 M123.1,185.5c-4.3,0-7.9-3.5-7.9-7.9s3.5-7.9,7.9-7.9c4.3,0,7.9,3.5,7.9,7.9S127.4,185.5,123.1,185.5z M211.7,116.6
		c-4.3,0-7.9-3.5-7.9-7.9s3.5-7.9,7.9-7.9s7.9,3.5,7.9,7.9S216,116.6,211.7,116.6z M300.3,175.7c-4.3,0-7.9-3.5-7.9-7.9
		c0-4.3,3.5-7.9,7.9-7.9c4.3,0,7.9,3.5,7.9,7.9C308.2,172.1,304.6,175.7,300.3,175.7z M388.9,116.6c-4.3,0-7.9-3.5-7.9-7.9
		s3.5-7.9,7.9-7.9c4.3,0,7.9,3.5,7.9,7.9S393.3,116.6,388.9,116.6z"/>
</g>
</svg>
