<?xml version="1.0" encoding="utf-8"?>
<!-- Generator: Adobe Illustrator 25.0.1, SVG Export Plug-In . SVG Version: 6.00 Build 0)  -->
<svg version="1.1" id="_x31__x2C_5" xmlns="http://www.w3.org/2000/svg" xmlns:xlink="http://www.w3.org/1999/xlink" x="0px"
	 y="0px" viewBox="0 0 512 512" style="enable-background:new 0 0 512 512;" xml:space="preserve">
<style type="text/css">
	.st0{fill:#EFEFEF;}
	.st1{fill:#A4AFC1;}
	.st2{fill:#1999FF;}
	.st3{fill:#F3F3F1;}
	.st4{fill:#0E8CF1;}
	.st5{fill:#D5DBE1;}
</style>
<g>
	<path class="st0" d="M135.3,433.1c88.5,0,149.3,45.9,192,45.9s132.3-24.5,132.3-220.8S339,33.1,292.1,33.1
		C72.3,33.1-21.5,433.1,135.3,433.1L135.3,433.1z"/>
	<g>
		<path class="st1" d="M104.5,68.1L122.6,50l9,9l-18.1,18.1L104.5,68.1z"/>
		<path class="st1" d="M52.5,120.1l18.1-18.1l9,9l-18.1,18.1L52.5,120.1z"/>
		<path class="st1" d="M54.7,59.1l9-9l18.1,18.1l-9,9L54.7,59.1z"/>
	</g>
	<path class="st2" d="M402.5,371.2c0,15.9-64.5,28.8-144,28.8s-144-12.9-144-28.8V256h288V371.2z"/>
	<path class="st2" d="M402.5,256c0,15.9-64.5,28.8-144,28.8s-144-12.9-144-28.8V140.8h288V256z"/>
	<ellipse class="st3" cx="258.5" cy="140.8" rx="144" ry="28.8"/>
	<path class="st4" d="M143.3,371.2V256h-28.8v115.2c0,15.9,64.5,28.8,144,28.8c4.9,0,9.7-0.1,14.4-0.1
		C200.1,398.4,143.3,386.1,143.3,371.2z"/>
	<path class="st5" d="M143.3,140.8c0-14.9,56.8-27.2,129.6-28.7c-4.7-0.1-9.5-0.1-14.4-0.1c-79.5,0-144,12.9-144,28.8
		s64.5,28.8,144,28.8c4.9,0,9.7-0.1,14.4-0.1C200.1,168,143.3,155.7,143.3,140.8z"/>
	<path class="st4" d="M143.3,256v-99.2l-28.8-16V256c0,15.9,64.5,28.8,144,28.8c4.9,0,9.7-0.1,14.4-0.1
		C200.1,283.2,143.3,270.9,143.3,256z"/>
	<path d="M258.5,179.2c-15.7,0-153.6-1.1-153.6-38.4s137.9-38.4,153.6-38.4c15.7,0,153.6,1.1,153.6,38.4S274.2,179.2,258.5,179.2z
		 M125.2,140.8c9.4,7.3,54.3,19.2,133.3,19.2s123.9-11.9,133.3-19.2c-9.4-7.3-54.3-19.2-133.3-19.2S134.6,133.5,125.2,140.8z"/>
	<path d="M258.5,294.4c-15.7,0-153.6-1.1-153.6-38.4h19.2c0-0.8-0.2-1.3-0.3-1.5c4.6,7,50.2,20.7,134.7,20.7s130.2-13.7,134.7-20.7
		c-0.1,0.2-0.3,0.7-0.3,1.5h19.2C412.1,293.3,274.2,294.4,258.5,294.4z"/>
	<path d="M258.5,409.6c-15.7,0-153.6-1.1-153.6-38.4V140.8h19.2v229.4c6.2,7.1,51.6,20.2,134.4,20.2s128.2-13.1,134.4-20.2V140.8
		h19.2v230.4C412.1,408.5,274.2,409.6,258.5,409.6z"/>
	<circle cx="175.3" cy="224" r="19.2"/>
	<circle cx="175.3" cy="339.2" r="19.2"/>
</g>
</svg>
