<?xml version="1.0" encoding="utf-8"?>
<!-- Generator: Adobe Illustrator 25.0.1, SVG Export Plug-In . SVG Version: 6.00 Build 0)  -->
<svg version="1.1" id="_x31__x2C_5" xmlns="http://www.w3.org/2000/svg" xmlns:xlink="http://www.w3.org/1999/xlink" x="0px"
	 y="0px" viewBox="0 0 512 512" style="enable-background:new 0 0 512 512;" xml:space="preserve">
<style type="text/css">
	.st0{fill:#EFEFEF;}
	.st1{fill:#A4AFC1;}
	.st2{fill:#1999FF;}
	.st3{fill:#F3F3F1;}
	.st4{fill:#D5DBE1;}
	.st5{fill:#0E8CF1;}
</style>
<g>
	<path class="st0" d="M78.9,132.8c0,88.5-45.9,149.3-45.9,192s24.5,132.3,220.8,132.3s225.1-120.5,225.1-167.5
		C478.9,69.9,78.9-24,78.9,132.8L78.9,132.8z"/>
	<path class="st1" d="M70.4,102.4c-10.6,0-19.2-8.6-19.2-19.2S59.8,64,70.4,64s19.2,8.6,19.2,19.2S81,102.4,70.4,102.4z M70.4,76.8
		c-3.5,0-6.4,2.9-6.4,6.4s2.9,6.4,6.4,6.4c3.5,0,6.4-2.9,6.4-6.4S73.9,76.8,70.4,76.8z"/>
	<path class="st2" d="M400,291.2V368c0,15.9-64.5,28.8-144,28.8S112,383.9,112,368v-76.8H400z"/>
	<ellipse class="st3" cx="256" cy="291.2" rx="144" ry="28.8"/>
	<path class="st3" d="M361.6,217.6V314c-26.2,5.6-63.9,9.2-105.6,9.2s-79.4-3.6-105.6-9.2v-96.4H361.6z"/>
	<path class="st2" d="M400,140.8v76.8c0,15.9-64.5,28.8-144,28.8s-144-12.9-144-28.8v-76.8H400z"/>
	<ellipse class="st3" cx="256" cy="140.8" rx="144" ry="28.8"/>
	<g>
		<path class="st4" d="M179.2,314v-70.8l-28.8-6.4V314c26.2,5.6,63.9,9.2,105.6,9.2c4.9,0,9.7-0.1,14.4-0.2
			C234.5,322.3,202.4,319,179.2,314z"/>
		<path class="st4" d="M140.8,291.2c0-3.6,3.4-7.1,9.6-10.3v-9.2c-23.8,5.1-38.4,12-38.4,19.5c0,15.9,64.5,28.8,144,28.8
			c4.9,0,9.7-0.1,14.4-0.1C197.6,318.4,140.8,306.1,140.8,291.2z"/>
		<path class="st4" d="M140.8,140.8c0-14.9,56.8-27.2,129.6-28.7c-4.7-0.1-9.5-0.1-14.4-0.1c-79.5,0-144,12.9-144,28.8
			s64.5,28.8,144,28.8c4.9,0,9.7-0.1,14.4-0.1C197.6,168,140.8,155.7,140.8,140.8z"/>
	</g>
	<path class="st5" d="M140.8,368v-54.4L112,291.2V368c0,15.9,64.5,28.8,144,28.8c4.9,0,9.7-0.1,14.4-0.1
		C197.6,395.2,140.8,382.9,140.8,368z"/>
	<path class="st5" d="M140.8,217.6v-54.4L112,140.8v76.8c0,15.9,64.5,28.8,144,28.8c4.9,0,9.7-0.1,14.4-0.1
		C197.6,244.8,140.8,232.5,140.8,217.6z"/>
	<path d="M256,179.2c-15.7,0-153.6-1.1-153.6-38.4s137.9-38.4,153.6-38.4s153.6,1.1,153.6,38.4S271.7,179.2,256,179.2z M122.7,140.8
		c9.4,7.3,54.3,19.2,133.3,19.2s123.9-11.9,133.3-19.2c-9.4-7.3-54.3-19.2-133.3-19.2S132.1,133.5,122.7,140.8z"/>
	<path d="M256,332.8c-15.7,0-153.6-1.1-153.6-38.4c0-13,14.2-22,45.9-29l4.1,18.8c-19,4.2-26.7,8.2-29.6,10.3
		c9.7,7.3,54.6,19.1,133.1,19.1s123.4-11.8,133.1-19.1c-2.9-2.1-10.6-6.1-29.6-10.3l4.1-18.8c31.8,7,46,15.9,46,29
		C409.6,331.7,271.7,332.8,256,332.8L256,332.8z"/>
	<path d="M140.8,232.4H160V320h-19.2V232.4z"/>
	<path d="M352,232.4h19.2V320H352V232.4z"/>
	<circle cx="166.4" cy="358.4" r="12.8"/>
	<circle cx="166.4" cy="204.8" r="12.8"/>
	<path d="M256,256c-15.7,0-153.6-1.1-153.6-38.4v-76.8h19.2v75.8c6.2,7.1,51.6,20.2,134.4,20.2s128.2-13.1,134.4-20.2v-75.8h19.2
		v76.8C409.6,254.9,271.7,256,256,256z"/>
	<path d="M256,409.6c-15.7,0-153.6-1.1-153.6-38.4v-76.8h19.2v75.8c6.2,7.1,51.6,20.2,134.4,20.2s128.2-13.1,134.4-20.2v-75.8h19.2
		v76.8C409.6,408.5,271.7,409.6,256,409.6z"/>
</g>
</svg>
