<?xml version="1.0" encoding="utf-8"?>
<!-- Generator: Adobe Illustrator 25.0.1, SVG Export Plug-In . SVG Version: 6.00 Build 0)  -->
<svg version="1.1" id="_x31__x2C_5" xmlns="http://www.w3.org/2000/svg" xmlns:xlink="http://www.w3.org/1999/xlink" x="0px"
	 y="0px" viewBox="0 0 512 512" style="enable-background:new 0 0 512 512;" xml:space="preserve">
<style type="text/css">
	.st0{fill:#EFEFEF;}
	.st1{fill:#A4AFC1;}
	.st2{fill:#1999FF;}
	.st3{fill:#F3F3F1;}
	.st4{fill:#D5DBE1;}
	.st5{fill:#0E8CF1;}
</style>
<g>
	<path class="st0" d="M433.1,381.6c0-88.5,45.9-149.3,45.9-192S454.4,57.3,258.1,57.3S33.1,177.9,33.1,224.8
		C33.1,444.5,433.1,538.4,433.1,381.6z"/>
	<g>
		<path class="st1" d="M370,61.5l9-9l18.1,18.1l-9,9L370,61.5z"/>
		<path class="st1" d="M422,113.6l9-9l18.1,18.1l-9,9L422,113.6z"/>
		<path class="st1" d="M419.7,70.6l18.1-18.1l9,9l-18.1,18.1L419.7,70.6z"/>
	</g>
	<path class="st2" d="M400,373.6c0,15.9-64.5,28.8-144,28.8s-144-12.9-144-28.8v-76.8h288V373.6z"/>
	<path class="st3" d="M400,296.8c0,15.9-64.5,28.8-144,28.8s-144-12.9-144-28.8V220h288V296.8z"/>
	<path class="st2" d="M400,220c0,15.9-64.5,28.8-144,28.8S112,235.9,112,220v-76.8h288V220z"/>
	<ellipse class="st3" cx="256" cy="143.2" rx="144" ry="28.8"/>
	<path class="st4" d="M140.8,296.8V220H112v76.8c0,15.9,64.5,28.8,144,28.8c4.9,0,9.7-0.1,14.4-0.1
		C197.6,324,140.8,311.8,140.8,296.8z"/>
	<path class="st4" d="M140.8,143.2c0-14.9,56.8-27.2,129.6-28.7c-4.7-0.1-9.5-0.1-14.4-0.1c-79.5,0-144,12.9-144,28.8
		S176.5,172,256,172c4.9,0,9.7-0.1,14.4-0.1C197.6,170.4,140.8,158.2,140.8,143.2z"/>
	<path class="st5" d="M140.8,373.6v-76.8H112v76.8c0,15.9,64.5,28.8,144,28.8c4.9,0,9.7-0.1,14.4-0.1
		C197.6,400.8,140.8,388.6,140.8,373.6z"/>
	<path class="st5" d="M140.8,220v-57.6L112,143.2V220c0,15.9,64.5,28.8,144,28.8c4.9,0,9.7-0.1,14.4-0.1
		C197.6,247.2,140.8,235,140.8,220z"/>
	<path d="M256,181.6c-15.7,0-153.6-1.1-153.6-38.4s137.9-38.4,153.6-38.4c15.7,0,153.6,1.1,153.6,38.4S271.7,181.6,256,181.6z
		 M122.7,143.2c9.4,7.3,54.3,19.2,133.3,19.2s123.9-11.9,133.3-19.2C379.9,136,334.9,124,256,124S132.1,136,122.7,143.2z"/>
	<path d="M256,258.4c-15.7,0-153.6-1.1-153.6-38.4h19.2c0-0.8-0.2-1.3-0.3-1.5c4.6,7,50.2,20.7,134.7,20.7s130.2-13.7,134.7-20.7
		c-0.1,0.2-0.3,0.7-0.3,1.5h19.2C409.6,257.4,271.7,258.4,256,258.4z"/>
	<path d="M256,335.2c-15.7,0-153.6-1.1-153.6-38.4h19.2c0-0.8-0.2-1.3-0.3-1.5c4.6,7,50.2,20.7,134.7,20.7s130.2-13.7,134.7-20.7
		c-0.1,0.2-0.3,0.7-0.3,1.5h19.2C409.6,334.2,271.7,335.2,256,335.2z"/>
	<path d="M256,412c-15.7,0-153.6-1.1-153.6-38.4V143.2h19.2v229.4c6.2,7.1,51.6,20.2,134.4,20.2s128.2-13.1,134.4-20.2V143.2
		c0-5.3,4.3-9.6,9.6-9.6s9.6,4.3,9.6,9.6v230.4C409.6,411,271.7,412,256,412z"/>
	<circle cx="166.4" cy="284" r="12.8"/>
	<circle cx="166.4" cy="207.2" r="12.8"/>
	<circle cx="166.4" cy="360.8" r="12.8"/>
</g>
</svg>
