<?xml version="1.0" encoding="utf-8"?>
<!-- Generator: Adobe Illustrator 25.0.1, SVG Export Plug-In . SVG Version: 6.00 Build 0)  -->
<svg version="1.1" id="Layer_1" xmlns="http://www.w3.org/2000/svg" xmlns:xlink="http://www.w3.org/1999/xlink" x="0px" y="0px"
	 viewBox="0 0 512 512" style="enable-background:new 0 0 512 512;" xml:space="preserve">
<style type="text/css">
	.st0{fill:#304050;}
	.st1{fill:#1999FF;}
	.st2{fill:#FFFFFF;}
</style>
<g>
	<path class="st0" d="M448.5,178.8l-26.3,10.5c8.6,21.1,12.9,43.6,12.9,66.7c0,98.7-80.3,179-179,179S77,354.7,77,256
		S157.3,77,256,77c37.4,0,73.7,11.9,103.9,33.3h-13.5v28.3h51c8.3,0,14.9-7.4,14.1-15.6l-5.1-51.5l-28.3,2.8l1.5,15.2
		c-35.6-26.6-79.3-41-123.7-41C143,48.6,48.6,143,48.6,256S143,463.4,256,463.4S463.4,369,463.4,256
		C463.4,229.3,458.3,203.4,448.5,178.8z"/>
	<g>
		<g>
			<path class="st0" d="M360.6,155H151.4c-17.5,0-31.9,14.3-31.9,31.9v122.3c0,17.6,14.3,31.9,31.9,31.9h10.1v-28.3h-10.1
				c-2,0-3.5-1.6-3.5-3.5v-76.3h216.2v76.3c0,2-1.6,3.5-3.5,3.5h-7V341h7c17.5,0,31.9-14.3,31.9-31.9V186.9
				C392.4,169.3,378.1,155,360.6,155z M147.9,204.5v-17.6c0-2,1.6-3.5,3.5-3.5h209.2c2,0,3.5,1.6,3.5,3.5v17.6H147.9z"/>
		</g>
		<g>
			<ellipse class="st1" cx="255.8" cy="330.3" rx="76.6" ry="75.4"/>
			<g>
				<path class="st2" d="M265.6,295.3l-38.2,69.8h19.1l38.3-69.8H265.6z"/>
				<path class="st2" d="M287.4,319.4c-11.6,0-19.8,9.7-19.8,23.8c0.1,15.8,9.8,22.9,19.4,22.9c9.7,0,19.6-7.4,19.6-23.8
					C306.6,328.3,299,319.4,287.4,319.4L287.4,319.4z M289.2,342.5c0,4.6-1.1,7.7-2.1,7.7c-1.9,0-2.2-8-2.2-7.6
					c0-4.8,1.5-7.6,2.2-7.6C288.2,335,289.2,338.5,289.2,342.5z"/>
				<path class="st2" d="M244.5,318.1c0-13.9-7.6-22.8-19.3-22.8c-11.6,0-19.8,9.7-19.8,23.7c0.1,15.8,9.8,23,19.4,23
					C234.6,341.9,244.5,334.6,244.5,318.1z M227,318.5c0,4.6-1.1,7.7-2.1,7.7c-1.8,0-2.1-7.3-2.1-7.6c0-4.7,1.4-7.6,2.1-7.6
					C226.1,311,227,314.5,227,318.5z"/>
			</g>
		</g>
	</g>
</g>
</svg>
