<?xml version="1.0" encoding="utf-8"?>
<!-- Generator: Adobe Illustrator 25.0.1, SVG Export Plug-In . SVG Version: 6.00 Build 0)  -->
<svg version="1.1" id="Layer_1" xmlns="http://www.w3.org/2000/svg" xmlns:xlink="http://www.w3.org/1999/xlink" x="0px" y="0px"
	 viewBox="0 0 512 512" style="enable-background:new 0 0 512 512;" xml:space="preserve">
<style type="text/css">
	.st0{fill:#304050;}
	.st1{fill:#1999FF;}
</style>
<g>
	<g>
		<g>
			<path class="st0" d="M449.1,358.6h-10.6V166c0-17.6-14.3-31.9-31.9-31.9h-23.1v28.3h23.1c2,0,3.5,1.6,3.5,3.5v192.7H295.4
				c-7.8,0-14.2,6.4-14.2,14.2v14.8h-50.4v-14.8c0-7.8-6.4-14.2-14.2-14.2H101.7V166c0-2,1.6-3.5,3.5-3.5h29.4v-28.4h-29.3
				c-17.6,0-31.9,14.3-31.9,31.9v192.7H62.9c-7.8,0-14.2,6.4-14.2,14.2v58.6c0,17.5,14.3,31.9,31.9,31.9h351
				c17.5,0,31.9-14.3,31.9-31.9v-58.6C463.4,364.9,457,358.6,449.1,358.6L449.1,358.6z M435,431.5c0,2-1.6,3.5-3.5,3.5h-351
				c-2,0-3.5-1.6-3.5-3.5V387h125.5v14.8c0,7.8,6.4,14.2,14.2,14.2h78.7c7.8,0,14.2-6.4,14.2-14.2V387h125.5L435,431.5L435,431.5z"
				/>
		</g>
	</g>
	<g>
		<g>
			<path class="st0" d="M356.6,100.2H176.4l-6.9-39.8c-1.2-6.8-7.1-11.7-13.9-11.7h-46.2V77h34.2l27.6,157.7l0,0
				c1.3,6.8,7.1,11.6,13.9,11.6H327c6.5,0,12.1-4.4,13.8-10.7l29.7-117.8C372.5,109,365.7,100.2,356.6,100.2z M315.9,217.9H197
				l-15.7-89.4h157.1L315.9,217.9z"/>
		</g>
		<g>
			<g>
				<circle class="st1" cx="208.4" cy="293.8" r="26.5"/>
				<circle class="st1" cx="308.1" cy="293.8" r="26.5"/>
			</g>
			<g>
				<path class="st1" d="M212.7,146.9h28.4v52.6h-28.4V146.9z"/>
				<path class="st1" d="M274.1,146.9h28.4v52.6h-28.4V146.9z"/>
			</g>
		</g>
	</g>
</g>
</svg>
