<?xml version="1.0"?>
<svg xmlns="http://www.w3.org/2000/svg" xmlns:xlink="http://www.w3.org/1999/xlink" xmlns:svgjs="http://svgjs.com/svgjs" version="1.1" width="512" height="512" x="0" y="0" viewBox="0 0 512.00011 512" style="enable-background:new 0 0 512 512" xml:space="preserve" class=""><g><path xmlns="http://www.w3.org/2000/svg" d="m338.570312 180.601562c5.839844-7.792968 13.96875-10.421874 32.214844-10.421874h81.230469c5.570313 1.578124 10.460937 4.742187 14.195313 9.199218l23.179687 27.617188c3.289063 3.917968 9.003906 4.722656 13.25 1.863281 4.242187-2.859375 5.640625-8.460937 3.242187-12.980469l-20.25-38.164062c-.425781-.804688-.882812-1.589844-1.332031-2.378906l.261719-10.78125c.164062-6.804688-.613281-13.582032-2.3125-20.15625-6.03125-23.332032-23.617188-42.054688-47.046875-50.085938l-84.632813-29.011719v-12.855469c0-8.167968-4.554687-15.484374-11.882812-19.09375l-22.628906-11.140624c-8.449219-4.160157-18.460938-2.339844-24.910156 4.523437l-15.253907 16.234375c-4.535156-4.714844-10.902343-7.65625-17.949219-7.65625-13.746093 0-24.929687 11.183594-24.929687 24.933594 0 13.746094 11.183594 24.929687 24.929687 24.929687 6.21875 0 11.910157-2.292969 16.28125-6.074219l16.726563 22.023438c-.417969.789062-.792969 1.597656-1.121094 2.433594-3.109375-.105469-6.179687.308594-9.085937.816406l-63.261719 10.460938c-2.742187.449218-5.539063.679687-8.3125.679687h-47.632813c-5.523437 0-10 4.480469-10 10 0 5.523437 4.476563 10 10 10h47.632813c3.863281 0 7.757813-.316406 11.574219-.949219l63.351562-10.472656c4.699219-.820312 5.832032-.488281 5.917969-.460938 0 0 .332031.195313 1.054687 1.082032l19.902344 24.332031-53.792968 20.761719c-4.40625 1.699218-8.980469 2.773437-13.648438 3.203125-1.558594.140625-3.125.214843-4.699219.214843h-36.535156c-7.277344-6.71875-15.6875-12.265624-24.964844-16.359374-7.96875-3.527344-16.464843-6.074219-25.113281-7.1875-4.570312-.617188-9.230469-.898438-13.96875-.816407-.09375 0-.183594-.003906-.277344-.003906h-75.347656v-11.933594c0-.777343.632812-1.410156 1.410156-1.410156h21.503906c5.519532 0 10-4.476563 10-10s-4.480468-10-10-10h-21.503906c-11.804687 0-21.410156 9.605469-21.410156 21.410156v11.933594h-17.722656c-7.863282 0-17.652344 0-20.5 8.335937-1.449219 4.238282.007812 8.96875 3.628906 11.769532l29.585938 22.898437c5.074218 3.925781 11.40625 6.089844 17.824218 6.089844h75.964844c6.640625 0 13.246094.929687 19.632812 2.769531 19.832032 5.710938 36.148438 19.726563 44.789063 38.464844l39.34375 95.917969c1.507813 3.71875 5.25 6.238281 9.265625 6.238281h35.867188c5.523437 0 10-4.476562 10-10v-.300781c.105468-57.601563 30.269531-106.4375 48.265624-130.441407zm124.316407-51.199218c.136719.53125.265625 1.066406.386719 1.601562-3.460938-2.710937-7.148438-5.140625-11.019532-7.289062-4-2.230469-8.199218-4.144532-12.511718-5.691406-3.789063-1.359376-8.007813-2.570313-12.539063-3.605469-5.378906-1.226563-10.746094 2.136719-11.972656 7.523437-1.230469 5.382813 2.136719 10.746094 7.519531 11.972656 3.753906.859376 7.195312 1.84375 10.234375 2.933594 3.371094 1.394532 6.695313 2.734375 9.882813 4.53125 4.421874 2.496094 8.523437 5.515625 12.230468 8.964844-.589844-.105469-1.191406-.164062-1.792968-.164062l-82.519532-.003907c-16.644531 0-35.472656 1.425781-48.21875 18.425781-9.398437 12.539063-21.863281 31.363282-32.261718 54.609376v-4.21875c0-19.578126 7-38.625 19.71875-53.636719.238281-.28125.472656-.550781.707031-.828125.449219-.527344.898437-1.050782 1.34375-1.566406.203125-.234376.40625-.46875.609375-.699219 8.539062-9.78125 16.355468-17.269531 22.800781-21.871094 2.105469-1.5 4.316406-2.90625 6.6875-3.953125 1.492187-.65625 4.308594-1.660156 9.308594-2.738281 5.394531-1.164063 8.828125-6.484375 7.664062-11.882813-1.164062-5.398437-6.484375-8.832031-11.882812-7.667968-5.367188 1.160156-9.808594 2.507812-13.210938 4.007812-1.421875.632812-2.871093 1.359375-4.34375 2.199219l-20.609375-25.203125c-.984375-1.199219-1.007812-2.484375-.933594-3.148438.074219-.660156.378907-1.910156 1.597657-2.863281l32.6875-25.484375 86.269531 29.574219c17.050781 5.847656 29.824219 19.367187 34.167969 36.171875zm-204.941407-84.226563c-2.71875 0-4.929687-2.210937-4.929687-4.929687s2.210937-4.933594 4.929687-4.933594 4.929688 2.214844 4.929688 4.933594-2.210938 4.929687-4.929688 4.929687zm47.78125-24.746093c.386719-.414063.992188-.523438 1.5-.273438l22.625 11.140625c.4375.210937.71875.664063.71875 1.148437v15.117188l-22.476562 17.523438-2.640625 2.058593-19.496094-25.667969zm-41.347656 148.035156 25.542969-9.855469c-9.902344 13.671875-16.261719 29.675781-18.636719 46.375-.660156 4.628906-.988281 9.332031-.988281 14.011719v82.347656h-17.886719l-23.597656-103.25c-.515625-2.292969-1.234375-4.5625-1.976562-6.789062-2.117188-6.375-4.902344-12.429688-8.289063-18.078126h20.285156c8.769531 0 17.367188-1.601562 25.546875-4.761718zm-107.804687-6.960938c-8.183594-2.355468-16.652344-3.550781-25.167969-3.550781h-75.964844c-2.011718 0-3.996094-.679687-5.585937-1.910156l-9.285157-7.183594h12.058594c.007813 0 .019532.003906.027344.003906h85.316406c.03125 0 .066406-.003906.097656-.003906 4.125.003906 7.652344.175781 10.941407.566406 7.664062.972657 15.414062 3.238281 22.339843 6.699219 7.320313 3.535156 14.042969 8.332031 19.742188 14.117188 7.730469 7.847656 13.519531 17.394531 16.921875 27.835937.363281 1.128906.695313 2.269531 1.007813 3.417969-11.792969-19.324219-30.429688-33.652344-52.449219-39.992188zm0 0" fill="#ffffff" data-original="#000000" style=""/><path xmlns="http://www.w3.org/2000/svg" d="m106.269531 229.375c-15.75 0-30.558593 6.132812-41.695312 17.269531s-17.269531 25.945313-17.269531 41.695313c0 32.515625 26.453124 58.964844 58.964843 58.964844 32.515625 0 58.964844-26.449219 58.964844-58.960938 0-32.515625-26.453125-58.96875-58.964844-58.96875zm0 97.933594c-21.484375-.003906-38.964843-17.484375-38.964843-38.96875 0-10.40625 4.050781-20.191406 11.410156-27.554688 7.359375-7.355468 17.148437-11.410156 27.554687-11.410156 21.484375 0 38.964844 17.480469 38.964844 38.96875 0 21.484375-17.480469 38.964844-38.964844 38.964844zm0 0" fill="#ffffff" data-original="#000000" style=""/><path xmlns="http://www.w3.org/2000/svg" d="m410.253906 229.375s0 0-.003906 0c-15.746094 0-30.554688 6.132812-41.691406 17.269531-11.136719 11.136719-17.269532 25.945313-17.269532 41.695313 0 32.515625 26.449219 58.964844 58.964844 58.964844 32.511719 0 58.964844-26.449219 58.964844-58.960938 0-32.515625-26.453125-58.96875-58.964844-58.96875zm0 97.933594c-21.484375-.003906-38.964844-17.484375-38.964844-38.96875 0-10.40625 4.050782-20.191406 11.410157-27.554688 7.363281-7.355468 17.144531-11.410156 27.554687-11.410156 21.484375 0 38.964844 17.480469 38.964844 38.96875 0 21.484375-17.480469 38.964844-38.964844 38.964844zm0 0" fill="#ffffff" data-original="#000000" style=""/><path xmlns="http://www.w3.org/2000/svg" d="m204.949219 269.871094c-.796875-.316406-1.613281-.515625-2.425781-.621094-3.074219-15.53125-9.824219-29.753906-19.304688-41.726562l-7.214844-17.179688c-2.140625-5.09375-8-7.488281-13.09375-5.347656-.9375.394531-1.78125.914062-2.523437 1.535156-12.625-8.378906-27.285157-13.914062-43.074219-15.691406l-16.789062-7.34375c-5.0625-2.210938-10.957032.09375-13.167969 5.15625-.507813 1.160156-.769531 2.363281-.820313 3.558594-15.269531 3.128906-29.257812 9.820312-41.054687 19.160156l-17.339844 6.332031c-5.1875 1.898437-7.855469 7.640625-5.960937 12.824219.515624 1.414062 1.324218 2.636718 2.320312 3.632812-8.269531 12.441406-13.777344 26.863282-15.644531 42.394532l-7.878907 16.511718c-2.378906 4.984375-.265624 10.953125 4.71875 13.332032 1.390626.660156 2.855469.976562 4.300782.976562 0 0 .003906-.003906.007812-.003906 3.007813 15.234375 9.546875 29.210937 18.734375 41.039062l6.3125 17.324219c1.480469 4.0625 5.3125 6.578125 9.394531 6.578125 1.136719 0 2.292969-.191406 3.425782-.605469 1.320312-.480469 2.472656-1.214843 3.4375-2.121093 12.453125 8.453124 26.941406 14.121093 42.566406 16.097656l16.832031 7.363281c1.304688.570313 2.664063.839844 4.003907.839844 3.851562 0 7.523437-2.238281 9.167968-5.992188.453125-1.035156.707032-2.105469.792969-3.171875 15.558594-2.964844 29.828125-9.609375 41.859375-19l16.960938-7.039062c5.101562-2.117188 7.519531-7.96875 5.402343-13.070313-.355469-.855469-.824219-1.628906-1.371093-2.328125 8.609374-12.6875 14.320312-27.488281 16.191406-43.449218l6.792968-16.960938c2.058594-5.128906-.433593-10.945312-5.558593-13.003906zm-98.679688 96.59375c-43.078125 0-78.125-35.046875-78.125-78.125s35.046875-78.125 78.125-78.125 78.125 35.046875 78.125 78.125-35.046875 78.125-78.125 78.125zm0 0" fill="#ffffff" data-original="#000000" style=""/><path xmlns="http://www.w3.org/2000/svg" d="m508.246094 299.429688c-.667969-.539063-1.390625-.960938-2.140625-1.300782 1.554687-15.757812-.785157-31.324218-6.390625-45.527344l-1.929688-18.535156c-.574218-5.492187-5.492187-9.472656-10.984375-8.910156-1.011719.105469-1.96875.359375-2.859375.738281-9.65625-11.675781-22.089844-21.21875-36.6875-27.492187l-13.941406-11.890625c-4.199219-3.585938-10.511719-3.085938-14.097656 1.117187-.820313.964844-1.417969 2.042969-1.8125 3.171875-15.523438-1.425781-30.84375.925781-44.84375 6.449219l-18.433594 1.042969c-5.511719.3125-9.730469 5.035156-9.417969 10.546875.085938 1.503906.507813 2.902344 1.171875 4.148437-11.519531 9.511719-20.96875 21.722657-27.253906 36.046875l-12.324219 13.523438c-3.71875 4.082031-3.425781 10.40625.65625 14.125 1.136719 1.035156 2.445313 1.75 3.820313 2.167968-1.539063 15.226563.519531 30.546876 6.078125 44.910157l1.015625 18.21875c.296875 5.324219 4.707031 9.445312 9.976562 9.445312.1875 0 .375-.007812.5625-.015625 1.390625-.078125 2.691406-.4375 3.863282-1.011718 9.660156 11.941406 21.960937 21.378906 36.074218 27.664062l14.03125 11.96875c1.882813 1.605469 4.1875 2.390625 6.484375 2.390625 2.824219 0 5.632813-1.191406 7.613281-3.507813.730469-.859374 1.28125-1.808593 1.675782-2.800781 3.429687.359375 6.847656.546875 10.246094.546875 12.207031 0 24.152343-2.316406 35.277343-6.613281l18.320313-1.828125c5.496094-.550781 9.503906-5.449219 8.957031-10.945312-.09375-.929688-.320313-1.808594-.644531-2.640626 11.90625-9.644531 21.65625-22.140624 28.070312-36.863281l11.429688-14.285156c3.449218-4.3125 2.75-10.605469-1.5625-14.054687zm-122.421875 63.871093c-19.972657-6.042969-36.398438-19.5-46.25-37.898437-9.847657-18.394532-11.945313-39.527344-5.902344-59.5 10.203125-33.71875 41.277344-55.507813 74.820313-55.507813 7.46875 0 15.066406 1.082031 22.582031 3.355469 41.230469 12.476562 64.625 56.167969 52.152343 97.398438-12.476562 41.234374-56.171874 64.628906-97.402343 52.152343zm0 0" fill="#ffffff" data-original="#000000" style=""/><path xmlns="http://www.w3.org/2000/svg" d="m381.988281 128.65625c3.503907 2.328125 8.183594 2.199219 11.550781-.316406 3.320313-2.480469 4.78125-6.929688 3.566407-10.898438-1.195313-3.894531-4.699219-6.710937-8.757813-7.054687-4.214844-.355469-8.300781 2.101562-9.972656 5.980469-1.882812 4.359374-.382812 9.667968 3.613281 12.289062zm0 0" fill="#ffffff" data-original="#000000" style=""/><path xmlns="http://www.w3.org/2000/svg" d="m114.3125 109.335938c1.558594 3.800781 5.441406 6.308593 9.542969 6.175781 4.015625-.128907 7.617187-2.730469 9.035156-6.476563 1.5-3.953125.269531-8.570312-3.003906-11.246094-3.332031-2.722656-8.140625-2.984374-11.757813-.671874-4.011718 2.570312-5.648437 7.824218-3.816406 12.21875zm0 0" fill="#ffffff" data-original="#000000" style=""/></g></svg>
