<?xml version="1.0"?>
<svg xmlns="http://www.w3.org/2000/svg" xmlns:xlink="http://www.w3.org/1999/xlink" xmlns:svgjs="http://svgjs.com/svgjs" version="1.1" width="512" height="512" x="0" y="0" viewBox="0 0 512 512.00135" style="enable-background:new 0 0 512 512" xml:space="preserve" class=""><g><path xmlns="http://www.w3.org/2000/svg" d="m107.054688 176.710938h49.183593l55.703125-.003907c22.566406 0 40.921875-18.355469 40.921875-40.921875 0-10.929687-4.253906-21.207031-11.984375-28.933594-7.726562-7.730468-18.003906-11.988281-28.933594-11.988281-5.679687 0-11.265624 1.191407-16.40625 3.4375-9.128906-12.226562-23.609374-19.695312-39.300781-19.695312-18.351562 0-34.992187 10.363281-43.359375 26.144531-1.910156-.308594-3.855468-.464844-5.824218-.464844-19.96875 0-36.210938 16.246094-36.210938 36.210938 0 9.671875 3.765625 18.769531 10.605469 25.605468 6.835937 6.839844 15.929687 10.609376 25.605469 10.609376zm0-52.425782c2.519531 0 4.933593.5625 7.179687 1.675782 2.664063 1.320312 5.777344 1.386718 8.492187.183593 2.71875-1.207031 4.757813-3.558593 5.570313-6.417969 3.519531-12.4375 15.011719-21.121093 27.945313-21.121093 11.574218 0 22.035156 6.867187 26.652343 17.488281 1.257813 2.894531 3.808594 5.027344 6.882813 5.75 3.070312.722656 6.304687-.050781 8.722656-2.078125 3.757812-3.160156 8.53125-4.898437 13.445312-4.898437 5.585938 0 10.839844 2.175781 14.792969 6.125 3.953125 3.953124 6.125 9.207031 6.125 14.796874 0 11.535157-9.382812 20.921876-20.921875 20.921876h-104.886718c-4.332032 0-8.402344-1.6875-11.464844-4.75-3.0625-3.058594-4.746094-7.132813-4.746094-11.460938 0-8.941406 7.273438-16.214844 16.210938-16.214844zm0 0" fill="#ffffff" data-original="#000000" style="" class=""/><path xmlns="http://www.w3.org/2000/svg" d="m498.894531 506.136719c.160157-.347657.292969-.707031.410157-1.074219.03125-.101562.058593-.207031.089843-.308594.078125-.273437.144531-.546875.199219-.828125.019531-.109375.042969-.21875.0625-.332031.050781-.328125.089844-.660156.109375-.996094.003906-.042968.011719-.085937.011719-.132812.019531-.390625.011718-.785156-.015625-1.179688-.003907-.0625-.015625-.125-.019531-.191406-.027344-.320312-.074219-.636719-.132813-.957031-.019531-.105469-.042969-.207031-.066406-.308594-.0625-.289063-.140625-.574219-.230469-.855469-.035156-.101562-.0625-.203125-.097656-.300781-.128906-.367187-.277344-.734375-.453125-1.09375l-56.039063-113.753906c-2.441406-4.957031-8.4375-6.992188-13.390625-4.554688-4.953125 2.441407-6.992187 8.4375-4.550781 13.390625l.472656.964844c.003906.003906.003906.003906.003906.003906l48.457032 98.367188h-218.425782l-17.589843-35.707032-83.773438-170.050781-6.140625-12.460937c71.515625 13.492187 146.054688 12.65625 217.1875-2.519532l6.660156 13.519532 19.757813 40.105468c2.4375 4.953126 8.433594 6.992188 13.390625 4.550782 4.953125-2.441406 6.988281-8.4375 4.550781-13.390625l-.515625-1.046875c0-.003906-.003906-.007813-.003906-.007813l-23.121094-46.929687-4.0625-8.246094 15.828125-32.003906c2.449219-4.953125.421875-10.949219-4.53125-13.398438-4.949219-2.449218-10.945312-.417968-13.394531 4.53125l-9.035156 18.269532-8.992188-18.253907c-2.441406-4.953125-8.4375-6.992187-13.390625-4.554687-4.953125 2.441406-6.992187 8.4375-4.550781 13.390625l12.277344 24.925781c-69.40625 14.101562-142.015625 14.101562-211.429688.007812l12.328125-24.921874c2.449219-4.949219.417969-10.949219-4.53125-13.394532-4.953125-2.449218-10.949219-.421875-13.398437 4.527344l-9.035156 18.273438-8.996094-18.257813c-2.4375-4.953125-8.433594-6.992187-13.390625-4.550781-4.953125 2.441406-6.992188 8.4375-4.550781 13.390625l15.765624 32-54.667968 110.539062h-13.980469c-2.9375 0-5.726563 1.292969-7.625 3.53125-1.902344 2.242188-2.71875 5.207031-2.238281 8.105469l4.542968 27.382812-43.621093 88.214844c-3.238281 6.542969 1.71875 14.433594 8.984375 14.433594h239.066406.011719.035156 240.664063.027343c.40625 0 .8125-.03125 1.222657-.078125.097656-.011719.191406-.035156.289062-.050781.296875-.046875.59375-.097656.890625-.171875.140625-.035157.277344-.082031.417969-.121094.242187-.074219.480468-.148437.71875-.238281.164062-.0625.320312-.132813.480468-.203125.128907-.058594.261719-.101563.390626-.167969.089843-.042969.171874-.097656.261718-.144531.117188-.0625.230469-.125.347656-.191407.242188-.144531.480469-.292968.707032-.453124.082031-.058594.167968-.117188.253906-.175782.636719-.476562 1.203125-1.019531 1.699219-1.613281.050781-.066406.101562-.132813.152343-.195313.195313-.25.378907-.507812.550782-.773437.03125-.050781.070312-.089844.101562-.140625.019532-.035156.035156-.074219.058594-.109375.1875-.3125.363281-.632813.515625-.960937.007813-.027344.023437-.050782.035156-.074219zm-358.707031-14.140625v-68.90625l34.097656 68.90625zm-78.4375-101.664063h52.351562l-39.175781 79.382813zm-35.675781 101.667969 7.226562-14.609375 16.9375-34.253906 8.109375 48.863281zm94.113281-68.804688v68.804688h-33.957031zm76.410156 68.804688-57.445312-116.105469c-1.660156-3.355469-5.210938-5.566406-8.957032-5.566406h-43.949218l43.488281-87.933594 15.292969 31.046875 87.960937 178.558594zm0 0" fill="#ffffff" data-original="#000000" style="" class=""/><path xmlns="http://www.w3.org/2000/svg" d="m343.695312 95.945312c8.863282 5.808594 18.84375 8.585938 28.722657 8.585938 17.136719 0 33.953125-8.355469 44.03125-23.726562 15.886719-24.230469 9.097656-56.871094-15.128907-72.753907-6.199218-4.0625-13.023437-6.726562-20.289062-7.917969-3.890625-.640624-7.792969 1.070313-9.964844 4.363282-2.167968 3.289062-2.203125 7.550781-.085937 10.875 6.890625 10.824218 6.800781 24.75-.226563 35.476562-7.03125 10.722656-19.765625 16.363282-32.441406 14.355469-3.894531-.609375-7.785156 1.113281-9.9375 4.417969-2.152344 3.304687-2.164062 7.5625-.027344 10.875 3.984375 6.1875 9.148438 11.382812 15.347656 15.449218zm43.78125-34.132812c6.398438-9.761719 9.230469-21.164062 8.488282-32.386719 10.289062 10.695313 12.234375 27.484375 3.757812 40.414063-8.476562 12.929687-24.648437 17.84375-38.558594 12.671875 10.585938-3.792969 19.914063-10.9375 26.3125-20.699219zm0 0" fill="#ffffff" data-original="#000000" style="" class=""/><path xmlns="http://www.w3.org/2000/svg" d="m320.542969 176.953125c1.609375 3.859375 5.535156 6.351563 9.71875 6.15625 4.125-.195313 7.746093-3.011719 9.023437-6.925781 1.289063-3.953125-.117187-8.472656-3.425781-10.992188-3.378906-2.574218-8.097656-2.71875-11.636719-.378906-3.945312 2.605469-5.460937 7.789062-3.679687 12.140625zm0 0" fill="#ffffff" data-original="#000000" style="" class=""/><path xmlns="http://www.w3.org/2000/svg" d="m434.453125 141.339844c1.601563 3.839844 5.546875 6.375 9.71875 6.15625 4.125-.214844 7.746094-3 9.023437-6.925782 1.285157-3.953124-.113281-8.472656-3.425781-10.988281-3.382812-2.574219-8.09375-2.722656-11.636719-.378906-3.945312 2.605469-5.464843 7.785156-3.679687 12.136719zm0 0" fill="#ffffff" data-original="#000000" style="" class=""/><path xmlns="http://www.w3.org/2000/svg" d="m219.832031 49.742188c1.625 3.894531 5.65625 6.449218 9.886719 6.15625 4.160156-.289063 7.777344-3.183594 8.945312-7.1875 1.117188-3.847657-.234374-8.136719-3.378906-10.625-3.375-2.664063-8.191406-2.871094-11.773437-.484376-3.917969 2.609376-5.488281 7.792969-3.679688 12.140626zm0 0" fill="#ffffff" data-original="#000000" style="" class=""/><path xmlns="http://www.w3.org/2000/svg" d="m43.164062 79.359375c1.605469 3.855469 5.53125 6.359375 9.703126 6.160156 4.066406-.199219 7.6875-2.914062 8.996093-6.773437 1.324219-3.894532.0625-8.335938-3.125-10.941406-3.371093-2.757813-8.265625-2.996094-11.894531-.585938-3.917969 2.605469-5.488281 7.800781-3.679688 12.140625zm0 0" fill="#ffffff" data-original="#000000" style="" class=""/><path xmlns="http://www.w3.org/2000/svg" d="m422.332031 346.269531c-3.578125-2.378906-8.394531-2.179687-11.765625.480469-3.367187 2.660156-4.648437 7.351562-3.136718 11.355469 1.453124 3.847656 5.234374 6.480469 9.351562 6.484375 4.050781.003906 7.804688-2.566406 9.296875-6.328125 1.703125-4.300781.148437-9.441407-3.746094-11.992188zm0 0" fill="#ffffff" data-original="#000000" style="" class=""/></g></svg>
