<?xml version="1.0" encoding="utf-8"?>
<!-- Generator: Adobe Illustrator 25.0.1, SVG Export Plug-In . SVG Version: 6.00 Build 0)  -->
<svg version="1.1" id="Layer_1" xmlns="http://www.w3.org/2000/svg" xmlns:xlink="http://www.w3.org/1999/xlink" x="0px" y="0px"
	 viewBox="0 0 225 65" style="enable-background:new 0 0 225 65;" xml:space="preserve">
<style type="text/css">
	.st0{opacity:0.15;}
	.st1{fill:#304050;}
</style>
<g class="st0">
	<path class="st1" d="M46.1,8.5c1.7,0,3,1.3,3,3v42c0,1.7-1.3,3-3,3h-42c-1.7,0-3-1.3-3-3v-42c0-1.7,1.3-3,3-3H46.1 M46.1,7.5h-42
		c-2.2,0-4,1.8-4,4v42c0,2.2,1.8,4,4,4h42c2.2,0,4-1.8,4-4v-42C50.1,9.3,48.3,7.5,46.1,7.5L46.1,7.5z"/>
</g>
<g>
	<path class="st1" d="M104,8.5c1.7,0,3,1.3,3,3v42c0,1.7-1.3,3-3,3H62c-1.7,0-3-1.3-3-3v-42c0-1.7,1.3-3,3-3H104 M104,7.5H62
		c-2.2,0-4,1.8-4,4v42c0,2.2,1.8,4,4,4h42c2.2,0,4-1.8,4-4v-42C108,9.3,106.2,7.5,104,7.5L104,7.5z"/>
</g>
<g class="st0">
	<path class="st1" d="M162,8.5c1.7,0,3,1.3,3,3v42c0,1.7-1.3,3-3,3h-42c-1.7,0-3-1.3-3-3v-42c0-1.7,1.3-3,3-3H162 M162,7.5h-42
		c-2.2,0-4,1.8-4,4v42c0,2.2,1.8,4,4,4h42c2.2,0,4-1.8,4-4v-42C166,9.3,164.2,7.5,162,7.5L162,7.5z"/>
</g>
<g class="st0">
	<path class="st1" d="M221,8.5c1.7,0,3,1.3,3,3v42c0,1.7-1.3,3-3,3h-42c-1.7,0-3-1.3-3-3v-42c0-1.7,1.3-3,3-3H221 M221,7.5h-42
		c-2.2,0-4,1.8-4,4v42c0,2.2,1.8,4,4,4h42c2.2,0,4-1.8,4-4v-42C225,9.3,223.2,7.5,221,7.5L221,7.5z"/>
</g>
<g>
	<path class="st1" d="M28.6,36.7c-0.3,0.5-0.8,1-1.4,1.3c-0.6,0.3-1.4,0.5-2.3,0.5c-0.9,0-1.7-0.2-2.4-0.5c-0.7-0.3-1.3-0.7-1.7-1.3
		c-0.4-0.6-0.7-1.2-0.7-2h2.7c0.1,0.5,0.3,0.9,0.6,1.3c0.4,0.3,0.8,0.5,1.4,0.5c0.5,0,0.9-0.1,1.2-0.4c0.3-0.3,0.4-0.6,0.4-1.1
		c0-0.4-0.1-0.7-0.3-1s-0.5-0.5-0.9-0.6c-0.3-0.2-0.8-0.3-1.4-0.5c-0.8-0.3-1.4-0.5-1.9-0.8c-0.5-0.3-0.9-0.6-1.3-1.1
		c-0.4-0.5-0.5-1.1-0.5-1.9c0-1.1,0.4-2,1.2-2.6c0.8-0.6,1.8-0.9,3.1-0.9c1.3,0,2.4,0.3,3.2,1c0.8,0.6,1.3,1.5,1.4,2.6h-2.7
		c-0.1-0.5-0.3-0.8-0.6-1.1c-0.3-0.3-0.7-0.4-1.3-0.4c-0.5,0-0.8,0.1-1.1,0.4c-0.3,0.2-0.4,0.6-0.4,1.1c0,0.4,0.1,0.7,0.3,0.9
		c0.2,0.2,0.5,0.4,0.8,0.6c0.3,0.2,0.8,0.3,1.4,0.5c0.8,0.3,1.5,0.6,2,0.8c0.5,0.3,0.9,0.6,1.3,1.1c0.4,0.5,0.5,1.2,0.5,2
		C29.1,35.6,28.9,36.2,28.6,36.7z"/>
</g>
<g>
	<path class="st1" d="M90.7,25.7v12.6h-2.5v-8.8l-3.2,8.8h-2.2l-3.2-8.7v8.7H77V25.7h3.1l3.8,9.4l3.7-9.4H90.7z"/>
</g>
<g>
	<path class="st1" d="M140.3,36.4h4.3v1.9h-6.8V25.7h2.5V36.4z"/>
</g>
<g>
	<path class="st1" d="M201.1,38.4l-2.9-4.3l-2.5,4.3h-2.9l4-6.5l-4.1-6.2h3l2.8,4.2l2.5-4.2h2.9l-4,6.4l4.2,6.3H201.1z"/>
	<path class="st1" d="M208,36.4h4.3v1.9h-6.8V25.7h2.5V36.4z"/>
</g>
</svg>
