<svg id="Layer_1" data-name="Layer 1" xmlns="http://www.w3.org/2000/svg" viewBox="0 0 211 65"><defs><style>.cls-1{opacity:0.15;}.cls-2{fill:#304050;}.cls-3{fill:#e3e3e4;}.cls-4{fill:none;stroke:#304050;stroke-miterlimit:10;}</style></defs><g class="cls-1"><path class="cls-2" d="M68,1a3,3,0,0,1,3,3V61a3,3,0,0,1-3,3H11a3,3,0,0,1-3-3V4a3,3,0,0,1,3-3H68m0-1H11A4,4,0,0,0,7,4V61a4,4,0,0,0,4,4H68a4,4,0,0,0,4-4V4a4,4,0,0,0-4-4Z" transform="translate(-7)"/></g><path class="cls-2" d="M141,1a3,3,0,0,1,3,3V61a3,3,0,0,1-3,3H84a3,3,0,0,1-3-3V4a3,3,0,0,1,3-3h57m0-1H84a4,4,0,0,0-4,4V61a4,4,0,0,0,4,4h57a4,4,0,0,0,4-4V4a4,4,0,0,0-4-4Z" transform="translate(-7)"/><g class="cls-1"><path class="cls-2" d="M214,1a3,3,0,0,1,3,3V61a3,3,0,0,1-3,3H157a3,3,0,0,1-3-3V4a3,3,0,0,1,3-3h57m0-1H157a4,4,0,0,0-4,4V61a4,4,0,0,0,4,4h57a4,4,0,0,0,4-4V4a4,4,0,0,0-4-4Z" transform="translate(-7)"/></g><rect class="cls-3" x="4" y="4" width="57" height="57" rx="4"/><rect class="cls-3" x="77" y="4" width="57" height="57" rx="4"/><rect class="cls-3" x="150" y="4" width="57" height="57" rx="4"/><line class="cls-4" x1="18" y1="18.02" x2="46" y2="46.02"/><line class="cls-4" x1="18" y1="46.02" x2="46" y2="18.02"/><line class="cls-4" x1="91.94" y1="18.02" x2="119.94" y2="46.02"/><line class="cls-4" x1="91.94" y1="46.02" x2="119.94" y2="18.02"/><line class="cls-4" x1="164.94" y1="18.02" x2="192.94" y2="46.02"/><line class="cls-4" x1="164.94" y1="46.02" x2="192.94" y2="18.02"/></svg>