<?xml version="1.0" encoding="utf-8"?>
<!-- Generator: Adobe Illustrator 25.0.1, SVG Export Plug-In . SVG Version: 6.00 Build 0)  -->
<svg version="1.1" id="Layer_1" xmlns="http://www.w3.org/2000/svg" xmlns:xlink="http://www.w3.org/1999/xlink" x="0px" y="0px"
	 viewBox="0 0 225 65" style="enable-background:new 0 0 225 65;" xml:space="preserve">
<style type="text/css">
	.st0{opacity:0.15;}
	.st1{fill:#304050;}
	.st2{fill:#28B463;}
	.st3{fill:#F5B041;}
	.st4{fill:#E74C3C;}
	.st5{fill:#3498DB;}
</style>
<g class="st0">
	<path class="st1" d="M25,8.5c13.3,0,24,10.7,24,24s-10.7,24-24,24S1,45.8,1,32.5S11.7,8.5,25,8.5 M25,7.5c-13.8,0-25,11.2-25,25
		s11.2,25,25,25s25-11.2,25-25S38.8,7.5,25,7.5z"/>
</g>
<path class="st1" d="M83,8.5c13.3,0,24,10.7,24,24s-10.7,24-24,24s-24-10.7-24-24S69.7,8.5,83,8.5 M83,7.5c-13.8,0-25,11.2-25,25
	s11.2,25,25,25s25-11.2,25-25S96.8,7.5,83,7.5z"/>
<g class="st0">
	<path class="st1" d="M141,8.5c13.3,0,24,10.7,24,24s-10.7,24-24,24s-24-10.7-24-24S127.7,8.5,141,8.5 M141,7.5
		c-13.8,0-25,11.2-25,25s11.2,25,25,25s25-11.2,25-25S154.8,7.5,141,7.5z"/>
</g>
<g class="st0">
	<path class="st1" d="M200,8.5c13.3,0,24,10.7,24,24s-10.7,24-24,24s-24-10.7-24-24S186.7,8.5,200,8.5 M200,7.5
		c-13.8,0-25,11.2-25,25s11.2,25,25,25s25-11.2,25-25S213.8,7.5,200,7.5z"/>
</g>
<circle class="st2" cx="25" cy="32.5" r="19"/>
<circle class="st3" cx="83" cy="32.5" r="19"/>
<circle class="st4" cx="141" cy="32.5" r="19"/>
<circle class="st5" cx="200" cy="32.5" r="19"/>
</svg>
