<?xml version="1.0" encoding="utf-8"?>
<!-- Generator: Adobe Illustrator 25.0.1, SVG Export Plug-In . SVG Version: 6.00 Build 0)  -->
<svg version="1.1" id="Layer_1" xmlns="http://www.w3.org/2000/svg" xmlns:xlink="http://www.w3.org/1999/xlink" x="0px" y="0px"
	 viewBox="0 0 225 65" style="enable-background:new 0 0 225 65;" xml:space="preserve">
<style type="text/css">
	.st0{opacity:0.15;}
	.st1{fill:#304050;}
	.st2{fill:none;}
	.st3{fill:none;stroke:#304050;stroke-width:2;stroke-miterlimit:10;}
</style>
<g class="st0">
	<path class="st1" d="M221,8.5c1.7,0,3,1.3,3,3v42c0,1.7-1.3,3-3,3H4c-1.7,0-3-1.3-3-3v-42c0-1.7,1.3-3,3-3H221 M221,7.5H4
		c-2.2,0-4,1.8-4,4v42c0,2.2,1.8,4,4,4h217c2.2,0,4-1.8,4-4v-42C225,9.3,223.2,7.5,221,7.5L221,7.5z"/>
</g>
<g>
	<path class="st1" d="M19.9,27.2c0.8,0.6,1.3,1.5,1.6,2.6h-2.1c-0.2-0.5-0.5-1-1-1.3c-0.5-0.3-1-0.5-1.6-0.5c-0.5,0-1,0.1-1.4,0.4
		s-0.7,0.6-1,1.1s-0.4,1.1-0.4,1.7c0,0.6,0.1,1.2,0.4,1.7s0.6,0.9,1,1.1s0.9,0.4,1.4,0.4c0.6,0,1.2-0.2,1.6-0.5s0.8-0.7,1-1.3h2.1
		c-0.3,1.1-0.8,2-1.6,2.6c-0.8,0.6-1.8,1-3.1,1c-0.9,0-1.8-0.2-2.5-0.6c-0.7-0.4-1.3-1-1.7-1.8c-0.4-0.8-0.6-1.6-0.6-2.6
		c0-1,0.2-1.9,0.6-2.6c0.4-0.8,1-1.4,1.7-1.8c0.7-0.4,1.6-0.6,2.5-0.6C18.1,26.2,19.1,26.5,19.9,27.2z"/>
	<path class="st1" d="M29.8,29.2c0.5,0.6,0.8,1.4,0.8,2.5v4.5h-2v-4.3c0-0.6-0.2-1.1-0.5-1.4S27.4,30,26.8,30c-0.6,0-1,0.2-1.3,0.5
		S25,31.4,25,32.1v4.1h-2V25.8h2V30c0.2-0.5,0.5-0.9,1-1.2c0.5-0.3,1-0.4,1.6-0.4C28.5,28.3,29.2,28.6,29.8,29.2z"/>
	<path class="st1" d="M37.9,28.8c0.6,0.3,1.1,0.8,1.4,1.4c0.3,0.6,0.5,1.3,0.5,2.1s-0.2,1.5-0.5,2.1s-0.8,1.1-1.4,1.4
		c-0.6,0.3-1.3,0.5-2,0.5s-1.4-0.2-2-0.5c-0.6-0.3-1.1-0.8-1.4-1.4s-0.5-1.3-0.5-2.1s0.2-1.5,0.5-2.1c0.3-0.6,0.8-1.1,1.4-1.4
		s1.3-0.5,2-0.5S37.3,28.5,37.9,28.8z M34.5,30.6c-0.4,0.4-0.6,0.9-0.6,1.7s0.2,1.3,0.6,1.7c0.4,0.4,0.8,0.6,1.4,0.6s1-0.2,1.4-0.6
		c0.4-0.4,0.6-0.9,0.6-1.7s-0.2-1.3-0.6-1.7S36.4,30,35.9,30S34.9,30.2,34.5,30.6z"/>
	<path class="st1" d="M46.9,28.8c0.6,0.3,1.1,0.8,1.4,1.4c0.3,0.6,0.5,1.3,0.5,2.1s-0.2,1.5-0.5,2.1s-0.8,1.1-1.4,1.4
		c-0.6,0.3-1.3,0.5-2,0.5s-1.4-0.2-2-0.5c-0.6-0.3-1.1-0.8-1.4-1.4s-0.5-1.3-0.5-2.1s0.2-1.5,0.5-2.1c0.3-0.6,0.8-1.1,1.4-1.4
		s1.3-0.5,2-0.5S46.3,28.5,46.9,28.8z M43.4,30.6c-0.4,0.4-0.6,0.9-0.6,1.7s0.2,1.3,0.6,1.7c0.4,0.4,0.8,0.6,1.4,0.6s1-0.2,1.4-0.6
		c0.4-0.4,0.6-0.9,0.6-1.7s-0.2-1.3-0.6-1.7S45.4,30,44.8,30S43.8,30.2,43.4,30.6z"/>
	<path class="st1" d="M55.2,29c0.6,0.5,0.9,1.1,1.1,1.9h-1.8c-0.1-0.4-0.2-0.7-0.5-0.9c-0.3-0.2-0.6-0.3-1-0.3
		c-0.3,0-0.6,0.1-0.8,0.2c-0.2,0.2-0.3,0.4-0.3,0.6c0,0.2,0.1,0.4,0.2,0.5s0.3,0.2,0.6,0.3s0.5,0.2,1,0.3c0.6,0.1,1.1,0.3,1.4,0.4
		c0.4,0.1,0.7,0.4,1,0.7s0.4,0.7,0.4,1.3c0,0.7-0.3,1.2-0.8,1.6c-0.5,0.4-1.2,0.6-2.1,0.6c-1,0-1.8-0.2-2.4-0.7
		c-0.6-0.5-1-1.1-1.1-1.9h1.9c0,0.4,0.2,0.7,0.5,0.9c0.3,0.2,0.7,0.3,1.1,0.3c0.3,0,0.6-0.1,0.8-0.2c0.2-0.2,0.3-0.4,0.3-0.6
		c0-0.2-0.1-0.4-0.2-0.5c-0.2-0.1-0.3-0.2-0.6-0.3s-0.6-0.2-1-0.3c-0.6-0.1-1-0.3-1.4-0.4c-0.4-0.1-0.7-0.4-0.9-0.7
		c-0.3-0.3-0.4-0.7-0.4-1.2c0-0.7,0.3-1.2,0.8-1.6s1.2-0.6,2.1-0.6C53.8,28.3,54.6,28.6,55.2,29z"/>
	<path class="st1" d="M65,32.7h-5.7c0,0.7,0.2,1.2,0.6,1.5c0.3,0.3,0.8,0.5,1.3,0.5c0.5,0,0.8-0.1,1.1-0.3c0.3-0.2,0.5-0.5,0.6-0.9
		H65c-0.1,0.5-0.3,1-0.7,1.5c-0.3,0.4-0.8,0.8-1.3,1c-0.5,0.2-1.1,0.4-1.8,0.4c-0.8,0-1.4-0.2-2-0.5c-0.6-0.3-1-0.8-1.4-1.4
		c-0.3-0.6-0.5-1.3-0.5-2.1s0.2-1.5,0.5-2.1c0.3-0.6,0.8-1.1,1.4-1.4c0.6-0.3,1.3-0.5,2-0.5c0.8,0,1.4,0.2,2,0.5
		c0.6,0.3,1,0.8,1.3,1.3c0.3,0.6,0.5,1.2,0.5,1.9C65.1,32.2,65.1,32.4,65,32.7z M62.6,30.4c-0.4-0.3-0.8-0.5-1.3-0.5
		c-0.5,0-1,0.2-1.3,0.5c-0.4,0.3-0.6,0.8-0.6,1.4h3.8C63.1,31.2,63,30.7,62.6,30.4z"/>
	<path class="st1" d="M74.3,28.8c0.5,0.3,0.8,0.7,1,1.2v-1.6h2v7.8h-2v-1.6c-0.2,0.5-0.5,0.9-1,1.3c-0.5,0.3-1,0.5-1.7,0.5
		s-1.2-0.2-1.8-0.5c-0.5-0.3-0.9-0.8-1.2-1.4s-0.4-1.3-0.4-2.1s0.1-1.5,0.4-2.1c0.3-0.6,0.7-1.1,1.2-1.4c0.5-0.3,1.1-0.5,1.8-0.5
		S73.8,28.5,74.3,28.8z M71.7,30.7c-0.4,0.4-0.6,1-0.6,1.7s0.2,1.2,0.6,1.6c0.4,0.4,0.9,0.6,1.5,0.6c0.6,0,1.1-0.2,1.5-0.6
		c0.4-0.4,0.6-1,0.6-1.6c0-0.7-0.2-1.2-0.6-1.6c-0.4-0.4-0.9-0.6-1.5-0.6C72.6,30.1,72.1,30.3,71.7,30.7z"/>
	<path class="st1" d="M85.8,29.2c0.5,0.6,0.8,1.4,0.8,2.5v4.5h-2v-4.3c0-0.6-0.2-1.1-0.5-1.4S83.4,30,82.8,30c-0.6,0-1,0.2-1.3,0.5
		S81,31.4,81,32.1v4.1h-2v-7.8h2V30c0.2-0.5,0.5-0.9,1-1.2c0.5-0.3,1-0.4,1.6-0.4C84.5,28.3,85.2,28.6,85.8,29.2z"/>
	<path class="st1" d="M97,28.8c0.6,0.3,1.1,0.8,1.4,1.4c0.3,0.6,0.5,1.3,0.5,2.1s-0.2,1.5-0.5,2.1C98,35,97.6,35.5,97,35.8
		c-0.6,0.3-1.3,0.5-2,0.5c-0.8,0-1.4-0.2-2-0.5c-0.6-0.3-1.1-0.8-1.4-1.4c-0.3-0.6-0.5-1.3-0.5-2.1s0.2-1.5,0.5-2.1
		c0.3-0.6,0.8-1.1,1.4-1.4c0.6-0.3,1.3-0.5,2-0.5C95.7,28.3,96.4,28.5,97,28.8z M93.5,30.6C93.1,31,93,31.6,93,32.3s0.2,1.3,0.6,1.7
		c0.4,0.4,0.8,0.6,1.4,0.6c0.5,0,1-0.2,1.4-0.6c0.4-0.4,0.6-0.9,0.6-1.7s-0.2-1.3-0.6-1.7S95.5,30,94.9,30
		C94.4,30,93.9,30.2,93.5,30.6z"/>
	<path class="st1" d="M106.7,28.8c0.5,0.3,0.9,0.8,1.2,1.4c0.3,0.6,0.4,1.3,0.4,2.1s-0.1,1.5-0.4,2.1c-0.3,0.6-0.7,1.1-1.2,1.4
		s-1.1,0.5-1.8,0.5s-1.2-0.2-1.7-0.5c-0.5-0.3-0.8-0.7-1-1.3v5.3h-2V28.4h2V30c0.2-0.5,0.5-0.9,1-1.2c0.5-0.3,1-0.5,1.7-0.5
		S106.2,28.5,106.7,28.8z M102.8,30.7c-0.4,0.4-0.6,1-0.6,1.6c0,0.7,0.2,1.2,0.6,1.6c0.4,0.4,0.9,0.6,1.5,0.6c0.6,0,1.1-0.2,1.5-0.6
		c0.4-0.4,0.6-0.9,0.6-1.6s-0.2-1.3-0.6-1.7c-0.4-0.4-0.9-0.6-1.5-0.6C103.7,30.1,103.2,30.3,102.8,30.7z"/>
	<path class="st1" d="M113.9,34.5v1.7h-1c-0.9,0-1.5-0.2-2-0.6s-0.7-1.1-0.7-2.1v-3.4h-1.1v-1.7h1.1v-1.9h2v1.9h1.7v1.7h-1.7v3.4
		c0,0.4,0.1,0.6,0.2,0.8s0.4,0.2,0.8,0.2H113.9z"/>
	<path class="st1" d="M115.4,25.4c0.2-0.2,0.5-0.3,0.9-0.3c0.4,0,0.7,0.1,0.9,0.3c0.2,0.2,0.3,0.5,0.3,0.8c0,0.3-0.1,0.6-0.3,0.8
		c-0.2,0.2-0.5,0.3-0.9,0.3c-0.4,0-0.7-0.1-0.9-0.3c-0.2-0.2-0.3-0.5-0.3-0.8C115.1,25.9,115.2,25.6,115.4,25.4z M117.3,28.4v7.8h-2
		v-7.8H117.3z"/>
	<path class="st1" d="M124.7,28.8c0.6,0.3,1.1,0.8,1.4,1.4c0.3,0.6,0.5,1.3,0.5,2.1s-0.2,1.5-0.5,2.1c-0.3,0.6-0.8,1.1-1.4,1.4
		c-0.6,0.3-1.3,0.5-2,0.5c-0.8,0-1.4-0.2-2-0.5c-0.6-0.3-1.1-0.8-1.4-1.4c-0.3-0.6-0.5-1.3-0.5-2.1s0.2-1.5,0.5-2.1
		c0.3-0.6,0.8-1.1,1.4-1.4c0.6-0.3,1.3-0.5,2-0.5C123.4,28.3,124.1,28.5,124.7,28.8z M121.3,30.6c-0.4,0.4-0.6,0.9-0.6,1.7
		s0.2,1.3,0.6,1.7c0.4,0.4,0.8,0.6,1.4,0.6c0.5,0,1-0.2,1.4-0.6c0.4-0.4,0.6-0.9,0.6-1.7s-0.2-1.3-0.6-1.7s-0.8-0.6-1.4-0.6
		C122.1,30,121.7,30.2,121.3,30.6z"/>
	<path class="st1" d="M134.8,29.2c0.5,0.6,0.8,1.4,0.8,2.5v4.5h-2v-4.3c0-0.6-0.2-1.1-0.5-1.4s-0.8-0.5-1.3-0.5
		c-0.6,0-1,0.2-1.3,0.5s-0.5,0.9-0.5,1.6v4.1h-2v-7.8h2V30c0.2-0.5,0.5-0.9,1-1.2c0.5-0.3,1-0.4,1.6-0.4
		C133.6,28.3,134.3,28.6,134.8,29.2z"/>
</g>
<line class="st2" x1="464.6" y1="-5.8" x2="464" y2="-5.8"/>
<g>
	<line class="st3" x1="203" y1="30" x2="208" y2="35"/>
	<line class="st3" x1="211.6" y1="30" x2="206.6" y2="35"/>
</g>
</svg>
