<svg xmlns="http://www.w3.org/2000/svg" xmlns:xlink="http://www.w3.org/1999/xlink" viewBox="0 0 743.41 65.64"><defs><style>.cls-1{fill:url(#linear-gradient);}.cls-2{fill:#fff;}.cls-3{fill:#ff3131;}.cls-4{fill:#00005b;}.cls-5{fill:#99f;}.cls-6{fill:url(#linear-gradient-2);}.cls-7{fill:url(#linear-gradient-3);}.cls-8{fill:none;stroke:#000;stroke-miterlimit:10;}</style><linearGradient id="linear-gradient" x1="-6448.78" y1="6380.7" x2="-6448.38" y2="6380.44" gradientTransform="matrix(156.24, 0, 0, -156.64, 1007737.24, 999510.12)" gradientUnits="userSpaceOnUse"><stop offset="0" stop-color="#2beaed"/><stop offset="1" stop-color="#0fccce"/></linearGradient><linearGradient id="linear-gradient-2" x1="445.23" y1="36.74" x2="491.98" y2="-27.42" gradientUnits="userSpaceOnUse"><stop offset="0.09" stop-color="#0089f7"/><stop offset="0.92" stop-color="#0dc7ff"/></linearGradient><linearGradient id="linear-gradient-3" x1="483.48" y1="60.3" x2="529.79" y2="11.09" gradientUnits="userSpaceOnUse"><stop offset="0" stop-color="#0089f7"/><stop offset="1" stop-color="#0dc7ff"/></linearGradient></defs><g id="Layer_3" data-name="Layer 3"><rect id="Rectangle" class="cls-1" x="213.35" width="65.46" height="65.64" rx="5.32"/><path id="path" class="cls-2" d="M263.24,12.92a3.29,3.29,0,0,1-1,6.51C259.09,19,254.33,23.91,249,34.1c-6.81,13-13.15,19.19-19.82,18.7a3.29,3.29,0,0,1,.48-6.57c3.3.25,8.14-4.92,13.52-15.19C250,18,256.45,11.91,263.24,12.92Z"/><path class="cls-3" d="M723.11,2.06A19.44,19.44,0,0,0,712,5.57c-3.38,2.2-5.31,5.28-6.77,7.47a22.85,22.85,0,0,0-6.77-7,18,18,0,0,0-11.12-3.95A19.86,19.86,0,0,0,667,22.27c0,12.31,11.13,20.66,27.57,33.84,2.9,2.2,5.8,4.83,9.18,7.47h1.45a1.91,1.91,0,0,0,1.46-.44c3.38-2.64,6.28-5.27,9.18-7.47,16.44-12.74,27.56-21.09,27.56-33.84C743.41,10.85,734.71,2.06,723.11,2.06Z"/><g id="vlpa"><g id="vlpb"><g id="vlpc"><g id="vlpd"><path class="cls-4" d="M11.92,0H55.4A11.91,11.91,0,0,1,67.32,11.92v41.8A11.91,11.91,0,0,1,55.4,65.64H11.92A11.91,11.91,0,0,1,0,53.72V11.92A11.91,11.91,0,0,1,11.92,0Z"/></g></g></g><g id="vlpe"><g id="vlpf"><path class="cls-5" d="M27,39.27H16.61l-2.14,6.62a.48.48,0,0,1-.53.39H8.67c-.31,0-.4-.17-.31-.5l9-25.89c.08-.28.17-.54.28-.87a10,10,0,0,0,.17-1.83.26.26,0,0,1,.22-.3h7.27c.2,0,.34.08.36.22L35.93,45.72c.09.31,0,.45-.28.45H29.79a.42.42,0,0,1-.45-.31L27,39.13Zm-8.81-5.58h7.13c-.17-.59-.4-1.29-.65-2s-.5-1.57-.76-2.41-.53-1.72-.81-2.58-.53-1.69-.76-2.5S22,22.66,21.77,22h-.06a34.5,34.5,0,0,1-.95,3.62c-.42,1.35-.84,2.75-1.29,4.15S18.65,32.51,18.23,33.69Z"/><path class="cls-5" d="M52.45,36.75H43.56a6.14,6.14,0,0,0,.87,2.49,4.42,4.42,0,0,0,2,1.68,8.78,8.78,0,0,0,3.59.71A17.86,17.86,0,0,0,53,41.32a10.72,10.72,0,0,0,2.49-.65c.14-.11.23-.05.23.23v4.29a1.28,1.28,0,0,1-.06.33.64.64,0,0,1-.2.2,12.08,12.08,0,0,1-2.8.84,19,19,0,0,1-4,.34,13.38,13.38,0,0,1-5.39-1,9.46,9.46,0,0,1-3.53-2.67,10.22,10.22,0,0,1-1.94-3.67A14.55,14.55,0,0,1,37.92,31,11.39,11.39,0,0,1,40,27.18a10,10,0,0,1,3.39-2.66,10.54,10.54,0,0,1,4.69-.87,10,10,0,0,1,4.34.87,7.73,7.73,0,0,1,2.95,2.24A10.1,10.1,0,0,1,57.08,30a10.85,10.85,0,0,1,.53,3.42c0,.67,0,1.26,0,1.79s-.09.93-.11,1.18a.43.43,0,0,1-.4.37l-.92.05a12.43,12.43,0,0,1-1.63.09c-.64,0-1.32-.11-2-.11Zm-8.89-4.1h5.92c.73,0,1.26,0,1.6,0a1.36,1.36,0,0,0,.64-.22v-.28a3.28,3.28,0,0,0-.16-1,3.72,3.72,0,0,0-3.65-2.58,3.94,3.94,0,0,0-3.73,2.13A5.91,5.91,0,0,0,43.56,32.65Z"/></g></g></g><path class="cls-6" d="M464.9,31.4A21.11,21.11,0,0,0,469.68,29,14.11,14.11,0,0,0,472.94,26a12.09,12.09,0,0,0,1.86-3.62,13.63,13.63,0,0,0,.59-4,17.73,17.73,0,0,0-1.29-6.89A12.6,12.6,0,0,0,470,6.2a20.56,20.56,0,0,0-7.31-3.34,43.05,43.05,0,0,0-10.87-1.19H429.12V63.29h24.62a31.68,31.68,0,0,0,9.85-1.42,21.08,21.08,0,0,0,7.25-3.93A16.67,16.67,0,0,0,475.3,52a17.59,17.59,0,0,0,1.53-7.32,12.45,12.45,0,0,0-2.92-8.52Q471,32.89,464.9,31.4Zm-21.48-19h8.37a20.17,20.17,0,0,1,4.17.38A7.24,7.24,0,0,1,458.85,14a5.16,5.16,0,0,1,1.69,2.35,10.37,10.37,0,0,1,.55,3.66,8.67,8.67,0,0,1-.7,3.72,5.33,5.33,0,0,1-2,2.32,8.76,8.76,0,0,1-3.23,1.19,25.06,25.06,0,0,1-4.27.34h-7.44Zm18.9,35a6.16,6.16,0,0,1-1.4,2.58,7.27,7.27,0,0,1-2.81,1.86,12.4,12.4,0,0,1-4.63.72H443.42V37.15h10a16.54,16.54,0,0,1,4.48.51,7.41,7.41,0,0,1,2.85,1.44,5.07,5.07,0,0,1,1.53,2.28,9.94,9.94,0,0,1,.44,3A11.45,11.45,0,0,1,462.32,47.34Z"/><path class="cls-7" d="M518.21,43.5a1.82,1.82,0,0,0,.91-.76,3.85,3.85,0,0,0,.46-1.49,17.38,17.38,0,0,0,.13-2.41,23.22,23.22,0,0,0-1.46-8.47A18,18,0,0,0,514.19,24,17.28,17.28,0,0,0,508,20.11a24.32,24.32,0,0,0-17,.38,20.18,20.18,0,0,0-11.12,11.59,23.17,23.17,0,0,0-1.5,8.33,27.47,27.47,0,0,0,1.75,10.23A21,21,0,0,0,484.88,58,19.91,19.91,0,0,0,492,62.46a24.6,24.6,0,0,0,8.64,1.5,37.36,37.36,0,0,0,4.72-.31,26,26,0,0,0,4.95-1.14,23.26,23.26,0,0,0,4.82-2.29,19.41,19.41,0,0,0,4.37-3.78l-3.8-4.7a2.72,2.72,0,0,0-2.37-1.14,5,5,0,0,0-2.26.55l-2.37,1.23a19.28,19.28,0,0,1-2.94,1.22,12.38,12.38,0,0,1-3.93.55,9.93,9.93,0,0,1-7-2.47q-2.71-2.48-3.34-8h25.29A4.3,4.3,0,0,0,518.21,43.5Zm-26.63-7.4a11.23,11.23,0,0,1,2.8-6.16,7.89,7.89,0,0,1,5.87-2.13,8.19,8.19,0,0,1,3.6.72,6.63,6.63,0,0,1,2.39,1.88,7.27,7.27,0,0,1,1.31,2.64,11.5,11.5,0,0,1,.4,3.05Z"/><line class="cls-8" x1="118.22" y1="32.82" x2="162.45" y2="32.82"/><line class="cls-8" x1="331.86" y1="32.82" x2="376.08" y2="32.82"/><line class="cls-8" x1="571.25" y1="32.82" x2="615.47" y2="32.82"/><polyline class="cls-8" points="609.11 26.46 615.47 32.82 609.11 39.18"/></g></svg>