<svg xmlns="http://www.w3.org/2000/svg" xmlns:xlink="http://www.w3.org/1999/xlink" viewBox="0 0 520 337.04"><defs><style>.cls-1{fill:#f5fcf9;}.cls-2{fill:#0f0f0f;}.cls-17,.cls-3,.cls-5{fill:#fff;}.cls-4{fill:#1b1b1c;}.cls-5{opacity:0.2;}.cls-6,.cls-7{fill:#a3b5c1;}.cls-6{opacity:0.6;}.cls-7{opacity:0.3;}.cls-8{fill:url(#linear-gradient);}.cls-9{fill:url(#linear-gradient-2);}.cls-10{fill:url(#linear-gradient-3);}.cls-11{fill:url(#linear-gradient-4);}.cls-12{fill:url(#linear-gradient-5);}.cls-13{fill:url(#linear-gradient-6);}.cls-14{fill:#28272a;}.cls-15{fill:#3f3e42;}.cls-16{fill:none;stroke-linecap:round;stroke-linejoin:round;}.cls-16,.cls-17{stroke:#fff;stroke-width:2px;}.cls-17{stroke-miterlimit:10;}</style><linearGradient id="linear-gradient" x1="16.85" y1="35.64" x2="64.27" y2="35.64" gradientUnits="userSpaceOnUse"><stop offset="0" stop-color="#2beaed"/><stop offset="1" stop-color="#0fccce"/></linearGradient><linearGradient id="linear-gradient-2" x1="152.61" y1="142.79" x2="225.74" y2="142.79" xlink:href="#linear-gradient"/><linearGradient id="linear-gradient-3" x1="359.46" y1="191.2" x2="435.61" y2="191.2" xlink:href="#linear-gradient"/><linearGradient id="linear-gradient-4" x1="287.73" y1="99.18" x2="333.85" y2="99.18" xlink:href="#linear-gradient"/><linearGradient id="linear-gradient-5" x1="232.98" y1="159.2" x2="269.64" y2="159.2" xlink:href="#linear-gradient"/><linearGradient id="linear-gradient-6" x1="247.24" y1="248.69" x2="303.48" y2="248.69" xlink:href="#linear-gradient"/></defs><g id="Layer_3" data-name="Layer 3"><path class="cls-1" d="M21.87,247.09A21.4,21.4,0,0,1,.5,225.71V16.35H377.85V225.71a21.39,21.39,0,0,1-21.37,21.38Z"/><path class="cls-2" d="M377.35,16.85V225.71a20.87,20.87,0,0,1-20.87,20.88H21.87A20.87,20.87,0,0,1,1,225.71V16.85H377.35m1-1H0V225.71a21.9,21.9,0,0,0,21.87,21.88H356.48a21.9,21.9,0,0,0,21.87-21.88V15.85Z"/><rect class="cls-3" x="0.9" y="16.75" width="376.55" height="37.78"/><path d="M377.35,16.85V54.43H1V16.85H377.35m.2-.2H.8v38H377.55v-38Z"/><g id="builder-bar-area"><path class="cls-4" d="M.5,17.35V6.81A6.32,6.32,0,0,1,6.81.5h360a11.07,11.07,0,0,1,11.06,11.07v5.78Z"/><path class="cls-2" d="M366.79,1a10.56,10.56,0,0,1,10.56,10.57v5.28H1v-10A5.81,5.81,0,0,1,6.81,1h360m0-1H6.81A6.81,6.81,0,0,0,0,6.81v11H378.35V11.57A11.58,11.58,0,0,0,366.79,0Z"/></g><circle class="cls-5" cx="10.55" cy="8.92" r="2.2"/><circle class="cls-5" cx="18.47" cy="8.92" r="2.2"/><circle class="cls-5" cx="26.4" cy="8.92" r="2.2"/><rect class="cls-6" x="235.22" y="34.53" width="23.2" height="2.22" rx="1.05"/><rect class="cls-6" x="268.99" y="34.53" width="14.75" height="2.22" rx="1.05"/><rect class="cls-6" x="294.3" y="34.53" width="23.18" height="2.22" rx="1.05"/><circle class="cls-7" cx="333.76" cy="35.64" r="5.72"/><circle class="cls-7" cx="355.76" cy="35.64" r="5.72"/><rect class="cls-8" x="16.85" y="31.64" width="47.42" height="7.99" rx="3.76"/><path id="path" class="cls-9" d="M220.6,106.33a6,6,0,0,1-1.76,11.93c-5.83-.86-14.56,8.21-24.33,26.87C182,169,170.42,180.3,158.19,179.4a6,6,0,0,1,.89-12c6,.45,14.9-9,24.77-27.84C196.4,115.56,208.17,104.49,220.6,106.33Z"/><rect class="cls-1" x="276.08" y="83.23" width="242.92" height="188.46" rx="17"/><path class="cls-2" d="M502,84.23a16,16,0,0,1,16,16V254.69a16,16,0,0,1-16,16H293.08a16,16,0,0,1-16-16V100.23a16,16,0,0,1,16-16H502m0-2H293.08a18,18,0,0,0-18,18V254.69a18,18,0,0,0,18,18H502a18,18,0,0,0,18-18V100.23a18,18,0,0,0-18-18Z"/><path id="path-2" data-name="path" class="cls-10" d="M430.26,153.24a6.28,6.28,0,0,1-1.84,12.42c-6.06-.9-15.15,8.55-25.33,28-13,24.81-25.09,36.63-37.82,35.68a6.28,6.28,0,0,1,.93-12.52c6.28.46,15.52-9.39,25.79-29C405.06,162.84,417.32,151.32,430.26,153.24Z"/><path class="cls-3" d="M277,114.14V100.23a16.12,16.12,0,0,1,16.1-16.1H502a16.12,16.12,0,0,1,16.1,16.1v13.91Z"/><path d="M502,84.23a16,16,0,0,1,16,16V114H277.08V100.23a16,16,0,0,1,16-16H502m0-.2H293.08a16.22,16.22,0,0,0-16.2,16.2v14H518.2v-14A16.22,16.22,0,0,0,502,84Z"/><rect class="cls-6" x="379.91" y="98.1" width="22.57" height="2.16" rx="1.02"/><rect class="cls-6" x="412.75" y="98.1" width="14.35" height="2.16" rx="1.02"/><rect class="cls-6" x="437.38" y="98.1" width="22.55" height="2.16" rx="1.02"/><circle class="cls-7" cx="475.76" cy="99.18" r="5.56"/><circle class="cls-7" cx="497.16" cy="99.18" r="5.56"/><rect class="cls-11" x="287.73" y="95.29" width="46.12" height="7.77" rx="3.66"/><rect class="cls-1" x="220.91" y="135.26" width="108.9" height="200.28" rx="21.5"/><path class="cls-2" d="M308.31,136.76a20,20,0,0,1,20,20V314a20,20,0,0,1-20,20h-65.9a20,20,0,0,1-20-20V156.76a20,20,0,0,1,20-20h65.9m0-3h-65.9a23,23,0,0,0-23,23V314a23,23,0,0,0,23,23h65.9a23,23,0,0,0,23-23V156.76a23,23,0,0,0-23-23Z"/><path class="cls-3" d="M222.31,173.26V156.83a20.13,20.13,0,0,1,20.1-20.1h65.9a20.13,20.13,0,0,1,20.1,20.1v16.43Z"/><path d="M308.31,136.83a20,20,0,0,1,20,20v16.33H222.41V156.83a20,20,0,0,1,20-20h65.9m0-.2h-65.9a20.23,20.23,0,0,0-20.2,20.2v16.53h106.3V156.83a20.23,20.23,0,0,0-20.2-20.2Z"/><path class="cls-4" d="M289.71,146.07H261a9.2,9.2,0,0,1-9.2-9.2v-.56H298.9v.56A9.19,9.19,0,0,1,289.71,146.07Z"/><circle class="cls-7" cx="293.43" cy="159.2" r="5.56"/><circle class="cls-7" cx="312.19" cy="159.2" r="5.56"/><rect class="cls-12" x="232.98" y="155.31" width="36.66" height="7.77" rx="3.66"/><path id="path-3" data-name="path" class="cls-13" d="M299.53,220.65a4.64,4.64,0,0,1-1.36,9.17c-4.48-.66-11.19,6.32-18.71,20.67-9.59,18.32-18.53,27.05-27.93,26.35a4.64,4.64,0,0,1,.68-9.25c4.65.35,11.47-6.93,19-21.41C280.92,227.74,290,219.23,299.53,220.65Z"/><rect class="cls-14" x="70.6" y="266.3" width="129.19" height="53.68" rx="10"/><rect class="cls-15" x="81.08" y="276.87" width="32.55" height="32.55" rx="2.06"/><rect class="cls-15" x="118.92" y="276.87" width="32.55" height="32.55" rx="2.06"/><path class="cls-16" d="M130.32,289.91h9.75a1.36,1.36,0,0,1,1.31,1.4v6.19a1.36,1.36,0,0,1-1.31,1.41h-9.75A1.36,1.36,0,0,1,129,297.5v-6.19A1.35,1.35,0,0,1,130.32,289.91Z"/><path class="cls-16" d="M91.54,287.38h11.64a.88.88,0,0,1,.9.87v6.9a.88.88,0,0,1-.9.87H91.54a.88.88,0,0,1-.9-.87v-6.9A.88.88,0,0,1,91.54,287.38Z"/><line class="cls-16" x1="93.52" y1="298.91" x2="101.2" y2="298.91"/><path class="cls-17" d="M99.28,297.48a1.53,1.53,0,0,0,.67,1.21l.29.22H94.48l.29-.22a1.53,1.53,0,0,0,.67-1.21V296h3.84Z"/><rect class="cls-15" x="156.32" y="276.87" width="32.55" height="32.55" rx="2.06"/><path class="cls-16" d="M169.72,297.77v-7.33a1,1,0,0,1,.9-1.14h4a1,1,0,0,1,.9,1.14v7.33a1,1,0,0,1-.9,1.14h-4A1,1,0,0,1,169.72,297.77Z"/><circle class="cls-3" cx="172.6" cy="296.02" r="0.96"/></g></svg>