<svg xmlns="http://www.w3.org/2000/svg" xmlns:xlink="http://www.w3.org/1999/xlink" viewBox="0 0 520 340"><defs><style>.cls-1{fill:#2d2c2f;}.cls-2{fill:#363538;}.cls-3{fill:#242326;}.cls-4{fill:#585a63;opacity:0.5;}.cls-4,.cls-5{stroke:#79797c;}.cls-4,.cls-5,.cls-8{stroke-miterlimit:10;}.cls-5{fill:#151516;}.cls-6{fill:#5a87bd;}.cls-7{font-size:16.73px;font-family:MyriadPro-Regular, Myriad Pro;}.cls-17,.cls-18,.cls-7{fill:#fff;}.cls-8{fill:none;stroke:#fff;}.cls-9{letter-spacing:-0.01em;}.cls-10{letter-spacing:-0.08em;}.cls-11{letter-spacing:0em;}.cls-12{letter-spacing:0em;}.cls-13{letter-spacing:0.02em;}.cls-14{letter-spacing:0em;}.cls-15{fill:url(#linear-gradient);}.cls-16{fill:url(#linear-gradient-2);}.cls-17{opacity:0.1;}</style><linearGradient id="linear-gradient" x1="26.56" y1="31.34" x2="47.79" y2="2.2" gradientUnits="userSpaceOnUse"><stop offset="0.09" stop-color="#0089f7"/><stop offset="0.92" stop-color="#0dc7ff"/></linearGradient><linearGradient id="linear-gradient-2" x1="43.93" y1="42.05" x2="64.97" y2="19.69" gradientUnits="userSpaceOnUse"><stop offset="0" stop-color="#0089f7"/><stop offset="1" stop-color="#0dc7ff"/></linearGradient></defs><g id="Layer_3" data-name="Layer 3"><path class="cls-1" d="M80.95,0H496.33A23.67,23.67,0,0,1,520,23.67V294.44a23.67,23.67,0,0,1-23.67,23.67H80.95a0,0,0,0,1,0,0V0A0,0,0,0,1,80.95,0Z"/><path class="cls-2" d="M23.67,0H80.95a0,0,0,0,1,0,0V318.11a0,0,0,0,1,0,0H23.67A23.67,23.67,0,0,1,0,294.44V23.67A23.67,23.67,0,0,1,23.67,0Z"/><rect class="cls-3" x="78.74" width="2.21" height="318.11"/><rect class="cls-4" x="194.03" y="66.99" width="294.99" height="12.36" rx="6.09"/><rect class="cls-5" x="104.03" y="53.11" width="67.89" height="40.13" rx="8"/><circle class="cls-6" cx="304.55" cy="73.17" r="15.98"/><text class="cls-7" transform="translate(118.92 78.05)">6</text><polyline class="cls-8" points="158.49 76.49 155.92 79.06 153.36 76.49"/><polyline class="cls-8" points="158.49 69.86 155.92 67.29 153.36 69.86"/><circle class="cls-1" cx="304.55" cy="73.17" r="6.18"/><rect class="cls-4" x="194.03" y="168.19" width="294.99" height="12.36" rx="6.09"/><circle class="cls-6" cx="201.63" cy="174.37" r="15.98"/><rect class="cls-5" x="104.03" y="154.3" width="67.89" height="40.13" rx="8"/><text class="cls-7" transform="translate(118.92 179.24)">1</text><polyline class="cls-8" points="158.49 177.68 155.92 180.25 153.36 177.68"/><polyline class="cls-8" points="158.49 171.05 155.92 168.48 153.36 171.05"/><circle class="cls-1" cx="201.63" cy="174.37" r="6.18"/><text class="cls-7" transform="translate(103.06 263.01)"><tspan class="cls-9">L</tspan><tspan x="7.66" y="0">oop</tspan></text><path class="cls-6" d="M205.84,238.7h56.71a0,0,0,0,1,0,0v40.13a0,0,0,0,1,0,0H205.84a11.18,11.18,0,0,1-11.18-11.18V249.88a11.18,11.18,0,0,1,11.18-11.18Z"/><path class="cls-4" d="M262.54,238.7h56.71a11.18,11.18,0,0,1,11.18,11.18v17.77a11.18,11.18,0,0,1-11.18,11.18H262.54a0,0,0,0,1,0,0V238.7A0,0,0,0,1,262.54,238.7Z"/><text class="cls-7" transform="translate(216.48 263.01)"><tspan class="cls-10">Y</tspan><tspan x="7.78" y="0">es</tspan></text><text class="cls-7" transform="translate(285.04 263.01)">No</text><text class="cls-7" transform="translate(103.06 139.44)"><tspan class="cls-11">S</tspan><tspan class="cls-12" x="8.2" y="0">ta</tspan><tspan class="cls-13" x="21.8" y="0">r</tspan><tspan class="cls-12" x="27.67" y="0">t f</tspan><tspan class="cls-14" x="41.64" y="0">r</tspan><tspan x="47.03" y="0">ame</tspan></text><text class="cls-7" transform="translate(103.06 38.25)">Speed</text><path class="cls-15" d="M35.49,28.92a9.35,9.35,0,0,0,2.17-1.09,6,6,0,0,0,1.48-1.39A5.24,5.24,0,0,0,40,24.8,6.12,6.12,0,0,0,40.26,23a8.08,8.08,0,0,0-.59-3.13,5.73,5.73,0,0,0-1.87-2.38A9.55,9.55,0,0,0,34.48,16a19.6,19.6,0,0,0-4.94-.53H19.24v28H30.42a14.34,14.34,0,0,0,4.48-.64A9.7,9.7,0,0,0,38.19,41a7.54,7.54,0,0,0,2-2.68A8,8,0,0,0,40.91,35a5.64,5.64,0,0,0-1.32-3.87A7.72,7.72,0,0,0,35.49,28.92Zm-9.75-8.64h3.8a8.71,8.71,0,0,1,1.89.17,3.33,3.33,0,0,1,1.32.57,2.48,2.48,0,0,1,.77,1.07,4.92,4.92,0,0,1,.25,1.66,4,4,0,0,1-.32,1.69,2.5,2.5,0,0,1-.92,1.06,4.2,4.2,0,0,1-1.47.54,11.5,11.5,0,0,1-1.94.15H25.74Zm8.58,15.88a2.68,2.68,0,0,1-.63,1.17,3.3,3.3,0,0,1-1.28.85,5.66,5.66,0,0,1-2.1.32H25.74v-7h4.53a7.75,7.75,0,0,1,2,.23,3.34,3.34,0,0,1,1.29.66,2.19,2.19,0,0,1,.69,1,4.25,4.25,0,0,1,.21,1.38A5,5,0,0,1,34.32,36.16Z"/><path class="cls-16" d="M59.71,34.41a.8.8,0,0,0,.41-.34,1.82,1.82,0,0,0,.21-.68,8,8,0,0,0,.06-1.09,10.57,10.57,0,0,0-.66-3.85,8.26,8.26,0,0,0-1.85-2.87,8,8,0,0,0-2.82-1.79,11.11,11.11,0,0,0-7.72.17,9.23,9.23,0,0,0-5.06,5.27A10.6,10.6,0,0,0,41.6,33a12.51,12.51,0,0,0,.8,4.65A9.57,9.57,0,0,0,44.57,41a9.13,9.13,0,0,0,3.21,2,11.27,11.27,0,0,0,3.93.68,18,18,0,0,0,2.14-.14,12.19,12.19,0,0,0,2.25-.52,10.9,10.9,0,0,0,2.19-1,8.8,8.8,0,0,0,2-1.72l-1.73-2.13a1.21,1.21,0,0,0-1.07-.52,2.21,2.21,0,0,0-1,.25l-1.07.56A9.33,9.33,0,0,1,54,39a5.56,5.56,0,0,1-1.79.25,4.52,4.52,0,0,1-3.17-1.12,5.61,5.61,0,0,1-1.51-3.62H59A1.86,1.86,0,0,0,59.71,34.41Zm-12.1-3.36a5.08,5.08,0,0,1,1.27-2.79,3.57,3.57,0,0,1,2.67-1,3.87,3.87,0,0,1,1.64.32,3.1,3.1,0,0,1,1.08.86,3.39,3.39,0,0,1,.6,1.2,5.33,5.33,0,0,1,.18,1.38Z"/><circle class="cls-17" cx="40.47" cy="126.92" r="11.84"/><circle class="cls-17" cx="40.47" cy="166.38" r="11.84"/><circle class="cls-17" cx="40.47" cy="205.85" r="11.84"/><polygon class="cls-18" points="254.53 313.47 242.19 325.39 242.19 266.5 285.11 309.42 267.35 309.42 276.36 330.88 264.01 336.06 254.53 313.47"/><path d="M244.69,272.54l34.38,34.38H263.59l9.49,22.62-7.73,3.25-9.93-23.66L244.69,319.5v-47m-5-12.07v70.82l8.48-8.2,5.47-5.28,7.1,16.91,1.94,4.61,4.61-1.93,7.73-3.25,4.61-1.93-1.93-4.61-6.59-15.69h20l-8.54-8.53L248.23,269l-8.54-8.53Z"/></g></svg>