<svg xmlns="http://www.w3.org/2000/svg" viewBox="0 0 520 340"><defs><style>.cls-1{fill:#e8f6f9;}.cls-2{fill:#0f0f0f;}.cls-3,.cls-5{fill:#fff;}.cls-4{fill:#1b1b1c;}.cls-5,.cls-9{opacity:0.2;}.cls-6,.cls-7,.cls-8{fill:#a3b5c1;}.cls-6{opacity:0.6;}.cls-7{opacity:0.3;}.cls-9{fill:#93bbe2;}.cls-10,.cls-11,.cls-12,.cls-13,.cls-14,.cls-15,.cls-16,.cls-17,.cls-18,.cls-19,.cls-20,.cls-21{fill:#f2276a;}.cls-10{opacity:0.1;}.cls-11{opacity:0.18;}.cls-12{opacity:0.26;}.cls-13{opacity:0.35;}.cls-14{opacity:0.43;}.cls-15{opacity:0.51;}.cls-16{opacity:0.59;}.cls-17{opacity:0.67;}.cls-18{opacity:0.75;}.cls-19{opacity:0.84;}.cls-20{opacity:0.92;}</style></defs><g id="Layer_3" data-name="Layer 3"><path class="cls-1" d="M22.87,339A21.89,21.89,0,0,1,1,317.13V22.94H519V317.13A21.89,21.89,0,0,1,497.13,339Z"/><path class="cls-2" d="M518,23.94V317.13A20.87,20.87,0,0,1,497.13,338H22.87A20.87,20.87,0,0,1,2,317.13V23.94H518m2-2H0V317.13A22.9,22.9,0,0,0,22.87,340H497.13A22.9,22.9,0,0,0,520,317.13V21.94Z"/><rect class="cls-3" x="1.9" y="23.84" width="516.2" height="52.2"/><path d="M518,23.94v52H2v-52H518m.2-.2H1.8v52.4H518.2V23.74Z"/><g id="builder-bar-area"><path class="cls-4" d="M1,24.94V10a9,9,0,0,1,9-9H503.4A15.63,15.63,0,0,1,519,16.63v8.31Z"/><path class="cls-2" d="M503.4,2A14.62,14.62,0,0,1,518,16.63v7.31H2V10a8,8,0,0,1,8-8H503.4m0-2H10A10,10,0,0,0,0,10v15.9H520V16.63A16.64,16.64,0,0,0,503.4,0Z"/></g><circle class="cls-5" cx="15.2" cy="13.29" r="3"/><circle class="cls-5" cx="26.14" cy="13.29" r="3"/><circle class="cls-5" cx="37.09" cy="13.29" r="3"/><rect class="cls-6" x="321.62" y="47.66" width="32.06" height="3.07" rx="1.53"/><rect class="cls-6" x="368.27" y="47.66" width="20.38" height="3.07" rx="1.53"/><rect class="cls-6" x="403.25" y="47.66" width="32.03" height="3.07" rx="1.53"/><circle class="cls-7" cx="457.77" cy="49.2" r="7.9"/><circle class="cls-7" cx="488.16" cy="49.2" r="7.9"/><rect class="cls-8" x="23.9" y="43.68" width="65.52" height="11.04" rx="5.52"/><rect class="cls-9" x="494.79" y="90.35" width="10" height="230" rx="4.46"/><rect class="cls-4" x="496.79" y="137.95" width="6" height="52" rx="3"/><circle class="cls-10" cx="138.68" cy="200.42" r="62.19"/><circle class="cls-11" cx="158.68" cy="200.42" r="62.19"/><circle class="cls-12" cx="178.67" cy="200.42" r="62.19"/><circle class="cls-13" cx="198.67" cy="200.42" r="62.19"/><circle class="cls-14" cx="218.67" cy="200.42" r="62.19"/><circle class="cls-15" cx="238.67" cy="200.42" r="62.19"/><circle class="cls-16" cx="258.66" cy="200.42" r="62.19"/><circle class="cls-17" cx="278.66" cy="200.42" r="62.19"/><circle class="cls-18" cx="298.66" cy="200.43" r="62.19"/><circle class="cls-19" cx="318.66" cy="200.43" r="62.19"/><circle class="cls-20" cx="338.65" cy="200.43" r="62.19"/><circle class="cls-21" cx="358.65" cy="200.43" r="62.19"/><polygon class="cls-3" points="382.38 262.33 365.27 278.87 365.27 198.11 424.17 257 399.52 257 412.37 287.61 395.9 294.53 382.38 262.33"/><path d="M368.27,205.35,416.92,254H395l13.44,32L397.5,290.6l-14.05-33.47L368.27,271.8V205.35m-6-14.49v95.08l10.17-9.83,8.87-8.57L392,292.92l2.32,5.54,5.54-2.33,10.94-4.59,5.53-2.32L414,283.69,404,260h27.38l-10.24-10.24-48.65-48.65-10.25-10.25Z"/></g></svg>