<svg xmlns="http://www.w3.org/2000/svg" viewBox="0 0 520 300"><defs><style>.cls-1{fill:#fff3f7;stroke:#ff83d0;stroke-miterlimit:10;stroke-width:3px;}.cls-2,.cls-3{fill:#d7e2ff;}.cls-2{opacity:0.3;}.cls-4{fill:#495caa;}</style></defs><g id="Layer_3" data-name="Layer 3"><path class="cls-1" d="M474.25,89.08A24.91,24.91,0,0,0,437.89,67a35.42,35.42,0,0,0-68.78,8.54,19.69,19.69,0,1,0-6,38.45h86.23A24.9,24.9,0,0,0,474.25,89.08Z"/><circle class="cls-2" cx="260" cy="150" r="148.84"/><circle class="cls-3" cx="260" cy="150" r="106.89"/><path id="path" class="cls-4" d="M293.2,111.48a6.37,6.37,0,0,1-1.86,12.61c-6.16-.91-15.38,8.67-25.71,28.38-13.18,25.17-25.45,37.16-38.37,36.2a6.37,6.37,0,0,1,.94-12.7c6.38.47,15.75-9.53,26.17-29.42C267.63,121.23,280.07,109.54,293.2,111.48Z"/><path class="cls-1" d="M374.49,264.92a16.87,16.87,0,0,0-7.2,1.6,29.05,29.05,0,0,0-39.74-23.68,50.5,50.5,0,0,0-97.22-12.9,39.66,39.66,0,0,0-65.56,20.91,25.25,25.25,0,1,0-11,48h220.7a17,17,0,0,0,0-33.92Z"/><path class="cls-1" d="M505.47,216.77a12.57,12.57,0,0,0-3.89.61,23,23,0,0,0-44.68-5.55,16.17,16.17,0,1,0-7.45,30.52h56a12.79,12.79,0,0,0,0-25.58Z"/><path class="cls-1" d="M18.35,136.82a16.59,16.59,0,0,1,5.74,1,38.89,38.89,0,0,1-.69-7.28,39.49,39.49,0,0,1,75-17.35,31,31,0,0,1,47.5,19.31A19.74,19.74,0,1,1,154.44,170H18.35a16.61,16.61,0,0,1,0-33.22Z"/></g></svg>